<?xml version="1.0" encoding="UTF-8"?>
<svg xmlns="http://www.w3.org/2000/svg" xmlns:xlink="http://www.w3.org/1999/xlink" width="32pt" height="32pt" viewBox="0 0 32 32" version="1.1">
<g id="surface1">
<path style=" stroke:none;fill-rule:nonzero;fill:rgb(0.392157%,0%,0.784314%);fill-opacity:1;" d="M 13.835938 12.257812 L 10.917969 12.257812 L 10.917969 11.515625 L 11.460938 11.515625 L 11.460938 11.292969 L 10.09375 11.292969 L 10.09375 11.515625 L 10.726562 11.515625 L 10.726562 12.257812 L 10.09375 12.257812 L 10.09375 13.066406 L 15.894531 13.066406 L 15.886719 12.949219 C 15.886719 11.886719 16.75 11.027344 17.808594 11.027344 C 18.871094 11.027344 19.730469 11.886719 19.730469 12.949219 L 19.726562 13.066406 L 20.660156 13.066406 L 20.660156 9.199219 L 19.058594 9.199219 L 19.058594 8.3125 L 20.660156 8.3125 L 20.660156 7.226562 L 13.835938 7.226562 Z M 16.644531 8.316406 L 18.492188 8.316406 L 18.492188 9.203125 L 16.644531 9.203125 Z M 14.300781 8.296875 L 16.148438 8.296875 L 16.148438 9.183594 L 14.300781 9.183594 Z M 17.808594 11.515625 C 17.015625 11.515625 16.375 12.15625 16.375 12.949219 C 16.375 13.742188 17.015625 14.382812 17.808594 14.382812 C 18.601562 14.382812 19.246094 13.742188 19.246094 12.949219 C 19.246094 12.15625 18.601562 11.515625 17.808594 11.515625 Z M 17.808594 13.460938 C 17.527344 13.460938 17.296875 13.234375 17.296875 12.949219 C 17.296875 12.667969 17.527344 12.4375 17.808594 12.4375 C 18.089844 12.4375 18.324219 12.667969 18.324219 12.949219 C 18.324219 13.234375 18.089844 13.460938 17.808594 13.460938 Z M 13.792969 6.007812 L 13.792969 6.976562 L 20.703125 6.976562 L 20.703125 6.007812 C 20.703125 6.007812 17.578125 3.828125 13.792969 6.007812 Z M 16 0 C 10.433594 0 5.917969 4.511719 5.917969 10.082031 C 5.917969 15.648438 16 32 16 32 C 16 32 26.082031 15.648438 26.082031 10.082031 C 26.082031 4.511719 21.570312 0 16 0 Z M 16 17.878906 C 11.699219 17.878906 8.199219 14.382812 8.199219 10.082031 C 8.199219 5.78125 11.699219 2.28125 16 2.28125 C 20.300781 2.28125 23.796875 5.78125 23.796875 10.082031 C 23.796875 14.382812 20.300781 17.878906 16 17.878906 Z M 16 17.878906 "/>
</g>
</svg>
