<?xml version="1.0" encoding="UTF-8"?>
<svg xmlns="http://www.w3.org/2000/svg" xmlns:xlink="http://www.w3.org/1999/xlink" width="32pt" height="32pt" viewBox="0 0 32 32" version="1.1">
<g id="surface1">
<path style=" stroke:none;fill-rule:nonzero;fill:rgb(0.392157%,0%,0.784314%);fill-opacity:1;" d="M 20.265625 9.546875 L 20.265625 14.855469 L 11.6875 14.855469 L 11.6875 9.546875 C 11.6875 8.449219 12.578125 7.558594 13.675781 7.558594 L 13.71875 7.558594 C 13.84375 7.558594 13.96875 7.574219 14.085938 7.597656 C 14.285156 6.765625 15 6.144531 15.875 6.082031 L 15.875 5.019531 L 14.847656 5.019531 L 14.847656 4.6875 L 15.871094 4.6875 L 15.871094 3.953125 L 16.203125 3.953125 L 16.203125 4.6875 L 17.230469 4.6875 L 17.230469 5.019531 L 16.203125 5.019531 L 16.203125 6.082031 C 17.074219 6.144531 17.785156 6.761719 17.984375 7.585938 C 18.070312 7.574219 18.148438 7.558594 18.234375 7.558594 L 18.277344 7.558594 C 19.375 7.558594 20.265625 8.449219 20.265625 9.546875 Z M 26.082031 10.082031 C 26.082031 15.648438 16 32 16 32 C 16 32 5.917969 15.648438 5.917969 10.082031 C 5.917969 4.515625 10.433594 0 16 0 C 21.566406 0 26.082031 4.515625 26.082031 10.082031 Z M 23.800781 10.082031 C 23.800781 5.78125 20.300781 2.28125 16 2.28125 C 11.699219 2.28125 8.199219 5.78125 8.199219 10.082031 C 8.199219 14.382812 11.699219 17.882812 16 17.882812 C 20.300781 17.882812 23.800781 14.382812 23.800781 10.082031 Z M 23.800781 10.082031 "/>
</g>
</svg>
