<?xml version="1.0" encoding="UTF-8"?>
<svg xmlns="http://www.w3.org/2000/svg" xmlns:xlink="http://www.w3.org/1999/xlink" width="32pt" height="32pt" viewBox="0 0 32 32" version="1.1">
<g id="surface1">
<path style=" stroke:none;fill-rule:nonzero;fill:rgb(0.392157%,0%,0.784314%);fill-opacity:1;" d="M 16 0 C 10.433594 0 5.917969 4.515625 5.917969 10.082031 C 5.917969 15.648438 16 32 16 32 C 16 32 26.082031 15.648438 26.082031 10.082031 C 26.082031 4.515625 21.570312 0 16 0 Z M 16 17.882812 C 11.699219 17.882812 8.199219 14.382812 8.199219 10.082031 C 8.199219 5.78125 11.699219 2.28125 16 2.28125 C 20.304688 2.28125 23.800781 5.78125 23.800781 10.082031 C 23.804688 14.382812 20.304688 17.882812 16 17.882812 Z M 21.859375 14.046875 L 21.859375 14.535156 L 10.515625 14.535156 L 10.515625 14.046875 L 11.21875 14.046875 L 11.21875 11.585938 L 14.136719 11.585938 L 14.136719 11.289062 L 11.089844 11.289062 L 14.503906 9.683594 L 14.722656 9.175781 L 14.722656 7.640625 L 14.460938 7.640625 L 15.914062 5.566406 L 15.914062 4.148438 L 15.292969 4.148438 L 15.292969 3.730469 L 15.914062 3.730469 L 15.914062 3.082031 L 16.328125 3.082031 L 16.328125 3.730469 L 16.953125 3.730469 L 16.953125 4.148438 L 16.328125 4.148438 L 16.328125 5.480469 L 17.78125 7.640625 L 17.519531 7.640625 L 17.519531 9.175781 L 17.703125 9.601562 L 21.152344 11.289062 L 18.101562 11.289062 L 18.101562 11.585938 L 21.152344 11.585938 L 21.152344 14.046875 Z M 21.859375 14.046875 "/>
</g>
</svg>
