<?xml version="1.0" encoding="UTF-8"?>
<svg xmlns="http://www.w3.org/2000/svg" xmlns:xlink="http://www.w3.org/1999/xlink" width="32pt" height="32pt" viewBox="0 0 32 32" version="1.1">
<g id="surface1">
<path style=" stroke:none;fill-rule:nonzero;fill:rgb(0.392157%,0%,0.784314%);fill-opacity:1;" d="M 10.960938 8.363281 C 10.824219 8.417969 10.652344 8.300781 10.574219 8.101562 C 10.496094 7.90625 10.542969 7.703125 10.675781 7.652344 C 10.8125 7.597656 10.984375 7.714844 11.0625 7.910156 C 11.140625 8.109375 11.09375 8.3125 10.960938 8.363281 Z M 11.636719 7.914062 C 11.804688 7.847656 11.863281 7.589844 11.765625 7.339844 C 11.667969 7.089844 11.449219 6.941406 11.277344 7.011719 C 11.109375 7.078125 11.050781 7.335938 11.148438 7.585938 C 11.246094 7.835938 11.464844 7.980469 11.636719 7.914062 Z M 13.800781 12.585938 C 13.382812 11.726562 13.417969 11.050781 13.410156 10.902344 L 13.402344 10.667969 L 13.402344 10.640625 C 13.402344 10.3125 13.722656 10.03125 14.046875 10.03125 C 14.277344 10.03125 14.246094 10.15625 14.582031 10.101562 C 14.917969 10.050781 15.429688 9.367188 15.429688 8.890625 C 15.429688 8.066406 15.03125 7.640625 14.207031 7.640625 C 14.207031 7.640625 13.609375 7.675781 13.40625 7.71875 L 12.0625 7.988281 C 11.292969 8.148438 10.792969 8.898438 10.949219 9.667969 C 11.027344 10.046875 11.507812 10.914062 11.550781 11.097656 L 12.285156 13.164062 C 12.386719 13.59375 12.460938 14.570312 12.539062 15.050781 C 12.707031 16.097656 13.535156 16.835938 14.386719 16.695312 C 15.242188 16.5625 15.5 16.074219 15.425781 14.84375 C 15.175781 13.222656 14.222656 13.441406 13.800781 12.585938 Z M 12.445312 7.554688 C 12.652344 7.503906 12.757812 7.226562 12.6875 6.933594 C 12.617188 6.636719 12.398438 6.4375 12.195312 6.484375 C 11.992188 6.53125 11.882812 6.808594 11.953125 7.105469 C 12.023438 7.398438 12.242188 7.601562 12.445312 7.554688 Z M 14.472656 7.425781 C 14.8125 7.425781 15.089844 7.023438 15.089844 6.523438 C 15.089844 6.023438 14.8125 5.617188 14.472656 5.617188 C 14.128906 5.617188 13.851562 6.023438 13.851562 6.523438 C 13.851562 7.023438 14.128906 7.425781 14.472656 7.425781 Z M 13.339844 7.335938 C 13.582031 7.300781 13.738281 6.988281 13.683594 6.636719 C 13.636719 6.28125 13.398438 6.027344 13.160156 6.058594 C 12.917969 6.09375 12.765625 6.410156 12.8125 6.757812 C 12.867188 7.113281 13.101562 7.371094 13.339844 7.335938 Z M 19.554688 5.773438 C 19.757812 5.820312 19.980469 5.621094 20.046875 5.324219 C 20.117188 5.027344 20.011719 4.75 19.808594 4.699219 C 19.605469 4.652344 19.386719 4.855469 19.316406 5.152344 C 19.246094 5.445312 19.355469 5.726562 19.554688 5.773438 Z M 19.941406 6.210938 L 18.597656 5.9375 L 17.796875 5.855469 C 16.972656 5.855469 16.574219 6.28125 16.574219 7.105469 C 16.574219 7.585938 17.082031 8.269531 17.421875 8.320312 C 17.757812 8.371094 17.726562 8.25 17.957031 8.25 C 18.28125 8.25 18.601562 8.53125 18.601562 8.859375 L 18.601562 8.886719 L 18.59375 9.121094 C 18.582031 9.269531 18.621094 9.941406 18.203125 10.800781 C 17.78125 11.65625 16.828125 11.4375 16.574219 13.0625 C 16.503906 14.289062 16.757812 14.777344 17.613281 14.914062 C 18.46875 15.050781 19.296875 14.316406 19.464844 13.269531 C 19.542969 12.785156 19.617188 11.808594 19.714844 11.378906 L 20.449219 9.316406 C 20.492188 9.132812 20.976562 8.261719 21.050781 7.882812 C 21.210938 7.113281 20.710938 6.363281 19.941406 6.210938 Z M 21.328125 5.867188 C 21.191406 5.816406 21.019531 5.933594 20.941406 6.128906 C 20.863281 6.328125 20.910156 6.527344 21.042969 6.582031 C 21.179688 6.632812 21.351562 6.519531 21.425781 6.320312 C 21.507812 6.125 21.460938 5.921875 21.328125 5.867188 Z M 20.367188 6.132812 C 20.539062 6.199219 20.753906 6.050781 20.855469 5.800781 C 20.953125 5.554688 20.894531 5.296875 20.726562 5.226562 C 20.554688 5.160156 20.335938 5.308594 20.234375 5.558594 C 20.136719 5.808594 20.195312 6.0625 20.367188 6.132812 Z M 26.082031 10.078125 C 26.082031 15.648438 16 32 16 32 C 16 32 5.917969 15.648438 5.917969 10.078125 C 5.917969 4.511719 10.433594 0 16 0 C 21.570312 0 26.082031 4.511719 26.082031 10.078125 Z M 23.800781 10.078125 C 23.800781 5.777344 20.300781 2.28125 16 2.28125 C 11.703125 2.28125 8.199219 5.777344 8.199219 10.078125 C 8.199219 14.378906 11.703125 17.878906 16 17.878906 C 20.300781 17.878906 23.800781 14.378906 23.800781 10.078125 Z M 17.53125 5.644531 C 17.875 5.644531 18.152344 5.238281 18.152344 4.738281 C 18.152344 4.238281 17.875 3.835938 17.53125 3.835938 C 17.191406 3.835938 16.914062 4.238281 16.914062 4.738281 C 16.914062 5.238281 17.191406 5.644531 17.53125 5.644531 Z M 18.664062 5.550781 C 18.902344 5.585938 19.136719 5.328125 19.1875 4.976562 C 19.238281 4.625 19.082031 4.3125 18.84375 4.28125 C 18.605469 4.242188 18.367188 4.5 18.316406 4.851562 C 18.269531 5.207031 18.421875 5.519531 18.664062 5.550781 Z M 18.664062 5.550781 "/>
</g>
</svg>
