<?xml version="1.0" encoding="UTF-8"?>
<svg xmlns="http://www.w3.org/2000/svg" xmlns:xlink="http://www.w3.org/1999/xlink" width="32pt" height="32pt" viewBox="0 0 32 32" version="1.1">
<g id="surface1">
<path style=" stroke:none;fill-rule:nonzero;fill:rgb(0.392157%,0%,0.784314%);fill-opacity:1;" d="M 16 0 C 10.433594 0 5.917969 4.515625 5.917969 10.082031 C 5.917969 15.648438 16 32 16 32 C 16 32 26.082031 15.648438 26.082031 10.082031 C 26.082031 4.515625 21.566406 0 16 0 Z M 16 17.882812 C 11.699219 17.882812 8.199219 14.382812 8.199219 10.082031 C 8.199219 5.78125 11.699219 2.28125 16 2.28125 C 20.300781 2.28125 23.800781 5.78125 23.800781 10.082031 C 23.800781 14.382812 20.300781 17.882812 16 17.882812 Z M 13.902344 11.050781 C 13.820312 11 13.558594 10.796875 13.558594 10.796875 C 12.722656 10.097656 12.1875 9.046875 12.1875 7.871094 C 12.1875 6.503906 12.902344 5.3125 13.980469 4.636719 C 13.171875 5.992188 12.886719 7.195312 13.125 8.210938 C 13.371094 9.238281 14.070312 9.675781 14.097656 9.691406 C 15.582031 10.671875 15.953125 12.128906 16.035156 13.046875 C 16.035156 13.046875 16.027344 13.597656 16.035156 13.722656 L 16.035156 13.871094 L 16.03125 13.898438 L 16.035156 13.898438 L 16.035156 13.90625 L 15.238281 13.90625 C 15.238281 13.90625 15.378906 12.203125 13.902344 11.050781 Z M 16.191406 12.160156 L 16.191406 4.066406 C 16.6875 4.089844 17.160156 4.210938 17.589844 4.40625 C 18.453125 5.796875 18.667969 7.066406 18.609375 8.113281 C 18.554688 9.109375 17.757812 9.566406 17.75 9.566406 C 16.625 10.308594 16.414062 11.300781 16.191406 12.160156 Z M 14.566406 4.382812 C 14.996094 4.1875 15.464844 4.066406 15.964844 4.042969 L 15.964844 12.136719 C 15.742188 11.277344 15.527344 10.285156 14.402344 9.542969 C 14.394531 9.539062 13.601562 9.082031 13.546875 8.089844 C 13.488281 7.042969 13.703125 5.773438 14.566406 4.382812 Z M 17.609375 4.414062 L 17.589844 4.40625 L 17.589844 4.402344 Z M 19.8125 7.871094 C 19.8125 9.152344 19.304688 10.238281 18.210938 10.976562 C 17.003906 12.003906 17.027344 13.90625 17.027344 13.90625 L 16.191406 13.90625 L 16.191406 12.945312 C 16.28125 12.023438 16.675781 10.617188 18.117188 9.664062 C 18.148438 9.648438 18.847656 9.207031 19.089844 8.179688 C 19.339844 7.128906 18.976562 6.039062 18.101562 4.621094 C 19.257812 5.273438 19.8125 6.445312 19.8125 7.871094 Z M 16.191406 13.90625 L 16.191406 13.917969 L 16.167969 13.917969 L 16.171875 13.90625 Z M 15.117188 14.171875 L 17.222656 14.171875 L 17.222656 16.273438 L 15.117188 16.273438 C 15.117188 16.273438 15.117188 14.171875 15.117188 14.171875 Z M 15.117188 14.171875 "/>
</g>
</svg>
