<?xml version="1.0" encoding="UTF-8"?>
<svg xmlns="http://www.w3.org/2000/svg" xmlns:xlink="http://www.w3.org/1999/xlink" width="32pt" height="32pt" viewBox="0 0 32 32" version="1.1">
<g id="surface1">
<path style=" stroke:none;fill-rule:nonzero;fill:rgb(0.392157%,0%,0.784314%);fill-opacity:1;" d="M 18.410156 6.261719 C 18.242188 5.078125 17.230469 4.167969 16 4.167969 C 14.773438 4.167969 13.757812 5.078125 13.589844 6.261719 L 9.941406 6.261719 L 9.941406 14.164062 L 10.785156 14.164062 L 10.785156 7.421875 L 11.023438 7.421875 L 11.023438 14.164062 L 20.957031 14.164062 L 20.957031 7.378906 L 21.199219 7.378906 L 21.199219 14.160156 L 22.058594 14.160156 L 22.058594 6.261719 C 22.058594 6.261719 18.410156 6.261719 18.410156 6.261719 Z M 14.886719 6.261719 C 14.941406 5.6875 15.414062 5.242188 16 5.242188 C 16.585938 5.242188 17.058594 5.6875 17.113281 6.261719 Z M 16 0 C 10.433594 0 5.917969 4.515625 5.917969 10.082031 C 5.917969 15.648438 16 32 16 32 C 16 32 26.082031 15.648438 26.082031 10.082031 C 26.082031 4.515625 21.566406 0 16 0 Z M 16 17.882812 C 11.699219 17.882812 8.199219 14.382812 8.199219 10.082031 C 8.199219 5.78125 11.699219 2.28125 16 2.28125 C 20.300781 2.28125 23.800781 5.78125 23.800781 10.082031 C 23.800781 14.382812 20.300781 17.882812 16 17.882812 Z M 16 17.882812 "/>
</g>
</svg>
