<?xml version="1.0" encoding="UTF-8"?>
<svg xmlns="http://www.w3.org/2000/svg" xmlns:xlink="http://www.w3.org/1999/xlink" width="32pt" height="32pt" viewBox="0 0 32 32" version="1.1">
<g id="surface1">
<path style=" stroke:none;fill-rule:nonzero;fill:rgb(0.392157%,0%,0.784314%);fill-opacity:1;" d="M 16 0 C 10.433594 0 5.917969 4.511719 5.917969 10.082031 C 5.917969 15.648438 16 32 16 32 C 16 32 26.082031 15.648438 26.082031 10.082031 C 26.082031 4.511719 21.566406 0 16 0 Z M 16 17.878906 C 11.699219 17.878906 8.199219 14.382812 8.199219 10.082031 C 8.199219 5.78125 11.699219 2.28125 16 2.28125 C 20.300781 2.28125 23.800781 5.78125 23.800781 10.082031 C 23.800781 14.382812 20.300781 17.878906 16 17.878906 Z M 19.507812 12.941406 L 19.507812 6.613281 L 20.730469 6.613281 L 20.730469 12.941406 Z M 20.929688 6.347656 L 11.066406 6.347656 L 15.925781 3.140625 Z M 11.269531 12.941406 L 11.269531 6.613281 L 12.492188 6.613281 L 12.492188 12.941406 Z M 13.84375 12.941406 L 13.84375 6.613281 L 15.066406 6.613281 L 15.066406 12.941406 Z M 16.839844 12.941406 L 16.839844 6.613281 L 18.0625 6.613281 L 18.0625 12.941406 Z M 10.890625 13.40625 L 21.109375 13.40625 L 21.109375 14.542969 L 10.890625 14.542969 Z M 10.890625 13.40625 "/>
</g>
</svg>
