<?xml version="1.0" encoding="UTF-8" standalone="no"?>
<svg
   xmlns:dc="http://purl.org/dc/elements/1.1/"
   xmlns:cc="http://creativecommons.org/ns#"
   xmlns:rdf="http://www.w3.org/1999/02/22-rdf-syntax-ns#"
   xmlns:svg="http://www.w3.org/2000/svg"
   xmlns="http://www.w3.org/2000/svg"
   xmlns:xlink="http://www.w3.org/1999/xlink"
   xmlns:sodipodi="http://sodipodi.sourceforge.net/DTD/sodipodi-0.dtd"
   xmlns:inkscape="http://www.inkscape.org/namespaces/inkscape"
   width="30"
   height="35"
   viewBox="0 0 30 35.000001"
   id="svg4160"
   version="1.1"
   inkscape:version="0.91 r13725"
   sodipodi:docname="Car_services.svg">
  <sodipodi:namedview
     pagecolor="#ffffff"
     bordercolor="#666666"
     borderopacity="1"
     objecttolerance="10"
     gridtolerance="10"
     guidetolerance="10"
     inkscape:pageopacity="0"
     inkscape:pageshadow="2"
     inkscape:window-width="1366"
     inkscape:window-height="706"
     id="namedview33"
     showgrid="false"
     inkscape:zoom="6.7428571"
     inkscape:cx="15"
     inkscape:cy="17.351695"
     inkscape:window-x="-4"
     inkscape:window-y="-4"
     inkscape:window-maximized="1"
     inkscape:current-layer="svg4160" />
  <defs
     id="defs4162">
    <linearGradient
       x1="64"
       y1="256"
       x2="448"
       y2="256"
       id="linearGradient4304-5"
       xlink:href="#linearGradient4587"
       gradientUnits="userSpaceOnUse"
       gradientTransform="matrix(0.06698171,0,0,0.06698171,-1.94452,0.35178)" />
    <linearGradient
       id="linearGradient4587">
      <stop
         id="stop4589"
         style="stop-color:#ff0000;stop-opacity:1"
         offset="0" />
      <stop
         id="stop4591"
         style="stop-color:#780000;stop-opacity:1"
         offset="1" />
    </linearGradient>
  </defs>
  <metadata
     id="metadata4165">
    <rdf:RDF>
      <cc:Work
         rdf:about="">
        <dc:format>image/svg+xml</dc:format>
        <dc:type
           rdf:resource="http://purl.org/dc/dcmitype/StillImage" />
        <dc:title />
      </cc:Work>
    </rdf:RDF>
  </metadata>
  <circle
     r="9.9195604"
     cy="13.433225"
     cx="15.556351"
     id="path3408"
     style="fill:#ffffff;stroke:#ffffff;stroke-width:0.25276357" />
  <path
     d="m 15.202793,0.35178 c -7.102142,0 -12.860492,5.75835 -12.860492,12.86049 0,7.10215 10.71708,21.43416 12.860492,21.43416 2.143412,0 12.860487,-14.33201 12.860487,-21.43416 0,-7.10214 -5.758346,-12.86049 -12.860487,-12.86049 z m 0,21.43416 c -4.728503,0 -8.573655,-3.84731 -8.573655,-8.57367 0,-4.72635 3.845152,-8.57365 8.573655,-8.57365 4.728503,0 8.573655,3.8473 8.573655,8.57365 0,4.72636 -3.845152,8.57367 -8.573655,8.57367 z"
     id="path2994-5"
     style="fill:url(#linearGradient4304-5);fill-opacity:1" />
  <g
     id="g3403"
     transform="matrix(0.2808638,0,0,0.2808638,8.9867516,6.7623164)">
    <g
       id="g3361">
	<g
   id="g3363">
		<path
   id="path3365"
   d="m 43.782,17.795 -0.113,0 -4.675,-10.86 C 38.67,6.18 37.93,5.695 37.109,5.695 l -28.382,0 c -0.82,0 -1.56,0.485 -1.883,1.239 l -4.679,10.861 -0.114,0 C 0.917,17.795 0,18.712 0,19.846 l 0,3.398 0,8.996 c 0,1.133 0.917,2.051 2.051,2.051 l 0.771,0 0,3.797 c 0,1.134 0.916,2.053 2.051,2.053 l 4.93,0 c 1.132,0 2.051,-0.919 2.051,-2.053 l 0,-3.797 22.126,0 0,3.797 c 0,1.134 0.918,2.053 2.051,2.053 l 4.93,0 c 1.137,0 2.053,-0.919 2.053,-2.053 l 0,-3.797 0.771,0 c 1.134,0 2.052,-0.918 2.052,-2.051 l 0,-8.996 0,-3.398 c -0.003,-1.134 -0.921,-2.051 -2.055,-2.051 z m -33.707,-8 25.684,0 3.445,8 -32.573,0 3.444,-8 z M 8.879,30.049 c -2.213,0 -4.009,-1.795 -4.009,-4.006 0,-2.213 1.796,-4.008 4.009,-4.008 2.214,0 4.008,1.795 4.008,4.008 0,2.211 -1.794,4.006 -4.008,4.006 z m 28.031,0 c -2.213,0 -4.01,-1.795 -4.01,-4.006 0,-2.213 1.797,-4.008 4.01,-4.008 2.214,0 4.008,1.795 4.008,4.008 0,2.211 -1.794,4.006 -4.008,4.006 z"
   inkscape:connector-curvature="0" />

	</g>

</g>
    <g
       id="g3367">
</g>
    <g
       id="g3369">
</g>
    <g
       id="g3371">
</g>
    <g
       id="g3373">
</g>
    <g
       id="g3375">
</g>
    <g
       id="g3377">
</g>
    <g
       id="g3379">
</g>
    <g
       id="g3381">
</g>
    <g
       id="g3383">
</g>
    <g
       id="g3385">
</g>
    <g
       id="g3387">
</g>
    <g
       id="g3389">
</g>
    <g
       id="g3391">
</g>
    <g
       id="g3393">
</g>
    <g
       id="g3395">
</g>
  </g>
</svg>
