<?xml version="1.0" encoding="UTF-8" standalone="no"?>
<svg
   xmlns:dc="http://purl.org/dc/elements/1.1/"
   xmlns:cc="http://creativecommons.org/ns#"
   xmlns:rdf="http://www.w3.org/1999/02/22-rdf-syntax-ns#"
   xmlns:svg="http://www.w3.org/2000/svg"
   xmlns="http://www.w3.org/2000/svg"
   xmlns:xlink="http://www.w3.org/1999/xlink"
   xmlns:sodipodi="http://sodipodi.sourceforge.net/DTD/sodipodi-0.dtd"
   xmlns:inkscape="http://www.inkscape.org/namespaces/inkscape"
   version="1.1"
   id="svg4160"
   viewBox="0 0 30 35.000001"
   height="35"
   width="30"
   inkscape:version="0.91 r13725"
   sodipodi:docname="Culture_&amp;_entertainment.svg">
  <sodipodi:namedview
     pagecolor="#ffffff"
     bordercolor="#666666"
     borderopacity="1"
     objecttolerance="10"
     gridtolerance="10"
     guidetolerance="10"
     inkscape:pageopacity="0"
     inkscape:pageshadow="2"
     inkscape:window-width="1366"
     inkscape:window-height="706"
     id="namedview34"
     showgrid="false"
     inkscape:zoom="6.7428571"
     inkscape:cx="15"
     inkscape:cy="17.351695"
     inkscape:window-x="-4"
     inkscape:window-y="-4"
     inkscape:window-maximized="1"
     inkscape:current-layer="svg4160" />
  <defs
     id="defs4162">
    <linearGradient
       gradientTransform="matrix(0.06698171,0,0,0.06698171,-1.94452,0.35178)"
       gradientUnits="userSpaceOnUse"
       xlink:href="#linearGradient4587"
       id="linearGradient4304-5"
       y2="256"
       x2="448"
       y1="256"
       x1="64" />
    <linearGradient
       id="linearGradient4587">
      <stop
         offset="0"
         style="stop-color:#f000d4;stop-opacity:1"
         id="stop4589" />
      <stop
         offset="1"
         style="stop-color:#cfb2f1;stop-opacity:1"
         id="stop4591" />
    </linearGradient>
  </defs>
  <metadata
     id="metadata4165">
    <rdf:RDF>
      <cc:Work
         rdf:about="">
        <dc:format>image/svg+xml</dc:format>
        <dc:type
           rdf:resource="http://purl.org/dc/dcmitype/StillImage" />
        <dc:title />
      </cc:Work>
    </rdf:RDF>
  </metadata>
  <circle
     style="fill:#ffffff;stroke:#ffffff;stroke-width:0.25276357"
     id="path3408"
     cx="15.556351"
     cy="13.433225"
     r="9.9195604" />
  <path
     inkscape:connector-curvature="0"
     style="fill:url(#linearGradient4304-5);fill-opacity:1"
     id="path2994-5"
     d="m 15.202793,0.35178 c -7.102142,0 -12.860492,5.75835 -12.860492,12.86049 0,7.10215 10.71708,21.43416 12.860492,21.43416 2.143412,0 12.860487,-14.33201 12.860487,-21.43416 0,-7.10214 -5.758346,-12.86049 -12.860487,-12.86049 z m 0,21.43416 c -4.728503,0 -8.573655,-3.84731 -8.573655,-8.57367 0,-4.72635 3.845152,-8.57365 8.573655,-8.57365 4.728503,0 8.573655,3.8473 8.573655,8.57365 0,4.72636 -3.845152,8.57367 -8.573655,8.57367 z" />
  <g
     id="g3403"
     transform="matrix(0.02836513,0,0,0.02836513,8.5643038,7.1532871)">
    <g
       id="g3361">
	<path
   id="path3363"
   d="m 464.653,167.757 c -0.824,-3.273 -2.996,-6.037 -5.969,-7.633 -2.965,-1.586 -6.47,-1.855 -9.65,-0.738 -27.88,9.795 -70.896,16.098 -119.276,16.098 -11.762,0 -23.098,-0.449 -34.089,-1.156 -5.683,25.676 -14.764,49.252 -26.363,70.016 0.564,-0.023 1.103,-0.115 1.672,-0.115 15.034,0 27.218,-1.254 27.218,8.873 0,10.127 -12.185,27.803 -27.218,27.803 -8.757,0 -16.467,-2.834 -21.442,-7.162 -15.025,18.654 -32.578,33.363 -51.909,43.09 21.795,73.361 72.751,124.824 132.131,124.824 79.219,0 143.437,-91.584 143.437,-204.559 -10e-4,-24.37 -3.044,-47.69 -8.542,-69.341 z m -77.733,214.17 c -0.254,1.078 -1.056,1.957 -2.11,2.303 -1.056,0.353 -2.218,0.131 -3.066,-0.586 -11.174,-9.389 -30.182,-15.627 -51.985,-15.627 -21.805,0 -40.813,6.238 -51.986,15.627 -0.849,0.709 -2.012,0.932 -3.066,0.586 -1.055,-0.354 -1.856,-1.225 -2.11,-2.303 -0.925,-3.936 -1.494,-7.994 -1.494,-12.215 0,-32.395 26.263,-58.656 58.657,-58.656 32.394,0 58.655,26.262 58.655,58.656 -0.002,4.221 -0.571,8.28 -1.495,12.215 z m 1.617,-101.023 c -15.034,0 -27.218,-17.676 -27.218,-27.803 0,-10.127 12.185,-8.873 27.218,-8.873 15.033,0 27.218,8.211 27.218,18.338 -10e-4,10.127 -12.185,18.338 -27.218,18.338 z"
   inkscape:connector-curvature="0" />

	<path
   id="path3365"
   d="m 286.874,109.925 c 0,-24.367 -3.043,-47.688 -8.541,-69.338 -0.824,-3.273 -2.996,-6.039 -5.969,-7.633 -1.756,-0.939 -3.705,-1.416 -5.669,-1.416 -1.341,0 -2.688,0.221 -3.981,0.678 -27.88,9.795 -70.895,16.096 -119.276,16.096 -48.382,0 -91.397,-6.301 -119.277,-16.096 -1.286,-0.457 -2.626,-0.678 -3.966,-0.678 -1.963,0 -3.921,0.482 -5.685,1.424 -2.965,1.594 -5.144,4.359 -5.969,7.625 C 3.043,62.238 0,85.558 0,109.925 c 0,112.977 64.217,204.559 143.438,204.559 79.219,0 143.436,-91.582 143.436,-204.559 z M 57.439,135.349 c 0,-10.129 12.185,-18.338 27.219,-18.338 15.033,0 27.218,17.674 27.218,27.803 0,10.127 -12.185,8.873 -27.218,8.873 -15.034,0 -27.219,-8.211 -27.219,-18.338 z m 85.999,140.463 c -32.395,0 -58.656,-26.262 -58.656,-58.654 0,-4.221 0.569,-8.281 1.493,-12.217 0.254,-1.076 1.056,-1.947 2.11,-2.303 1.056,-0.346 2.218,-0.123 3.066,0.586 11.174,9.389 30.182,15.627 51.986,15.627 21.804,0 40.812,-6.238 51.985,-15.627 0.849,-0.717 2.011,-0.939 3.066,-0.586 1.055,0.348 1.856,1.227 2.11,2.303 0.924,3.936 1.494,7.996 1.494,12.217 10e-4,32.392 -26.261,58.654 -58.654,58.654 z m 31.56,-130.998 c 0,-10.129 12.185,-27.803 27.219,-27.803 15.033,0 27.218,8.209 27.218,18.338 0,10.127 -12.185,18.338 -27.218,18.338 -15.034,0 -27.219,1.254 -27.219,-8.873 z"
   inkscape:connector-curvature="0" />

</g>
    <g
       id="g3367">
</g>
    <g
       id="g3369">
</g>
    <g
       id="g3371">
</g>
    <g
       id="g3373">
</g>
    <g
       id="g3375">
</g>
    <g
       id="g3377">
</g>
    <g
       id="g3379">
</g>
    <g
       id="g3381">
</g>
    <g
       id="g3383">
</g>
    <g
       id="g3385">
</g>
    <g
       id="g3387">
</g>
    <g
       id="g3389">
</g>
    <g
       id="g3391">
</g>
    <g
       id="g3393">
</g>
    <g
       id="g3395">
</g>
  </g>
</svg>
