<?xml version="1.0" encoding="UTF-8" standalone="no"?>
<svg
   xmlns:dc="http://purl.org/dc/elements/1.1/"
   xmlns:cc="http://creativecommons.org/ns#"
   xmlns:rdf="http://www.w3.org/1999/02/22-rdf-syntax-ns#"
   xmlns:svg="http://www.w3.org/2000/svg"
   xmlns="http://www.w3.org/2000/svg"
   xmlns:xlink="http://www.w3.org/1999/xlink"
   xmlns:sodipodi="http://sodipodi.sourceforge.net/DTD/sodipodi-0.dtd"
   xmlns:inkscape="http://www.inkscape.org/namespaces/inkscape"
   version="1.1"
   id="svg4160"
   viewBox="0 0 30 35.000001"
   height="35"
   width="30"
   inkscape:version="0.91 r13725"
   sodipodi:docname="Natural_features.svg">
  <sodipodi:namedview
     pagecolor="#ffffff"
     bordercolor="#666666"
     borderopacity="1"
     objecttolerance="10"
     gridtolerance="10"
     guidetolerance="10"
     inkscape:pageopacity="0"
     inkscape:pageshadow="2"
     inkscape:window-width="1366"
     inkscape:window-height="706"
     id="namedview30"
     showgrid="false"
     inkscape:zoom="4.76792"
     inkscape:cx="-0.93986476"
     inkscape:cy="17.395132"
     inkscape:window-x="-4"
     inkscape:window-y="-4"
     inkscape:window-maximized="1"
     inkscape:current-layer="svg4160" />
  <defs
     id="defs4162">
    <linearGradient
       gradientTransform="matrix(0.06698171,0,0,0.06698171,-1.94452,0.35178)"
       gradientUnits="userSpaceOnUse"
       xlink:href="#linearGradient4587"
       id="linearGradient4304-5"
       y2="256"
       x2="448"
       y1="256"
       x1="64" />
    <linearGradient
       id="linearGradient4587">
      <stop
         offset="0"
         style="stop-color:#007600;stop-opacity:1"
         id="stop4589" />
      <stop
         offset="1"
         style="stop-color:#29ff00;stop-opacity:1"
         id="stop4591" />
    </linearGradient>
  </defs>
  <metadata
     id="metadata4165">
    <rdf:RDF>
      <cc:Work
         rdf:about="">
        <dc:format>image/svg+xml</dc:format>
        <dc:type
           rdf:resource="http://purl.org/dc/dcmitype/StillImage" />
        <dc:title />
      </cc:Work>
    </rdf:RDF>
  </metadata>
  <circle
     style="fill:#ffffff;stroke:#ffffff;stroke-width:0.25276357"
     id="path3408"
     cx="15.556351"
     cy="13.433225"
     r="9.9195604" />
  <path
     inkscape:connector-curvature="0"
     style="fill:url(#linearGradient4304-5);fill-opacity:1"
     id="path2994-5"
     d="m 15.202793,0.35178 c -7.102142,0 -12.860492,5.75835 -12.860492,12.86049 0,7.10215 10.71708,21.43416 12.860492,21.43416 2.143412,0 12.860487,-14.33201 12.860487,-21.43416 0,-7.10214 -5.758346,-12.86049 -12.860487,-12.86049 z m 0,21.43416 c -4.728503,0 -8.573655,-3.84731 -8.573655,-8.57367 0,-4.72635 3.845152,-8.57365 8.573655,-8.57365 4.728503,0 8.573655,3.8473 8.573655,8.57365 0,4.72636 -3.845152,8.57367 -8.573655,8.57367 z" />
  <g
     id="g3461"
     transform="matrix(0.11974543,0,0,0.11974543,8.2183784,6.3050079)">
    <g
       id="g3421">
	<path
   id="path3423"
   d="m 59.896,88.798 c 0.294,-3.066 0.592,-5.564 0.886,-6.912 0.76,-3.528 1.423,-6.701 1.844,-9.445 5.485,-0.339 9.846,-4.856 9.846,-10.417 0,-0.683 -0.059,-1.408 -0.186,-2.163 0.336,0.414 0.668,0.849 1.01,1.189 4.097,4.088 10.742,4.088 14.835,0 3.967,-3.961 4.059,-10.272 0.366,-14.396 5.678,-0.13 10.249,-4.764 10.249,-10.469 0,-5.788 -4.712,-10.489 -10.492,-10.489 -0.472,0 -0.954,0.053 -1.444,0.099 0.268,-0.228 0.582,-0.458 0.812,-0.691 4.11,-4.093 4.11,-10.737 0,-14.844 -4.093,-4.093 -10.742,-4.093 -14.835,0 -0.314,0.312 -0.609,0.722 -0.91,1.11 0.021,-0.291 0.041,-0.602 0.041,-0.883 C 71.917,4.693 67.222,0 61.428,0 55.824,0 51.303,4.399 50.992,9.91 46.877,6.101 40.469,6.161 36.463,10.17 c -4.09,4.096 -4.09,10.741 0,14.84 0.462,0.452 1.016,0.896 1.579,1.324 -0.441,-0.049 -0.886,-0.084 -1.314,-0.084 -5.795,0 -10.487,4.695 -10.487,10.496 0,5.758 4.649,10.436 10.4,10.48 -3.973,4.108 -3.953,10.649 0.109,14.708 4.064,4.067 10.634,4.085 14.739,0.074 0,0.01 0,0.017 0,0.017 0,4.843 3.318,8.895 7.786,10.096 -0.402,2.598 -1.044,5.653 -1.776,9.072 -0.933,4.353 -1.962,9.175 -2.625,13.952 C 54.853,95.073 54.853,95.008 54.828,94.922 50.939,81.281 33.972,76.209 26.121,84.06 c 6.528,10.753 13.6,18.258 28.051,18.258 -0.063,1.488 -0.048,21.001 0.046,23.144 l 3.368,0 c 0.214,-5.51 0.789,-16.717 1.472,-26.539 0,-0.075 0,-0.146 0,-0.222 0.039,-0.048 0.074,-0.082 0.116,-0.13 6.08,-6.779 13.68,-13.449 22.434,-15.77 -5.79,2.142 -12.614,6.434 -20.742,17.145 -0.512,0.678 -0.963,1.287 -1.36,1.824 19.966,0 30.651,-10.119 39.835,-25.711 C 89.253,65.969 66.742,70.935 59.896,88.798 Z m -5.705,13.21 C 50.322,96.515 45.066,91.095 38.716,88.825 c 3.97,1.048 8.949,3.505 15.632,10.886 -0.059,0.77 -0.122,1.537 -0.157,2.297 z M 53.032,36.179 c 0,-5.046 4.1,-9.156 9.153,-9.156 5.044,0 9.15,4.11 9.15,9.156 0,5.043 -4.106,9.156 -9.15,9.156 -5.054,0 -9.153,-4.113 -9.153,-9.156 z"
   inkscape:connector-curvature="0" />

</g>
    <g
       id="g3425">
</g>
    <g
       id="g3427">
</g>
    <g
       id="g3429">
</g>
    <g
       id="g3431">
</g>
    <g
       id="g3433">
</g>
    <g
       id="g3435">
</g>
    <g
       id="g3437">
</g>
    <g
       id="g3439">
</g>
    <g
       id="g3441">
</g>
    <g
       id="g3443">
</g>
    <g
       id="g3445">
</g>
    <g
       id="g3447">
</g>
    <g
       id="g3449">
</g>
    <g
       id="g3451">
</g>
    <g
       id="g3453">
</g>
  </g>
</svg>
