<?xml version="1.0" encoding="UTF-8" standalone="no"?>
<svg
   xmlns:dc="http://purl.org/dc/elements/1.1/"
   xmlns:cc="http://creativecommons.org/ns#"
   xmlns:rdf="http://www.w3.org/1999/02/22-rdf-syntax-ns#"
   xmlns:svg="http://www.w3.org/2000/svg"
   xmlns="http://www.w3.org/2000/svg"
   xmlns:xlink="http://www.w3.org/1999/xlink"
   xmlns:sodipodi="http://sodipodi.sourceforge.net/DTD/sodipodi-0.dtd"
   xmlns:inkscape="http://www.inkscape.org/namespaces/inkscape"
   version="1.1"
   id="svg4160"
   viewBox="0 0 30 35.000001"
   height="35"
   width="30"
   inkscape:version="0.91 r13725"
   sodipodi:docname="Other.svg">
  <sodipodi:namedview
     pagecolor="#ffffff"
     bordercolor="#666666"
     borderopacity="1"
     objecttolerance="10"
     gridtolerance="10"
     guidetolerance="10"
     inkscape:pageopacity="0"
     inkscape:pageshadow="2"
     inkscape:window-width="1366"
     inkscape:window-height="706"
     id="namedview30"
     showgrid="false"
     inkscape:zoom="6.7428571"
     inkscape:cx="-0.93986475"
     inkscape:cy="16.503758"
     inkscape:window-x="-4"
     inkscape:window-y="-4"
     inkscape:window-maximized="1"
     inkscape:current-layer="svg4160" />
  <defs
     id="defs4162">
    <linearGradient
       inkscape:collect="always"
       id="linearGradient4159">
      <stop
         style="stop-color:#ff794b;stop-opacity:1;"
         offset="0"
         id="stop4161" />
      <stop
         style="stop-color:#ff3300;stop-opacity:1"
         offset="1"
         id="stop4163" />
    </linearGradient>
    <linearGradient
       gradientTransform="matrix(0.06698171,0,0,0.06698171,-1.94452,0.35178)"
       gradientUnits="userSpaceOnUse"
       xlink:href="#linearGradient4587"
       id="linearGradient4304-5"
       y2="256"
       x2="448"
       y1="256"
       x1="64" />
    <linearGradient
       id="linearGradient4587">
      <stop
         offset="0"
         style="stop-color:#cc9900;stop-opacity:1"
         id="stop4589" />
      <stop
         offset="1"
         style="stop-color:#ffcc66;stop-opacity:1"
         id="stop4591" />
    </linearGradient>
    <linearGradient
       inkscape:collect="always"
       xlink:href="#linearGradient4159"
       id="linearGradient4165"
       x1="2.342301"
       y1="17.499105"
       x2="28.06328"
       y2="17.499105"
       gradientUnits="userSpaceOnUse" />
  </defs>
  <metadata
     id="metadata4165">
    <rdf:RDF>
      <cc:Work
         rdf:about="">
        <dc:format>image/svg+xml</dc:format>
        <dc:type
           rdf:resource="http://purl.org/dc/dcmitype/StillImage" />
        <dc:title />
      </cc:Work>
    </rdf:RDF>
  </metadata>
  <circle
     style="fill:#ffffff;stroke:#ffffff;stroke-width:0.25276357"
     id="path3408"
     cx="15.556351"
     cy="13.433225"
     r="9.9195604" />
  <path
     inkscape:connector-curvature="0"
     style="fill:url(#linearGradient4165);fill-opacity:1"
     id="path2994-5"
     d="m 15.202793,0.35178 c -7.102142,0 -12.860492,5.75835 -12.860492,12.86049 0,7.10215 10.71708,21.43416 12.860492,21.43416 2.143412,0 12.860487,-14.33201 12.860487,-21.43416 0,-7.10214 -5.758346,-12.86049 -12.860487,-12.86049 z m 0,21.43416 c -4.728503,0 -8.573655,-3.84731 -8.573655,-8.57367 0,-4.72635 3.845152,-8.57365 8.573655,-8.57365 4.728503,0 8.573655,3.8473 8.573655,8.57365 0,4.72636 -3.845152,8.57367 -8.573655,8.57367 z" />
  <g
     id="g3408"
     transform="matrix(0.35116525,0,0,0.35116525,9.0635588,7.7288135)">
    <g
       id="g3364">
	<g
   id="g3366">
		<path
   id="path3368"
   d="M 26,3 C 23.252,3 20.501,0.491 16.982,0.837 16.936,0.555 16.745,0 16,0 15,0 15,1 15,1 l 0,24 c 0,0 0,1 1,1 1,0 1,-1 1,-1 L 17,14.836 C 20.51,14.499 23.256,17 26,17 c 3,0 6,-2 6,-2 L 32,1 c 0,0 -3,2 -6,2 z"
   style="fill:#010002"
   inkscape:connector-curvature="0" />

		<path
   id="path3370"
   d="m 19,22.049 0,1.034 C 25.289,23.427 30,24.825 30,26.5 30,28.434 23.73,30 16,30 8.269,30 2,28.434 2,26.5 2,24.825 6.711,23.426 13,23.083 l 0,-1.034 C 5.6,22.49 0,24.528 0,26.979 0,29.752 7.164,32 16,32 c 8.837,0 16,-2.248 16,-5.021 0,-2.452 -5.6,-4.489 -13,-4.93 z"
   style="fill:#010002"
   inkscape:connector-curvature="0" />

	</g>

</g>
    <g
       id="g3372">
</g>
    <g
       id="g3374">
</g>
    <g
       id="g3376">
</g>
    <g
       id="g3378">
</g>
    <g
       id="g3380">
</g>
    <g
       id="g3382">
</g>
    <g
       id="g3384">
</g>
    <g
       id="g3386">
</g>
    <g
       id="g3388">
</g>
    <g
       id="g3390">
</g>
    <g
       id="g3392">
</g>
    <g
       id="g3394">
</g>
    <g
       id="g3396">
</g>
    <g
       id="g3398">
</g>
    <g
       id="g3400">
</g>
  </g>
</svg>
