<?xml version="1.0" encoding="UTF-8" standalone="no"?>
<svg
   xmlns:dc="http://purl.org/dc/elements/1.1/"
   xmlns:cc="http://creativecommons.org/ns#"
   xmlns:rdf="http://www.w3.org/1999/02/22-rdf-syntax-ns#"
   xmlns:svg="http://www.w3.org/2000/svg"
   xmlns="http://www.w3.org/2000/svg"
   xmlns:xlink="http://www.w3.org/1999/xlink"
   xmlns:sodipodi="http://sodipodi.sourceforge.net/DTD/sodipodi-0.dtd"
   xmlns:inkscape="http://www.inkscape.org/namespaces/inkscape"
   version="1.1"
   id="svg4160"
   viewBox="0 0 30 35.000001"
   height="35"
   width="30"
   inkscape:version="0.91 r13725"
   sodipodi:docname="Outdoors.svg">
  <sodipodi:namedview
     pagecolor="#ffffff"
     bordercolor="#666666"
     borderopacity="1"
     objecttolerance="10"
     gridtolerance="10"
     guidetolerance="10"
     inkscape:pageopacity="0"
     inkscape:pageshadow="2"
     inkscape:window-width="1366"
     inkscape:window-height="706"
     id="namedview30"
     showgrid="false"
     inkscape:zoom="9.53584"
     inkscape:cx="-0.93986476"
     inkscape:cy="17.395132"
     inkscape:window-x="-4"
     inkscape:window-y="-4"
     inkscape:window-maximized="1"
     inkscape:current-layer="svg4160" />
  <defs
     id="defs4162">
    <linearGradient
       gradientTransform="matrix(0.06698171,0,0,0.06698171,-1.94452,0.35178)"
       gradientUnits="userSpaceOnUse"
       xlink:href="#linearGradient4587"
       id="linearGradient4304-5"
       y2="256"
       x2="448"
       y1="256"
       x1="64" />
    <linearGradient
       id="linearGradient4587">
      <stop
         offset="0"
         style="stop-color:#8b4513;stop-opacity:1"
         id="stop4589" />
      <stop
         offset="1"
         style="stop-color:#cd853f;stop-opacity:1"
         id="stop4591" />
    </linearGradient>
  </defs>
  <metadata
     id="metadata4165">
    <rdf:RDF>
      <cc:Work
         rdf:about="">
        <dc:format>image/svg+xml</dc:format>
        <dc:type
           rdf:resource="http://purl.org/dc/dcmitype/StillImage" />
        <dc:title />
      </cc:Work>
    </rdf:RDF>
  </metadata>
  <circle
     style="fill:#ffffff;stroke:#ffffff;stroke-width:0.25276357"
     id="path3408"
     cx="15.556351"
     cy="13.433225"
     r="9.9195604" />
  <path
     inkscape:connector-curvature="0"
     style="fill:url(#linearGradient4304-5);fill-opacity:1"
     id="path2994-5"
     d="m 15.202793,0.35178 c -7.102142,0 -12.860492,5.75835 -12.860492,12.86049 0,7.10215 10.71708,21.43416 12.860492,21.43416 2.143412,0 12.860487,-14.33201 12.860487,-21.43416 0,-7.10214 -5.758346,-12.86049 -12.860487,-12.86049 z m 0,21.43416 c -4.728503,0 -8.573655,-3.84731 -8.573655,-8.57367 0,-4.72635 3.845152,-8.57365 8.573655,-8.57365 4.728503,0 8.573655,3.8473 8.573655,8.57365 0,4.72636 -3.845152,8.57367 -8.573655,8.57367 z" />
  <g
     id="g3404"
     transform="matrix(0.03437401,0,0,0.03437401,8.0687271,5.5261571)">
    <g
       id="g3357">
      <g
         id="g3359">
        <g
           id="Layer_5_47_">
          <g
             id="g3362">
            <path
               id="path3364"
               d="M 327.073,323.196 174.091,90.426 c -3.1,-4.718 -7.795,-7.423 -12.877,-7.423 -5.209,0 -9.955,2.811 -13.023,7.712 L 2.671,323.26 c -3.166,5.062 -3.535,10.572 -1.013,15.127 2.522,4.556 7.392,7.166 13.36,7.166 l 299.995,0 c 6.015,0 10.881,-2.633 13.358,-7.225 2.477,-4.592 2.004,-10.105 -1.298,-15.132 z M 161.304,101.234 c 1.529,0 2.417,1.472 2.417,1.472 l 92.72,138.025 c 5.974,10.752 1.974,14.086 -9.36,3.086 0,0 -33.562,-38.944 -46.108,-50.578 -3.15,-2.921 -9.553,-3.67 -13.12,-1.275 -9.288,6.233 -25.457,21.991 -34.852,28.063 -3.607,2.332 -8.505,0.328 -9.525,-3.847 -3.373,-13.792 -6.196,-42.208 -9.754,-55.955 -1.076,-4.159 -5.102,-4.926 -8.567,-2.387 -0.858,0.629 -2.687,1.727 -3.603,2.268 -1.06,0.625 -0.469,-0.259 -0.469,-0.259 l 37.937,-57.292 c -0.002,0.003 0.688,-1.321 2.284,-1.321 z"
               inkscape:connector-curvature="0" />
            <path
               id="path3366"
               d="M 412.619,290.749 271.834,76.537 c -2.854,-4.341 -7.173,-6.831 -11.852,-6.831 -4.793,0 -9.161,2.587 -11.983,7.098 l -29.411,46.999 c 0,0 -1.099,1.681 -0.247,3.573 0.951,2.113 3.63,5.949 5.093,7.748 1.142,1.401 2.588,-0.974 2.588,-0.974 l 32.199,-48.845 c 0,0 0.873,-1.301 1.847,-1.301 1.109,0 1.947,1.386 1.947,1.386 l 91.624,135.562 c 2.603,3.782 -4.281,3.799 -10.285,-1.016 -9.071,-7.274 -27.021,-22.074 -36.116,-29.319 -3.094,-2.464 -8.74,-3.301 -12.073,-1.174 -4.911,3.135 -16.602,12.289 -21.366,16.683 -2.557,2.357 -0.692,4.572 -0.692,4.572 l 64.075,97.496 c 0,0 1.812,3.129 4.688,3.129 14.914,0 59.656,0 59.656,0 5.532,0 10.015,-2.424 12.293,-6.648 2.276,-4.225 1.839,-9.301 -1.2,-13.926 z"
               inkscape:connector-curvature="0" />
          </g>
        </g>
      </g>
    </g>
    <g
       id="g3368" />
    <g
       id="g3370" />
    <g
       id="g3372" />
    <g
       id="g3374" />
    <g
       id="g3376" />
    <g
       id="g3378" />
    <g
       id="g3380" />
    <g
       id="g3382" />
    <g
       id="g3384" />
    <g
       id="g3386" />
    <g
       id="g3388" />
    <g
       id="g3390" />
    <g
       id="g3392" />
    <g
       id="g3394" />
    <g
       id="g3396" />
  </g>
</svg>
