<?xml version="1.0" encoding="UTF-8" standalone="no"?>
<svg
   xmlns:dc="http://purl.org/dc/elements/1.1/"
   xmlns:cc="http://creativecommons.org/ns#"
   xmlns:rdf="http://www.w3.org/1999/02/22-rdf-syntax-ns#"
   xmlns:svg="http://www.w3.org/2000/svg"
   xmlns="http://www.w3.org/2000/svg"
   xmlns:xlink="http://www.w3.org/1999/xlink"
   xmlns:sodipodi="http://sodipodi.sourceforge.net/DTD/sodipodi-0.dtd"
   xmlns:inkscape="http://www.inkscape.org/namespaces/inkscape"
   width="30"
   height="35"
   viewBox="0 0 30 35.000001"
   id="svg4160"
   version="1.1"
   inkscape:version="0.91 r13725"
   sodipodi:docname="Professional_and_public.svg">
  <sodipodi:namedview
     pagecolor="#ffffff"
     bordercolor="#666666"
     borderopacity="1"
     objecttolerance="10"
     gridtolerance="10"
     guidetolerance="10"
     inkscape:pageopacity="0"
     inkscape:pageshadow="2"
     inkscape:window-width="1366"
     inkscape:window-height="706"
     id="namedview30"
     showgrid="false"
     inkscape:zoom="3.3714286"
     inkscape:cx="-7.542373"
     inkscape:cy="15.942797"
     inkscape:window-x="-4"
     inkscape:window-y="-4"
     inkscape:window-maximized="1"
     inkscape:current-layer="svg4160" />
  <defs
     id="defs4162">
    <linearGradient
       inkscape:collect="always"
       id="linearGradient4158">
      <stop
         style="stop-color:#0000ff;stop-opacity:1"
         offset="0"
         id="stop4160" />
      <stop
         style="stop-color:#00b4aa;stop-opacity:1"
         offset="1"
         id="stop4162" />
    </linearGradient>
    <linearGradient
       x1="64"
       y1="256"
       x2="448"
       y2="256"
       id="linearGradient4304-5"
       xlink:href="#linearGradient4587"
       gradientUnits="userSpaceOnUse"
       gradientTransform="matrix(0.06698171,0,0,0.06698171,-1.94452,0.35178)" />
    <linearGradient
       id="linearGradient4587">
      <stop
         id="stop4589"
         style="stop-color:#009b00;stop-opacity:1"
         offset="0" />
      <stop
         id="stop4591"
         style="stop-color:#f1fd00;stop-opacity:1"
         offset="1" />
    </linearGradient>
    <linearGradient
       inkscape:collect="always"
       xlink:href="#linearGradient4158"
       id="linearGradient4164"
       x1="2.342301"
       y1="17.499105"
       x2="28.06328"
       y2="17.499105"
       gradientUnits="userSpaceOnUse" />
  </defs>
  <metadata
     id="metadata4165">
    <rdf:RDF>
      <cc:Work
         rdf:about="">
        <dc:format>image/svg+xml</dc:format>
        <dc:type
           rdf:resource="http://purl.org/dc/dcmitype/StillImage" />
        <dc:title />
      </cc:Work>
    </rdf:RDF>
  </metadata>
  <circle
     r="9.9195604"
     cy="13.433225"
     cx="15.556351"
     id="path3408"
     style="fill:#ffffff;stroke:#ffffff;stroke-width:0.25276357" />
  <path
     d="m 15.202793,0.35178 c -7.102142,0 -12.860492,5.75835 -12.860492,12.86049 0,7.10215 10.71708,21.43416 12.860492,21.43416 2.143412,0 12.860487,-14.33201 12.860487,-21.43416 0,-7.10214 -5.758346,-12.86049 -12.860487,-12.86049 z m 0,21.43416 c -4.728503,0 -8.573655,-3.84731 -8.573655,-8.57367 0,-4.72635 3.845152,-8.57365 8.573655,-8.57365 4.728503,0 8.573655,3.8473 8.573655,8.57365 0,4.72636 -3.845152,8.57367 -8.573655,8.57367 z"
     id="path2994-5"
     style="fill:url(#linearGradient4164);fill-opacity:1" />
  <g
     transform="matrix(0.25996878,0,0,0.25996878,9.1660328,6.3481659)"
     id="g3489">
    <g
       id="g3442">
      <g
         id="Layer_1_78_">
        <g
           id="g3445">
          <path
             inkscape:connector-curvature="0"
             d="m 44.845,42.718 -42.709,0 C 0.956,42.718 0,43.674 0,44.855 0,46.034 0.956,46.99 2.136,46.99 l 42.708,0 c 1.18,0 2.136,-0.956 2.136,-2.135 -10e-4,-1.181 -0.957,-2.137 -2.135,-2.137 z"
             id="path3447" />
          <path
             inkscape:connector-curvature="0"
             d="m 4.805,37.165 c -1.18,0 -2.136,0.956 -2.136,2.136 0,1.18 0.956,2.137 2.136,2.137 l 37.37,0 c 1.18,0 2.136,-0.957 2.136,-2.137 0,-1.18 -0.956,-2.136 -2.136,-2.136 l -0.533,0 0,-19.22 0.533,0 c 0.591,0 1.067,-0.478 1.067,-1.067 0,-0.589 -0.478,-1.067 -1.067,-1.067 l -37.37,0 c -0.59,0 -1.067,0.478 -1.067,1.067 0,0.589 0.478,1.067 1.067,1.067 l 0.534,0 0,19.219 -0.534,0 z m 32.565,-19.22 0,19.219 -6.406,0 0,-19.219 6.406,0 z m -10.678,0 0,19.219 -6.406,0 0,-19.219 6.406,0 z m -17.083,0 6.406,0 0,19.219 -6.406,0 0,-19.219 z"
             id="path3449" />
          <path
             inkscape:connector-curvature="0"
             d="m 2.136,13.891 42.708,0 c 0.007,0 0.015,0 0.021,0 1.181,0 2.136,-0.956 2.136,-2.136 0,-0.938 -0.604,-1.733 -1.443,-2.021 L 24.368,0.199 c -0.557,-0.25 -1.194,-0.25 -1.752,0 L 1.26,9.808 c -0.919,0.414 -1.424,1.412 -1.212,2.396 0.211,0.984 1.081,1.687 2.088,1.687 z"
             id="path3451" />
        </g>
      </g>
    </g>
    <g
       id="g3453" />
    <g
       id="g3455" />
    <g
       id="g3457" />
    <g
       id="g3459" />
    <g
       id="g3461" />
    <g
       id="g3463" />
    <g
       id="g3465" />
    <g
       id="g3467" />
    <g
       id="g3469" />
    <g
       id="g3471" />
    <g
       id="g3473" />
    <g
       id="g3475" />
    <g
       id="g3477" />
    <g
       id="g3479" />
    <g
       id="g3481" />
  </g>
</svg>
