<?xml version="1.0" encoding="UTF-8" standalone="no"?>
<svg
   xmlns:dc="http://purl.org/dc/elements/1.1/"
   xmlns:cc="http://creativecommons.org/ns#"
   xmlns:rdf="http://www.w3.org/1999/02/22-rdf-syntax-ns#"
   xmlns:svg="http://www.w3.org/2000/svg"
   xmlns="http://www.w3.org/2000/svg"
   xmlns:xlink="http://www.w3.org/1999/xlink"
   xmlns:sodipodi="http://sodipodi.sourceforge.net/DTD/sodipodi-0.dtd"
   xmlns:inkscape="http://www.inkscape.org/namespaces/inkscape"
   width="30"
   height="35"
   viewBox="0 0 30 35.000001"
   id="svg4160"
   version="1.1"
   inkscape:version="0.91 r13725"
   sodipodi:docname="Shopping_and_services.svg">
  <sodipodi:namedview
     pagecolor="#ffffff"
     bordercolor="#666666"
     borderopacity="1"
     objecttolerance="10"
     gridtolerance="10"
     guidetolerance="10"
     inkscape:pageopacity="0"
     inkscape:pageshadow="2"
     inkscape:window-width="1366"
     inkscape:window-height="706"
     id="namedview28"
     showgrid="false"
     inkscape:zoom="6.7428571"
     inkscape:cx="-7.542373"
     inkscape:cy="15.794492"
     inkscape:window-x="-4"
     inkscape:window-y="-4"
     inkscape:window-maximized="1"
     inkscape:current-layer="svg4160" />
  <defs
     id="defs4162">
    <linearGradient
       x1="64"
       y1="256"
       x2="448"
       y2="256"
       id="linearGradient4304-5"
       xlink:href="#linearGradient4587"
       gradientUnits="userSpaceOnUse"
       gradientTransform="matrix(0.06698171,0,0,0.06698171,-1.94452,0.35178)" />
    <linearGradient
       id="linearGradient4587">
      <stop
         id="stop4589"
         style="stop-color:#2b1fa8;stop-opacity:1"
         offset="0" />
      <stop
         id="stop4591"
         style="stop-color:#ff36d1;stop-opacity:1"
         offset="1" />
    </linearGradient>
  </defs>
  <metadata
     id="metadata4165">
    <rdf:RDF>
      <cc:Work
         rdf:about="">
        <dc:format>image/svg+xml</dc:format>
        <dc:type
           rdf:resource="http://purl.org/dc/dcmitype/StillImage" />
        <dc:title />
      </cc:Work>
    </rdf:RDF>
  </metadata>
  <circle
     r="9.9195604"
     cy="13.433225"
     cx="15.556351"
     id="path3408"
     style="fill:#ffffff;stroke:#ffffff;stroke-width:0.25276357" />
  <path
     d="m 15.202793,0.35178 c -7.102142,0 -12.860492,5.75835 -12.860492,12.86049 0,7.10215 10.71708,21.43416 12.860492,21.43416 2.143412,0 12.860487,-14.33201 12.860487,-21.43416 0,-7.10214 -5.758346,-12.86049 -12.860487,-12.86049 z m 0,21.43416 c -4.728503,0 -8.573655,-3.84731 -8.573655,-8.57367 0,-4.72635 3.845152,-8.57365 8.573655,-8.57365 4.728503,0 8.573655,3.8473 8.573655,8.57365 0,4.72636 -3.845152,8.57367 -8.573655,8.57367 z"
     id="path2994-5"
     style="fill:url(#linearGradient4304-5);fill-opacity:1" />
  <g
     id="g4341"
     transform="matrix(0.021404,0,0,0.021404,9.1902155,7.5588533)">
    <g
       id="g4299">
      <g
         id="g4301">
        <path
           id="path4303"
           d="m 548.873,164.412 c 4.896,6.12 6.73,13.464 5.508,22.032 l -23.256,133.417 c -0.816,6.938 -3.979,12.648 -9.486,17.136 -5.508,4.488 -11.729,6.732 -18.666,6.732 l -339.048,0 -6.732,37.944 323.137,0 c 7.752,0 14.48,2.754 20.195,8.262 5.713,5.508 8.566,12.342 8.566,20.502 0,8.16 -2.854,14.994 -8.566,20.502 -5.715,5.508 -12.443,8.262 -20.195,8.262 l -357.409,0 c -8.568,0 -15.912,-3.468 -22.032,-10.401 -5.712,-6.938 -7.956,-14.895 -6.732,-23.868 L 109.457,321.7 86.201,87.914 20.105,67.106 C 12.353,64.658 6.743,59.965 3.275,53.03 -0.193,46.093 -0.907,38.75 1.133,30.998 3.581,23.246 8.375,17.636 15.515,14.168 22.655,10.7 29.897,9.986 37.241,12.026 l 84.456,26.928 c 5.304,1.632 9.69,4.692 13.158,9.18 3.468,4.488 5.61,9.589 6.426,15.301 l 4.896,46.512 383.112,42.84 c 8.568,1.221 15.096,5.097 19.584,11.625 z M 166.374,455.113 c 12.24,0 22.644,4.284 31.212,12.854 8.568,8.565 12.852,18.972 12.852,31.212 0,12.237 -4.284,22.746 -12.852,31.518 -8.568,8.772 -18.972,13.158 -31.212,13.158 -12.24,0 -22.644,-4.386 -31.212,-13.158 -8.568,-8.771 -12.852,-19.278 -12.852,-31.518 0,-12.24 4.284,-22.646 12.852,-31.212 8.567,-8.57 18.971,-12.854 31.212,-12.854 z m 261.323,0 c 12.238,0 22.645,4.284 31.213,12.854 8.564,8.565 12.852,18.972 12.852,31.212 0,12.237 -4.285,22.746 -12.852,31.518 -8.568,8.772 -18.975,13.158 -31.213,13.158 -12.24,0 -22.646,-4.386 -31.211,-13.158 -8.568,-8.771 -12.855,-19.278 -12.855,-31.518 0,-12.24 4.285,-22.646 12.855,-31.212 8.567,-8.57 18.971,-12.854 31.211,-12.854 z"
           style="fill:#010002"
           inkscape:connector-curvature="0" />
      </g>
    </g>
    <g
       id="g4305" />
    <g
       id="g4307" />
    <g
       id="g4309" />
    <g
       id="g4311" />
    <g
       id="g4313" />
    <g
       id="g4315" />
    <g
       id="g4317" />
    <g
       id="g4319" />
    <g
       id="g4321" />
    <g
       id="g4323" />
    <g
       id="g4325" />
    <g
       id="g4327" />
    <g
       id="g4329" />
    <g
       id="g4331" />
    <g
       id="g4333" />
  </g>
</svg>
