<?xml version="1.0" encoding="UTF-8" standalone="no"?>
<svg
   xmlns:dc="http://purl.org/dc/elements/1.1/"
   xmlns:cc="http://creativecommons.org/ns#"
   xmlns:rdf="http://www.w3.org/1999/02/22-rdf-syntax-ns#"
   xmlns:svg="http://www.w3.org/2000/svg"
   xmlns="http://www.w3.org/2000/svg"
   xmlns:xlink="http://www.w3.org/1999/xlink"
   xmlns:sodipodi="http://sodipodi.sourceforge.net/DTD/sodipodi-0.dtd"
   xmlns:inkscape="http://www.inkscape.org/namespaces/inkscape"
   version="1.1"
   id="svg4160"
   viewBox="0 0 30 35.000001"
   height="35"
   width="30"
   inkscape:version="0.91 r13725"
   sodipodi:docname="Transportation.svg">
  <sodipodi:namedview
     pagecolor="#ffffff"
     bordercolor="#666666"
     borderopacity="1"
     objecttolerance="10"
     gridtolerance="10"
     guidetolerance="10"
     inkscape:pageopacity="0"
     inkscape:pageshadow="2"
     inkscape:window-width="1366"
     inkscape:window-height="706"
     id="namedview30"
     showgrid="false"
     inkscape:zoom="4.76792"
     inkscape:cx="20.995763"
     inkscape:cy="17.290264"
     inkscape:window-x="-4"
     inkscape:window-y="-4"
     inkscape:window-maximized="1"
     inkscape:current-layer="svg4160" />
  <defs
     id="defs4162">
    <linearGradient
       gradientTransform="matrix(0.06698171,0,0,0.06698171,-1.94452,0.35178)"
       gradientUnits="userSpaceOnUse"
       xlink:href="#linearGradient4587"
       id="linearGradient4304-5"
       y2="256"
       x2="448"
       y1="256"
       x1="64" />
    <linearGradient
       id="linearGradient4587">
      <stop
         offset="0"
         style="stop-color:#cf4000;stop-opacity:1"
         id="stop4589" />
      <stop
         offset="1"
         style="stop-color:#f1d108;stop-opacity:1"
         id="stop4591" />
    </linearGradient>
  </defs>
  <metadata
     id="metadata4165">
    <rdf:RDF>
      <cc:Work
         rdf:about="">
        <dc:format>image/svg+xml</dc:format>
        <dc:type
           rdf:resource="http://purl.org/dc/dcmitype/StillImage" />
        <dc:title />
      </cc:Work>
    </rdf:RDF>
  </metadata>
  <circle
     style="fill:#ffffff;stroke:#ffffff;stroke-width:0.25276357"
     id="path3408"
     cx="15.556351"
     cy="13.433225"
     r="9.9195604" />
  <path
     inkscape:connector-curvature="0"
     style="fill:url(#linearGradient4304-5);fill-opacity:1"
     id="path2994-5"
     d="m 15.202793,0.35178 c -7.102142,0 -12.860492,5.75835 -12.860492,12.86049 0,7.10215 10.71708,21.43416 12.860492,21.43416 2.143412,0 12.860487,-14.33201 12.860487,-21.43416 0,-7.10214 -5.758346,-12.86049 -12.860487,-12.86049 z m 0,21.43416 c -4.728503,0 -8.573655,-3.84731 -8.573655,-8.57367 0,-4.72635 3.845152,-8.57365 8.573655,-8.57365 4.728503,0 8.573655,3.8473 8.573655,8.57365 0,4.72636 -3.845152,8.57367 -8.573655,8.57367 z" />
  <g
     id="g3477"
     transform="matrix(0.48400692,0,0,0.48400692,7.5410598,6.2568951)">
    <g
       id="g3427">
	<g
   id="c21_arrows">
		<path
   id="path3430"
   d="m 19.011,3.373 -5.626,0 0,-3.373 5.626,0 0,3.373 z"
   inkscape:connector-curvature="0" />

		<path
   id="path3432"
   d="m 19.011,13.498 -5.626,0 0,-2.252 5.626,0 0,2.252 z"
   inkscape:connector-curvature="0" />

		<path
   id="path3434"
   d="m 19.011,30.372 -5.626,0 0,-8.999 5.626,0 0,8.999 z"
   inkscape:connector-curvature="0" />

		<path
   id="path3436"
   d="m 28.193,7.311 -3.17,2.812 -19.511,0 L 8.179,7.311 5.512,4.5 l 19.511,0 3.17,2.811 z"
   inkscape:connector-curvature="0" />

		<path
   id="path3438"
   d="m 22.99,17.436 2.771,2.812 -20.26,0 -3.322,-2.812 3.322,-2.812 20.26,0 -2.771,2.812 z"
   inkscape:connector-curvature="0" />

	</g>

	<g
   id="Capa_1_1_">
	</g>

</g>
    <g
       id="g3441">
</g>
    <g
       id="g3443">
</g>
    <g
       id="g3445">
</g>
    <g
       id="g3447">
</g>
    <g
       id="g3449">
</g>
    <g
       id="g3451">
</g>
    <g
       id="g3453">
</g>
    <g
       id="g3455">
</g>
    <g
       id="g3457">
</g>
    <g
       id="g3459">
</g>
    <g
       id="g3461">
</g>
    <g
       id="g3463">
</g>
    <g
       id="g3465">
</g>
    <g
       id="g3467">
</g>
    <g
       id="g3469">
</g>
  </g>
</svg>
