<?xml version="1.0" encoding="UTF-8" standalone="no"?>
<svg
   xmlns:dc="http://purl.org/dc/elements/1.1/"
   xmlns:cc="http://creativecommons.org/ns#"
   xmlns:rdf="http://www.w3.org/1999/02/22-rdf-syntax-ns#"
   xmlns:svg="http://www.w3.org/2000/svg"
   xmlns="http://www.w3.org/2000/svg"
   xmlns:xlink="http://www.w3.org/1999/xlink"
   xmlns:sodipodi="http://sodipodi.sourceforge.net/DTD/sodipodi-0.dtd"
   xmlns:inkscape="http://www.inkscape.org/namespaces/inkscape"
   version="1.1"
   id="svg4160"
   viewBox="0 0 30 35.000001"
   height="35"
   width="30"
   inkscape:version="0.91 r13725"
   sodipodi:docname="artwork.svg">
  <sodipodi:namedview
     pagecolor="#ffffff"
     bordercolor="#666666"
     borderopacity="1"
     objecttolerance="10"
     gridtolerance="10"
     guidetolerance="10"
     inkscape:pageopacity="0"
     inkscape:pageshadow="2"
     inkscape:window-width="1366"
     inkscape:window-height="706"
     id="namedview30"
     showgrid="false"
     inkscape:zoom="4.76792"
     inkscape:cx="-23.474555"
     inkscape:cy="16.355453"
     inkscape:window-x="-4"
     inkscape:window-y="-4"
     inkscape:window-maximized="1"
     inkscape:current-layer="svg4160" />
  <defs
     id="defs4162">
    <linearGradient
       inkscape:collect="always"
       id="linearGradient4159">
      <stop
         style="stop-color:#2b1fa8;stop-opacity:1"
         offset="0"
         id="stop4161" />
      <stop
         style="stop-color:#ff36d1;stop-opacity:1"
         offset="1"
         id="stop4163" />
    </linearGradient>
    <linearGradient
       gradientTransform="matrix(0.06698171,0,0,0.06698171,-1.94452,0.35178)"
       gradientUnits="userSpaceOnUse"
       xlink:href="#linearGradient4587"
       id="linearGradient4304-5"
       y2="256"
       x2="448"
       y1="256"
       x1="64" />
    <linearGradient
       id="linearGradient4587">
      <stop
         offset="0"
         style="stop-color:#cc9900;stop-opacity:1"
         id="stop4589" />
      <stop
         offset="1"
         style="stop-color:#ffcc66;stop-opacity:1"
         id="stop4591" />
    </linearGradient>
    <linearGradient
       inkscape:collect="always"
       xlink:href="#linearGradient4159"
       id="linearGradient4165"
       x1="2.342301"
       y1="17.499105"
       x2="28.06328"
       y2="17.499105"
       gradientUnits="userSpaceOnUse" />
  </defs>
  <metadata
     id="metadata4165">
    <rdf:RDF>
      <cc:Work
         rdf:about="">
        <dc:format>image/svg+xml</dc:format>
        <dc:type
           rdf:resource="http://purl.org/dc/dcmitype/StillImage" />
        <dc:title />
      </cc:Work>
    </rdf:RDF>
  </metadata>
  <circle
     style="fill:#ffffff;stroke:#ffffff;stroke-width:0.25276357"
     id="path3408"
     cx="15.556351"
     cy="13.433225"
     r="9.9195604" />
  <path
     inkscape:connector-curvature="0"
     style="fill:url(#linearGradient4165);fill-opacity:1"
     id="path2994-5"
     d="m 15.202793,0.35178 c -7.102142,0 -12.860492,5.75835 -12.860492,12.86049 0,7.10215 10.71708,21.43416 12.860492,21.43416 2.143412,0 12.860487,-14.33201 12.860487,-21.43416 0,-7.10214 -5.758346,-12.86049 -12.860487,-12.86049 z m 0,21.43416 c -4.728503,0 -8.573655,-3.84731 -8.573655,-8.57367 0,-4.72635 3.845152,-8.57365 8.573655,-8.57365 4.728503,0 8.573655,3.8473 8.573655,8.57365 0,4.72636 -3.845152,8.57367 -8.573655,8.57367 z" />
  <g
     id="g4408"
     transform="matrix(0.39792371,0,0,0.39792371,9.8392084,7.8209698)">
    <g
       id="g4362">
      <g
         id="g4364">
        <path
           id="path4366"
           d="m 26.463,0.173 -25.426,0 C 0.467,0.173 0,0.641 0,1.211 L 0,26.29 c 0,0.569 0.467,1.037 1.037,1.037 l 25.426,0 c 0.57,0 1.037,-0.468 1.037,-1.037 l 0,-25.079 c 0,-0.57 -0.467,-1.038 -1.037,-1.038 z m -1.891,20.549 -21.947,0 0,-17.75 21.947,0 0,17.75 z"
           style="fill:#010002"
           inkscape:connector-curvature="0" />
        <circle
           id="circle4368"
           r="3.0480001"
           cy="7.5019999"
           cx="6.8540001"
           style="fill:#010002" />
        <path
           id="path4370"
           d="m 7.441,14.734 -2.86,3.371 C 3.869,18.944 4.187,19.63 5.287,19.63 l 16.378,0 c 1.101,0 1.562,-0.786 1.024,-1.746 L 17.751,9.052 C 17.215,8.092 16.298,8.069 15.714,9.002 l -2.871,4.587 c -0.584,0.933 -1.747,1.229 -2.585,0.658 C 9.42,13.676 8.153,13.895 7.441,14.734 Z"
           style="fill:#010002"
           inkscape:connector-curvature="0" />
      </g>
    </g>
    <g
       id="g4372" />
    <g
       id="g4374" />
    <g
       id="g4376" />
    <g
       id="g4378" />
    <g
       id="g4380" />
    <g
       id="g4382" />
    <g
       id="g4384" />
    <g
       id="g4386" />
    <g
       id="g4388" />
    <g
       id="g4390" />
    <g
       id="g4392" />
    <g
       id="g4394" />
    <g
       id="g4396" />
    <g
       id="g4398" />
    <g
       id="g4400" />
  </g>
</svg>
