<?xml version="1.0" encoding="UTF-8" standalone="no"?>
<!-- Created with Inkscape (http://www.inkscape.org/) -->

<svg
   xmlns:dc="http://purl.org/dc/elements/1.1/"
   xmlns:cc="http://creativecommons.org/ns#"
   xmlns:rdf="http://www.w3.org/1999/02/22-rdf-syntax-ns#"
   xmlns:svg="http://www.w3.org/2000/svg"
   xmlns="http://www.w3.org/2000/svg"
   xmlns:xlink="http://www.w3.org/1999/xlink"
   xmlns:sodipodi="http://sodipodi.sourceforge.net/DTD/sodipodi-0.dtd"
   xmlns:inkscape="http://www.inkscape.org/namespaces/inkscape"
   version="1.0"
   width="30"
   height="35"
   id="symbol-atm"
   inkscape:version="0.91 r13725"
   sodipodi:docname="atm.svg">
  <metadata
     id="metadata5759">
    <rdf:RDF>
      <cc:Work
         rdf:about="">
        <dc:format>image/svg+xml</dc:format>
        <dc:type
           rdf:resource="http://purl.org/dc/dcmitype/StillImage" />
        <dc:title />
      </cc:Work>
    </rdf:RDF>
  </metadata>
  <sodipodi:namedview
     pagecolor="#ffffff"
     bordercolor="#666666"
     borderopacity="1"
     objecttolerance="10"
     gridtolerance="10"
     guidetolerance="10"
     inkscape:pageopacity="0"
     inkscape:pageshadow="2"
     inkscape:window-width="1366"
     inkscape:window-height="706"
     id="namedview5757"
     showgrid="false"
     inkscape:zoom="8.34386"
     inkscape:cx="0.50847458"
     inkscape:cy="16.133715"
     inkscape:window-x="-4"
     inkscape:window-y="-4"
     inkscape:window-maximized="1"
     inkscape:current-layer="g6345" />
  <defs
     id="defs2387">
    <linearGradient
       id="linearGradient4159">
      <stop
         offset="0"
         style="stop-color:#cf4000;stop-opacity:1"
         id="stop4161" />
      <stop
         offset="1"
         style="stop-color:#f1d108;stop-opacity:1"
         id="stop4163" />
    </linearGradient>
    <linearGradient
       x1="64"
       y1="256"
       x2="448"
       y2="256"
       id="linearGradient4304"
       xlink:href="#linearGradient4159"
       gradientUnits="userSpaceOnUse"
       gradientTransform="matrix(2.3261995,0,0,2.3261995,-354.11839,-153.6865)" />
    <linearGradient
       id="linearGradient4429">
      <stop
         id="stop4431"
         style="stop-color:#0000ff;stop-opacity:1"
         offset="0" />
      <stop
         id="stop4433"
         style="stop-color:#00b4aa;stop-opacity:1"
         offset="1" />
    </linearGradient>
    <linearGradient
       x1="64"
       y1="256"
       x2="448"
       y2="256"
       id="linearGradient4304-2"
       xlink:href="#linearGradient4429"
       gradientUnits="userSpaceOnUse"
       gradientTransform="matrix(4.8728222,0,0,4.8728222,-1107.7815,-1228.1205)" />
  </defs>
  <g
     id="g6345"
     transform="matrix(0.02936501,0,0,0.02936501,8.0651118,4.5105419)">
    <circle
       r="345.73395"
       cy="295.23672"
       cx="243.45349"
       id="path6946"
       style="fill:#ffffff;stroke:#ffffff;stroke-width:30.68889046" />
    <path
       style="fill:url(#linearGradient4304);fill-opacity:1"
       id="path2994"
       d="m 241.38886,-153.6865 c -246.6493185,0 -446.63043,199.981099 -446.63043,446.63032 0,246.64932 372.19198,744.38398 446.63043,744.38398 74.43842,0 446.63028,-497.73466 446.63028,-744.38391 0,-246.649291 -199.98112,-446.63039 -446.63028,-446.63039 z m 0,744.38392 c -164.215796,0 -297.753687,-133.61222 -297.753687,-297.7536 0,-164.1412 133.537891,-297.7535256 297.753687,-297.7535256 164.21573,0 297.7535,133.6123256 297.7535,297.7535256 0,164.14138 -133.53777,297.7536 -297.7535,297.7536 z"
       inkscape:connector-curvature="0" />
    <path
       id="path6347"
       d="m 346.57718,288.80101 c -11.94938,-9.23313 -29.87303,-16.83764 -53.77096,-22.81192 l -18.73837,-4.07356 0,-79.02702 c 0.54342,0.54342 1.08601,0.81471 1.62943,0.81471 0.54341,0 0.81471,0.2713 0.81471,0.81472 15.75163,7.6037 24.17086,20.63908 25.25605,39.10615 l 62.73279,0 c -1.08601,-32.58846 -13.30668,-57.57322 -36.66202,-74.95346 -15.20822,-11.40596 -33.13187,-19.00966 -53.77096,-22.81192 l 0,-43.994423 -57.84451,0 0,42.365003 c -27.15678,3.25884 -48.61139,11.94937 -64.36221,26.07076 -20.63909,18.46707 -30.95904,41.8224 -30.95904,70.06519 0,30.41563 10.59125,52.95625 31.77375,67.62106 11.40596,8.14711 32.58846,15.75081 63.5475,22.81192 l 0,84.72999 c -11.40596,-3.25884 -20.09649,-8.41841 -26.07077,-15.47951 -6.51769,-7.60371 -10.59125,-17.92366 -12.22067,-30.95904 l -61.91808,0 c 0,32.04505 11.67726,57.3011 35.0326,75.76817 16.83764,13.03538 38.56274,21.4538 65.17692,25.25606 l 0,32.58846 57.84451,0 0,-31.77375 c 28.24361,-3.80226 50.78342,-12.76409 67.62106,-26.88548 21.72591,-19.00967 32.58846,-42.90841 32.58846,-71.69462 0,-27.70019 -9.23313,-48.88268 -27.70019,-63.54749 z M 216.22334,248.06543 c -9.23313,-2.71543 -15.75082,-5.15956 -19.55308,-7.3324 -10.31995,-5.43168 -15.47952,-13.8501 -15.47952,-25.25606 0,-12.49197 5.15957,-21.99721 15.47952,-28.5149 5.43168,-3.25885 11.94937,-5.97428 19.55308,-8.14711 l 0,69.25047 z m 67.62105,145.83336 c -2.71543,1.08601 -5.97428,1.90072 -9.77654,2.44414 l 0,-72.50933 c 10.31995,3.25885 18.19496,6.51769 23.62664,9.77654 9.23312,5.97428 13.85009,14.12139 13.85009,24.44135 0,17.38024 -9.23312,29.32961 -27.70019,35.8473 z"
       style="fill:#010002"
       inkscape:connector-curvature="0" />
  </g>
</svg>
