<?xml version="1.0" encoding="UTF-8" standalone="no"?>
<svg
   xmlns:dc="http://purl.org/dc/elements/1.1/"
   xmlns:cc="http://creativecommons.org/ns#"
   xmlns:rdf="http://www.w3.org/1999/02/22-rdf-syntax-ns#"
   xmlns:svg="http://www.w3.org/2000/svg"
   xmlns="http://www.w3.org/2000/svg"
   xmlns:xlink="http://www.w3.org/1999/xlink"
   xmlns:sodipodi="http://sodipodi.sourceforge.net/DTD/sodipodi-0.dtd"
   xmlns:inkscape="http://www.inkscape.org/namespaces/inkscape"
   version="1.1"
   id="svg4160"
   viewBox="0 0 30 35.000001"
   height="35"
   width="30"
   inkscape:version="0.91 r13725"
   sodipodi:docname="camp_site.svg">
  <sodipodi:namedview
     pagecolor="#ffffff"
     bordercolor="#666666"
     borderopacity="1"
     objecttolerance="10"
     gridtolerance="10"
     guidetolerance="10"
     inkscape:pageopacity="0"
     inkscape:pageshadow="2"
     inkscape:window-width="1366"
     inkscape:window-height="706"
     id="namedview30"
     showgrid="false"
     inkscape:zoom="9.53584"
     inkscape:cx="18.063728"
     inkscape:cy="17.290264"
     inkscape:window-x="-4"
     inkscape:window-y="-4"
     inkscape:window-maximized="1"
     inkscape:current-layer="svg4160" />
  <defs
     id="defs4162">
    <linearGradient
       gradientTransform="matrix(0.06698171,0,0,0.06698171,-1.94452,0.35178)"
       gradientUnits="userSpaceOnUse"
       xlink:href="#linearGradient4587"
       id="linearGradient4304-5"
       y2="256"
       x2="448"
       y1="256"
       x1="64" />
    <linearGradient
       id="linearGradient4587">
      <stop
         offset="0"
         style="stop-color:#f000d4;stop-opacity:1"
         id="stop4589" />
      <stop
         offset="1"
         style="stop-color:#cfb2f1;stop-opacity:1"
         id="stop4591" />
    </linearGradient>
  </defs>
  <metadata
     id="metadata4165">
    <rdf:RDF>
      <cc:Work
         rdf:about="">
        <dc:format>image/svg+xml</dc:format>
        <dc:type
           rdf:resource="http://purl.org/dc/dcmitype/StillImage" />
        <dc:title />
      </cc:Work>
    </rdf:RDF>
  </metadata>
  <circle
     style="fill:#ffffff;stroke:#ffffff;stroke-width:0.25276357"
     id="path3408"
     cx="15.556351"
     cy="13.433225"
     r="9.9195604" />
  <path
     inkscape:connector-curvature="0"
     style="fill:url(#linearGradient4304-5);fill-opacity:1"
     id="path2994-5"
     d="m 15.202793,0.35178 c -7.102142,0 -12.860492,5.75835 -12.860492,12.86049 0,7.10215 10.71708,21.43416 12.860492,21.43416 2.143412,0 12.860487,-14.33201 12.860487,-21.43416 0,-7.10214 -5.758346,-12.86049 -12.860487,-12.86049 z m 0,21.43416 c -4.728503,0 -8.573655,-3.84731 -8.573655,-8.57367 0,-4.72635 3.845152,-8.57365 8.573655,-8.57365 4.728503,0 8.573655,3.8473 8.573655,8.57365 0,4.72636 -3.845152,8.57367 -8.573655,8.57367 z" />
  <g
     id="g4473"
     transform="matrix(0.27293292,0,0,0.27293292,9.0948313,6.2377655)">
    <g
       id="g4431">
      <g
         id="g4433">
        <path
           id="path4435"
           d="M 0.364,41.487 20.822,8.418 17.243,2.882 C 16.764,2.141 16.976,1.153 17.717,0.674 18.458,0.195 19.448,0.406 19.928,1.149 l 2.844,4.403 2.848,-4.404 c 0.479,-0.741 1.469,-0.953 2.209,-0.474 0.741,0.479 0.953,1.468 0.476,2.209 l -3.578,5.536 20.457,33.069 c 0.461,0.735 0.486,1.656 0.065,2.415 -0.42,0.76 -1.22,1.225 -2.087,1.225 l -9.055,0 c -0.817,0 -1.579,-0.417 -2.021,-1.104 L 24.393,32.017 c -0.354,-0.552 -0.964,-0.885 -1.619,-0.885 -0.654,0 -1.265,0.333 -1.619,0.886 l -7.689,12.006 c -0.44,0.689 -1.202,1.106 -2.021,1.106 l -9.058,0 c -0.868,0 -1.668,-0.465 -2.088,-1.226 -0.42,-0.761 -0.396,-1.682 0.065,-2.417 z"
           inkscape:connector-curvature="0" />
      </g>
    </g>
    <g
       id="g4437" />
    <g
       id="g4439" />
    <g
       id="g4441" />
    <g
       id="g4443" />
    <g
       id="g4445" />
    <g
       id="g4447" />
    <g
       id="g4449" />
    <g
       id="g4451" />
    <g
       id="g4453" />
    <g
       id="g4455" />
    <g
       id="g4457" />
    <g
       id="g4459" />
    <g
       id="g4461" />
    <g
       id="g4463" />
    <g
       id="g4465" />
  </g>
</svg>
