<?xml version="1.0" encoding="UTF-8" standalone="no"?>
<svg
   xmlns:dc="http://purl.org/dc/elements/1.1/"
   xmlns:cc="http://creativecommons.org/ns#"
   xmlns:rdf="http://www.w3.org/1999/02/22-rdf-syntax-ns#"
   xmlns:svg="http://www.w3.org/2000/svg"
   xmlns="http://www.w3.org/2000/svg"
   xmlns:xlink="http://www.w3.org/1999/xlink"
   xmlns:sodipodi="http://sodipodi.sourceforge.net/DTD/sodipodi-0.dtd"
   xmlns:inkscape="http://www.inkscape.org/namespaces/inkscape"
   version="1.1"
   id="svg4160"
   viewBox="0 0 30 35.000001"
   height="35"
   width="30"
   inkscape:version="0.91 r13725"
   sodipodi:docname="fountain.svg">
  <sodipodi:namedview
     pagecolor="#ffffff"
     bordercolor="#666666"
     borderopacity="1"
     objecttolerance="10"
     gridtolerance="10"
     guidetolerance="10"
     inkscape:pageopacity="0"
     inkscape:pageshadow="2"
     inkscape:window-width="1366"
     inkscape:window-height="706"
     id="namedview30"
     showgrid="false"
     inkscape:zoom="4.76792"
     inkscape:cx="4.8396785"
     inkscape:cy="15.297782"
     inkscape:window-x="-4"
     inkscape:window-y="-4"
     inkscape:window-maximized="1"
     inkscape:current-layer="svg4160" />
  <defs
     id="defs4162">
    <linearGradient
       gradientTransform="matrix(0.06698171,0,0,0.06698171,-1.94452,0.35178)"
       gradientUnits="userSpaceOnUse"
       xlink:href="#linearGradient4587"
       id="linearGradient4304-5"
       y2="256"
       x2="448"
       y1="256"
       x1="64" />
    <linearGradient
       id="linearGradient4587">
      <stop
         offset="0"
         style="stop-color:#0000ff;stop-opacity:1"
         id="stop4589" />
      <stop
         offset="1"
         style="stop-color:#00b4aa;stop-opacity:1"
         id="stop4591" />
    </linearGradient>
  </defs>
  <metadata
     id="metadata4165">
    <rdf:RDF>
      <cc:Work
         rdf:about="">
        <dc:format>image/svg+xml</dc:format>
        <dc:type
           rdf:resource="http://purl.org/dc/dcmitype/StillImage" />
        <dc:title />
      </cc:Work>
    </rdf:RDF>
  </metadata>
  <circle
     style="fill:#ffffff;stroke:#ffffff;stroke-width:0.25276357"
     id="path3408"
     cx="15.556351"
     cy="13.433225"
     r="9.9195604" />
  <path
     inkscape:connector-curvature="0"
     style="fill:url(#linearGradient4304-5);fill-opacity:1"
     id="path2994-5"
     d="m 15.202793,0.35178 c -7.102142,0 -12.860492,5.75835 -12.860492,12.86049 0,7.10215 10.71708,21.43416 12.860492,21.43416 2.143412,0 12.860487,-14.33201 12.860487,-21.43416 0,-7.10214 -5.758346,-12.86049 -12.860487,-12.86049 z m 0,21.43416 c -4.728503,0 -8.573655,-3.84731 -8.573655,-8.57367 0,-4.72635 3.845152,-8.57365 8.573655,-8.57365 4.728503,0 8.573655,3.8473 8.573655,8.57365 0,4.72636 -3.845152,8.57367 -8.573655,8.57367 z" />
  <g
     id="g3782"
     transform="matrix(0.02915738,0,0,0.02915738,8.6992741,6.419151)">
    <g
       id="g3708">
      <g
         id="g3710">
        <polygon
           id="polygon3712"
           points="68.936,192.795 131.381,267.791 181.628,267.791 181.628,383.86 131.381,383.86 68.936,458.856 389.92,458.856 327.475,383.86 277.228,383.86 277.228,267.791 327.475,267.791 389.92,192.795 240.552,192.795 240.552,159.293 253.428,159.293 253.428,145.293 205.428,145.293 205.428,159.293 218.303,159.293 218.303,192.795 " />
        <path
           id="path3714"
           d="m 410.214,94.591 c -0.003,-10e-4 -1.339,-0.823 -5.812,-0.823 -3.458,0 -7.211,0.481 -10.438,1.05 1.626,8.654 4.094,14.346 5.463,15.298 1.593,1.105 3.452,1.69 5.378,1.69 3.103,0 6.011,-1.518 7.778,-4.06 2.973,-4.278 1.911,-10.179 -2.369,-13.155 z"
           inkscape:connector-curvature="0" />
        <path
           id="path3716"
           d="m 345.892,76.491 c 6.803,6.489 12.632,9.976 14.924,9.997 l 0.077,-0.002 c 2.753,-0.083 5.343,-1.249 7.256,-3.281 1.913,-2.033 2.92,-4.69 2.836,-7.48 -0.177,-5.804 -4.922,-10.313 -10.756,-10.13 -2.236,0.068 -8.016,4.113 -14.337,10.896 z"
           inkscape:connector-curvature="0" />
        <path
           id="path3718"
           d="m 294.616,90.563 c 4.094,1.188 10.255,2.688 15.229,2.688 3.014,0 4.177,-0.578 4.38,-0.694 2.654,-1.519 4.56,-3.98 5.362,-6.932 0.802,-2.951 0.408,-6.039 -1.111,-8.694 -2.035,-3.557 -5.851,-5.767 -9.956,-5.767 -1.977,0 -3.938,0.524 -5.67,1.516 -2.555,1.46 -5.924,8.84 -8.234,17.883 z"
           inkscape:connector-curvature="0" />
        <path
           id="path3720"
           d="m 251.753,95.273 c -3.338,3.082 -4.654,14.053 -4.687,22.617 1.959,0.147 4.438,0.276 7.083,0.276 11.566,0 15.062,-2.398 15.857,-3.134 2.64,-2.438 4.171,-5.757 4.312,-9.347 0.144,-3.591 -1.122,-7.021 -3.561,-9.659 -2.576,-2.789 -6.087,-4.325 -9.887,-4.325 -3.385,0 -6.625,1.269 -9.117,3.572 z"
           inkscape:connector-curvature="0" />
        <path
           id="path3722"
           d="m 48.642,94.591 c -4.279,2.976 -5.342,8.877 -2.368,13.155 1.768,2.542 4.676,4.06 7.778,4.06 1.926,0 3.785,-0.585 5.378,-1.69 1.369,-0.952 3.837,-6.644 5.463,-15.298 -3.229,-0.568 -6.981,-1.05 -10.439,-1.05 -4.473,0 -5.809,0.822 -5.812,0.823 z"
           inkscape:connector-curvature="0" />
        <path
           id="path3724"
           d="m 97.963,86.487 0.077,0.002 c 2.292,-0.021 8.121,-3.508 14.924,-9.997 -6.321,-6.783 -12.101,-10.828 -14.337,-10.896 -5.834,-0.183 -10.579,4.326 -10.756,10.13 -0.084,2.79 0.923,5.447 2.836,7.48 1.913,2.032 4.503,3.198 7.256,3.281 z"
           inkscape:connector-curvature="0" />
        <path
           id="path3726"
           d="m 144.631,92.555 c 0.203,0.116 1.366,0.694 4.38,0.694 4.976,0 11.137,-1.5 15.229,-2.687 -2.311,-9.043 -5.68,-16.423 -8.234,-17.885 -1.732,-0.991 -3.693,-1.516 -5.67,-1.516 -4.105,0 -7.921,2.21 -9.956,5.767 -1.52,2.655 -1.913,5.743 -1.111,8.694 0.804,2.952 2.708,5.414 5.362,6.933 z"
           inkscape:connector-curvature="0" />
        <path
           id="path3728"
           d="m 204.705,118.167 c 2.646,0 5.124,-0.129 7.083,-0.276 -0.031,-8.564 -1.349,-19.535 -4.686,-22.617 -2.492,-2.303 -5.731,-3.571 -9.121,-3.571 -3.799,0 -7.31,1.536 -9.886,4.325 -2.438,2.639 -3.703,6.068 -3.561,9.659 0.142,3.59 1.673,6.909 4.313,9.347 0.797,0.734 4.292,3.133 15.858,3.133 z"
           inkscape:connector-curvature="0" />
        <path
           id="path3730"
           d="m 399.453,30.063 c 1.97,-4.823 -0.354,-10.351 -5.18,-12.322 -0.003,0 -1.485,-0.512 -5.851,0.463 -3.375,0.754 -6.934,2.042 -9.959,3.301 3.473,8.092 7.122,13.108 8.666,13.739 1.795,0.731 3.738,0.897 5.617,0.478 3.027,-0.677 5.535,-2.792 6.707,-5.659 z"
           inkscape:connector-curvature="0" />
        <path
           id="path3732"
           d="m 344.297,20.6 0.075,-0.019 c 2.668,-0.682 4.941,-2.384 6.365,-4.784 1.425,-2.401 1.828,-5.214 1.138,-7.919 -1.438,-5.625 -7.05,-8.991 -12.706,-7.542 -2.167,0.555 -6.925,5.762 -11.617,13.76 8.054,4.851 14.503,6.982 16.745,6.504 z"
           inkscape:connector-curvature="0" />
        <path
           id="path3734"
           d="m 296.025,38.308 c 2.941,-0.657 3.95,-1.475 4.123,-1.632 2.261,-2.061 3.582,-4.879 3.723,-7.935 0.14,-3.055 -0.918,-5.982 -2.979,-8.243 -2.762,-3.027 -6.967,-4.353 -10.974,-3.457 -1.93,0.43 -3.729,1.369 -5.203,2.715 -2.175,1.983 -3.855,9.92 -4.14,19.249 4.254,0.267 10.594,0.388 15.45,-0.697 z"
           inkscape:connector-curvature="0" />
        <path
           id="path3736"
           d="m 247.1,74.765 c 11.289,-2.521 14.177,-5.623 14.793,-6.515 2.045,-2.954 2.814,-6.527 2.171,-10.063 -0.644,-3.535 -2.625,-6.606 -5.58,-8.65 -3.122,-2.16 -6.883,-2.895 -10.591,-2.066 -3.308,0.739 -6.193,2.683 -8.124,5.474 -2.584,3.735 -1.479,14.729 0.355,23.095 1.948,-0.284 4.394,-0.698 6.976,-1.275 z"
           inkscape:connector-curvature="0" />
        <path
           id="path3738"
           d="m 80.393,21.504 c -3.026,-1.259 -6.584,-2.547 -9.959,-3.301 -4.365,-0.975 -5.849,-0.463 -5.851,-0.463 -4.825,1.972 -7.148,7.499 -5.179,12.322 1.172,2.867 3.679,4.982 6.706,5.658 1.88,0.42 3.823,0.254 5.617,-0.478 1.544,-0.629 5.193,-5.646 8.666,-13.738 z"
           inkscape:connector-curvature="0" />
        <path
           id="path3740"
           d="m 114.484,20.581 0.075,0.019 c 2.242,0.479 8.691,-1.653 16.745,-6.504 -4.692,-7.998 -9.45,-13.205 -11.617,-13.76 -5.654,-1.449 -11.268,1.917 -12.705,7.542 -0.69,2.705 -0.288,5.518 1.137,7.919 1.423,2.401 3.697,4.103 6.365,4.784 z"
           inkscape:connector-curvature="0" />
        <path
           id="path3742"
           d="m 162.831,38.308 c 4.856,1.085 11.196,0.964 15.449,0.697 -0.284,-9.329 -1.964,-17.266 -4.139,-19.249 -1.475,-1.346 -3.274,-2.285 -5.203,-2.715 -4.007,-0.896 -8.212,0.43 -10.974,3.457 -2.062,2.261 -3.119,5.188 -2.979,8.243 0.141,3.056 1.463,5.874 3.723,7.935 0.173,0.157 1.182,0.975 4.123,1.632 z"
           inkscape:connector-curvature="0" />
        <path
           id="path3744"
           d="m 211.756,74.765 c 2.582,0.577 5.029,0.991 6.973,1.274 1.836,-8.365 2.941,-19.359 0.356,-23.095 -1.93,-2.791 -4.816,-4.734 -8.124,-5.474 -3.708,-0.828 -7.469,-0.094 -10.591,2.066 -2.955,2.044 -4.936,5.115 -5.58,8.65 -0.645,3.535 0.126,7.108 2.171,10.063 0.617,0.893 3.506,3.995 14.795,6.516 z"
           inkscape:connector-curvature="0" />
      </g>
    </g>
    <g
       id="g3746" />
    <g
       id="g3748" />
    <g
       id="g3750" />
    <g
       id="g3752" />
    <g
       id="g3754" />
    <g
       id="g3756" />
    <g
       id="g3758" />
    <g
       id="g3760" />
    <g
       id="g3762" />
    <g
       id="g3764" />
    <g
       id="g3766" />
    <g
       id="g3768" />
    <g
       id="g3770" />
    <g
       id="g3772" />
    <g
       id="g3774" />
  </g>
</svg>
