<?xml version="1.0" encoding="UTF-8" standalone="no"?>
<svg
   xmlns:dc="http://purl.org/dc/elements/1.1/"
   xmlns:cc="http://creativecommons.org/ns#"
   xmlns:rdf="http://www.w3.org/1999/02/22-rdf-syntax-ns#"
   xmlns:svg="http://www.w3.org/2000/svg"
   xmlns="http://www.w3.org/2000/svg"
   xmlns:xlink="http://www.w3.org/1999/xlink"
   xmlns:sodipodi="http://sodipodi.sourceforge.net/DTD/sodipodi-0.dtd"
   xmlns:inkscape="http://www.inkscape.org/namespaces/inkscape"
   version="1.1"
   id="svg4160"
   viewBox="0 0 30 35.000001"
   height="35"
   width="30"
   inkscape:version="0.91 r13725"
   sodipodi:docname="information.svg">
  <sodipodi:namedview
     pagecolor="#ffffff"
     bordercolor="#666666"
     borderopacity="1"
     objecttolerance="10"
     gridtolerance="10"
     guidetolerance="10"
     inkscape:pageopacity="0"
     inkscape:pageshadow="2"
     inkscape:window-width="1366"
     inkscape:window-height="706"
     id="namedview30"
     showgrid="false"
     inkscape:zoom="4.76792"
     inkscape:cx="4.8396787"
     inkscape:cy="15.942797"
     inkscape:window-x="-4"
     inkscape:window-y="-4"
     inkscape:window-maximized="1"
     inkscape:current-layer="svg4160" />
  <defs
     id="defs4162">
    <linearGradient
       gradientTransform="matrix(0.06698171,0,0,0.06698171,-1.94452,0.35178)"
       gradientUnits="userSpaceOnUse"
       xlink:href="#linearGradient4587"
       id="linearGradient4304-5"
       y2="256"
       x2="448"
       y1="256"
       x1="64" />
    <linearGradient
       id="linearGradient4587">
      <stop
         offset="0"
         style="stop-color:#cf4000;stop-opacity:1"
         id="stop4589" />
      <stop
         offset="1"
         style="stop-color:#f1d108;stop-opacity:1"
         id="stop4591" />
    </linearGradient>
  </defs>
  <metadata
     id="metadata4165">
    <rdf:RDF>
      <cc:Work
         rdf:about="">
        <dc:format>image/svg+xml</dc:format>
        <dc:type
           rdf:resource="http://purl.org/dc/dcmitype/StillImage" />
        <dc:title />
      </cc:Work>
    </rdf:RDF>
  </metadata>
  <circle
     style="fill:#ffffff;stroke:#ffffff;stroke-width:0.25276357"
     id="path3408"
     cx="15.556351"
     cy="13.433225"
     r="9.9195604" />
  <path
     inkscape:connector-curvature="0"
     style="fill:url(#linearGradient4304-5);fill-opacity:1"
     id="path2994-5"
     d="m 15.202793,0.35178 c -7.102142,0 -12.860492,5.75835 -12.860492,12.86049 0,7.10215 10.71708,21.43416 12.860492,21.43416 2.143412,0 12.860487,-14.33201 12.860487,-21.43416 0,-7.10214 -5.758346,-12.86049 -12.860487,-12.86049 z m 0,21.43416 c -4.728503,0 -8.573655,-3.84731 -8.573655,-8.57367 0,-4.72635 3.845152,-8.57365 8.573655,-8.57365 4.728503,0 8.573655,3.8473 8.573655,8.57365 0,4.72636 -3.845152,8.57367 -8.573655,8.57367 z" />
  <g
     id="g4536"
     transform="matrix(0.13049934,0,0,0.13049934,8.3662224,6.7060236)">
    <g
       id="g4494">
      <g
         id="g4496">
        <path
           id="path4498"
           d="m 62.162,0 c 6.696,0 10.043,4.567 10.043,9.789 0,6.522 -5.814,12.555 -13.391,12.555 -6.344,0 -10.045,-3.752 -9.869,-9.947 C 48.945,7.176 53.35,0 62.162,0 Z M 41.543,100 c -5.287,0 -9.164,-3.262 -5.463,-17.615 l 6.07,-25.457 c 1.057,-4.077 1.23,-5.707 0,-5.707 -1.588,0 -8.451,2.816 -12.51,5.59 L 27,52.406 C 39.863,41.48 54.662,35.072 61.004,35.072 c 5.285,0 6.168,6.361 3.525,16.148 L 57.58,77.98 c -1.234,4.729 -0.703,6.359 0.527,6.359 1.586,0 6.787,-1.963 11.896,-6.041 L 73,82.377 C 60.488,95.1 46.83,100 41.543,100 Z"
           style="fill:#030104"
           inkscape:connector-curvature="0" />
      </g>
    </g>
    <g
       id="g4500" />
    <g
       id="g4502" />
    <g
       id="g4504" />
    <g
       id="g4506" />
    <g
       id="g4508" />
    <g
       id="g4510" />
    <g
       id="g4512" />
    <g
       id="g4514" />
    <g
       id="g4516" />
    <g
       id="g4518" />
    <g
       id="g4520" />
    <g
       id="g4522" />
    <g
       id="g4524" />
    <g
       id="g4526" />
    <g
       id="g4528" />
  </g>
</svg>
