<?xml version="1.0" encoding="UTF-8" standalone="no"?>
<svg
   xmlns:dc="http://purl.org/dc/elements/1.1/"
   xmlns:cc="http://creativecommons.org/ns#"
   xmlns:rdf="http://www.w3.org/1999/02/22-rdf-syntax-ns#"
   xmlns:svg="http://www.w3.org/2000/svg"
   xmlns="http://www.w3.org/2000/svg"
   xmlns:xlink="http://www.w3.org/1999/xlink"
   xmlns:sodipodi="http://sodipodi.sourceforge.net/DTD/sodipodi-0.dtd"
   xmlns:inkscape="http://www.inkscape.org/namespaces/inkscape"
   version="1.1"
   id="svg4160"
   viewBox="0 0 30 35.000001"
   height="35"
   width="30"
   inkscape:version="0.91 r13725"
   sodipodi:docname="pub.svg">
  <sodipodi:namedview
     pagecolor="#ffffff"
     bordercolor="#666666"
     borderopacity="1"
     objecttolerance="10"
     gridtolerance="10"
     guidetolerance="10"
     inkscape:pageopacity="0"
     inkscape:pageshadow="2"
     inkscape:window-width="1366"
     inkscape:window-height="706"
     id="namedview31"
     showgrid="false"
     inkscape:zoom="6.7428571"
     inkscape:cx="-7.542373"
     inkscape:cy="17.20339"
     inkscape:window-x="-4"
     inkscape:window-y="-4"
     inkscape:window-maximized="1"
     inkscape:current-layer="svg4160" />
  <defs
     id="defs4162">
    <linearGradient
       gradientTransform="matrix(0.06698171,0,0,0.06698171,-1.94452,0.35178)"
       gradientUnits="userSpaceOnUse"
       xlink:href="#linearGradient4587"
       id="linearGradient4304-5"
       y2="256"
       x2="448"
       y1="256"
       x1="64" />
    <linearGradient
       id="linearGradient4587">
      <stop
         offset="0"
         style="stop-color:#009b00;stop-opacity:1"
         id="stop4589" />
      <stop
         offset="1"
         style="stop-color:#f1fd00;stop-opacity:1"
         id="stop4591" />
    </linearGradient>
  </defs>
  <metadata
     id="metadata4165">
    <rdf:RDF>
      <cc:Work
         rdf:about="">
        <dc:format>image/svg+xml</dc:format>
        <dc:type
           rdf:resource="http://purl.org/dc/dcmitype/StillImage" />
        <dc:title />
      </cc:Work>
    </rdf:RDF>
  </metadata>
  <circle
     style="fill:#ffffff;stroke:#ffffff;stroke-width:0.25276357"
     id="path3408"
     cx="15.556351"
     cy="13.433225"
     r="9.9195604" />
  <path
     inkscape:connector-curvature="0"
     style="fill:url(#linearGradient4304-5);fill-opacity:1"
     id="path2994-5"
     d="m 15.202793,0.35178 c -7.102142,0 -12.860492,5.75835 -12.860492,12.86049 0,7.10215 10.71708,21.43416 12.860492,21.43416 2.143412,0 12.860487,-14.33201 12.860487,-21.43416 0,-7.10214 -5.758346,-12.86049 -12.860487,-12.86049 z m 0,21.43416 c -4.728503,0 -8.573655,-3.84731 -8.573655,-8.57367 0,-4.72635 3.845152,-8.57365 8.573655,-8.57365 4.728503,0 8.573655,3.8473 8.573655,8.57365 0,4.72636 -3.845152,8.57367 -8.573655,8.57367 z" />
  <g
     id="g4116"
     transform="matrix(0.01959017,0,0,0.01959017,10.657562,8.01633)">
    <g
       id="g4074">
      <g
         id="g4076">
        <path
           inkscape:connector-curvature="0"
           id="path4078"
           d="m 36.867,533.033 351.838,0 c 10.142,0 18.36,-8.219 18.36,-18.359 l 0,-70.38 c 0,-9.726 -7.583,-17.602 -17.148,-18.238 l 0,-41.358 32.81,0 c 50.618,0 91.8,-41.182 91.8,-91.801 l 0,-133.544 c 0,-50.619 -41.182,-91.8 -91.8,-91.8 l -32.81,0 0,-49.689 C 389.917,7.999 381.918,0 372.053,0 L 53.519,0 C 43.654,0 35.655,7.999 35.655,17.864 l 0,408.191 c -9.56,0.637 -17.148,8.513 -17.148,18.238 l 0,70.38 c 0,10.141 8.219,18.36 18.36,18.36 z m 353.05,-404.281 32.81,0 c 16.873,0 30.6,13.727 30.6,30.6 l 0,133.544 c 0,16.873 -13.727,30.601 -30.6,30.601 l -32.81,0 0,-194.745 z" />
      </g>
    </g>
    <g
       id="g4080" />
    <g
       id="g4082" />
    <g
       id="g4084" />
    <g
       id="g4086" />
    <g
       id="g4088" />
    <g
       id="g4090" />
    <g
       id="g4092" />
    <g
       id="g4094" />
    <g
       id="g4096" />
    <g
       id="g4098" />
    <g
       id="g4100" />
    <g
       id="g4102" />
    <g
       id="g4104" />
    <g
       id="g4106" />
    <g
       id="g4108" />
  </g>
</svg>
