<?xml version="1.0" encoding="UTF-8" standalone="no"?>
<svg
   xmlns:dc="http://purl.org/dc/elements/1.1/"
   xmlns:cc="http://creativecommons.org/ns#"
   xmlns:rdf="http://www.w3.org/1999/02/22-rdf-syntax-ns#"
   xmlns:svg="http://www.w3.org/2000/svg"
   xmlns="http://www.w3.org/2000/svg"
   xmlns:xlink="http://www.w3.org/1999/xlink"
   xmlns:sodipodi="http://sodipodi.sourceforge.net/DTD/sodipodi-0.dtd"
   xmlns:inkscape="http://www.inkscape.org/namespaces/inkscape"
   version="1.1"
   id="svg4160"
   viewBox="0 0 30 35.000001"
   height="35"
   width="30"
   inkscape:version="0.91 r13725"
   sodipodi:docname="restaurant.svg">
  <sodipodi:namedview
     pagecolor="#ffffff"
     bordercolor="#666666"
     borderopacity="1"
     objecttolerance="10"
     gridtolerance="10"
     guidetolerance="10"
     inkscape:pageopacity="0"
     inkscape:pageshadow="2"
     inkscape:window-width="1366"
     inkscape:window-height="706"
     id="namedview30"
     showgrid="false"
     inkscape:zoom="3.3714286"
     inkscape:cx="-47.788105"
     inkscape:cy="15.088047"
     inkscape:window-x="-4"
     inkscape:window-y="-4"
     inkscape:window-maximized="1"
     inkscape:current-layer="svg4160" />
  <defs
     id="defs4162">
    <linearGradient
       gradientTransform="matrix(0.06698171,0,0,0.06698171,-1.94452,0.35178)"
       gradientUnits="userSpaceOnUse"
       xlink:href="#linearGradient4587"
       id="linearGradient4304-5"
       y2="256"
       x2="448"
       y1="256"
       x1="64" />
    <linearGradient
       id="linearGradient4587">
      <stop
         offset="0"
         style="stop-color:#009b00;stop-opacity:1"
         id="stop4589" />
      <stop
         offset="1"
         style="stop-color:#f1fd00;stop-opacity:1"
         id="stop4591" />
    </linearGradient>
    <linearGradient
       inkscape:collect="always"
       xlink:href="#linearGradient4587"
       id="linearGradient4164"
       x1="2.3423009"
       y1="17.499105"
       x2="28.06328"
       y2="17.499105"
       gradientUnits="userSpaceOnUse" />
  </defs>
  <metadata
     id="metadata4165">
    <rdf:RDF>
      <cc:Work
         rdf:about="">
        <dc:format>image/svg+xml</dc:format>
        <dc:type
           rdf:resource="http://purl.org/dc/dcmitype/StillImage" />
        <dc:title />
      </cc:Work>
    </rdf:RDF>
  </metadata>
  <circle
     style="fill:#ffffff;stroke:#ffffff;stroke-width:0.25276357"
     id="path3408"
     cx="15.556351"
     cy="13.433225"
     r="9.9195604" />
  <path
     inkscape:connector-curvature="0"
     style="fill:url(#linearGradient4164);fill-opacity:1.0"
     id="path2994-5"
     d="m 15.202793,0.35178 c -7.102142,0 -12.860492,5.75835 -12.860492,12.86049 0,7.10215 10.71708,21.43416 12.860492,21.43416 2.143412,0 12.860487,-14.33201 12.860487,-21.43416 0,-7.10214 -5.758346,-12.86049 -12.860487,-12.86049 z m 0,21.43416 c -4.728503,0 -8.573655,-3.84731 -8.573655,-8.57367 0,-4.72635 3.845152,-8.57365 8.573655,-8.57365 4.728503,0 8.573655,3.8473 8.573655,8.57365 0,4.72636 -3.845152,8.57367 -8.573655,8.57367 z" />
  <g
     id="g3989"
     transform="matrix(0.13683838,0,0,0.13683838,8.7937323,6.8803613)">
    <g
       id="g3945">
      <g
         id="g3947">
        <path
           id="path3949"
           d="m 49.208,0 -4.5,0 c -1.104,0 -2,0.895 -2,2 l 0,31.457 -7.75,0 0,-31.457 c 0,-1.105 -0.895,-2 -2,-2 l -5,0 c -1.104,0 -2,0.895 -2,2 l 0,31.457 -7.75,0 0,-31.457 c 0,-1.105 -0.895,-2 -2,-2 l -4.5,0 c -1.104,0 -2,0.895 -2,2 l 0,29.25 c 0,8.844 5.938,16.74 14.438,19.199 l 0,42.801 c 0,1.104 0.896,2 2,2 l 8.625,0 c 1.105,0 2,-0.896 2,-2 l 0,-42.801 C 45.273,47.99 51.209,40.094 51.209,31.25 L 51.209,2 C 51.208,0.895 50.314,0 49.208,0 Z"
           inkscape:connector-curvature="0" />
        <path
           id="path3951"
           d="M 85.521,92.965 85.46,2.012 C 85.46,1.473 85.241,0.957 84.855,0.58 84.468,0.205 83.954,-0.01 83.409,0.014 75.937,0.207 58.558,2.66 58.558,21.217 l 0,31.535 c 0,0.531 0.211,1.039 0.586,1.414 0.375,0.375 0.885,0.586 1.414,0.586 0,0 0,0 0.002,0 l 12.437,-0.004 0,38.502 c 0,1.104 0.896,2 2,2 l 8.524,0 c 0.008,0 0.017,0 0.021,0 1.104,0 2,-0.896 2,-2 -0.001,-0.098 -0.009,-0.193 -0.021,-0.285 z"
           inkscape:connector-curvature="0" />
      </g>
    </g>
    <g
       id="g3953" />
    <g
       id="g3955" />
    <g
       id="g3957" />
    <g
       id="g3959" />
    <g
       id="g3961" />
    <g
       id="g3963" />
    <g
       id="g3965" />
    <g
       id="g3967" />
    <g
       id="g3969" />
    <g
       id="g3971" />
    <g
       id="g3973" />
    <g
       id="g3975" />
    <g
       id="g3977" />
    <g
       id="g3979" />
    <g
       id="g3981" />
  </g>
</svg>
