<?xml version="1.0" encoding="UTF-8" standalone="no"?>
<svg
   xmlns:dc="http://purl.org/dc/elements/1.1/"
   xmlns:cc="http://creativecommons.org/ns#"
   xmlns:rdf="http://www.w3.org/1999/02/22-rdf-syntax-ns#"
   xmlns:svg="http://www.w3.org/2000/svg"
   xmlns="http://www.w3.org/2000/svg"
   xmlns:xlink="http://www.w3.org/1999/xlink"
   xmlns:sodipodi="http://sodipodi.sourceforge.net/DTD/sodipodi-0.dtd"
   xmlns:inkscape="http://www.inkscape.org/namespaces/inkscape"
   version="1.1"
   id="svg4160"
   viewBox="0 0 30 35.000001"
   height="35"
   width="30"
   inkscape:version="0.91 r13725"
   sodipodi:docname="viewpoint.svg">
  <sodipodi:namedview
     pagecolor="#ffffff"
     bordercolor="#666666"
     borderopacity="1"
     objecttolerance="10"
     gridtolerance="10"
     guidetolerance="10"
     inkscape:pageopacity="0"
     inkscape:pageshadow="2"
     inkscape:window-width="1366"
     inkscape:window-height="706"
     id="namedview30"
     showgrid="false"
     inkscape:zoom="6.7428571"
     inkscape:cx="0.97457627"
     inkscape:cy="17.20339"
     inkscape:window-x="-4"
     inkscape:window-y="-4"
     inkscape:window-maximized="1"
     inkscape:current-layer="svg4160" />
  <defs
     id="defs4162">
    <linearGradient
       gradientTransform="matrix(0.06698171,0,0,0.06698171,-1.94452,0.35178)"
       gradientUnits="userSpaceOnUse"
       xlink:href="#linearGradient4587"
       id="linearGradient4304-5"
       y2="256"
       x2="448"
       y1="256"
       x1="64" />
    <linearGradient
       id="linearGradient4587">
      <stop
         offset="0"
         style="stop-color:#00bc00;stop-opacity:1"
         id="stop4589" />
      <stop
         offset="1"
         style="stop-color:#29ff00;stop-opacity:1"
         id="stop4591" />
    </linearGradient>
  </defs>
  <metadata
     id="metadata4165">
    <rdf:RDF>
      <cc:Work
         rdf:about="">
        <dc:format>image/svg+xml</dc:format>
        <dc:type
           rdf:resource="http://purl.org/dc/dcmitype/StillImage" />
        <dc:title />
      </cc:Work>
    </rdf:RDF>
  </metadata>
  <circle
     style="fill:#ffffff;stroke:#ffffff;stroke-width:0.25276357"
     id="path3408"
     cx="15.556351"
     cy="13.433225"
     r="9.9195604" />
  <path
     inkscape:connector-curvature="0"
     style="fill:url(#linearGradient4304-5);fill-opacity:1"
     id="path2994-5"
     d="m 15.202793,0.35178 c -7.102142,0 -12.860492,5.75835 -12.860492,12.86049 0,7.10215 10.71708,21.43416 12.860492,21.43416 2.143412,0 12.860487,-14.33201 12.860487,-21.43416 0,-7.10214 -5.758346,-12.86049 -12.860487,-12.86049 z m 0,21.43416 c -4.728503,0 -8.573655,-3.84731 -8.573655,-8.57367 0,-4.72635 3.845152,-8.57365 8.573655,-8.57365 4.728503,0 8.573655,3.8473 8.573655,8.57365 0,4.72636 -3.845152,8.57367 -8.573655,8.57367 z" />
  <g
     id="g4603"
     transform="matrix(0.74345095,0,0,0.74345095,8.6386507,6.5620075)">
    <g
       id="g4557">
      <g
         id="g4559">
        <path
           id="path4561"
           d="M 17.331,11.492 14.8,4.669 C 14.777,4.573 14.735,4.484 14.683,4.4 l 0,-0.056 -0.011,-0.068 -0.036,0 C 14.511,3.578 14.073,2.995 13.471,2.665 13.463,1.861 12.81,1.213 12.003,1.213 c -0.812,0 -1.47,0.659 -1.47,1.47 0,0.097 0.011,0.191 0.028,0.282 C 10.059,3.299 9.667,3.751 9.573,4.267 L 8.138,4.261 C 8.047,3.772 7.685,3.342 7.217,3.013 7.242,2.907 7.259,2.796 7.259,2.683 7.259,1.871 6.601,1.213 5.789,1.213 4.996,1.213 4.355,1.843 4.324,2.628 3.664,2.957 3.182,3.588 3.07,4.346 2.995,4.443 2.934,4.549 2.905,4.669 L 0.124,11.492 C 0.041,11.787 0,12.079 0,12.365 c 0,2.104 2.122,3.878 4.635,3.878 1.738,0 3.291,-0.85 4.083,-2.069 0.778,1.229 2.322,2.069 4.099,2.069 2.557,0 4.638,-1.739 4.638,-3.878 -0.002,-0.286 -0.043,-0.578 -0.124,-0.873 z M 4.507,15.249 c -1.741,0 -3.153,-1.41 -3.153,-3.153 0,-1.741 1.412,-3.15 3.153,-3.15 1.741,0 3.154,1.409 3.154,3.15 0,1.743 -1.412,3.153 -3.154,3.153 z m 4.22,-4.843 c -0.676,0 -1.22,-0.546 -1.22,-1.222 0,-0.675 0.544,-1.222 1.22,-1.222 0.676,0 1.222,0.547 1.222,1.222 0,0.676 -0.546,1.222 -1.222,1.222 z m 4.372,4.843 c -1.741,0 -3.151,-1.41 -3.151,-3.153 0,-1.741 1.41,-3.15 3.151,-3.15 1.742,0 3.154,1.409 3.154,3.15 0,1.743 -1.412,3.153 -3.154,3.153 z"
           style="fill:#030104"
           inkscape:connector-curvature="0" />
        <path
           id="path4563"
           d="m 4.391,14.107 c -1.117,0 -2.024,-0.906 -2.024,-2.023 0,-0.057 0.003,-0.111 0.009,-0.167 -0.11,0.247 -0.168,0.521 -0.168,0.81 0,1.117 0.904,2.023 2.023,2.023 1.061,0 1.931,-0.817 2.016,-1.857 -0.315,0.714 -1.027,1.214 -1.856,1.214 z"
           style="fill:#030104"
           inkscape:connector-curvature="0" />
        <path
           id="path4565"
           d="m 14.369,13.774 c -0.919,0.631 -2.182,0.396 -2.813,-0.525 -0.029,-0.047 -0.06,-0.094 -0.087,-0.143 0.053,0.266 0.157,0.526 0.32,0.763 0.63,0.923 1.891,1.159 2.813,0.526 0.876,-0.6 1.13,-1.767 0.61,-2.671 0.147,0.765 -0.158,1.58 -0.843,2.05 z"
           style="fill:#030104"
           inkscape:connector-curvature="0" />
      </g>
    </g>
    <g
       id="g4567" />
    <g
       id="g4569" />
    <g
       id="g4571" />
    <g
       id="g4573" />
    <g
       id="g4575" />
    <g
       id="g4577" />
    <g
       id="g4579" />
    <g
       id="g4581" />
    <g
       id="g4583" />
    <g
       id="g4585" />
    <g
       id="g4587" />
    <g
       id="g4589" />
    <g
       id="g4591" />
    <g
       id="g4593" />
    <g
       id="g4595" />
  </g>
</svg>
