<?xml version="1.0" encoding="UTF-8" standalone="no"?>
<svg
   xmlns:dc="http://purl.org/dc/elements/1.1/"
   xmlns:cc="http://creativecommons.org/ns#"
   xmlns:rdf="http://www.w3.org/1999/02/22-rdf-syntax-ns#"
   xmlns:svg="http://www.w3.org/2000/svg"
   xmlns="http://www.w3.org/2000/svg"
   xmlns:xlink="http://www.w3.org/1999/xlink"
   xmlns:sodipodi="http://sodipodi.sourceforge.net/DTD/sodipodi-0.dtd"
   xmlns:inkscape="http://www.inkscape.org/namespaces/inkscape"
   version="1.1"
   id="svg4160"
   viewBox="0 0 30 35.000001"
   height="35"
   width="30"
   inkscape:version="0.91 r13725"
   sodipodi:docname="waste_basket.svg">
  <sodipodi:namedview
     pagecolor="#ffffff"
     bordercolor="#666666"
     borderopacity="1"
     objecttolerance="10"
     gridtolerance="10"
     guidetolerance="10"
     inkscape:pageopacity="0"
     inkscape:pageshadow="2"
     inkscape:window-width="1366"
     inkscape:window-height="706"
     id="namedview30"
     showgrid="false"
     inkscape:zoom="4.76792"
     inkscape:cx="4.8396785"
     inkscape:cy="17.08053"
     inkscape:window-x="-4"
     inkscape:window-y="-4"
     inkscape:window-maximized="1"
     inkscape:current-layer="svg4160" />
  <defs
     id="defs4162">
    <linearGradient
       inkscape:collect="always"
       id="linearGradient4157">
      <stop
         style="stop-color:#cf4000;stop-opacity:1"
         offset="0"
         id="stop4159" />
      <stop
         style="stop-color:#f1d108;stop-opacity:1"
         offset="1"
         id="stop4161" />
    </linearGradient>
    <linearGradient
       gradientTransform="matrix(0.06698171,0,0,0.06698171,-1.94452,0.35178)"
       gradientUnits="userSpaceOnUse"
       xlink:href="#linearGradient4587"
       id="linearGradient4304-5"
       y2="256"
       x2="448"
       y1="256"
       x1="64" />
    <linearGradient
       id="linearGradient4587">
      <stop
         offset="0"
         style="stop-color:#009b00;stop-opacity:1"
         id="stop4589" />
      <stop
         offset="1"
         style="stop-color:#f1fd00;stop-opacity:1"
         id="stop4591" />
    </linearGradient>
    <linearGradient
       inkscape:collect="always"
       xlink:href="#linearGradient4157"
       id="linearGradient4163"
       x1="2.342301"
       y1="17.499105"
       x2="28.06328"
       y2="17.499105"
       gradientUnits="userSpaceOnUse" />
  </defs>
  <metadata
     id="metadata4165">
    <rdf:RDF>
      <cc:Work
         rdf:about="">
        <dc:format>image/svg+xml</dc:format>
        <dc:type
           rdf:resource="http://purl.org/dc/dcmitype/StillImage" />
        <dc:title />
      </cc:Work>
    </rdf:RDF>
  </metadata>
  <circle
     style="fill:#ffffff;stroke:#ffffff;stroke-width:0.25276357"
     id="path3408"
     cx="15.556351"
     cy="13.433225"
     r="9.9195604" />
  <path
     inkscape:connector-curvature="0"
     style="fill:url(#linearGradient4163);fill-opacity:1"
     id="path2994-5"
     d="m 15.202793,0.35178 c -7.102142,0 -12.860492,5.75835 -12.860492,12.86049 0,7.10215 10.71708,21.43416 12.860492,21.43416 2.143412,0 12.860487,-14.33201 12.860487,-21.43416 0,-7.10214 -5.758346,-12.86049 -12.860487,-12.86049 z m 0,21.43416 c -4.728503,0 -8.573655,-3.84731 -8.573655,-8.57367 0,-4.72635 3.845152,-8.57365 8.573655,-8.57365 4.728503,0 8.573655,3.8473 8.573655,8.57365 0,4.72636 -3.845152,8.57367 -8.573655,8.57367 z" />
  <g
     id="g4053"
     transform="matrix(0.03889453,0,0,0.03889453,8.7916384,6.2490615)">
    <g
       id="g4011">
      <path
         id="path4013"
         d="m 283,43 -42.109,0 C 239.339,19.03 219.355,0 195,0 L 151,0 C 126.645,0 106.661,19.03 105.108,43 L 63,43 c -8.271,0 -15,6.729 -15,15 l 0,20 c 0,8.271 6.729,15 15,15 l 220,0 c 8.271,0 15,-6.729 15,-15 l 0,-20 c 0,-8.271 -6.729,-15 -15,-15 z M 135.292,43 C 136.701,35.608 143.204,30 151,30 l 44,0 c 7.796,0 14.299,5.608 15.708,13 l -75.416,0 z"
         inkscape:connector-curvature="0" />
      <path
         id="path4015"
         d="m 273.166,122 -201,0 c -4.04,0 -7.784,1.592 -10.542,4.482 -2.759,2.891 -4.174,6.705 -3.985,10.74 l 9.066,194.021 C 67.085,339.38 74.021,346 82.166,346 l 181,0 c 8.145,0 15.081,-6.62 15.461,-14.756 l 9.066,-194.021 c 0.189,-4.036 -1.227,-7.85 -3.985,-10.74 C 280.951,123.592 277.206,122 273.166,122 Z M 130,286 c 0,8.284 -6.716,15 -15,15 -8.284,0 -15,-6.716 -15,-15 l 0,-109 c 0,-8.284 6.716,-15 15,-15 8.284,0 15,6.716 15,15 l 0,109 z m 58,0 c 0,8.284 -6.716,15 -15,15 -8.284,0 -15,-6.716 -15,-15 l 0,-109 c 0,-8.284 6.716,-15 15,-15 8.284,0 15,6.716 15,15 l 0,109 z m 58,0 c 0,8.284 -6.716,15 -15,15 -8.284,0 -15,-6.716 -15,-15 l 0,-109 c 0,-8.284 6.716,-15 15,-15 8.284,0 15,6.716 15,15 l 0,109 z"
         inkscape:connector-curvature="0" />
    </g>
    <g
       id="g4017" />
    <g
       id="g4019" />
    <g
       id="g4021" />
    <g
       id="g4023" />
    <g
       id="g4025" />
    <g
       id="g4027" />
    <g
       id="g4029" />
    <g
       id="g4031" />
    <g
       id="g4033" />
    <g
       id="g4035" />
    <g
       id="g4037" />
    <g
       id="g4039" />
    <g
       id="g4041" />
    <g
       id="g4043" />
    <g
       id="g4045" />
  </g>
</svg>
