<?xml version="1.0" encoding="UTF-8" standalone="no"?>
<svg
   xmlns:dc="http://purl.org/dc/elements/1.1/"
   xmlns:cc="http://creativecommons.org/ns#"
   xmlns:rdf="http://www.w3.org/1999/02/22-rdf-syntax-ns#"
   xmlns:svg="http://www.w3.org/2000/svg"
   xmlns="http://www.w3.org/2000/svg"
   xmlns:xlink="http://www.w3.org/1999/xlink"
   xmlns:sodipodi="http://sodipodi.sourceforge.net/DTD/sodipodi-0.dtd"
   xmlns:inkscape="http://www.inkscape.org/namespaces/inkscape"
   width="30"
   height="35"
   viewBox="0 0 30 35.000001"
   id="svg4160"
   version="1.1"
   inkscape:version="0.91 r13725"
   sodipodi:docname="bicycle_rental.svg">
  <sodipodi:namedview
     pagecolor="#ffffff"
     bordercolor="#666666"
     borderopacity="1"
     objecttolerance="10"
     gridtolerance="10"
     guidetolerance="10"
     inkscape:pageopacity="0"
     inkscape:pageshadow="2"
     inkscape:window-width="1366"
     inkscape:window-height="706"
     id="namedview33"
     showgrid="false"
     inkscape:zoom="6.7428571"
     inkscape:cx="15"
     inkscape:cy="17.351695"
     inkscape:window-x="-4"
     inkscape:window-y="-4"
     inkscape:window-maximized="1"
     inkscape:current-layer="svg4160" />
  <defs
     id="defs4162">
    <linearGradient
       x1="64"
       y1="256"
       x2="448"
       y2="256"
       id="linearGradient4304-5"
       xlink:href="#linearGradient4587"
       gradientUnits="userSpaceOnUse"
       gradientTransform="matrix(0.06698171,0,0,0.06698171,-1.94452,0.35178)" />
    <linearGradient
       id="linearGradient4587">
      <stop
         id="stop4589"
         style="stop-color:#ff0000;stop-opacity:1"
         offset="0" />
      <stop
         id="stop4591"
         style="stop-color:#780000;stop-opacity:1"
         offset="1" />
    </linearGradient>
  </defs>
  <metadata
     id="metadata4165">
    <rdf:RDF>
      <cc:Work
         rdf:about="">
        <dc:format>image/svg+xml</dc:format>
        <dc:type
           rdf:resource="http://purl.org/dc/dcmitype/StillImage" />
        <dc:title />
      </cc:Work>
    </rdf:RDF>
  </metadata>
  <circle
     r="9.9195604"
     cy="13.433225"
     cx="15.556351"
     id="path3408"
     style="fill:#ffffff;stroke:#ffffff;stroke-width:0.25276357" />
  <path
     d="m 15.202793,0.35178 c -7.102142,0 -12.860492,5.75835 -12.860492,12.86049 0,7.10215 10.71708,21.43416 12.860492,21.43416 2.143412,0 12.860487,-14.33201 12.860487,-21.43416 0,-7.10214 -5.758346,-12.86049 -12.860487,-12.86049 z m 0,21.43416 c -4.728503,0 -8.573655,-3.84731 -8.573655,-8.57367 0,-4.72635 3.845152,-8.57365 8.573655,-8.57365 4.728503,0 8.573655,3.8473 8.573655,8.57365 0,4.72636 -3.845152,8.57367 -8.573655,8.57367 z"
     id="path2994-5"
     style="fill:url(#linearGradient4304-5);fill-opacity:1" />
  <g
     transform="matrix(0.26597622,0,0,0.26597622,8.8104416,6.6873348)"
     id="g3561">
    <g
       id="g3513">
      <g
         id="g3515">
        <path
           d="M 9.405,25.479 C 4.218,25.479 0,29.698 0,34.885 c 0,5.187 4.219,9.407 9.405,9.407 5.188,0 9.407,-4.22 9.407,-9.407 0,-5.187 -4.219,-9.406 -9.407,-9.406 z m 0,14.826 c -2.987,0 -5.419,-2.432 -5.419,-5.42 0,-2.988 2.432,-5.42 5.419,-5.42 2.989,0 5.421,2.432 5.421,5.42 0,2.988 -2.431,5.42 -5.421,5.42 z"
           id="path3517" />
        <path
           d="m 36.318,25.479 c -5.188,0 -9.406,4.219 -9.406,9.406 0,5.187 4.219,9.407 9.406,9.407 5.188,0 9.406,-4.22 9.406,-9.407 0,-5.187 -4.218,-9.406 -9.406,-9.406 z m 0,14.826 c -2.988,0 -5.42,-2.432 -5.42,-5.42 0,-2.988 2.432,-5.42 5.42,-5.42 2.987,0 5.42,2.432 5.42,5.42 0,2.988 -2.432,5.42 -5.42,5.42 z"
           id="path3519" />
        <path
           d="m 24.777,25.198 -5.056,-4.479 5.487,-5.25 2.574,3.894 c 0.531,0.806 1.42,1.305 2.388,1.339 l 5.058,0.179 c 1.633,0.062 3.034,-1.232 3.094,-2.882 0.059,-1.651 -1.232,-3.036 -2.883,-3.094 l -3.52,-0.124 -3.7,-5.594 C 27.73,8.448 26.939,7.963 26.059,7.865 25.174,7.767 24.299,8.062 23.659,8.676 L 13.237,18.64 c -0.604,0.578 -0.938,1.381 -0.922,2.217 0.014,0.835 0.385,1.626 1.01,2.181 l 6.478,5.741 0,10.244 c 0,1.65 1.345,2.989 2.996,2.989 1.652,0 2.997,-1.339 2.997,-2.989 l 0,-11.59 c -10e-4,-0.854 -0.38,-1.669 -1.019,-2.235 z"
           id="path3521" />
        <circle
           cx="32.362999"
           cy="5.388"
           r="3.9560001"
           id="circle3523" />
      </g>
    </g>
    <g
       id="g3525" />
    <g
       id="g3527" />
    <g
       id="g3529" />
    <g
       id="g3531" />
    <g
       id="g3533" />
    <g
       id="g3535" />
    <g
       id="g3537" />
    <g
       id="g3539" />
    <g
       id="g3541" />
    <g
       id="g3543" />
    <g
       id="g3545" />
    <g
       id="g3547" />
    <g
       id="g3549" />
    <g
       id="g3551" />
    <g
       id="g3553" />
  </g>
</svg>
