<?xml version="1.0" encoding="UTF-8" standalone="no"?>
<svg
   xmlns:dc="http://purl.org/dc/elements/1.1/"
   xmlns:cc="http://creativecommons.org/ns#"
   xmlns:rdf="http://www.w3.org/1999/02/22-rdf-syntax-ns#"
   xmlns:svg="http://www.w3.org/2000/svg"
   xmlns="http://www.w3.org/2000/svg"
   xmlns:xlink="http://www.w3.org/1999/xlink"
   xmlns:sodipodi="http://sodipodi.sourceforge.net/DTD/sodipodi-0.dtd"
   xmlns:inkscape="http://www.inkscape.org/namespaces/inkscape"
   version="1.1"
   id="svg4160"
   viewBox="0 0 30 35.000001"
   height="35"
   width="30"
   inkscape:version="0.91 r13725"
   sodipodi:docname="car_wash.svg">
  <sodipodi:namedview
     pagecolor="#ffffff"
     bordercolor="#666666"
     borderopacity="1"
     objecttolerance="10"
     gridtolerance="10"
     guidetolerance="10"
     inkscape:pageopacity="0"
     inkscape:pageshadow="2"
     inkscape:window-width="1366"
     inkscape:window-height="706"
     id="namedview30"
     showgrid="false"
     inkscape:zoom="4.76792"
     inkscape:cx="-30.575053"
     inkscape:cy="16.993655"
     inkscape:window-x="-4"
     inkscape:window-y="-4"
     inkscape:window-maximized="1"
     inkscape:current-layer="svg4160" />
  <defs
     id="defs4162">
    <linearGradient
       gradientTransform="matrix(0.06698171,0,0,0.06698171,-1.94452,0.35178)"
       gradientUnits="userSpaceOnUse"
       xlink:href="#linearGradient4587"
       id="linearGradient4304-5"
       y2="256"
       x2="448"
       y1="256"
       x1="64" />
    <linearGradient
       id="linearGradient4587">
      <stop
         offset="0"
         style="stop-color:#ff0000;stop-opacity:1"
         id="stop4589" />
      <stop
         offset="1"
         style="stop-color:#780000;stop-opacity:1"
         id="stop4591" />
    </linearGradient>
  </defs>
  <metadata
     id="metadata4165">
    <rdf:RDF>
      <cc:Work
         rdf:about="">
        <dc:format>image/svg+xml</dc:format>
        <dc:type
           rdf:resource="http://purl.org/dc/dcmitype/StillImage" />
        <dc:title />
      </cc:Work>
    </rdf:RDF>
  </metadata>
  <circle
     style="fill:#ffffff;stroke:#ffffff;stroke-width:0.25276357"
     id="path3408"
     cx="15.556351"
     cy="13.433225"
     r="9.9195604" />
  <path
     inkscape:connector-curvature="0"
     style="fill:url(#linearGradient4304-5);fill-opacity:1"
     id="path2994-5"
     d="m 15.202793,0.35178 c -7.102142,0 -12.860492,5.75835 -12.860492,12.86049 0,7.10215 10.71708,21.43416 12.860492,21.43416 2.143412,0 12.860487,-14.33201 12.860487,-21.43416 0,-7.10214 -5.758346,-12.86049 -12.860487,-12.86049 z m 0,21.43416 c -4.728503,0 -8.573655,-3.84731 -8.573655,-8.57367 0,-4.72635 3.845152,-8.57365 8.573655,-8.57365 4.728503,0 8.573655,3.8473 8.573655,8.57365 0,4.72636 -3.845152,8.57367 -8.573655,8.57367 z" />
  <g
     id="g3625"
     transform="matrix(0.02464066,0,0,0.02464066,8.7192132,6.2358548)">
    <g
       id="g3585">
      <path
         id="path3587"
         d="m 380.856,99.341 c 19.606,0 35.47,-15.864 35.47,-35.47 0,-23.676 -35.47,-63.872 -35.47,-63.872 0,0 -35.513,40.196 -35.513,63.872 -0.001,19.606 15.863,35.47 35.513,35.47 z m -118.291,0 c 19.628,0 35.47,-15.864 35.47,-35.47 0,-23.676 -35.47,-63.872 -35.47,-63.872 0,0 -35.47,40.196 -35.47,63.872 0.001,19.606 15.843,35.47 35.47,35.47 z m -118.29,0 c 19.649,0 35.513,-15.864 35.513,-35.47 C 179.788,40.196 144.275,0 144.275,0 c 0,0 -35.47,40.196 -35.47,63.872 0,19.605 15.842,35.469 35.47,35.469 z m 281.985,71.202 c -4.726,-13.982 -17.965,-23.894 -33.588,-23.894 l -260.213,0 c -15.623,0 -28.643,9.912 -33.588,23.894 l -49.189,141.726 0,189.23 c 0,13.019 10.634,23.654 23.632,23.654 l 23.654,0 c 13.019,0 23.654,-10.634 23.654,-23.654 l 0,-23.654 283.911,0 0,23.654 c 0,13.019 10.634,23.654 23.654,23.654 l 23.654,0 c 12.998,0 23.632,-10.634 23.632,-23.654 l 0,-189.23 L 426.26,170.543 Z M 132.459,406.862 c -19.628,0 -35.492,-15.842 -35.492,-35.47 0,-19.628 15.864,-35.492 35.492,-35.492 19.649,0 35.47,15.864 35.47,35.492 0,19.628 -15.821,35.47 -35.47,35.47 z m 260.213,0 c -19.649,0 -35.47,-15.842 -35.47,-35.47 0,-19.628 15.82,-35.492 35.47,-35.492 19.628,0 35.492,15.864 35.492,35.492 0,19.628 -15.843,35.47 -35.492,35.47 z M 96.967,288.593 l 35.492,-106.475 260.235,0 35.492,106.475 -331.219,0 z"
         inkscape:connector-curvature="0" />
    </g>
    <g
       id="g3589" />
    <g
       id="g3591" />
    <g
       id="g3593" />
    <g
       id="g3595" />
    <g
       id="g3597" />
    <g
       id="g3599" />
    <g
       id="g3601" />
    <g
       id="g3603" />
    <g
       id="g3605" />
    <g
       id="g3607" />
    <g
       id="g3609" />
    <g
       id="g3611" />
    <g
       id="g3613" />
    <g
       id="g3615" />
    <g
       id="g3617" />
  </g>
</svg>
