<?xml version="1.0" encoding="UTF-8" standalone="no"?>
<svg
   xmlns:dc="http://purl.org/dc/elements/1.1/"
   xmlns:cc="http://creativecommons.org/ns#"
   xmlns:rdf="http://www.w3.org/1999/02/22-rdf-syntax-ns#"
   xmlns:svg="http://www.w3.org/2000/svg"
   xmlns="http://www.w3.org/2000/svg"
   xmlns:xlink="http://www.w3.org/1999/xlink"
   xmlns:sodipodi="http://sodipodi.sourceforge.net/DTD/sodipodi-0.dtd"
   xmlns:inkscape="http://www.inkscape.org/namespaces/inkscape"
   width="30"
   height="35"
   viewBox="0 0 30 35.000001"
   id="svg4160"
   version="1.1"
   inkscape:version="0.91 r13725"
   sodipodi:docname="dentist.svg">
  <sodipodi:namedview
     pagecolor="#ffffff"
     bordercolor="#666666"
     borderopacity="1"
     objecttolerance="10"
     gridtolerance="10"
     guidetolerance="10"
     inkscape:pageopacity="0"
     inkscape:pageshadow="2"
     inkscape:window-width="1366"
     inkscape:window-height="706"
     id="namedview30"
     showgrid="false"
     inkscape:zoom="6.7428571"
     inkscape:cx="-7.542373"
     inkscape:cy="15.942797"
     inkscape:window-x="-4"
     inkscape:window-y="-4"
     inkscape:window-maximized="1"
     inkscape:current-layer="svg4160" />
  <defs
     id="defs4162">
    <linearGradient
       inkscape:collect="always"
       id="linearGradient4158">
      <stop
         style="stop-color:#0000ff;stop-opacity:1"
         offset="0"
         id="stop4160" />
      <stop
         style="stop-color:#00b4aa;stop-opacity:1"
         offset="1"
         id="stop4162" />
    </linearGradient>
    <linearGradient
       x1="64"
       y1="256"
       x2="448"
       y2="256"
       id="linearGradient4304-5"
       xlink:href="#linearGradient4587"
       gradientUnits="userSpaceOnUse"
       gradientTransform="matrix(0.06698171,0,0,0.06698171,-1.94452,0.35178)" />
    <linearGradient
       id="linearGradient4587">
      <stop
         id="stop4589"
         style="stop-color:#009b00;stop-opacity:1"
         offset="0" />
      <stop
         id="stop4591"
         style="stop-color:#f1fd00;stop-opacity:1"
         offset="1" />
    </linearGradient>
    <linearGradient
       inkscape:collect="always"
       xlink:href="#linearGradient4158"
       id="linearGradient4164"
       x1="2.342301"
       y1="17.499105"
       x2="28.06328"
       y2="17.499105"
       gradientUnits="userSpaceOnUse" />
  </defs>
  <metadata
     id="metadata4165">
    <rdf:RDF>
      <cc:Work
         rdf:about="">
        <dc:format>image/svg+xml</dc:format>
        <dc:type
           rdf:resource="http://purl.org/dc/dcmitype/StillImage" />
        <dc:title />
      </cc:Work>
    </rdf:RDF>
  </metadata>
  <circle
     r="9.9195604"
     cy="13.433225"
     cx="15.556351"
     id="path3408"
     style="fill:#ffffff;stroke:#ffffff;stroke-width:0.25276357" />
  <path
     d="m 15.202793,0.35178 c -7.102142,0 -12.860492,5.75835 -12.860492,12.86049 0,7.10215 10.71708,21.43416 12.860492,21.43416 2.143412,0 12.860487,-14.33201 12.860487,-21.43416 0,-7.10214 -5.758346,-12.86049 -12.860487,-12.86049 z m 0,21.43416 c -4.728503,0 -8.573655,-3.84731 -8.573655,-8.57367 0,-4.72635 3.845152,-8.57365 8.573655,-8.57365 4.728503,0 8.573655,3.8473 8.573655,8.57365 0,4.72636 -3.845152,8.57367 -8.573655,8.57367 z"
     id="path2994-5"
     style="fill:url(#linearGradient4164);fill-opacity:1" />
  <g
     transform="matrix(0.0284186,0,0,0.0255657,8.393194,7.452748)"
     id="g3687">
    <g
       id="g3645">
      <g
         id="g3647">
        <path
           style="fill:#010002"
           d="m 421.819,67.348 c -6.666,-32.667 -23,-53.667 -49,-63 -18.001,-6.667 -41.001,-5.667 -69.001,3 -28,8.667 -48.5,13 -61.5,13 -13,0 -33.5,-4.333 -61.5,-13 -28,-8.667 -51,-9.667 -69,-3 -26,9.333 -42.667,30.333 -50,63 -4,20 -3.333,40 2,60 5.333,20 12.667,40.333 22,61 9.333,20.667 15,37.333 17,50 1.334,7.334 1.668,23.667 1,49 -0.667,25.331 0.333,50.331 3,74.999 11.333,81.331 29.333,121.999 54,121.999 5.333,0 10,-1.5 14,-4.5 4,-3 7,-7.834 9,-14.5 2,-6.668 3.5,-13.168 4.5,-19.5 1,-6.334 1.333,-14.834 1,-25.5 -0.335,-10.668 -0.668,-19.334 -1,-25.999 -0.333,-6.668 -0.833,-15.666 -1.5,-27 -1.336,-19.334 -1.67,-32.334 -1,-39 4,-44.667 22.833,-66.999 56.5,-66.999 33.667,0 52.5,22.332 56.5,66.999 0.669,7.332 0.334,20.332 -1,39 -0.67,11.332 -1.338,20.332 -2,27 -0.666,6.665 -1,15.331 -1,25.999 0,10.666 0.5,19.166 1.5,25.5 1,6.332 2.5,12.832 4.5,19.5 2,6.666 5,11.5 9,14.5 4,3 8.67,4.5 14,4.5 24.675,0 42.675,-40.666 54.001,-121.999 2.668,-24 3.668,-49.168 3,-75.499 -0.648,-26.334 -0.314,-42.5 1,-48.5 2,-12.667 7.668,-29.334 17,-50 9.334,-20.667 16.668,-41 22,-61 5.353,-20 5.686,-40 1,-60 z"
           id="path3649" />
      </g>
    </g>
    <g
       id="g3651" />
    <g
       id="g3653" />
    <g
       id="g3655" />
    <g
       id="g3657" />
    <g
       id="g3659" />
    <g
       id="g3661" />
    <g
       id="g3663" />
    <g
       id="g3665" />
    <g
       id="g3667" />
    <g
       id="g3669" />
    <g
       id="g3671" />
    <g
       id="g3673" />
    <g
       id="g3675" />
    <g
       id="g3677" />
    <g
       id="g3679" />
  </g>
</svg>
