<?xml version="1.0" encoding="UTF-8" standalone="no"?>
<svg
   xmlns:dc="http://purl.org/dc/elements/1.1/"
   xmlns:cc="http://creativecommons.org/ns#"
   xmlns:rdf="http://www.w3.org/1999/02/22-rdf-syntax-ns#"
   xmlns:svg="http://www.w3.org/2000/svg"
   xmlns="http://www.w3.org/2000/svg"
   xmlns:xlink="http://www.w3.org/1999/xlink"
   xmlns:sodipodi="http://sodipodi.sourceforge.net/DTD/sodipodi-0.dtd"
   xmlns:inkscape="http://www.inkscape.org/namespaces/inkscape"
   version="1.1"
   id="svg4160"
   viewBox="0 0 30 35.000001"
   height="35"
   width="30"
   inkscape:version="0.91 r13725"
   sodipodi:docname="fast_food.svg">
  <sodipodi:namedview
     pagecolor="#ffffff"
     bordercolor="#666666"
     borderopacity="1"
     objecttolerance="10"
     gridtolerance="10"
     guidetolerance="10"
     inkscape:pageopacity="0"
     inkscape:pageshadow="2"
     inkscape:window-width="1366"
     inkscape:window-height="706"
     id="namedview34"
     showgrid="false"
     inkscape:zoom="6.7428571"
     inkscape:cx="16.103511"
     inkscape:cy="17.20339"
     inkscape:window-x="-4"
     inkscape:window-y="-4"
     inkscape:window-maximized="1"
     inkscape:current-layer="svg4160" />
  <defs
     id="defs4162">
    <linearGradient
       gradientTransform="matrix(0.06698171,0,0,0.06698171,-1.94452,0.35178)"
       gradientUnits="userSpaceOnUse"
       xlink:href="#linearGradient4587"
       id="linearGradient4304-5"
       y2="256"
       x2="448"
       y1="256"
       x1="64" />
    <linearGradient
       id="linearGradient4587">
      <stop
         offset="0"
         style="stop-color:#009b00;stop-opacity:1"
         id="stop4589" />
      <stop
         offset="1"
         style="stop-color:#f1fd00;stop-opacity:1"
         id="stop4591" />
    </linearGradient>
  </defs>
  <metadata
     id="metadata4165">
    <rdf:RDF>
      <cc:Work
         rdf:about="">
        <dc:format>image/svg+xml</dc:format>
        <dc:type
           rdf:resource="http://purl.org/dc/dcmitype/StillImage" />
        <dc:title />
      </cc:Work>
    </rdf:RDF>
  </metadata>
  <circle
     style="fill:#ffffff;stroke:#ffffff;stroke-width:0.25276357"
     id="path3408"
     cx="15.556351"
     cy="13.433225"
     r="9.9195604" />
  <path
     inkscape:connector-curvature="0"
     style="fill:url(#linearGradient4304-5);fill-opacity:1"
     id="path2994-5"
     d="m 15.202793,0.35178 c -7.102142,0 -12.860492,5.75835 -12.860492,12.86049 0,7.10215 10.71708,21.43416 12.860492,21.43416 2.143412,0 12.860487,-14.33201 12.860487,-21.43416 0,-7.10214 -5.758346,-12.86049 -12.860487,-12.86049 z m 0,21.43416 c -4.728503,0 -8.573655,-3.84731 -8.573655,-8.57367 0,-4.72635 3.845152,-8.57365 8.573655,-8.57365 4.728503,0 8.573655,3.8473 8.573655,8.57365 0,4.72636 -3.845152,8.57367 -8.573655,8.57367 z" />
  <g
     id="g3916"
     transform="matrix(0.02790592,0,0,0.02790592,8.366083,5.70923)">
    <g
       id="g3868">
      <g
         id="g3870">
        <path
           inkscape:connector-curvature="0"
           id="path3872"
           d="m 279.818,235.282 c 21.663,27.466 34.701,62.029 34.701,99.64 l 0,8.129 -8.129,0 -4.942,0 c 2.195,4.17 3.56,8.844 3.56,13.867 0,5.267 -1.479,10.153 -3.877,14.461 l 5.267,0 8.129,0 0,8.129 c 0,27.06 -6.852,46.609 -18.249,60.785 l 0.593,7.364 145.827,0 23.443,-318.73 13.282,0 0,-27.003 -98.339,0 C 381.572,51.689 344.863,10.38 293.62,10.112 c -11.144,-0.057 -11.144,17.224 0,17.281 42.041,0.219 70.507,33.717 70.182,74.531 l -105.834,0 0,27.003 13.306,0 8.544,106.355 z"
           style="fill:#010002" />
        <path
           inkscape:connector-curvature="0"
           id="path3874"
           d="m 288.467,343.05 -273.868,0 c -3.13,3.788 -5.088,8.576 -5.088,13.867 0,5.568 2.146,10.6 5.576,14.461 l 275.648,0 0.561,0 c 3.43,-3.861 5.576,-8.893 5.576,-14.461 0,-5.292 -1.959,-10.088 -5.088,-13.867 l -3.317,0 z"
           style="fill:#010002" />
        <path
           inkscape:connector-curvature="0"
           id="path3876"
           d="m 153.191,469.311 c 64.321,0 119.352,-3.04 142.055,-41.667 7.161,-12.177 11.136,-27.857 11.136,-48.137 l -11.86,0 -3.13,0 -3.885,0 -268.624,0 -7.023,0 -11.86,0 c 0,84.61 68.589,89.804 153.191,89.804 z"
           style="fill:#010002" />
        <path
           inkscape:connector-curvature="0"
           id="path3878"
           d="m 17.793,334.922 270.015,0 0.78,0 6.657,0 11.144,0 c 0,-31.165 -9.364,-60.111 -25.345,-84.301 -27.41,-41.488 -74.409,-68.89 -127.854,-68.89 C 68.581,181.731 0,250.32 0,334.922 l 11.144,0 c 0,0 6.649,0 6.649,0 z"
           style="fill:#010002" />
      </g>
    </g>
    <g
       id="g3880" />
    <g
       id="g3882" />
    <g
       id="g3884" />
    <g
       id="g3886" />
    <g
       id="g3888" />
    <g
       id="g3890" />
    <g
       id="g3892" />
    <g
       id="g3894" />
    <g
       id="g3896" />
    <g
       id="g3898" />
    <g
       id="g3900" />
    <g
       id="g3902" />
    <g
       id="g3904" />
    <g
       id="g3906" />
    <g
       id="g3908" />
  </g>
</svg>
