<?xml version="1.0" encoding="UTF-8" standalone="no"?>
<!-- Generator: Adobe Illustrator 16.0.0, SVG Export Plug-In . SVG Version: 6.00 Build 0)  -->

<svg
   xmlns:dc="http://purl.org/dc/elements/1.1/"
   xmlns:cc="http://creativecommons.org/ns#"
   xmlns:rdf="http://www.w3.org/1999/02/22-rdf-syntax-ns#"
   xmlns:svg="http://www.w3.org/2000/svg"
   xmlns="http://www.w3.org/2000/svg"
   xmlns:sodipodi="http://sodipodi.sourceforge.net/DTD/sodipodi-0.dtd"
   xmlns:inkscape="http://www.inkscape.org/namespaces/inkscape"
   version="1.1"
   id="Layer_1"
   x="0px"
   y="0px"
   width="16.989441"
   height="18.675316"
   viewBox="0 0 16.989441 18.675316"
   enable-background="new 0 0 48 48"
   xml:space="preserve"
   inkscape:version="0.91 r13725"
   sodipodi:docname="fast_food.svg"><metadata
     id="metadata17"><rdf:RDF><cc:Work
         rdf:about=""><dc:format>image/svg+xml</dc:format><dc:type
           rdf:resource="http://purl.org/dc/dcmitype/StillImage" /><dc:title></dc:title></cc:Work></rdf:RDF></metadata><defs
     id="defs15" /><sodipodi:namedview
     pagecolor="#ffffff"
     bordercolor="#666666"
     borderopacity="1"
     objecttolerance="10"
     gridtolerance="10"
     guidetolerance="10"
     inkscape:pageopacity="0"
     inkscape:pageshadow="2"
     inkscape:window-width="1340"
     inkscape:window-height="903"
     id="namedview13"
     showgrid="false"
     fit-margin-top="0"
     fit-margin-left="0"
     fit-margin-right="0"
     fit-margin-bottom="0"
     inkscape:zoom="19.666667"
     inkscape:cx="-12.617931"
     inkscape:cy="1.3115969"
     inkscape:window-x="0"
     inkscape:window-y="25"
     inkscape:window-maximized="0"
     inkscape:current-layer="g3" /><g
     id="g3"
     transform="matrix(0.40641678,0,0,0.40641678,-0.81689773,-0.42627215)"><path
       d="m 8.065,24.933 29.693,0 c 0.436,0 0.842,-0.228 1.082,-0.591 0.239,-0.364 0.28,-0.829 0.107,-1.229 -2.682,-6.211 -8.841,-10.565 -16.037,-10.565 -2.043,0 -4.002,0.351 -5.822,0.995 L 15.825,10.648 C 16.651,9.563 16.832,7.919 16.168,6.396 15.503,4.872 14.174,3.886 12.817,3.752 L 12.029,1.946 C 11.699,1.189 10.819,0.844 10.064,1.174 9.31,1.505 8.964,2.386 9.293,3.141 l 0.788,1.806 C 9.256,6.032 9.075,7.677 9.74,9.2 c 0.664,1.523 1.993,2.509 3.35,2.642 l 1.281,2.936 c -3.323,1.872 -5.97,4.802 -7.495,8.332 -0.173,0.4 -0.132,0.868 0.107,1.232 0.24,0.364 0.647,0.591 1.082,0.591 z m 23.099,-7.625 c 0.733,0 1.327,0.594 1.327,1.326 0,0.733 -0.594,1.328 -1.327,1.328 -0.733,0 -1.327,-0.595 -1.327,-1.328 0,-0.733 0.594,-1.326 1.327,-1.326 z m -5.142,1.907 c 0.596,0 1.078,0.482 1.078,1.078 0,0.596 -0.482,1.078 -1.078,1.078 -0.596,0 -1.079,-0.482 -1.079,-1.078 0,-0.596 0.483,-1.078 1.079,-1.078 z M 22.31,14.113 c 0.721,0 1.307,0.585 1.307,1.307 0,0.723 -0.585,1.307 -1.307,1.307 -0.721,0 -1.306,-0.584 -1.306,-1.307 0,-0.722 0.585,-1.307 1.306,-1.307 z m -7.517,4.618 c 1.015,0 1.838,0.823 1.838,1.839 0,1.016 -0.823,1.839 -1.838,1.839 -1.016,0 -1.839,-0.823 -1.839,-1.839 0,-1.016 0.824,-1.839 1.839,-1.839 z"
       id="path5"
       inkscape:connector-curvature="0"
       style="fill:#ffcc00;stroke:#000000;stroke-opacity:0.70059878;opacity:1" /><path
       d="m 37.983,34.165 -30.138,0 c -0.458,0 -0.885,0.22 -1.125,0.611 -0.24,0.391 -0.26,0.871 -0.052,1.279 2.871,5.657 9.606,6.935 16.246,6.935 6.638,0 13.375,-1.283 16.247,-6.94 0.208,-0.409 0.187,-0.881 -0.053,-1.271 -0.241,-0.391 -0.666,-0.614 -1.125,-0.614 z"
       id="path7"
       inkscape:connector-curvature="0"
       style="fill:#ffcc00;stroke:#000000;stroke-opacity:0.7185629;opacity:1" /><path
       d="m 5.667,32.213 34.582,0 c 1.498,0 2.713,-1.214 2.713,-2.713 l 0,-0.278 c 0,-1.499 -1.215,-2.713 -2.713,-2.713 l -34.582,0 c -1.498,0 -2.713,1.214 -2.713,2.713 l 0,0.278 c 10e-4,1.499 1.215,2.713 2.713,2.713 z"
       id="path9"
       inkscape:connector-curvature="0"
       style="fill:#cc0000;stroke:#5f0000;stroke-opacity:0.71257484" /></g></svg>