<?xml version="1.0" encoding="UTF-8" standalone="no"?>
<!-- Created with Inkscape (http://www.inkscape.org/) -->
<svg
   xmlns:svg="http://www.w3.org/2000/svg"
   xmlns="http://www.w3.org/2000/svg"
   version="1.0"
   width="16"
   height="16"
   id="svg2">
  <defs
     id="defs5" />
  <path
     d="M 8.6655993,6.3750156 C 8.6444418,6.3771786 8.6222947,6.3846909 8.5991612,6.3976649 C 8.4478381,6.4825326 8.5721924,8.9314106 7.9445955,11.143455 C 7.7277359,10.544202 6.9059728,9.749564 5.7755442,9.11634 C 4.2476182,8.2604527 2.7361101,8.0234218 2.4015484,8.5871006 C 2.0669871,9.1507791 3.0351243,10.302668 4.5630498,11.158555 C 5.8507376,11.87987 7.1242337,12.159756 7.6939428,11.893148 C 7.5300474,12.319825 7.3350988,12.727647 7.0922255,13.089788 C 5.5016771,15.461407 2.9065572,14.857831 2.8364156,14.990822 C 2.097214,16.392326 5.8920012,15.979322 7.482549,13.607703 C 7.8622756,13.041504 8.165996,12.310647 8.3990921,11.532269 C 8.4047596,11.542189 8.4077793,11.553739 8.4141917,11.563223 C 8.781329,12.106247 10.236284,11.721735 11.662106,10.704813 C 13.087929,9.6878913 13.946888,8.4219549 13.579751,7.8789314 C 13.212614,7.3359076 11.757658,7.7204192 10.331835,8.7373412 C 9.6174224,9.2468734 9.0449893,9.8187685 8.6980633,10.331099 C 9.1123422,8.2964965 9.07818,6.3328352 8.6655993,6.3750156 z"
     id="path2195"
     style="fill:#35e23e;fill-opacity:1;fill-rule:nonzero;stroke:#12892d;stroke-width:0.41082871;stroke-linecap:round;stroke-linejoin:round;stroke-miterlimit:4;stroke-dasharray:none;stroke-dashoffset:0;stroke-opacity:1" />
  <path
     d="M 521.87211,275.23304 C 478.85605,245.64532 524.04766,247.12359 474.76752,264.36545 C 448.25334,273.64209 478.36895,314.58051 486.35702,287.65007 C 501.20392,237.59626 513.76299,281.03285 482.13659,239.49268 C 465.12065,217.14283 435.49213,258.43515 463.57296,257.71029 C 515.7649,256.36306 478.33522,281.73008 508.06918,238.81498 C 524.06693,215.72537 475.63989,200.307 485.00672,226.78946 C 502.41621,276.01063 466.72433,248.25173 516.72732,263.2689 C 543.63042,271.34859 543.32938,220.5272 521.03757,237.61911 C 479.60529,269.38671 494.97617,226.86374 496.14577,279.05997 C 496.77504,307.14309 545.01603,291.15212 521.87211,275.23304 z"
     transform="matrix(0.1020728,0,0,0.1020728,-41.686722,-21.522635)"
     id="path1549"
     style="fill:#fa9806;fill-opacity:1;fill-rule:nonzero;stroke:#f58006;stroke-width:4.02476978;stroke-linecap:butt;stroke-linejoin:round;stroke-miterlimit:4;stroke-dashoffset:0;stroke-opacity:1" />
  <path
     d="M 539.80589,261.93216 A 8.8174267,8.8174267 0 1 1 522.17104,261.93216 A 8.8174267,8.8174267 0 1 1 539.80589,261.93216 z"
     transform="matrix(0.1020728,0,0,0.1020728,-45.378334,-22.16332)"
     id="path1551"
     style="fill:#fadc06;fill-opacity:1;fill-rule:nonzero;stroke:#f58006;stroke-width:4.02476978;stroke-linecap:butt;stroke-linejoin:round;stroke-miterlimit:4;stroke-dashoffset:0;stroke-opacity:1" />
</svg>
