<?xml version="1.0" encoding="UTF-8" standalone="no"?>
<!-- Generator: Adobe Illustrator 16.0.4, SVG Export Plug-In . SVG Version: 6.00 Build 0)  -->

<svg
   xmlns:dc="http://purl.org/dc/elements/1.1/"
   xmlns:cc="http://creativecommons.org/ns#"
   xmlns:rdf="http://www.w3.org/1999/02/22-rdf-syntax-ns#"
   xmlns:svg="http://www.w3.org/2000/svg"
   xmlns="http://www.w3.org/2000/svg"
   xmlns:sodipodi="http://sodipodi.sourceforge.net/DTD/sodipodi-0.dtd"
   xmlns:inkscape="http://www.inkscape.org/namespaces/inkscape"
   version="1.1"
   id="Capa_1"
   x="0px"
   y="0px"
   width="15"
   height="15"
   viewBox="0 0 15 15"
   enable-background="new 0 0 216 146"
   xml:space="preserve"
   inkscape:version="0.91 r13725"
   sodipodi:docname="information.svg"><metadata
     id="metadata9"><rdf:RDF><cc:Work
         rdf:about=""><dc:format>image/svg+xml</dc:format><dc:type
           rdf:resource="http://purl.org/dc/dcmitype/StillImage" /><dc:title></dc:title></cc:Work></rdf:RDF></metadata><defs
     id="defs7" /><sodipodi:namedview
     pagecolor="#ffffff"
     bordercolor="#666666"
     borderopacity="1"
     objecttolerance="10"
     gridtolerance="10"
     guidetolerance="10"
     inkscape:pageopacity="0"
     inkscape:pageshadow="2"
     inkscape:window-width="1920"
     inkscape:window-height="967"
     id="namedview5"
     showgrid="false"
     inkscape:zoom="18.287912"
     inkscape:cx="16.151133"
     inkscape:cy="7.4942301"
     inkscape:window-x="0"
     inkscape:window-y="25"
     inkscape:window-maximized="1"
     inkscape:current-layer="Capa_1" /><path
     d="M 13.438969,4.18236 C 12.794946,3.07895 11.921284,2.20528 10.817868,1.56126 9.7142227,0.91724 8.5093977,0.59528 7.2025883,0.59528 5.8958939,0.59528 4.6907239,0.91724 3.5873086,1.56126 2.4837781,2.20517 1.6101162,3.07883 0.9660927,4.18236 0.3219542,5.28589 0,6.49106 0,7.79764 0,9.10434 0.3220693,10.30928 0.9659776,11.41292 1.6100011,12.51622 2.483663,13.39 3.5871935,14.03402 4.6907239,14.67804 5.8957788,15 7.2024729,15 c 1.3066948,0 2.5118638,-0.32196 3.6152801,-0.96598 1.103416,-0.64391 1.977078,-1.51768 2.621101,-2.6211 0.643909,-1.10353 0.965863,-2.3087 0.965863,-3.61528 0,-1.30669 -0.321954,-2.51186 -0.965748,-3.61528 z M 6.0021376,2.39579 c 0,-0.0876 0.028086,-0.15943 0.084373,-0.21571 0.056288,-0.0562 0.1282293,-0.0844 0.2157107,-0.0844 l 1.8007334,0 c 0.08748,0 0.159424,0.0282 0.21548,0.0844 0.05617,0.0563 0.08449,0.12811 0.08449,0.21571 l 0,1.50053 c 0,0.0875 -0.02832,0.15942 -0.08449,0.2156 -0.05606,0.0563 -0.127998,0.0844 -0.21548,0.0844 l -1.8007334,0 c -0.087481,0 -0.1594234,-0.0281 -0.2157107,-0.0844 -0.056287,-0.0562 -0.084373,-0.12812 -0.084373,-0.2156 l 0,-1.50053 z m 3.6011221,9.90334 c 0,0.0875 -0.02832,0.15942 -0.08437,0.21548 -0.05606,0.0563 -0.127999,0.0844 -0.215711,0.0844 l -4.2014038,0 c -0.087596,0 -0.1594231,-0.0281 -0.2157105,-0.0844 -0.056287,-0.0562 -0.084373,-0.12811 -0.084373,-0.2156 l 0,-1.50053 c 0,-0.0877 0.028086,-0.15942 0.084373,-0.21571 0.056287,-0.0562 0.1282292,-0.0844 0.2157105,-0.0844 l 0.9003667,0 0,-3.00095 -0.9003667,0 c -0.087596,0 -0.1594231,-0.0281 -0.2157105,-0.0844 -0.056287,-0.0562 -0.084373,-0.12811 -0.084373,-0.21571 l 0,-1.50042 c 0,-0.0876 0.028086,-0.15942 0.084373,-0.21571 0.056287,-0.0563 0.1282292,-0.0844 0.2157105,-0.0844 l 3.0011838,0 c 0.08748,0 0.159424,0.0281 0.21548,0.0844 0.05617,0.0563 0.08449,0.12812 0.08449,0.21571 l 0,4.80157 0.900136,0 c 0.0876,0 0.159539,0.0282 0.215711,0.0844 0.05606,0.0562 0.08437,0.12812 0.08437,0.21571 l 0,1.50054 z"
     id="path3"
     inkscape:connector-curvature="0"
     style="fill:#008c00;fill-opacity:1" /><path
     style="fill:#ffffff;fill-opacity:1"
     d="m 4.9290446,12.505169 c -0.071127,-0.07113 -0.085927,-0.240327 -0.085927,-0.982333 0,-1.061817 -0.036613,-1.009615 0.7081222,-1.009615 l 0.4965882,0 L 6.0332926,8.9958251 6.0187574,7.4784294 5.5022481,7.4625655 C 5.218168,7.4538403 4.953649,7.4200694 4.9144281,7.3875189 4.8170107,7.3066696 4.8118513,5.5903949 4.9087345,5.4935117 c 0.048094,-0.048094 0.4999453,-0.065617 1.6920082,-0.065617 1.618679,0 1.6267946,5.763e-4 1.711513,0.1215287 0.073931,0.1055508 0.085122,0.4398467 0.085122,2.5426631 l 0,2.4211346 0.4921283,0 c 0.7133044,0 0.7108521,-0.0036 0.7108521,1.038937 0,0.747307 -0.00972,0.829936 -0.1093619,0.929576 -0.1057099,0.10571 -0.1822697,0.109362 -2.2926931,0.109362 -1.9119387,0 -2.1940123,-0.01068 -2.2692585,-0.08593 z"
     id="path4167"
     inkscape:connector-curvature="0" /><path
     style="fill:#ffffff;fill-opacity:1"
     d="m 4.9290446,12.505169 c -0.071127,-0.07113 -0.085927,-0.240327 -0.085927,-0.982333 0,-1.061817 -0.036613,-1.009615 0.7081222,-1.009615 l 0.4965882,0 L 6.0332926,8.9958251 6.0187574,7.4784294 5.5022481,7.4625655 C 5.218168,7.4538403 4.953649,7.4200694 4.9144281,7.3875189 4.8170107,7.3066696 4.8118513,5.5903949 4.9087345,5.4935117 c 0.048094,-0.048094 0.4999453,-0.065617 1.6920082,-0.065617 1.618679,0 1.6267946,5.763e-4 1.711513,0.1215287 0.073931,0.1055508 0.085122,0.4398467 0.085122,2.5426631 l 0,2.4211346 0.4921283,0 c 0.7133044,0 0.7108521,-0.0036 0.7108521,1.038937 0,0.747307 -0.00972,0.829936 -0.1093619,0.929576 -0.1057099,0.10571 -0.1822697,0.109362 -2.2926931,0.109362 -1.9119387,0 -2.1940123,-0.01068 -2.2692585,-0.08593 z"
     id="path4169"
     inkscape:connector-curvature="0" /><path
     style="fill:#ffffff;fill-opacity:1"
     d="m 6.1117149,4.1046162 c -0.091982,-0.091982 -0.091982,-1.7999781 0,-1.8919601 0.046494,-0.046494 0.372618,-0.065617 1.1190351,-0.065617 0.9855201,0 1.0570665,0.00682 1.1100229,0.1057671 0.031472,0.058806 0.056605,0.4539984 0.056605,0.8900684 0,1.1011786 0.085876,1.0273588 -1.1951449,1.0273588 -0.7242371,0 -1.0441501,-0.019249 -1.0905179,-0.065617 z"
     id="path4171"
     inkscape:connector-curvature="0" /></svg>