<?xml version="1.0" encoding="UTF-8" standalone="no"?>
<svg
   xmlns:dc="http://purl.org/dc/elements/1.1/"
   xmlns:cc="http://creativecommons.org/ns#"
   xmlns:rdf="http://www.w3.org/1999/02/22-rdf-syntax-ns#"
   xmlns:svg="http://www.w3.org/2000/svg"
   xmlns="http://www.w3.org/2000/svg"
   xmlns:xlink="http://www.w3.org/1999/xlink"
   xmlns:sodipodi="http://sodipodi.sourceforge.net/DTD/sodipodi-0.dtd"
   xmlns:inkscape="http://www.inkscape.org/namespaces/inkscape"
   version="1.1"
   id="svg4160"
   viewBox="0 0 30 35.000001"
   height="35"
   width="30"
   inkscape:version="0.91 r13725"
   sodipodi:docname="library.svg">
  <sodipodi:namedview
     pagecolor="#ffffff"
     bordercolor="#666666"
     borderopacity="1"
     objecttolerance="10"
     gridtolerance="10"
     guidetolerance="10"
     inkscape:pageopacity="0"
     inkscape:pageshadow="2"
     inkscape:window-width="1366"
     inkscape:window-height="706"
     id="namedview33"
     showgrid="false"
     inkscape:zoom="6.7428571"
     inkscape:cx="-7.542373"
     inkscape:cy="15.942797"
     inkscape:window-x="-4"
     inkscape:window-y="-4"
     inkscape:window-maximized="1"
     inkscape:current-layer="svg4160" />
  <defs
     id="defs4162">
    <linearGradient
       gradientTransform="matrix(0.06698171,0,0,0.06698171,-1.94452,0.35178)"
       gradientUnits="userSpaceOnUse"
       xlink:href="#linearGradient4587"
       id="linearGradient4304-5"
       y2="256"
       x2="448"
       y1="256"
       x1="64" />
    <linearGradient
       id="linearGradient4587">
      <stop
         offset="0"
         style="stop-color:#0000ff;stop-opacity:1"
         id="stop4589" />
      <stop
         offset="1"
         style="stop-color:#00b4aa;stop-opacity:1"
         id="stop4591" />
    </linearGradient>
  </defs>
  <metadata
     id="metadata4165">
    <rdf:RDF>
      <cc:Work
         rdf:about="">
        <dc:format>image/svg+xml</dc:format>
        <dc:type
           rdf:resource="http://purl.org/dc/dcmitype/StillImage" />
        <dc:title />
      </cc:Work>
    </rdf:RDF>
  </metadata>
  <circle
     style="fill:#ffffff;stroke:#ffffff;stroke-width:0.25276357"
     id="path3408"
     cx="15.556351"
     cy="13.433225"
     r="9.9195604" />
  <path
     inkscape:connector-curvature="0"
     style="fill:url(#linearGradient4304-5);fill-opacity:1"
     id="path2994-5"
     d="m 15.202793,0.35178 c -7.102142,0 -12.860492,5.75835 -12.860492,12.86049 0,7.10215 10.71708,21.43416 12.860492,21.43416 2.143412,0 12.860487,-14.33201 12.860487,-21.43416 0,-7.10214 -5.758346,-12.86049 -12.860487,-12.86049 z m 0,21.43416 c -4.728503,0 -8.573655,-3.84731 -8.573655,-8.57367 0,-4.72635 3.845152,-8.57365 8.573655,-8.57365 4.728503,0 8.573655,3.8473 8.573655,8.57365 0,4.72636 -3.845152,8.57367 -8.573655,8.57367 z" />
  <g
     id="g3986"
     transform="matrix(0.0265079,0,0,0.0265079,8.841117,7.18428)">
    <g
       id="g3940">
      <g
         id="g3942">
        <path
           inkscape:connector-curvature="0"
           id="path3944"
           d="m 83.127,344.477 c 54.602,1.063 101.919,9.228 136.837,23.613 0.596,0.244 1.227,0.366 1.852,0.366 0.95,0 1.895,-0.279 2.706,-0.822 1.349,-0.902 2.158,-2.418 2.158,-4.041 l 0.019,-261.017 c 0,-1.992 -1.215,-3.783 -3.066,-4.519 L 85.019,42.899 c -1.496,-0.596 -3.193,-0.411 -4.527,0.494 -1.334,0.906 -2.133,2.413 -2.133,4.025 l 0,292.197 c 0,2.649 2.12,4.81 4.768,4.862 z"
           style="fill:#010002" />
        <path
           inkscape:connector-curvature="0"
           id="path3946"
           d="m 480.244,89.256 c -1.231,-0.917 -2.824,-1.198 -4.297,-0.759 l -49.025,14.657 c -2.06,0.616 -3.471,2.51 -3.471,4.659 l 0,252.151 c 0,0 0.218,3.978 -3.97,3.978 -4.796,0 -7.946,0 -7.946,0 -39.549,0 -113.045,4.105 -160.93,31.6 l -9.504,5.442 -9.503,-5.442 c -47.886,-27.494 -121.381,-31.6 -160.93,-31.6 0,0 -8.099,0 -10.142,0 -1.891,0 -1.775,-2.272 -1.775,-2.271 l 0,-253.858 c 0,-2.149 -1.411,-4.043 -3.47,-4.659 L 6.256,88.497 C 4.783,88.058 3.19,88.339 1.958,89.256 0.726,90.173 0,91.619 0,93.155 l 0,305.069 c 0,1.372 0.581,2.681 1.597,3.604 1.017,0.921 2.375,1.372 3.741,1.236 14.571,-1.429 37.351,-3.131 63.124,-3.131 56.606,0 102.097,8.266 131.576,23.913 4.331,2.272 29.441,15.803 41.065,15.803 11.624,0 36.733,-13.53 41.063,-15.803 29.48,-15.647 74.971,-23.913 131.577,-23.913 25.771,0 48.553,1.702 63.123,3.131 1.367,0.136 2.725,-0.315 3.742,-1.236 1.016,-0.923 1.596,-2.231 1.596,-3.604 l 0,-305.069 c -0.001,-1.536 -0.728,-2.982 -1.96,-3.899 z"
           style="fill:#010002" />
        <path
           inkscape:connector-curvature="0"
           id="path3948"
           d="m 257.679,367.634 c 0.812,0.543 1.757,0.822 2.706,0.822 0.626,0 1.256,-0.122 1.853,-0.366 34.917,-14.386 82.235,-22.551 136.837,-23.613 2.648,-0.052 4.769,-2.213 4.769,-4.861 l 0,-292.198 c 0,-1.613 -0.799,-3.12 -2.133,-4.025 -1.334,-0.904 -3.031,-1.09 -4.528,-0.494 L 258.569,98.057 c -1.851,0.736 -3.065,2.527 -3.065,4.519 l 0.019,261.017 c -0.002,1.623 0.808,3.139 2.156,4.041 z"
           style="fill:#010002" />
      </g>
    </g>
    <g
       id="g3950" />
    <g
       id="g3952" />
    <g
       id="g3954" />
    <g
       id="g3956" />
    <g
       id="g3958" />
    <g
       id="g3960" />
    <g
       id="g3962" />
    <g
       id="g3964" />
    <g
       id="g3966" />
    <g
       id="g3968" />
    <g
       id="g3970" />
    <g
       id="g3972" />
    <g
       id="g3974" />
    <g
       id="g3976" />
    <g
       id="g3978" />
  </g>
</svg>
