<?xml version="1.0" encoding="UTF-8" standalone="no"?>
<svg
   xmlns:dc="http://purl.org/dc/elements/1.1/"
   xmlns:cc="http://creativecommons.org/ns#"
   xmlns:rdf="http://www.w3.org/1999/02/22-rdf-syntax-ns#"
   xmlns:svg="http://www.w3.org/2000/svg"
   xmlns="http://www.w3.org/2000/svg"
   xmlns:xlink="http://www.w3.org/1999/xlink"
   xmlns:sodipodi="http://sodipodi.sourceforge.net/DTD/sodipodi-0.dtd"
   xmlns:inkscape="http://www.inkscape.org/namespaces/inkscape"
   width="30"
   height="35"
   viewBox="0 0 30 35.000001"
   id="svg4160"
   version="1.1"
   inkscape:version="0.91 r13725"
   sodipodi:docname="memorial.svg">
  <sodipodi:namedview
     pagecolor="#ffffff"
     bordercolor="#666666"
     borderopacity="1"
     objecttolerance="10"
     gridtolerance="10"
     guidetolerance="10"
     inkscape:pageopacity="0"
     inkscape:pageshadow="2"
     inkscape:window-width="1366"
     inkscape:window-height="706"
     id="namedview32"
     showgrid="false"
     inkscape:zoom="6.7428571"
     inkscape:cx="-7.542373"
     inkscape:cy="17.20339"
     inkscape:window-x="-4"
     inkscape:window-y="-4"
     inkscape:window-maximized="1"
     inkscape:current-layer="svg4160" />
  <defs
     id="defs4162">
    <linearGradient
       x1="64"
       y1="256"
       x2="448"
       y2="256"
       id="linearGradient4304-5"
       xlink:href="#linearGradient4587"
       gradientUnits="userSpaceOnUse"
       gradientTransform="matrix(0.06698171,0,0,0.06698171,-1.94452,0.35178)" />
    <linearGradient
       id="linearGradient4587">
      <stop
         id="stop4589"
         style="stop-color:#2b1fa8;stop-opacity:1"
         offset="0" />
      <stop
         id="stop4591"
         style="stop-color:#ff36d1;stop-opacity:1"
         offset="1" />
    </linearGradient>
  </defs>
  <metadata
     id="metadata4165">
    <rdf:RDF>
      <cc:Work
         rdf:about="">
        <dc:format>image/svg+xml</dc:format>
        <dc:type
           rdf:resource="http://purl.org/dc/dcmitype/StillImage" />
        <dc:title />
      </cc:Work>
    </rdf:RDF>
  </metadata>
  <circle
     r="9.9195604"
     cy="13.433225"
     cx="15.556351"
     id="path3408"
     style="fill:#ffffff;stroke:#ffffff;stroke-width:0.25276357" />
  <path
     d="m 15.202793,0.35178 c -7.102142,0 -12.860492,5.75835 -12.860492,12.86049 0,7.10215 10.71708,21.43416 12.860492,21.43416 2.143412,0 12.860487,-14.33201 12.860487,-21.43416 0,-7.10214 -5.758346,-12.86049 -12.860487,-12.86049 z m 0,21.43416 c -4.728503,0 -8.573655,-3.84731 -8.573655,-8.57367 0,-4.72635 3.845152,-8.57365 8.573655,-8.57365 4.728503,0 8.573655,3.8473 8.573655,8.57365 0,4.72636 -3.845152,8.57367 -8.573655,8.57367 z"
     id="path2994-5"
     style="fill:url(#linearGradient4304-5);fill-opacity:1" />
  <g
     transform="matrix(0.05080225,0,0,0.05080225,8.1259674,5.7058091)"
     id="g4276">
    <g
       id="g4230">
      <path
         style="fill:#030104"
         d="m 103.258,0 c 22.69,33.08 30.07,103.726 -17.45,88.726 C 53.812,71.71 102.912,38.24 103.258,0 Z"
         id="path4232" />
      <path
         style="fill:#030104"
         d="m 195.322,53.976 c 18.34,26.739 24.307,83.841 -14.11,71.728 -25.859,-13.764 13.817,-40.815 14.11,-71.728 z"
         id="path4234" />
      <path
         style="fill:#030104"
         d="m 60.712,93.245 c 15.941,39.208 43.097,32.237 76.435,0 l 0,190.179 -76.435,0 0,-190.179 z"
         id="path4236" />
      <path
         style="fill:#030104"
         d="m 160.93,129.346 c 12.886,31.686 34.838,26.055 61.782,0 l 0,153.722 -61.782,0 0,-153.722 z"
         id="path4238" />
    </g>
    <g
       id="g4240" />
    <g
       id="g4242" />
    <g
       id="g4244" />
    <g
       id="g4246" />
    <g
       id="g4248" />
    <g
       id="g4250" />
    <g
       id="g4252" />
    <g
       id="g4254" />
    <g
       id="g4256" />
    <g
       id="g4258" />
    <g
       id="g4260" />
    <g
       id="g4262" />
    <g
       id="g4264" />
    <g
       id="g4266" />
    <g
       id="g4268" />
  </g>
</svg>
