<?xml version="1.0" encoding="UTF-8" standalone="no"?>
<svg
   xmlns:dc="http://purl.org/dc/elements/1.1/"
   xmlns:cc="http://creativecommons.org/ns#"
   xmlns:rdf="http://www.w3.org/1999/02/22-rdf-syntax-ns#"
   xmlns:svg="http://www.w3.org/2000/svg"
   xmlns="http://www.w3.org/2000/svg"
   xmlns:xlink="http://www.w3.org/1999/xlink"
   xmlns:sodipodi="http://sodipodi.sourceforge.net/DTD/sodipodi-0.dtd"
   xmlns:inkscape="http://www.inkscape.org/namespaces/inkscape"
   version="1.1"
   id="svg4160"
   viewBox="0 0 30 35.000001"
   height="35"
   width="30"
   inkscape:version="0.91 r13725"
   sodipodi:docname="parking.svg">
  <sodipodi:namedview
     pagecolor="#ffffff"
     bordercolor="#666666"
     borderopacity="1"
     objecttolerance="10"
     gridtolerance="10"
     guidetolerance="10"
     inkscape:pageopacity="0"
     inkscape:pageshadow="2"
     inkscape:window-width="1366"
     inkscape:window-height="706"
     id="namedview32"
     showgrid="false"
     inkscape:zoom="6.7428571"
     inkscape:cx="-7.542373"
     inkscape:cy="17.20339"
     inkscape:window-x="-4"
     inkscape:window-y="-4"
     inkscape:window-maximized="1"
     inkscape:current-layer="svg4160" />
  <defs
     id="defs4162">
    <linearGradient
       gradientTransform="matrix(0.06698171,0,0,0.06698171,-1.94452,0.35178)"
       gradientUnits="userSpaceOnUse"
       xlink:href="#linearGradient4587"
       id="linearGradient4304-5"
       y2="256"
       x2="448"
       y1="256"
       x1="64" />
    <linearGradient
       id="linearGradient4587">
      <stop
         offset="0"
         style="stop-color:#ff0000;stop-opacity:1"
         id="stop4589" />
      <stop
         offset="1"
         style="stop-color:#780000;stop-opacity:1"
         id="stop4591" />
    </linearGradient>
  </defs>
  <metadata
     id="metadata4165">
    <rdf:RDF>
      <cc:Work
         rdf:about="">
        <dc:format>image/svg+xml</dc:format>
        <dc:type
           rdf:resource="http://purl.org/dc/dcmitype/StillImage" />
        <dc:title />
      </cc:Work>
    </rdf:RDF>
  </metadata>
  <circle
     style="fill:#ffffff;stroke:#ffffff;stroke-width:0.25276357"
     id="path3408"
     cx="15.556351"
     cy="13.433225"
     r="9.9195604" />
  <path
     inkscape:connector-curvature="0"
     style="fill:url(#linearGradient4304-5);fill-opacity:1"
     id="path2994-5"
     d="m 15.202793,0.35178 c -7.102142,0 -12.860492,5.75835 -12.860492,12.86049 0,7.10215 10.71708,21.43416 12.860492,21.43416 2.143412,0 12.860487,-14.33201 12.860487,-21.43416 0,-7.10214 -5.758346,-12.86049 -12.860487,-12.86049 z m 0,21.43416 c -4.728503,0 -8.573655,-3.84731 -8.573655,-8.57367 0,-4.72635 3.845152,-8.57365 8.573655,-8.57365 4.728503,0 8.573655,3.8473 8.573655,8.57365 0,4.72636 -3.845152,8.57367 -8.573655,8.57367 z" />
  <g
     id="g4052"
     transform="matrix(0.0248397,0,0,0.0248397,9.700305,7.43075)">
    <g
       id="g4009">
      <g
         id="drive-ms-powerpoint">
        <path
           inkscape:connector-curvature="0"
           id="path4012"
           d="M 408,0 51,0 C 22.95,0 0,22.95 0,51 l 0,357 c 0,28.05 22.95,51 51,51 l 357,0 c 28.05,0 51,-22.95 51,-51 L 459,51 C 459,22.95 436.05,0 408,0 Z m -234.6,265.2 0,91.8 -45.9,0 0,-255 109.65,0 c 38.25,0 56.1,7.65 71.399,22.95 17.851,15.3 22.95,35.7 22.95,58.65 0,25.5 -7.65,45.9 -22.95,58.65 -15.3,12.75 -33.149,20.4 -71.399,20.4 l -63.75,0 0,2.55 z" />
        <path
           inkscape:connector-curvature="0"
           id="path4014"
           d="m 173.4,229.5 0,-91.8 58.65,0 c 17.851,0 30.601,5.1 38.25,15.3 7.65,10.2 12.75,17.85 12.75,30.6 0,15.3 -5.1,22.95 -12.75,33.15 -7.649,7.65 -17.85,12.75 -35.7,12.75 l -61.2,0 z" />
      </g>
    </g>
    <g
       id="g4016" />
    <g
       id="g4018" />
    <g
       id="g4020" />
    <g
       id="g4022" />
    <g
       id="g4024" />
    <g
       id="g4026" />
    <g
       id="g4028" />
    <g
       id="g4030" />
    <g
       id="g4032" />
    <g
       id="g4034" />
    <g
       id="g4036" />
    <g
       id="g4038" />
    <g
       id="g4040" />
    <g
       id="g4042" />
    <g
       id="g4044" />
  </g>
</svg>
