<?xml version="1.0" encoding="UTF-8" standalone="no"?>
<!-- Generator: Adobe Illustrator 16.0.4, SVG Export Plug-In . SVG Version: 6.00 Build 0)  -->

<svg
   xmlns:dc="http://purl.org/dc/elements/1.1/"
   xmlns:cc="http://creativecommons.org/ns#"
   xmlns:rdf="http://www.w3.org/1999/02/22-rdf-syntax-ns#"
   xmlns:svg="http://www.w3.org/2000/svg"
   xmlns="http://www.w3.org/2000/svg"
   xmlns:sodipodi="http://sodipodi.sourceforge.net/DTD/sodipodi-0.dtd"
   xmlns:inkscape="http://www.inkscape.org/namespaces/inkscape"
   version="1.1"
   id="Capa_1"
   x="0px"
   y="0px"
   width="18.169445"
   height="16.049416"
   viewBox="0 0 18.169445 16.049416"
   enable-background="new 0 0 216 146"
   xml:space="preserve"
   inkscape:version="0.91 r13725"
   sodipodi:docname="pub.svg"><metadata
     id="metadata9"><rdf:RDF><cc:Work
         rdf:about=""><dc:format>image/svg+xml</dc:format><dc:type
           rdf:resource="http://purl.org/dc/dcmitype/StillImage" /><dc:title></dc:title></cc:Work></rdf:RDF></metadata><defs
     id="defs7" /><sodipodi:namedview
     pagecolor="#ffffff"
     bordercolor="#666666"
     borderopacity="1"
     objecttolerance="10"
     gridtolerance="10"
     guidetolerance="10"
     inkscape:pageopacity="0"
     inkscape:pageshadow="2"
     inkscape:window-width="1920"
     inkscape:window-height="967"
     id="namedview5"
     showgrid="false"
     inkscape:zoom="6.9558098"
     inkscape:cx="21.897607"
     inkscape:cy="-21.084645"
     inkscape:window-x="0"
     inkscape:window-y="25"
     inkscape:window-maximized="1"
     inkscape:current-layer="Capa_1"
     fit-margin-top="0"
     fit-margin-left="0"
     fit-margin-right="0"
     fit-margin-bottom="0" /><path
     d="m 16.370767,11.483745 0,-8.6477937 0.691914,-0.3457579 -0.345891,-2.07560847 -10.3773788,0 -0.3457572,1.38369467 -5.18862374,0 -0.34589045,1.3836948 0.69191369,0.6917811 0,3.4591696 c 0,1.1458049 0.4053301,2.1240368 1.2159903,2.9346969 0.8106602,0.810661 1.7890247,1.216123 2.934828,1.216123 l 1.3836955,0 -1.3836955,2.075475 0,2.07561 12.4529872,0 0,-2.07561 -1.384092,-2.075475 z m -9.6851997,-2.7672567 -1.383562,0 C 4.9200262,8.7164883 4.5940372,8.5814227 4.323773,8.3111581 4.0535087,8.0408935 3.9183103,7.7147727 3.9183103,7.3329251 l 0,-2.767256 2.767257,0 0,4.1508192 z"
     id="path3"
     inkscape:connector-curvature="0"
     style="fill:#ffdd55;stroke:#000000;stroke-width:0.82916987;stroke-opacity:1" /></svg>