<?xml version="1.0" encoding="UTF-8" standalone="no"?>
<svg
   xmlns:dc="http://purl.org/dc/elements/1.1/"
   xmlns:cc="http://creativecommons.org/ns#"
   xmlns:rdf="http://www.w3.org/1999/02/22-rdf-syntax-ns#"
   xmlns:svg="http://www.w3.org/2000/svg"
   xmlns="http://www.w3.org/2000/svg"
   xmlns:xlink="http://www.w3.org/1999/xlink"
   xmlns:sodipodi="http://sodipodi.sourceforge.net/DTD/sodipodi-0.dtd"
   xmlns:inkscape="http://www.inkscape.org/namespaces/inkscape"
   version="1.1"
   id="svg4160"
   viewBox="0 0 30 35.000001"
   height="35"
   width="30"
   inkscape:version="0.91 r13725"
   sodipodi:docname="zoo.svg">
  <sodipodi:namedview
     pagecolor="#ffffff"
     bordercolor="#666666"
     borderopacity="1"
     objecttolerance="10"
     gridtolerance="10"
     guidetolerance="10"
     inkscape:pageopacity="0"
     inkscape:pageshadow="2"
     inkscape:window-width="1366"
     inkscape:window-height="706"
     id="namedview30"
     showgrid="false"
     inkscape:zoom="9.53584"
     inkscape:cx="-0.93986476"
     inkscape:cy="23.885913"
     inkscape:window-x="-4"
     inkscape:window-y="-4"
     inkscape:window-maximized="1"
     inkscape:current-layer="svg4160" />
  <defs
     id="defs4162">
    <linearGradient
       gradientTransform="matrix(0.06698171,0,0,0.06698171,-1.94452,0.35178)"
       gradientUnits="userSpaceOnUse"
       xlink:href="#linearGradient4587"
       id="linearGradient4304-5"
       y2="256"
       x2="448"
       y1="256"
       x1="64" />
    <linearGradient
       id="linearGradient4587">
      <stop
         offset="0"
         style="stop-color:#2b1fa8;stop-opacity:1"
         id="stop4589" />
      <stop
         offset="1"
         style="stop-color:#ff36d1;stop-opacity:1"
         id="stop4591" />
    </linearGradient>
  </defs>
  <metadata
     id="metadata4165">
    <rdf:RDF>
      <cc:Work
         rdf:about="">
        <dc:format>image/svg+xml</dc:format>
        <dc:type
           rdf:resource="http://purl.org/dc/dcmitype/StillImage" />
        <dc:title />
      </cc:Work>
    </rdf:RDF>
  </metadata>
  <circle
     style="fill:#ffffff;stroke:#ffffff;stroke-width:0.25276357"
     id="path3408"
     cx="15.556351"
     cy="13.433225"
     r="9.9195604" />
  <path
     inkscape:connector-curvature="0"
     style="fill:url(#linearGradient4304-5);fill-opacity:1"
     id="path2994-5"
     d="m 15.202793,0.35178 c -7.102142,0 -12.860492,5.75835 -12.860492,12.86049 0,7.10215 10.71708,21.43416 12.860492,21.43416 2.143412,0 12.860487,-14.33201 12.860487,-21.43416 0,-7.10214 -5.758346,-12.86049 -12.860487,-12.86049 z m 0,21.43416 c -4.728503,0 -8.573655,-3.84731 -8.573655,-8.57367 0,-4.72635 3.845152,-8.57365 8.573655,-8.57365 4.728503,0 8.573655,3.8473 8.573655,8.57365 0,4.72636 -3.845152,8.57367 -8.573655,8.57367 z" />
  <ellipse
     style="fill:#ffffff;stroke:#ffffff"
     id="path4687"
     cx="19.038666"
     cy="10.418432"
     rx="0.018538136"
     ry="0.037076272" />
  <g
     id="g4791"
     transform="matrix(0.27566951,0,0,0.27566951,8.0123537,6.7279724)"
     style="fill:#000000">
    <path
       id="path4753"
       d="M 43.834,12.327 C 43.774,12.209 43.708,12.094 43.644,11.978 42.371,9.693 40.327,7.896 37.859,6.947 37.785,3.364 35.061,0.436 31.564,0.047 31.303,0.018 31.04,0 30.772,0 30.749,0 30.727,0.003 30.705,0.003 30.682,0.003 30.66,0 30.637,0 21.367,0 13.517,6.024 10.752,14.366 6.256,15.285 2.873,19.263 2.873,24.03 c 0,1.644 0.408,3.19 1.119,4.553 1.215,-2.328 3.331,-4.106 5.885,-4.881 0.462,3.521 1.793,6.761 3.777,9.507 1.314,1.818 2.908,3.413 4.725,4.727 3.449,2.495 7.675,3.983 12.258,3.983 0.055,0 0.109,-0.005 0.164,-0.005 0.563,1.964 1.979,3.659 4.025,4.47 1.789,0.709 3.697,0.606 5.324,-0.127 -0.13,-0.043 -0.261,-0.081 -0.39,-0.132 -2.457,-0.974 -4.029,-3.215 -4.276,-5.675 -0.012,-0.118 -0.02,-0.236 -0.025,-0.354 -0.045,-0.941 0.099,-1.906 0.469,-2.838 0.681,-1.718 1.983,-3.002 3.544,-3.706 -3.407,-1.121 -7.138,0.586 -8.478,3.964 -0.178,0.45 -0.287,0.908 -0.364,1.367 -2.63,-1.012 -4.858,-2.827 -6.354,-5.174 -1.082,-1.699 -1.791,-3.657 -1.993,-5.768 -0.04,-0.416 -0.064,-0.837 -0.064,-1.263 0,-1.889 0.407,-3.681 1.126,-5.303 0.004,-0.01 0.01,-0.02 0.014,-0.03 0.807,-1.809 2.009,-3.402 3.5,-4.667 0.259,-0.22 0.534,-0.422 0.809,-0.621 1.481,1.162 2.341,2.913 2.383,4.743 0.782,-0.573 1.444,-1.333 1.902,-2.263 0.722,-1.465 0.81,-3.076 0.376,-4.527 0.298,-0.068 0.589,-0.155 0.872,-0.258 0.695,-0.114 1.404,-0.188 2.132,-0.188 1.998,0 3.884,0.457 5.575,1.259 0.098,0.061 0.201,0.117 0.309,0.16 0.233,0.094 0.487,0.149 0.754,0.149 1.115,0 2.019,-0.904 2.019,-2.019 0.003,-0.279 -0.054,-0.544 -0.156,-0.786 z"
       style="fill:#000000"
       inkscape:connector-curvature="0" />
    <g
       id="g4755"
       style="fill:#000000" />
    <g
       id="g4757"
       style="fill:#000000" />
    <g
       id="g4759"
       style="fill:#000000" />
    <g
       id="g4761"
       style="fill:#000000" />
    <g
       id="g4763"
       style="fill:#000000" />
    <g
       id="g4765"
       style="fill:#000000" />
    <g
       id="g4767"
       style="fill:#000000" />
    <g
       id="g4769"
       style="fill:#000000" />
    <g
       id="g4771"
       style="fill:#000000" />
    <g
       id="g4773"
       style="fill:#000000" />
    <g
       id="g4775"
       style="fill:#000000" />
    <g
       id="g4777"
       style="fill:#000000" />
    <g
       id="g4779"
       style="fill:#000000" />
    <g
       id="g4781"
       style="fill:#000000" />
    <g
       id="g4783"
       style="fill:#000000" />
  </g>
</svg>
