<?xml version="1.0" encoding="UTF-8"?>
<svg xmlns="http://www.w3.org/2000/svg" xmlns:xlink="http://www.w3.org/1999/xlink" width="32pt" height="32pt" viewBox="0 0 32 32" version="1.1">
<g id="surface1">
<path style=" stroke:none;fill-rule:nonzero;fill:rgb(0.392157%,0%,0.784314%);fill-opacity:1;" d="M 16 2.28125 C 20.300781 2.28125 23.800781 5.78125 23.800781 10.078125 C 23.800781 14.382812 20.300781 17.878906 16 17.878906 C 11.699219 17.878906 8.199219 14.378906 8.199219 10.078125 C 8.199219 5.78125 11.699219 2.28125 16 2.28125 M 16 0 C 10.433594 0 5.917969 4.511719 5.917969 10.078125 C 5.917969 15.648438 16 32 16 32 C 16 32 26.082031 15.648438 26.082031 10.078125 C 26.082031 4.511719 21.570312 0 16 0 Z M 20.183594 7.152344 L 18.949219 7.152344 L 18.949219 7.074219 C 18.949219 5.449219 17.628906 4.128906 16 4.128906 C 14.375 4.128906 13.054688 5.449219 13.054688 7.074219 L 13.054688 7.152344 L 11.820312 7.152344 L 11.097656 15.1875 L 20.90625 15.1875 Z M 16 4.488281 C 17.078125 4.488281 18 5.144531 18.390625 6.082031 C 17.878906 5.3125 16.996094 4.800781 16 4.800781 C 15.003906 4.800781 14.128906 5.3125 13.613281 6.085938 C 14.003906 5.148438 14.925781 4.488281 16 4.488281 Z M 13.597656 7.152344 C 13.839844 6.042969 14.824219 5.210938 16 5.210938 C 17.179688 5.210938 18.167969 6.042969 18.40625 7.152344 Z M 13.597656 7.152344 "/>
</g>
</svg>
