<?xml version="1.0" encoding="UTF-8"?>
<svg xmlns="http://www.w3.org/2000/svg" xmlns:xlink="http://www.w3.org/1999/xlink" width="32pt" height="32pt" viewBox="0 0 32 32" version="1.1">
<g id="surface1">
<path style=" stroke:none;fill-rule:nonzero;fill:rgb(0.392157%,0%,0.784314%);fill-opacity:1;" d="M 15.804688 8.242188 C 15.777344 8.214844 15.160156 7.574219 15.8125 6.785156 C 16.609375 5.820312 15.8125 5.007812 15.804688 4.996094 L 15.632812 5.171875 C 15.660156 5.199219 16.277344 5.839844 15.625 6.628906 C 14.828125 7.589844 15.621094 8.40625 15.632812 8.414062 Z M 15.804688 8.242188 "/>
<path style=" stroke:none;fill-rule:nonzero;fill:rgb(0.392157%,0%,0.784314%);fill-opacity:1;" d="M 16 0 C 10.132812 0 5.375 4.757812 5.375 10.625 C 5.375 15.070312 11.480469 26.046875 14.433594 31.097656 C 14.757812 31.65625 15.355469 32 16 32 C 16.644531 32 17.242188 31.660156 17.566406 31.101562 C 20.519531 26.046875 26.625 15.070312 26.625 10.625 C 26.625 4.757812 21.867188 0 16 0 Z M 16 18.84375 C 11.46875 18.84375 7.78125 15.15625 7.78125 10.625 C 7.78125 6.09375 11.46875 2.40625 16 2.40625 C 20.53125 2.40625 24.21875 6.09375 24.21875 10.625 C 24.21875 15.15625 20.53125 18.84375 16 18.84375 Z M 16 18.84375 "/>
<path style=" stroke:none;fill-rule:nonzero;fill:rgb(0.392157%,0%,0.784314%);fill-opacity:1;" d="M 14.855469 8.242188 C 14.828125 8.214844 14.210938 7.574219 14.863281 6.785156 C 15.660156 5.820312 14.863281 5.007812 14.855469 4.996094 L 14.683594 5.171875 C 14.707031 5.199219 15.328125 5.839844 14.675781 6.628906 C 13.875 7.589844 14.671875 8.40625 14.683594 8.414062 Z M 14.855469 8.242188 "/>
<path style=" stroke:none;fill-rule:nonzero;fill:rgb(0.392157%,0%,0.784314%);fill-opacity:1;" d="M 16.839844 8.242188 C 16.8125 8.214844 16.195312 7.574219 16.847656 6.785156 C 17.644531 5.820312 16.847656 5.007812 16.839844 4.996094 L 16.664062 5.171875 C 16.691406 5.199219 17.3125 5.839844 16.65625 6.628906 C 15.859375 7.589844 16.65625 8.40625 16.664062 8.414062 Z M 16.839844 8.242188 "/>
<path style=" stroke:none;fill-rule:nonzero;fill:rgb(0.392157%,0%,0.784314%);fill-opacity:1;" d="M 23.160156 9.679688 C 22.785156 9.246094 22.226562 9.300781 22.230469 9.300781 L 9.847656 9.3125 C 9.847656 11.378906 11.011719 13.175781 12.71875 14.097656 C 10.96875 14.210938 9.777344 14.4375 9.777344 14.699219 C 9.777344 15.074219 12.265625 15.378906 15.339844 15.378906 C 15.476562 15.378906 16.015625 15.378906 16.152344 15.378906 C 19.226562 15.378906 21.714844 15.074219 21.714844 14.699219 C 21.714844 14.4375 20.523438 14.210938 18.769531 14.097656 C 18.976562 13.984375 19.175781 13.859375 19.367188 13.722656 C 21.574219 13.664062 22.96875 12.933594 23.316406 11.628906 C 23.554688 10.738281 23.503906 10.082031 23.160156 9.679688 Z M 22.867188 11.511719 C 22.550781 12.695312 21.210938 13.101562 19.972656 13.21875 C 20.898438 12.328125 21.507812 11.117188 21.621094 9.765625 L 22.253906 9.769531 C 22.257812 9.769531 22.59375 9.738281 22.804688 9.984375 C 23.039062 10.257812 23.058594 10.785156 22.867188 11.511719 Z M 22.867188 11.511719 "/>
</g>
</svg>
