<?xml version="1.0" encoding="UTF-8"?>
<svg xmlns="http://www.w3.org/2000/svg" xmlns:xlink="http://www.w3.org/1999/xlink" width="32pt" height="32pt" viewBox="0 0 32 32" version="1.1">
<g id="surface1">
<path style=" stroke:none;fill-rule:nonzero;fill:rgb(0.392157%,0%,0.784314%);fill-opacity:1;" d="M 16 0 C 10.433594 0 5.917969 4.515625 5.917969 10.082031 C 5.917969 15.648438 16.003906 32 16.003906 32 C 16.003906 32 26.082031 15.648438 26.082031 10.082031 C 26.082031 4.515625 21.570312 0 16 0 Z M 16 17.878906 C 11.699219 17.878906 8.199219 14.382812 8.199219 10.082031 C 8.199219 5.78125 11.699219 2.28125 16 2.28125 C 20.300781 2.28125 23.800781 5.78125 23.800781 10.082031 C 23.800781 14.382812 20.300781 17.878906 16 17.878906 Z M 21.996094 8.191406 C 21.945312 8.03125 21.804688 7.910156 21.632812 7.886719 L 18.019531 7.359375 L 16.402344 4.089844 C 16.328125 3.933594 16.171875 3.835938 16 3.835938 C 15.828125 3.835938 15.671875 3.933594 15.59375 4.089844 L 13.976562 7.359375 L 10.367188 7.886719 C 10.195312 7.910156 10.054688 8.03125 10.003906 8.191406 C 9.949219 8.355469 9.992188 8.535156 10.117188 8.65625 L 12.730469 11.203125 L 12.113281 14.800781 C 12.085938 14.96875 12.15625 15.140625 12.292969 15.242188 C 12.371094 15.300781 12.464844 15.328125 12.558594 15.328125 C 12.628906 15.328125 12.703125 15.3125 12.769531 15.277344 L 16 13.578125 L 19.230469 15.277344 C 19.296875 15.3125 19.371094 15.328125 19.441406 15.328125 C 19.535156 15.328125 19.625 15.300781 19.707031 15.242188 C 19.84375 15.140625 19.914062 14.96875 19.886719 14.800781 L 19.269531 11.203125 L 21.882812 8.65625 C 22.007812 8.535156 22.050781 8.355469 21.996094 8.191406 Z M 18.785156 11.046875 L 19.441406 14.878906 L 16 13.070312 L 12.558594 14.878906 L 13.214844 11.046875 L 10.433594 8.332031 L 14.28125 7.773438 L 16 4.285156 L 17.722656 7.773438 L 21.570312 8.332031 Z M 18.785156 11.046875 "/>
</g>
</svg>
