<?xml version="1.0" encoding="UTF-8"?>
<svg xmlns="http://www.w3.org/2000/svg" xmlns:xlink="http://www.w3.org/1999/xlink" width="32pt" height="32pt" viewBox="0 0 32 32" version="1.1">
<g id="surface1">
<path style=" stroke:none;fill-rule:nonzero;fill:rgb(0.392157%,0%,0.784314%);fill-opacity:1;" d="M 17.980469 8.058594 L 21.292969 8.058594 L 21.292969 12.015625 L 17.980469 12.015625 L 17.980469 15.328125 L 14.023438 15.328125 L 14.023438 12.015625 L 10.707031 12.015625 L 10.707031 8.058594 L 14.023438 8.058594 L 14.023438 4.742188 L 17.980469 4.742188 Z M 26.082031 10.082031 C 26.082031 15.648438 16 32 16 32 C 16 32 5.917969 15.648438 5.917969 10.082031 C 5.917969 4.515625 10.433594 0 16 0 C 21.566406 0 26.082031 4.515625 26.082031 10.082031 Z M 23.800781 10.082031 C 23.800781 5.78125 20.300781 2.28125 16 2.28125 C 11.699219 2.28125 8.199219 5.78125 8.199219 10.082031 C 8.199219 14.382812 11.699219 17.878906 16 17.878906 C 20.300781 17.878906 23.800781 14.382812 23.800781 10.082031 Z M 23.800781 10.082031 "/>
</g>
</svg>
