<?xml version="1.0" encoding="iso-8859-1"?>
<!-- Generator: Adobe Illustrator 19.1.0, SVG Export Plug-In . SVG Version: 6.00 Build 0)  -->
<svg version="1.1" id="Capa_1" xmlns="http://www.w3.org/2000/svg" xmlns:xlink="http://www.w3.org/1999/xlink" x="0px" y="0px"
	 viewBox="0 0 656.467 656.467" style="enable-background:new 0 0 656.467 656.467;" xml:space="preserve">
<g>
	<g>
		<g>
			<path style="fill:#010002;" d="M328.238,46.77c88.254,0,160.025,71.801,160.025,160.006c0,88.244-71.781,160.016-160.025,160.016
				c-88.234,0-159.996-71.781-159.996-160.016C168.242,118.571,240.004,46.77,328.238,46.77 M328.238,0
				C214.035,0,121.433,92.582,121.433,206.786c0,114.243,206.805,449.682,206.805,449.682s206.795-335.449,206.795-449.691
				C535.044,92.572,442.471,0,328.238,0z M414.089,146.689h-25.315v-1.573c0-33.306-27.151-60.448-60.507-60.448
				s-60.458,27.142-60.458,60.448v1.573h-25.344L227.655,311.6h201.226L414.089,146.689z M328.258,92.064
				c22.071,0,41.035,13.502,49.017,32.711c-10.513-15.818-28.568-26.292-49.017-26.292c-20.439,0-38.446,10.493-49.027,26.35
				C287.262,105.615,306.197,92.064,328.258,92.064z M278.958,146.689c4.953-22.735,25.158-39.784,49.31-39.784
				c24.162,0,44.405,17.039,49.31,39.784H278.958z"/>
		</g>
	</g>
</g>
<g>
</g>
<g>
</g>
<g>
</g>
<g>
</g>
<g>
</g>
<g>
</g>
<g>
</g>
<g>
</g>
<g>
</g>
<g>
</g>
<g>
</g>
<g>
</g>
<g>
</g>
<g>
</g>
<g>
</g>
</svg>
