<?xml version="1.0" encoding="iso-8859-1"?>
<!-- Generator: Adobe Illustrator 19.1.0, SVG Export Plug-In . SVG Version: 6.00 Build 0)  -->
<svg version="1.1" id="Capa_1" xmlns="http://www.w3.org/2000/svg" xmlns:xlink="http://www.w3.org/1999/xlink" x="0px" y="0px"
	 viewBox="0 0 684.253 684.253" style="enable-background:new 0 0 684.253 684.253;" xml:space="preserve">
<g>
	<g>
		<g>
			<path style="fill:#010002;" d="M276.496,111.536l-1.768-4.924c16.463-5.989,34.518,11.636,41.797,19.902l-9.926-44.083h71.097
				l-13.581,45.207h-47.297l-3.263,3.42C307.565,124.149,290.545,106.456,276.496,111.536z M557.671,215.569
				c0,119.059-215.52,468.685-215.52,468.685S126.582,334.628,126.582,215.569C126.582,96.539,223.102,0,342.141,0
				C461.152,0,557.671,96.539,557.671,215.569z M508.908,215.569c0-91.976-74.82-166.777-166.757-166.777
				c-91.976,0-166.835,74.8-166.835,166.777c0,91.918,74.859,166.796,166.835,166.796
				C434.079,382.365,508.908,307.487,508.908,215.569z M434.919,250.878c0,51.215-41.484,92.758-92.758,92.758
				c-51.235,0-92.817-41.543-92.817-92.758c0-38.602,23.673-89.495,57.195-112.318c-3.527,0.84-7.191,1.358-10.786,1.358
				c-6.077,0-11.89-1.466-16.463-5.589l3.498-3.908c7.66,6.908,20.713,4.309,30.756,0.625l-1.847,3.459h58.875v-0.362
				C407.914,154.075,434.919,209.541,434.919,250.878z M379.239,258.382c0-7.748-2.921-14.372-8.588-19.521
				c-5.628-5.11-14.177-9.067-25.441-11.734c-7.699-1.876-13.16-4.064-16.238-6.683c-2.98-2.54-4.436-5.94-4.436-10.229
				c0-4.924,1.602-8.608,4.875-11.333c3.273-2.804,8.031-4.162,14.079-4.162c5.735,0,10.22,1.358,13.18,4.025
				c3.029,2.706,4.934,6.947,5.657,12.613l0.156,1.339h15.554l-0.098-1.602c-0.44-9.086-3.81-16.316-9.995-21.563
				c-4.66-3.908-10.62-6.39-17.655-7.367v-12.437h-15.857v12.809c-5.989,1.143-11.245,3.527-15.622,7.152
				c-6.536,5.305-9.858,12.33-9.858,20.723c0,7.367,2.599,13.61,7.709,18.417c5.032,4.739,12.682,8.383,22.628,10.728
				c8.979,2.159,15.388,4.748,19.071,7.67c3.508,2.902,5.266,6.644,5.266,11.451c0,5.911-1.847,10.395-5.569,13.659
				c-3.762,3.263-9.106,4.944-15.886,4.944c-6.78,0-12.086-1.68-15.73-4.944c-3.722-3.263-5.54-7.865-5.676-13.952l-0.029-1.524
				h-15.398l-0.244,4.025c0.039,7.386,3.468,14.059,10.151,19.843c5.53,4.651,12.008,7.67,19.198,8.93v14.753h15.847v-14.772
				c7.21-1.182,13.366-3.937,18.358-8.246C375.702,275.431,379.239,267.702,379.239,258.382z"/>
		</g>
	</g>
</g>
<g>
</g>
<g>
</g>
<g>
</g>
<g>
</g>
<g>
</g>
<g>
</g>
<g>
</g>
<g>
</g>
<g>
</g>
<g>
</g>
<g>
</g>
<g>
</g>
<g>
</g>
<g>
</g>
<g>
</g>
</svg>
