<?xml version="1.0" encoding="UTF-8"?>
<svg xmlns="http://www.w3.org/2000/svg" xmlns:xlink="http://www.w3.org/1999/xlink" width="32pt" height="32pt" viewBox="0 0 32 32" version="1.1">
<g id="surface1">
<path style=" stroke:none;fill-rule:nonzero;fill:rgb(0.392157%,0%,0.784314%);fill-opacity:1;" d="M 12.929688 5.214844 L 12.847656 4.984375 C 13.617188 4.707031 14.460938 5.53125 14.800781 5.917969 L 14.339844 3.855469 L 17.664062 3.855469 L 17.027344 5.96875 L 14.816406 5.96875 L 14.664062 6.128906 C 14.382812 5.804688 13.585938 4.980469 12.929688 5.214844 Z M 26.082031 10.082031 C 26.082031 15.648438 16 32 16 32 C 16 32 5.917969 15.648438 5.917969 10.082031 C 5.917969 4.515625 10.433594 0 16 0 C 21.566406 0 26.082031 4.515625 26.082031 10.082031 Z M 23.800781 10.082031 C 23.800781 5.78125 20.300781 2.28125 16 2.28125 C 11.699219 2.28125 8.199219 5.78125 8.199219 10.082031 C 8.199219 14.378906 11.699219 17.882812 16 17.882812 C 20.300781 17.882812 23.800781 14.378906 23.800781 10.082031 Z M 20.339844 11.734375 C 20.339844 14.128906 18.398438 16.070312 16 16.070312 C 13.605469 16.070312 11.660156 14.128906 11.660156 11.734375 C 11.660156 9.925781 12.769531 7.546875 14.335938 6.480469 C 14.171875 6.519531 14 6.542969 13.832031 6.542969 C 13.546875 6.542969 13.273438 6.476562 13.0625 6.28125 L 13.226562 6.097656 C 13.582031 6.421875 14.195312 6.300781 14.664062 6.128906 L 14.578125 6.289062 L 17.332031 6.289062 L 17.332031 6.273438 C 19.078125 7.207031 20.339844 9.800781 20.339844 11.734375 Z M 17.734375 12.082031 C 17.734375 11.722656 17.597656 11.410156 17.335938 11.171875 C 17.070312 10.933594 16.671875 10.746094 16.144531 10.621094 C 15.785156 10.535156 15.527344 10.433594 15.386719 10.308594 C 15.246094 10.191406 15.175781 10.03125 15.175781 9.832031 C 15.175781 9.601562 15.253906 9.429688 15.40625 9.300781 C 15.558594 9.167969 15.78125 9.105469 16.0625 9.105469 C 16.332031 9.105469 16.542969 9.167969 16.679688 9.292969 C 16.820312 9.421875 16.910156 9.621094 16.945312 9.882812 L 16.953125 9.945312 L 17.679688 9.945312 L 17.675781 9.871094 C 17.652344 9.445312 17.496094 9.109375 17.207031 8.863281 C 16.988281 8.679688 16.710938 8.566406 16.382812 8.519531 L 16.382812 7.9375 L 15.640625 7.9375 L 15.640625 8.535156 C 15.359375 8.589844 15.113281 8.703125 14.910156 8.871094 C 14.605469 9.121094 14.449219 9.449219 14.449219 9.839844 C 14.449219 10.183594 14.570312 10.476562 14.808594 10.703125 C 15.042969 10.921875 15.402344 11.09375 15.867188 11.203125 C 16.289062 11.304688 16.585938 11.425781 16.757812 11.5625 C 16.921875 11.699219 17.003906 11.871094 17.003906 12.097656 C 17.003906 12.375 16.917969 12.582031 16.746094 12.734375 C 16.570312 12.890625 16.320312 12.96875 16.003906 12.96875 C 15.683594 12.96875 15.4375 12.890625 15.265625 12.734375 C 15.09375 12.582031 15.007812 12.367188 15 12.082031 L 15 12.011719 L 14.28125 12.011719 L 14.269531 12.199219 C 14.269531 12.546875 14.429688 12.859375 14.742188 13.128906 C 15 13.347656 15.304688 13.488281 15.640625 13.546875 L 15.640625 14.234375 L 16.382812 14.234375 L 16.382812 13.546875 C 16.71875 13.488281 17.007812 13.359375 17.242188 13.160156 C 17.570312 12.882812 17.734375 12.519531 17.734375 12.082031 Z M 17.734375 12.082031 "/>
</g>
</svg>
