<?xml version="1.0" encoding="iso-8859-1"?>
<!-- Generator: Adobe Illustrator 19.1.0, SVG Export Plug-In . SVG Version: 6.00 Build 0)  -->
<svg version="1.1" id="Capa_1" xmlns="http://www.w3.org/2000/svg" xmlns:xlink="http://www.w3.org/1999/xlink" x="0px" y="0px"
	 viewBox="0 0 620.249 620.249" style="enable-background:new 0 0 620.249 620.249;" xml:space="preserve">
<g>
	<g>
		<g>
			<path style="fill:#010002;" d="M310.129,0C202.218,0,114.726,87.492,114.726,195.394c0,107.931,195.403,424.856,195.403,424.856
				s195.394-316.934,195.394-424.856C505.533,87.502,418.06,0,310.129,0z M310.129,346.597
				c-83.369,0-151.193-67.805-151.193-151.193c0-83.359,67.824-151.184,151.193-151.184c83.359,0,151.193,67.834,151.193,151.193
				C461.323,278.782,393.488,346.597,310.129,346.597z M324.159,208.173l56.941-85.46h-30.815l16.238-29.125l1.837,0.352
				c5.54,0,10.044-4.494,10.044-10.024c0-5.54-4.504-10.024-10.044-10.024c-5.52,0-10.005,4.494-10.005,10.024
				c0,3.146,1.524,5.852,3.83,7.67l-17.313,31.118H236.814l56.921,85.46h4.973v105.508c-18.71,0.547-32.613,2.521-32.613,4.885
				c0,2.765,19.159,5.012,42.852,5.012c23.673,0,42.832-2.237,42.832-5.012c0-2.355-13.893-4.328-32.603-4.885V208.173H324.159
				L324.159,208.173z M344.97,132.21h18.358l-10.288,15.447l-16.678,0.01L344.97,132.21z M264.874,147.725l-10.327-15.505h84.991
				l-8.608,15.466L264.874,147.725z"/>
		</g>
	</g>
</g>
<g>
</g>
<g>
</g>
<g>
</g>
<g>
</g>
<g>
</g>
<g>
</g>
<g>
</g>
<g>
</g>
<g>
</g>
<g>
</g>
<g>
</g>
<g>
</g>
<g>
</g>
<g>
</g>
<g>
</g>
</svg>
