<?xml version="1.0" encoding="UTF-8" standalone="no"?>
<!-- Generator: Adobe Illustrator 19.1.0, SVG Export Plug-In . SVG Version: 6.00 Build 0)  -->

<svg
   xmlns:dc="http://purl.org/dc/elements/1.1/"
   xmlns:cc="http://creativecommons.org/ns#"
   xmlns:rdf="http://www.w3.org/1999/02/22-rdf-syntax-ns#"
   xmlns:svg="http://www.w3.org/2000/svg"
   xmlns="http://www.w3.org/2000/svg"
   xmlns:sodipodi="http://sodipodi.sourceforge.net/DTD/sodipodi-0.dtd"
   xmlns:inkscape="http://www.inkscape.org/namespaces/inkscape"
   version="1.1"
   id="Capa_1"
   x="0px"
   y="0px"
   viewBox="0 0 32.000001 50.784825"
   xml:space="preserve"
   inkscape:version="0.91 r13725"
   sodipodi:docname="beach17.svg"
   width="32"
   height="50.784824"><metadata
     id="metadata315"><rdf:RDF><cc:Work
         rdf:about=""><dc:format>image/svg+xml</dc:format><dc:type
           rdf:resource="http://purl.org/dc/dcmitype/StillImage" /><dc:title></dc:title></cc:Work></rdf:RDF></metadata><defs
     id="defs313" /><sodipodi:namedview
     pagecolor="#ffffff"
     bordercolor="#666666"
     borderopacity="1"
     objecttolerance="10"
     gridtolerance="10"
     guidetolerance="10"
     inkscape:pageopacity="0"
     inkscape:pageshadow="2"
     inkscape:window-width="1112"
     inkscape:window-height="480"
     id="namedview311"
     showgrid="false"
     fit-margin-top="0"
     fit-margin-left="0"
     fit-margin-right="0"
     fit-margin-bottom="0"
     inkscape:zoom="0.37274773"
     inkscape:cx="199.47199"
     inkscape:cy="316.56801"
     inkscape:window-x="0"
     inkscape:window-y="0"
     inkscape:window-maximized="0"
     inkscape:current-layer="Capa_1" /><g
     id="g273"
     transform="matrix(0.08021156,0,0,0.08021156,-9.3924528,0)"><g
       id="g275"><g
         id="g277"><path
           style="fill:#010002"
           d="m 411.158,185.741 c 0,12.965 -10.493,23.468 -23.487,23.468 -12.936,0 -23.419,-10.503 -23.419,-23.468 0,-12.985 10.483,-23.468 23.419,-23.468 12.984,0 23.487,10.493 23.487,23.468 z m 104.883,13.707 c 0,110.188 -199.487,433.688 -199.487,433.688 0,0 -199.458,-323.5 -199.458,-433.688 C 117.095,89.299 206.414,0 316.553,0 426.702,0 516.05,89.299 516.041,199.448 Z m -87.629,106.045 -223.698,0 c 28.158,29.643 67.824,48.274 111.839,48.274 44.044,0.011 83.74,-18.621 111.859,-48.274 z m 10.894,-12.828 c 19.716,-25.92 31.558,-58.162 31.558,-93.227 0,-85.088 -69.192,-154.339 -154.32,-154.339 -85.098,0 -154.339,69.251 -154.339,154.349 0,35.065 11.92,67.307 31.655,93.237 l 130.344,0 1.593,-4.817 c 1.876,-6.468 6.009,-28.031 6.927,-34.811 1.798,-13.62 1.524,-27.62 -1.319,-41.406 -2.843,-13.766 -8.373,-27.308 -16.248,-39.784 -4.455,-7.113 -9.809,-13.825 -15.662,-20.195 -3.976,2.56 -9.438,6.321 -11.49,7.875 -5.54,4.221 -10.464,9.379 -14.421,15.359 -3.908,5.999 -6.829,12.838 -8.481,20.166 -1.651,7.328 -2.042,15.075 -1.466,22.882 -2.374,-7.445 -3.889,-15.329 -3.967,-23.448 -0.147,-8.099 1.163,-16.453 4.025,-24.416 2.853,-7.963 7.201,-15.505 12.643,-22.227 l 0.899,-1.026 c -3.634,-0.723 -7.328,-1.397 -9.057,-1.612 -6.937,-0.909 -14.069,-0.791 -21.084,0.684 -7.015,1.407 -13.893,4.221 -20.244,8.246 -6.36,3.986 -12.154,9.204 -17.254,15.095 3.605,-6.927 8.099,-13.522 13.756,-19.355 5.637,-5.833 12.486,-10.835 20.107,-14.431 7.689,-3.634 16.111,-5.862 24.709,-6.78 4.279,-0.479 8.637,-0.606 13.004,-0.42 2.198,0.078 4.397,0.283 6.595,0.557 l 2.11,0.293 0.948,-2.706 c 0.782,-2.091 1.641,-4.113 2.589,-6.106 1.876,-3.957 3.996,-7.758 6.399,-11.333 4.826,-7.162 10.708,-13.59 17.528,-18.641 6.722,-5.12 14.313,-8.842 22.071,-11.118 7.816,-2.316 15.759,-3.205 23.546,-3.166 -7.601,1.778 -14.87,4.445 -21.397,8.246 -6.487,3.722 -12.135,8.539 -16.717,14.079 -4.533,5.51 -7.933,11.754 -10.386,18.309 -0.41,1.114 -1.065,3.146 -1.749,5.442 3.253,-0.918 6.526,-1.729 9.878,-2.257 8.52,-1.378 17.235,-1.426 25.559,0.059 8.344,1.466 16.258,4.465 23.224,8.578 7.025,4.133 13.082,9.34 18.378,15.075 -6.478,-4.357 -13.453,-7.855 -20.605,-10.044 -7.171,-2.189 -14.558,-3.058 -21.709,-2.609 -7.122,0.42 -14.089,2.169 -20.498,4.895 -2.794,1.153 -10.601,4.963 -14.577,7.132 12.594,15.232 33.297,48.343 39.511,61.64 7.132,15.046 11.548,31.587 13.317,48.45 0.918,8.451 1.221,17.01 0.84,25.588 -0.195,4.309 -0.528,8.627 -1.065,13.004 l -0.195,1.055 74.537,0 0,-0.021 0,0 z"
           id="path279"
           inkscape:connector-curvature="0" /></g></g></g><g
     id="g281"
     transform="translate(-117.096,-582.35118)" /><g
     id="g283"
     transform="translate(-117.096,-582.35118)" /><g
     id="g285"
     transform="translate(-117.096,-582.35118)" /><g
     id="g287"
     transform="translate(-117.096,-582.35118)" /><g
     id="g289"
     transform="translate(-117.096,-582.35118)" /><g
     id="g291"
     transform="translate(-117.096,-582.35118)" /><g
     id="g293"
     transform="translate(-117.096,-582.35118)" /><g
     id="g295"
     transform="translate(-117.096,-582.35118)" /><g
     id="g297"
     transform="translate(-117.096,-582.35118)" /><g
     id="g299"
     transform="translate(-117.096,-582.35118)" /><g
     id="g301"
     transform="translate(-117.096,-582.35118)" /><g
     id="g303"
     transform="translate(-117.096,-582.35118)" /><g
     id="g305"
     transform="translate(-117.096,-582.35118)" /><g
     id="g307"
     transform="translate(-117.096,-582.35118)" /><g
     id="g309"
     transform="translate(-117.096,-582.35118)" /></svg>