<?xml version="1.0" encoding="iso-8859-1"?>
<!-- Generator: Adobe Illustrator 19.1.0, SVG Export Plug-In . SVG Version: 6.00 Build 0)  -->
<svg version="1.1" id="Capa_1" xmlns="http://www.w3.org/2000/svg" xmlns:xlink="http://www.w3.org/1999/xlink" x="0px" y="0px"
	 viewBox="0 0 750.137 750.137" style="enable-background:new 0 0 750.137 750.137;" xml:space="preserve">
<g>
	<g>
		<g>
			<g>
				<path style="fill:#010002;" d="M453.137,234.206c-29.418,0-54.309,23.76-54.309,54.308c0,30.549,23.76,54.309,54.309,54.309
					c29.418,0,54.309-23.76,54.309-54.309C507.446,257.966,482.555,234.206,453.137,234.206z M453.137,332.64
					c-24.891,0-44.125-19.234-44.125-44.126c0-24.891,19.234-44.125,44.125-44.125c23.76,0,44.125,19.234,44.125,44.125
					C497.262,313.406,478.028,332.64,453.137,332.64z"/>
				<path style="fill:#010002;" d="M295.869,234.206c-29.417,0-54.309,23.76-54.309,54.308c0,30.549,23.76,54.309,54.309,54.309
					c29.417,0,54.309-23.76,54.309-54.309C350.177,257.966,325.286,234.206,295.869,234.206z M295.869,332.64
					c-24.892,0-44.125-19.234-44.125-44.126c0-24.891,19.234-44.125,44.125-44.125c23.76,0,44.125,19.234,44.125,44.125
					C339.994,313.406,320.76,332.64,295.869,332.64z"/>
			</g>
			<path style="fill:#010002;" d="M392.039,149.349c14.709,0,26.023-11.314,26.023-26.023s-11.314-26.023-26.023-26.023
				c-14.709,0-26.022,11.314-26.022,26.023S377.33,149.349,392.039,149.349z"/>
			<polygon style="fill:#010002;" points="369.411,267.017 369.411,311.143 394.303,311.143 394.303,250.046 351.308,217.234 
				373.937,185.554 437.297,218.366 446.348,200.263 385.252,168.583 392.039,159.531 364.885,140.297 308.314,220.629 
				330.943,237.6 			"/>
			<path style="fill:#010002;" d="M397.698,313.406h-23.761c-4.525,0-7.92,3.394-7.92,7.92s3.395,6.789,7.92,6.789h23.761
				c4.525,0,6.787-3.394,6.787-6.789C404.484,316.8,402.223,313.406,397.698,313.406z"/>
			<path style="fill:#010002;" d="M375.069,0C244.954,0,138.6,106.354,138.6,236.469s236.469,513.668,236.469,513.668
				s236.469-383.554,236.469-514.799C611.536,105.223,505.182,0,375.069,0z M375.069,420.892
				c-106.354,0-192.343-85.989-192.343-192.343S268.715,36.206,375.069,36.206s192.342,85.989,192.342,192.343
				C566.28,334.903,480.291,420.892,375.069,420.892z"/>
		</g>
	</g>
</g>
<g>
</g>
<g>
</g>
<g>
</g>
<g>
</g>
<g>
</g>
<g>
</g>
<g>
</g>
<g>
</g>
<g>
</g>
<g>
</g>
<g>
</g>
<g>
</g>
<g>
</g>
<g>
</g>
<g>
</g>
</svg>
