<?xml version="1.0" encoding="UTF-8"?>
<svg xmlns="http://www.w3.org/2000/svg" xmlns:xlink="http://www.w3.org/1999/xlink" width="32pt" height="32pt" viewBox="0 0 32 32" version="1.1">
<g id="surface1">
<path style=" stroke:none;fill-rule:nonzero;fill:rgb(0.392157%,0%,0.784314%);fill-opacity:1;" d="M 16 0 C 10.433594 0 5.917969 4.511719 5.917969 10.082031 C 5.917969 15.648438 16 32 16 32 C 16 32 26.082031 15.648438 26.082031 10.082031 C 26.082031 4.511719 21.570312 0 16 0 Z M 16 17.878906 C 11.699219 17.878906 8.199219 14.378906 8.199219 10.078125 C 8.199219 5.777344 11.699219 2.28125 16 2.28125 C 20.300781 2.28125 23.800781 5.78125 23.800781 10.078125 C 23.800781 14.378906 20.300781 17.878906 16 17.878906 Z M 16 17.878906 "/>
<path style=" stroke:none;fill-rule:nonzero;fill:rgb(0.392157%,0%,0.784314%);fill-opacity:1;" d="M 14.597656 13.75 L 17.457031 13.75 L 17.457031 14.726562 L 18.609375 14.726562 L 18.609375 3.734375 L 13.390625 3.734375 L 13.390625 4.363281 L 18.058594 4.363281 L 18.058594 5.164062 L 13.390625 5.164062 L 13.390625 14.726562 L 14.597656 14.726562 Z M 16.453125 6.019531 L 18.007812 6.019531 L 18.007812 7.574219 L 16.453125 7.574219 Z M 16.4375 8.703125 L 17.996094 8.703125 L 17.996094 10.261719 L 16.4375 10.261719 Z M 16.4375 11.363281 L 17.996094 11.363281 L 17.996094 12.917969 L 16.4375 12.917969 Z M 14.015625 6.019531 L 15.574219 6.019531 L 15.574219 7.574219 L 14.015625 7.574219 Z M 14.003906 8.703125 L 15.5625 8.703125 L 15.5625 10.261719 L 14.003906 10.261719 C 14.003906 10.261719 14.003906 8.703125 14.003906 8.703125 Z M 14.003906 11.363281 L 15.5625 11.363281 L 15.5625 12.917969 L 14.003906 12.917969 C 14.003906 12.917969 14.003906 11.363281 14.003906 11.363281 Z M 14.003906 11.363281 "/>
<path style=" stroke:none;fill-rule:nonzero;fill:rgb(0.392157%,0%,0.784314%);fill-opacity:1;" d="M 17.457031 14.726562 L 14.597656 14.726562 L 14.597656 14.855469 L 11.683594 14.855469 L 11.683594 15.957031 L 20.316406 15.957031 L 20.316406 14.855469 L 17.457031 14.855469 Z M 17.457031 14.726562 "/>
</g>
</svg>
