<?xml version="1.0" encoding="iso-8859-1"?>
<!-- Generator: Adobe Illustrator 19.1.0, SVG Export Plug-In . SVG Version: 6.00 Build 0)  -->
<svg version="1.1" id="Capa_1" xmlns="http://www.w3.org/2000/svg" xmlns:xlink="http://www.w3.org/1999/xlink" x="0px" y="0px"
	 viewBox="0 0 664.371 664.371" style="enable-background:new 0 0 664.371 664.371;" xml:space="preserve">
<g>
	<g>
		<g>
			<g>
				<path style="fill:#010002;" d="M332.195,0C216.595,0,122.889,93.676,122.889,209.287s209.306,455.084,209.306,455.084
					s209.287-339.494,209.287-455.084C541.482,93.676,447.796,0,332.195,0z M332.195,371.208c-89.299,0-161.94-72.651-161.94-161.94
					s72.641-161.931,161.94-161.931c89.28,0,161.931,72.651,161.931,161.931C494.126,298.566,421.475,371.208,332.195,371.208z"/>
				<path style="fill:#010002;" d="M303.031,285.455l59.383,0.01v20.302h23.966V77.526H278v13.043h96.91v16.668H278v198.52h25.031
					V285.455L303.031,285.455z M341.555,124.98h32.31v32.31h-32.31V124.98z M341.301,180.699h32.31v32.329h-32.31V180.699z
					 M341.301,235.94h32.31v32.281h-32.31V235.94z M291.024,124.98h32.32v32.31h-32.32V124.98z M290.77,180.699h32.3v32.329h-32.3
					C290.77,213.029,290.77,180.699,290.77,180.699z M290.77,235.949h32.3v32.281h-32.3
					C290.77,268.23,290.77,235.949,290.77,235.949z"/>
				<polygon style="fill:#010002;" points="362.414,305.777 303.031,305.777 303.031,308.395 242.574,308.395 242.574,331.326 
					421.817,331.326 421.817,308.395 362.414,308.395 				"/>
			</g>
		</g>
	</g>
</g>
<g>
</g>
<g>
</g>
<g>
</g>
<g>
</g>
<g>
</g>
<g>
</g>
<g>
</g>
<g>
</g>
<g>
</g>
<g>
</g>
<g>
</g>
<g>
</g>
<g>
</g>
<g>
</g>
<g>
</g>
</svg>
