<?xml version="1.0" encoding="iso-8859-1"?>
<!-- Generator: Adobe Illustrator 19.1.0, SVG Export Plug-In . SVG Version: 6.00 Build 0)  -->
<svg version="1.1" id="Capa_1" xmlns="http://www.w3.org/2000/svg" xmlns:xlink="http://www.w3.org/1999/xlink" x="0px" y="0px"
	 viewBox="0 0 656.448 656.448" style="enable-background:new 0 0 656.448 656.448;" xml:space="preserve">
<g>
	<g>
		<g>
			<path style="fill:#010002;" d="M308.229,157.231h44.982v13.16h-44.982V157.231z M328.229,0
				C214.006,0,121.424,92.602,121.424,206.795c0,114.223,206.805,449.652,206.805,449.652s206.795-335.429,206.795-449.652
				C535.034,92.592,442.422,0,328.229,0z M216.136,92.504h0.303c28.881-28.236,68.293-45.715,111.79-45.715
				c43.477,0,82.919,17.479,111.771,45.715h0.156l0.811,0.899l-0.967-0.899H338.917v-3.498h-35.085v2.941h-38.641v0.557h-48.753
				C214.68,94.263,216.136,92.504,216.136,92.504z M328.229,366.821c-88.234,0-160.016-71.781-160.016-160.016
				c0-40.683,15.505-77.692,40.605-105.967h56.384v0.479h38.641v3.078h16.326l23.214,23.233l-15.925,15.945l6.575,6.644
				l22.559-22.589l-23.194-23.233h5.52v-3.556h108.859l-3.058-3.38l3.107,3.38h-0.059c25.09,28.265,40.439,65.304,40.439,105.967
				C488.225,295.039,416.473,366.821,328.229,366.821z M285.855,182.829l-44.904,77.751l44.904,77.692h89.749l44.865-77.692
				l-44.865-77.751C375.604,182.829,285.855,182.829,285.855,182.829z M307.496,267.663H283.97v-7.083h23.527V267.663z
				 M280.804,249.198l21.475-41.504h56.941l21.397,41.504H280.804z"/>
		</g>
	</g>
</g>
<g>
</g>
<g>
</g>
<g>
</g>
<g>
</g>
<g>
</g>
<g>
</g>
<g>
</g>
<g>
</g>
<g>
</g>
<g>
</g>
<g>
</g>
<g>
</g>
<g>
</g>
<g>
</g>
<g>
</g>
</svg>
