<?xml version="1.0" encoding="UTF-8"?>
<svg xmlns="http://www.w3.org/2000/svg" xmlns:xlink="http://www.w3.org/1999/xlink" width="32pt" height="32pt" viewBox="0 0 32 32" version="1.1">
<g id="surface1">
<path style=" stroke:none;fill-rule:nonzero;fill:rgb(0.392157%,0%,0.784314%);fill-opacity:1;" d="M 15.023438 7.664062 L 17.21875 7.664062 L 17.21875 8.304688 L 15.023438 8.304688 Z M 16 0 C 10.433594 0 5.917969 4.515625 5.917969 10.082031 C 5.917969 15.648438 16 32 16 32 C 16 32 26.082031 15.648438 26.082031 10.082031 C 26.082031 4.511719 21.566406 0 16 0 Z M 10.535156 4.507812 L 10.550781 4.507812 C 11.957031 3.132812 13.878906 2.28125 16 2.28125 C 18.121094 2.28125 20.042969 3.132812 21.449219 4.507812 L 21.457031 4.507812 L 21.496094 4.554688 L 21.449219 4.507812 L 16.519531 4.507812 L 16.519531 4.339844 L 14.8125 4.339844 L 14.8125 4.480469 L 12.925781 4.480469 L 12.925781 4.507812 L 10.550781 4.507812 C 10.464844 4.59375 10.535156 4.507812 10.535156 4.507812 Z M 16 17.882812 C 11.699219 17.882812 8.199219 14.382812 8.199219 10.082031 C 8.199219 8.097656 8.957031 6.292969 10.179688 4.914062 L 12.929688 4.914062 L 12.929688 4.9375 L 14.8125 4.9375 L 14.8125 5.089844 L 15.605469 5.089844 L 16.738281 6.222656 L 15.960938 7 L 16.28125 7.324219 L 17.382812 6.222656 L 16.253906 5.089844 L 16.519531 5.089844 L 16.519531 4.914062 L 21.828125 4.914062 L 21.679688 4.75 L 21.832031 4.914062 L 21.828125 4.914062 C 23.050781 6.292969 23.796875 8.097656 23.796875 10.082031 C 23.800781 14.382812 20.300781 17.882812 16 17.882812 Z M 13.933594 8.914062 L 11.746094 12.703125 L 13.933594 16.488281 L 18.308594 16.488281 L 20.496094 12.703125 L 18.308594 8.914062 C 18.308594 8.914062 13.933594 8.914062 13.933594 8.914062 Z M 14.988281 13.046875 L 13.84375 13.046875 L 13.84375 12.703125 L 14.988281 12.703125 Z M 13.6875 12.148438 L 14.734375 10.125 L 17.511719 10.125 L 18.554688 12.148438 Z M 13.6875 12.148438 "/>
</g>
</svg>
