<?xml version="1.0" encoding="iso-8859-1"?>
<!-- Generator: Adobe Illustrator 19.1.0, SVG Export Plug-In . SVG Version: 6.00 Build 0)  -->
<svg version="1.1" id="Capa_1" xmlns="http://www.w3.org/2000/svg" xmlns:xlink="http://www.w3.org/1999/xlink" x="0px" y="0px"
	 viewBox="0 0 684.253 684.253" style="enable-background:new 0 0 684.253 684.253;" xml:space="preserve">
<g>
	<g>
		<g>
			<g>
				<path style="fill:#010002;" d="M342.122,0C223.053,0,126.572,96.519,126.572,215.549c0,119.059,215.549,468.704,215.549,468.704
					s215.559-349.645,215.559-468.704C557.681,96.519,461.162,0,342.122,0z M342.122,382.326
					c-91.947,0-166.786-74.8-166.786-166.777c-0.01-91.957,74.83-166.786,166.786-166.786c91.967,0,166.786,74.83,166.786,166.786
					C508.908,307.526,434.088,382.326,342.122,382.326z"/>
				<path style="fill:#010002;" d="M456.013,279.661L336.182,128.575L233.859,274.219l3.253,7.494l-1.612,0.703h59.344h12.721
					c-4.631-6.448-7.376-14.333-7.376-22.891c0-21.641,17.508-39.198,39.149-39.198c21.641,0,39.198,17.557,39.198,39.208
					c0,8.559-2.745,16.443-7.406,22.891h87.072l-0.821-1.036l-1.622-0.274L456.013,279.661z"/>
				<polygon style="fill:#010002;" points="228.104,282.416 228.925,282.416 228.612,281.703 				"/>
				<path style="fill:#010002;" d="M469.994,243.551l-7.728-1.309l-2.061,12.232c2.628,2.062,5.022,3.732,7.132,4.914
					L469.994,243.551z"/>
				<path style="fill:#010002;" d="M459.041,261.518l-3.048,18.143l1.387,1.729l6.126,1.026l3.703-22.188l-2.687,4.905
					C462.862,264.224,460.995,262.935,459.041,261.518z"/>
				<path style="fill:#010002;" d="M226.082,256.301c-0.518,0.195-1.055,0.43-1.553,0.576l-1.671-6.145
					c0.205-0.059,0.459-0.234,0.674-0.313l-2.12-4.885l-7.142,3.136l14.343,33.023l5.256-7.484L226.082,256.301z"/>
				<polygon style="fill:#010002;" points="229.97,284.839 235.5,282.416 228.925,282.416 				"/>
				<path style="fill:#010002;" d="M335.341,116.265c15.671,21.27,89.612,120.349,123.7,145.253l1.163-7.044
					c-37.654-29.77-121.58-144.53-122.528-145.781l-2.824-3.869l-2.462,4.094c-22.208,36.931-84.512,133.49-108.879,141.501
					l2.55,5.882C255.451,245.172,321.497,138.99,335.341,116.265z"/>
				<path style="fill:#010002;" d="M467.356,259.388l-0.147,0.84l0.381-0.694C467.512,259.496,467.444,259.427,467.356,259.388z"/>
			</g>
		</g>
	</g>
</g>
<g>
</g>
<g>
</g>
<g>
</g>
<g>
</g>
<g>
</g>
<g>
</g>
<g>
</g>
<g>
</g>
<g>
</g>
<g>
</g>
<g>
</g>
<g>
</g>
<g>
</g>
<g>
</g>
<g>
</g>
</svg>
