<?xml version="1.0" encoding="iso-8859-1"?>
<!-- Generator: Adobe Illustrator 19.1.0, SVG Export Plug-In . SVG Version: 6.00 Build 0)  -->
<svg version="1.1" id="Capa_1" xmlns="http://www.w3.org/2000/svg" xmlns:xlink="http://www.w3.org/1999/xlink" x="0px" y="0px"
	 viewBox="0 0 617.719 617.719" style="enable-background:new 0 0 617.719 617.719;" xml:space="preserve">
<g>
	<g>
		<g>
			<path style="fill:#010002;" d="M267.082,236.633h-56.354v-14.372h10.542v-4.289h-26.448v4.289h12.271v14.372h-12.271v15.574
				h111.976l-0.107-2.237c0-20.498,16.629-37.107,37.107-37.107c20.508,0,37.088,16.609,37.088,37.107l-0.117,2.237h18.085v-74.605
				h-30.962v-17.137h30.962v-20.996h-131.77V236.633L267.082,236.633z M321.267,160.553h35.71v17.127h-35.71V160.553z
				 M276.022,160.153h35.71v17.108h-35.71V160.153z M343.797,222.271c-15.3,0-27.708,12.408-27.708,27.708
				c0,15.29,12.398,27.689,27.708,27.689c15.29,0,27.698-12.379,27.698-27.689C371.486,234.679,359.098,222.271,343.797,222.271z
				 M343.797,259.877c-5.452,0-9.917-4.426-9.917-9.907c0-5.462,4.465-9.907,9.917-9.907c5.432,0,9.907,4.445,9.907,9.907
				C353.695,255.451,349.23,259.877,343.797,259.877z M266.281,115.962v18.729h133.363v-18.729
				C399.644,115.962,339.332,73.872,266.281,115.962z M308.859,0C201.407,0,114.267,87.121,114.267,194.602
				c0,107.443,194.592,423.117,194.592,423.117s194.592-315.674,194.592-423.117C503.452,87.13,416.351,0,308.859,0z
				 M308.859,345.16c-83.017,0-150.578-67.541-150.578-150.548c0-83.027,67.561-150.568,150.578-150.568
				c83.037,0,150.539,67.541,150.539,150.568C459.398,277.619,391.886,345.16,308.859,345.16z"/>
		</g>
	</g>
</g>
<g>
</g>
<g>
</g>
<g>
</g>
<g>
</g>
<g>
</g>
<g>
</g>
<g>
</g>
<g>
</g>
<g>
</g>
<g>
</g>
<g>
</g>
<g>
</g>
<g>
</g>
<g>
</g>
<g>
</g>
</svg>
