<?xml version="1.0" encoding="iso-8859-1"?>
<!-- Generator: Adobe Illustrator 19.1.0, SVG Export Plug-In . SVG Version: 6.00 Build 0)  -->
<svg version="1.1" id="Capa_1" xmlns="http://www.w3.org/2000/svg" xmlns:xlink="http://www.w3.org/1999/xlink" x="0px" y="0px"
	 viewBox="0 0 684.253 684.253" style="enable-background:new 0 0 684.253 684.253;" xml:space="preserve">
<g>
	<g>
		<g>
			<path style="fill:#010002;" d="M342.156,0c-119.04,0-215.588,96.519-215.588,215.549c0,119.059,215.579,468.704,215.579,468.704
				s215.54-349.645,215.54-468.704C557.696,96.519,461.196,0,342.156,0z M342.156,382.355c-91.957,0-166.796-74.82-166.796-166.796
				c0-91.957,74.839-166.796,166.796-166.796c91.976,0,166.796,74.839,166.796,166.796
				C508.972,307.535,434.132,382.355,342.156,382.355z M467.38,300.374v10.425H224.836v-10.425h15.027v-52.661h62.451v-6.282
				h-65.196l73.022-34.391l4.699-10.874v-32.818h-5.628l31.05-44.357V88.733h-13.278v-8.93h13.278V65.929h8.92v13.874h13.287v8.93
				h-13.287v28.47l31.02,46.144h-5.608v32.857l3.937,9.106l73.784,36.12h-65.216v6.282h65.206v52.661H467.38z"/>
		</g>
	</g>
</g>
<g>
</g>
<g>
</g>
<g>
</g>
<g>
</g>
<g>
</g>
<g>
</g>
<g>
</g>
<g>
</g>
<g>
</g>
<g>
</g>
<g>
</g>
<g>
</g>
<g>
</g>
<g>
</g>
<g>
</g>
</svg>
