<?xml version="1.0" encoding="iso-8859-1"?>
<!-- Generator: Adobe Illustrator 19.1.0, SVG Export Plug-In . SVG Version: 6.00 Build 0)  -->
<svg version="1.1" id="Capa_1" xmlns="http://www.w3.org/2000/svg" xmlns:xlink="http://www.w3.org/1999/xlink" x="0px" y="0px"
	 viewBox="0 0 648.7 648.7" style="enable-background:new 0 0 648.7 648.7;" xml:space="preserve">
<g>
	<g>
		<g>
			<path style="fill:#010002;" d="M410.845,193.566v107.55H236.907v-107.55c0-22.256,18.055-40.331,40.331-40.331h0.83
				c2.57,0,5.071,0.293,7.503,0.762c4.006-16.824,18.495-29.408,36.208-30.708v-21.533h-20.81v-6.732h20.801v-14.88h6.732v14.89
				h20.781v6.732h-20.781v21.533c17.616,1.299,32.017,13.766,36.101,30.454c1.68-0.215,3.322-0.508,5.061-0.508h0.84
				C392.79,153.245,410.845,171.31,410.845,193.566z M528.712,204.382c0,112.836-204.353,444.318-204.353,444.318
				S119.987,317.218,119.987,204.382C119.987,91.517,211.495,0,324.36,0C437.205-0.01,528.712,91.517,528.712,204.382z
				 M482.48,204.392c0-87.199-70.951-158.159-158.12-158.159c-87.199,0-158.13,70.951-158.13,158.159
				c0,87.16,70.931,158.091,158.13,158.091C411.539,362.493,482.48,291.551,482.48,204.392z"/>
		</g>
	</g>
</g>
<g>
</g>
<g>
</g>
<g>
</g>
<g>
</g>
<g>
</g>
<g>
</g>
<g>
</g>
<g>
</g>
<g>
</g>
<g>
</g>
<g>
</g>
<g>
</g>
<g>
</g>
<g>
</g>
<g>
</g>
</svg>
