<?xml version="1.0" encoding="iso-8859-1"?>
<!-- Generator: Adobe Illustrator 19.1.0, SVG Export Plug-In . SVG Version: 6.00 Build 0)  -->
<svg version="1.1" id="Capa_1" xmlns="http://www.w3.org/2000/svg" xmlns:xlink="http://www.w3.org/1999/xlink" x="0px" y="0px"
	 viewBox="0 0 670.008 670.008" style="enable-background:new 0 0 670.008 670.008;" xml:space="preserve">
<g>
	<g>
		<g>
			<g>
				<path style="fill:#010002;" d="M330.93,172.58c-0.567-0.557-13.502-14.02,0.156-30.522c16.717-20.156,0-37.244-0.156-37.439
					l-3.644,3.634c0.567,0.576,13.502,14.01-0.147,30.522c-16.707,20.156-0.029,37.263,0.147,37.429L330.93,172.58z"/>
				<path style="fill:#010002;" d="M334.994,0c-122.85,0-222.418,99.626-222.418,222.467c0,93.08,127.774,322.894,189.639,428.676
					c6.82,11.656,19.257,18.866,32.769,18.866c13.502,0,25.989-7.142,32.789-18.817C429.628,545.4,557.432,315.557,557.432,222.467
					C557.432,99.626,457.835,0,334.994,0z M334.994,394.568c-94.898,0-172.101-77.194-172.101-172.082
					c0-94.907,77.204-172.131,172.101-172.131c94.917,0,172.101,77.223,172.101,172.131
					C507.106,317.345,429.912,394.568,334.994,394.568z"/>
				<path style="fill:#010002;" d="M311.048,172.58c-0.547-0.557-13.502-14.02,0.166-30.522c16.687-20.156,0-37.244-0.166-37.439
					l-3.644,3.634c0.557,0.586,13.493,14.02-0.166,30.522c-16.687,20.156-0.02,37.244,0.166,37.429L311.048,172.58z"/>
				<path style="fill:#010002;" d="M352.551,172.58c-0.567-0.557-13.483-14.02,0.186-30.522c16.678-20.156,0-37.244-0.186-37.439
					l-3.635,3.634c0.596,0.576,13.541,14.01-0.156,30.522c-16.687,20.156,0,37.263,0.176,37.429L352.551,172.58z"/>
				<path style="fill:#010002;" d="M484.908,202.702c-7.806-9.096-19.521-7.943-19.462-7.933l-259.222,0.234
					c0,43.243,24.318,80.858,60.116,100.154c-36.687,2.384-61.64,7.122-61.64,12.584c0,7.885,52.114,14.264,116.441,14.264
					c2.882,0,14.186,0,17.059,0c64.346,0,116.46-6.39,116.46-14.264c0-5.462-24.973-10.2-61.65-12.584
					c4.328-2.335,8.49-4.963,12.467-7.816c46.232-1.231,75.445-16.531,82.714-43.849
					C493.183,224.802,492.089,211.075,484.908,202.702z M478.762,240.991c-6.585,24.797-34.635,33.336-60.595,35.808
					c19.394-18.641,32.173-43.995,34.528-72.289l13.239,0.01c0.117,0.01,7.122-0.596,11.548,4.543
					C482.377,214.758,482.807,225.798,478.762,240.991z"/>
			</g>
		</g>
	</g>
</g>
<g>
</g>
<g>
</g>
<g>
</g>
<g>
</g>
<g>
</g>
<g>
</g>
<g>
</g>
<g>
</g>
<g>
</g>
<g>
</g>
<g>
</g>
<g>
</g>
<g>
</g>
<g>
</g>
<g>
</g>
</svg>
