<?xml version="1.0" encoding="iso-8859-1"?>
<!-- Generator: Adobe Illustrator 19.1.0, SVG Export Plug-In . SVG Version: 6.00 Build 0)  -->
<svg version="1.1" id="Capa_1" xmlns="http://www.w3.org/2000/svg" xmlns:xlink="http://www.w3.org/1999/xlink" x="0px" y="0px"
	 viewBox="0 0 684.253 684.253" style="enable-background:new 0 0 684.253 684.253;" xml:space="preserve">
<g>
	<g>
		<g>
			<path style="fill:#010002;" d="M379.542,284.751l21.123,10.181c-16.717,15.73-39.286,25.383-64.073,25.383
				c-51.665,0-93.53-41.689-93.53-93.159c0-29.291,13.571-55.436,34.811-72.495l13.708,16.394
				c-16.531,13.151-27.132,33.375-27.132,56.1c0,39.677,32.29,71.83,72.143,71.83C352.693,298.987,367.534,293.662,379.542,284.751z
				 M302.875,123.466c2.638,1.143,5.53,1.817,8.608,1.817c4.084,0,7.875-1.202,11.148-3.185c6.185-3.781,10.376-10.493,10.376-18.26
				c0-11.841-9.643-21.455-21.524-21.455c-11.91,0-21.543,9.614-21.543,21.446C289.939,112.621,295.264,120.144,302.875,123.466z
				 M452.818,279.554l-21.104,0.244l-27.747-75.562l-75.269-0.098l-0.899-14.294l51.938-0.362l0.459-19.404h-53.492l-3.166-43.643
				c-3.273,1.983-7.044,3.205-11.158,3.205c-3.087,0-5.97-0.684-8.617-1.837c1.368,13.375,1.817,30.092,2.618,40.478
				c1.378,18.514,2.853,36.961,3.762,55.24l80.33,0.479l28.861,73.872l40.331-0.264
				C459.667,297.609,462.949,279.554,452.818,279.554z M557.691,215.588c0,119.02-215.569,468.665-215.569,468.665
				S126.563,334.609,126.563,215.588C126.563,96.539,223.092,0,342.122,0C461.181,0,557.701,96.539,557.691,215.588z
				 M508.918,215.588c0-91.976-74.82-166.816-166.796-166.816s-166.777,74.839-166.777,166.816
				c0,91.937,74.8,166.757,166.777,166.757C434.098,382.346,508.918,307.526,508.918,215.588z"/>
		</g>
	</g>
</g>
<g>
</g>
<g>
</g>
<g>
</g>
<g>
</g>
<g>
</g>
<g>
</g>
<g>
</g>
<g>
</g>
<g>
</g>
<g>
</g>
<g>
</g>
<g>
</g>
<g>
</g>
<g>
</g>
<g>
</g>
</svg>
