<?xml version="1.0" encoding="iso-8859-1"?>
<!-- Generator: Adobe Illustrator 19.1.0, SVG Export Plug-In . SVG Version: 6.00 Build 0)  -->
<svg version="1.1" id="Capa_1" xmlns="http://www.w3.org/2000/svg" xmlns:xlink="http://www.w3.org/1999/xlink" x="0px" y="0px"
	 viewBox="0 0 639.653 639.653" style="enable-background:new 0 0 639.653 639.653;" xml:space="preserve">
<g>
	<g>
		<g>
			<path style="fill:#010002;" d="M319.865,0C208.534,0,118.317,90.227,118.317,201.5c0,111.302,201.549,438.153,201.549,438.153
				S521.336,312.792,521.336,201.5C521.336,90.227,431.138,0,319.865,0z M319.865,357.422c-86.017,0-155.942-69.906-155.942-155.903
				c0-85.968,69.925-155.922,155.942-155.922c85.929,0,155.863,69.964,155.863,155.922
				C475.729,287.516,405.794,357.422,319.865,357.422z M439.716,163.767c-1.084-3.263-3.889-5.657-7.308-6.136l-72.211-10.503
				l-32.3-65.411c-1.495-3.107-4.651-5.032-8.08-5.032c-3.429,0-6.585,1.925-8.099,5.032l-32.3,65.411l-72.202,10.503
				c-3.41,0.479-6.233,2.872-7.269,6.136c-1.075,3.244-0.195,6.849,2.257,9.243l52.27,50.942l-12.34,71.928
				c-0.576,3.371,0.83,6.78,3.576,8.813c1.583,1.163,3.449,1.729,5.325,1.729c1.426,0,2.882-0.342,4.211-1.036l64.571-33.951
				l64.591,33.951c1.329,0.694,2.765,1.036,4.191,1.036c1.856,0,3.713-0.567,5.305-1.729c2.784-2.032,4.162-5.442,3.576-8.813
				l-12.33-71.928L437.4,173.01C439.882,170.616,440.771,167.011,439.716,163.767z M375.506,220.796l13.112,76.588l-68.782-36.14
				l-68.782,36.14l13.131-76.588l-55.661-54.244l76.911-11.187l34.401-69.681l34.401,69.681l76.901,11.187L375.506,220.796z"/>
		</g>
	</g>
</g>
<g>
</g>
<g>
</g>
<g>
</g>
<g>
</g>
<g>
</g>
<g>
</g>
<g>
</g>
<g>
</g>
<g>
</g>
<g>
</g>
<g>
</g>
<g>
</g>
<g>
</g>
<g>
</g>
<g>
</g>
</svg>
