<?xml version="1.0" encoding="iso-8859-1"?>
<!-- Generator: Adobe Illustrator 19.1.0, SVG Export Plug-In . SVG Version: 6.00 Build 0)  -->
<svg version="1.1" id="Capa_1" xmlns="http://www.w3.org/2000/svg" xmlns:xlink="http://www.w3.org/1999/xlink" x="0px" y="0px"
	 viewBox="0 0 631.934 631.934" style="enable-background:new 0 0 631.934 631.934;" xml:space="preserve">
<g>
	<g>
		<g>
			<path style="fill:#010002;" d="M216.429,165.155c-2.657,1.065-6.058-1.231-7.621-5.129c-1.495-3.889-0.616-7.914,2.042-8.93
				c2.667-1.084,6.067,1.251,7.611,5.129C219.995,160.123,219.067,164.119,216.429,165.155z M229.794,156.274
				c3.361-1.319,4.514-6.419,2.55-11.333c-1.934-4.953-6.282-7.875-9.624-6.507c-3.361,1.309-4.514,6.399-2.579,11.353
				C222.095,154.711,226.394,157.622,229.794,156.274z M272.558,248.533c-8.285-16.951-7.572-30.307-7.699-33.209l-0.186-4.66
				v-0.547c0-6.448,6.312-12.037,12.76-12.037c4.543,0,3.879,2.462,10.552,1.426c6.644-1.006,16.697-14.518,16.697-23.966
				c0-16.248-7.855-24.689-24.113-24.689c0,0-11.841,0.762-15.847,1.593l-26.506,5.344c-15.212,3.107-25.041,17.918-21.963,33.131
				c1.514,7.455,11.04,24.621,11.881,28.255l14.489,40.81c1.954,8.441,3.449,27.737,4.983,37.224
				c3.332,20.693,19.667,35.241,36.531,32.515c16.873-2.677,21.924-12.301,20.527-36.57
				C299.68,261.108,280.853,265.455,272.558,248.533z M245.798,149.161c4.035-0.938,6.145-6.419,4.758-12.262
				c-1.378-5.823-5.725-9.799-9.741-8.862c-4.016,0.938-6.126,6.439-4.729,12.262C237.454,146.142,241.792,150.148,245.798,149.161z
				 M285.768,146.679c6.771,0,12.222-8.002,12.222-17.879c0-9.868-5.462-17.879-12.222-17.879c-6.732,0-12.213,8.021-12.213,17.879
				C273.555,138.668,279.036,146.679,285.768,146.679z M263.433,144.862c4.758-0.703,7.845-6.878,6.81-13.815
				c-0.967-6.976-5.628-12.017-10.376-11.372c-4.758,0.664-7.797,6.878-6.829,13.815
				C254.063,140.466,258.704,145.536,263.433,144.862z M386.195,113.989c3.986,0.948,8.353-3.009,9.692-8.842
				c1.397-5.862-0.703-11.353-4.709-12.32c-3.986-0.938-8.344,3.029-9.731,8.901C380.069,107.55,382.219,113.051,386.195,113.989z
				 M393.796,122.616l-26.536-5.393l-15.828-1.573c-16.277,0-24.103,8.412-24.103,24.689c0,9.467,10.044,22.95,16.697,23.966
				c6.624,1.036,5.999-1.387,10.552-1.387c6.439,0,12.74,5.549,12.74,11.998v0.576l-0.147,4.641
				c-0.186,2.892,0.537,16.218-7.728,33.17c-8.314,16.922-27.122,12.594-32.124,44.64c-1.397,24.25,3.635,33.893,20.537,36.589
				c16.854,2.697,33.189-11.841,36.521-32.505c1.534-9.536,2.999-28.812,4.953-37.293l14.479-40.79
				c0.85-3.595,10.405-20.762,11.92-28.255C418.837,140.466,408.979,125.683,393.796,122.616z M421.172,115.903
				c-2.697-1.055-6.106,1.241-7.65,5.129c-1.524,3.898-0.616,7.894,2.061,8.949c2.648,1.016,6.048-1.251,7.552-5.139
				C424.699,120.964,423.82,116.959,421.172,115.903z M402.208,121.111c3.371,1.309,7.66-1.593,9.624-6.556
				c1.944-4.895,0.762-9.985-2.56-11.353c-3.38-1.319-7.709,1.622-9.672,6.556C397.655,114.672,398.838,119.743,402.208,121.111z
				 M515.034,199.057c0,109.953-199.038,432.877-199.038,432.877S116.9,309.011,116.9,199.057C116.9,89.123,206.043,0,315.996,0
				C425.94,0,515.034,89.114,515.034,199.057z M470.023,199.048c0-84.922-69.095-154.027-154.027-154.027
				c-84.912,0-154.046,69.095-154.046,154.027c0,84.922,69.134,154.056,154.046,154.056
				C400.919,353.084,470.023,283.97,470.023,199.048z M346.235,111.478c6.741,0,12.213-8.021,12.213-17.87
				c0-9.926-5.471-17.879-12.213-17.879c-6.771,0-12.232,7.963-12.232,17.879C333.983,103.466,339.474,111.478,346.235,111.478z
				 M368.54,109.641c4.758,0.664,9.389-4.426,10.386-11.353c0.987-6.947-2.061-13.112-6.8-13.776
				c-4.739-0.703-9.379,4.387-10.386,11.333C360.754,102.811,363.773,108.996,368.54,109.641z"/>
		</g>
	</g>
</g>
<g>
</g>
<g>
</g>
<g>
</g>
<g>
</g>
<g>
</g>
<g>
</g>
<g>
</g>
<g>
</g>
<g>
</g>
<g>
</g>
<g>
</g>
<g>
</g>
<g>
</g>
<g>
</g>
<g>
</g>
</svg>
