<?xml version="1.0" encoding="iso-8859-1"?>
<!-- Generator: Adobe Illustrator 19.1.0, SVG Export Plug-In . SVG Version: 6.00 Build 0)  -->
<svg version="1.1" id="Capa_1" xmlns="http://www.w3.org/2000/svg" xmlns:xlink="http://www.w3.org/1999/xlink" x="0px" y="0px"
	 viewBox="0 0 653.898 653.898" style="enable-background:new 0 0 653.898 653.898;" xml:space="preserve">
<g>
	<g>
		<g>
			<path style="fill:#010002;" d="M326.944,85.45c-67.004,0-121.306,54.303-121.306,121.316
				c0,66.994,54.303,121.277,121.306,121.277s121.287-54.283,121.287-121.277C448.231,139.762,393.948,85.45,326.944,85.45z
				 M304.658,236.243c-0.703-2.208-11.998-36.892-13.766-42.305l-0.059-0.186l-0.147-0.401l33.453-23.654l2.697-1.915l2.697,1.915
				c8.187,5.813,31.753,22.413,33.424,23.654l-0.107,0.401l-0.068,0.186c-1.778,5.413-13.082,40.097-13.805,42.305H304.658z
				 M309.162,239.848l-20.244,28.539l-2.784-4.397l16.375-24.142L309.162,239.848L309.162,239.848z M324.15,165.272v-33.043
				l2.697,1.036l2.697-1.036v33.043l-2.697-1.915L324.15,165.272z M350.597,239.848l17.147,24.093L367.558,264l-3.302,4.69
				l-20.263-28.832L350.597,239.848L350.597,239.848z M365.038,198.745l2.042-6.37l27.669-8.383l3.488,4.279L365.038,198.745z
				 M397.729,141.853l-0.576,7.767c-10.044-12.711-23.448-22.725-38.875-28.558l7.259-2.843
				C377.905,123.808,388.809,131.858,397.729,141.853z M299.236,99.49l3.234-6.331c7.699-1.622,15.671-2.521,23.878-2.521
				c8.187,0,16.14,0.899,23.869,2.521l3.527,6.39l8.832,15.955l-1.788,0.674l-7.758,3.048c-7.904,3.078-18.524,7.201-23.478,9.086
				l-2.706,1.104l-2.697-1.114c-5.051-1.915-15.935-6.165-23.947-9.282l-7.806-3.058l-1.339-0.459L299.236,99.49z M287.551,117.985
				l7.298,2.843c-15.144,5.667-28.373,15.3-38.446,27.61l-0.508-7.64C264.708,131.174,275.504,123.368,287.551,117.985z
				 M258.836,183.767l27.767,8.627l2.052,6.37l-32.877-10.796L258.836,183.767z M231.011,212.599l-13.805-13.317l-5.061-4.924
				c1.573-16.336,6.585-31.665,14.294-45.304l7.025-1.163c7.611-1.368,17.068-2.99,19.11-3.332v0.059l0.557,8.168
				c0.703,9.975,1.798,25.49,2.032,29.252l0.049,0.821l-3.048,3.918c-4.074,5.051-11.187,13.952-15.994,20.009l-4.846,6.106
				L231.011,212.599z M231.587,218.168l0.078,0.098l4.768-6.018c1.153,15.447,6.224,29.828,14.235,42.129l-7.21-1.514
				C237.234,242.202,233.287,230.898,231.587,218.168z M288.186,307.799l-6.419,3.302c-14.958-6.331-28.246-15.769-39.227-27.474
				l1.124-6.888l2.951-18.583l0.195-1.055l7.005,1.915c9.731,2.589,26.116,7.044,29.438,7.982l0.567,0.107l2.472,3.957
				c3.175,5.012,8.764,13.786,12.867,20.351l4.367,6.82l0.86,1.319L288.186,307.799z M326.338,301.009
				c-6.097,0-12.086-0.616-17.879-1.7l-4.064-6.429c7.015,1.768,14.382,2.697,21.944,2.697c7.982,0,15.759-1.036,23.136-3.048
				l-4.133,6.566C339.186,300.335,332.845,301.009,326.338,301.009z M371.74,310.73l-6.458-3.253
				c-6.722-3.312-14.255-7.093-15.935-7.953l1.016-1.573l4.387-7.025l15.075-23.859l28.734-7.767l8.119-2.208l0.215-0.039
				l3.263,18.251l1.26,6.868C400.474,294.375,386.962,304.126,371.74,310.73z M409.385,252.666l-7.572,2.042
				c8.324-12.672,13.522-27.591,14.518-43.643l4.866,6.126C419.614,229.97,415.51,241.968,409.385,252.666z M422.369,212.882
				l-0.684-0.879l-5.149-6.429l-14.978-18.808l-3.058-3.918l0.049-0.821l1.935-27.952l0.596-8.246l0.098-1.28
				c1.886,0.342,10.513,1.837,17.938,3.097l7.025,1.221c7.943,13.932,13.033,29.652,14.47,46.408l-5.071,4.924L422.369,212.882z
				 M326.934,0C213.19,0,120.96,92.221,120.96,205.975c0,113.793,205.975,447.923,205.975,447.923s206.004-334.13,206.004-447.923
				C532.938,92.221,440.698,0,326.934,0z M326.934,365.365c-87.883,0-159.371-71.508-159.371-159.4
				c0-87.853,71.488-159.371,159.371-159.371c87.863,0,159.41,71.518,159.41,159.371
				C486.344,293.867,414.797,365.365,326.934,365.365z"/>
		</g>
	</g>
</g>
<g>
</g>
<g>
</g>
<g>
</g>
<g>
</g>
<g>
</g>
<g>
</g>
<g>
</g>
<g>
</g>
<g>
</g>
<g>
</g>
<g>
</g>
<g>
</g>
<g>
</g>
<g>
</g>
<g>
</g>
</svg>
