<?xml version="1.0" encoding="iso-8859-1"?>
<!-- Generator: Adobe Illustrator 19.1.0, SVG Export Plug-In . SVG Version: 6.00 Build 0)  -->
<svg version="1.1" id="Capa_1" xmlns="http://www.w3.org/2000/svg" xmlns:xlink="http://www.w3.org/1999/xlink" x="0px" y="0px"
	 viewBox="0 0 684.234 684.234" style="enable-background:new 0 0 684.234 684.234;" xml:space="preserve">
<g>
	<g>
		<g>
			<path style="fill:#010002;" d="M342.127,48.734c92.006,0,166.816,74.859,166.816,166.816s-74.8,166.767-166.816,166.767
				c-91.947,0-166.767-74.8-166.767-166.757S250.18,48.734,342.127,48.734 M342.127,0c-119.02,0-215.559,96.48-215.559,215.549
				c0,119.02,215.559,468.685,215.559,468.685s215.54-349.664,215.54-468.685C557.666,96.48,461.206,0,342.127,0z M307.101,256.056
				l-8.822-14.313l-18.71,3.341l24.592-43.643h-47.991v114.78h81.786v-114.78L307.101,256.056z M441.675,146.679h-54.293
				c3.166-1.622,6.009-3.361,8.51-5.149c9.653-6.927,14.802-15.681,14.763-24.367c0-7.152-3.371-17.362-8.256-21.621
				c-4.953-4.289-11.441-6.829-18.436-6.829c-7.445,0-14.352,2.54-20.224,6.526c-8.93,5.93-15.877,18.837-20.859,28.666
				l-0.723,1.485c-1.827-3.801-3.957-11.412-6.38-14.88c-4.201-5.989-9.233-11.333-15.202-15.261
				c-5.901-3.986-12.818-6.526-20.244-6.526c-7.376,0-14.167,3.126-19.237,7.904c-5.071,4.729-8.598,15.398-8.617,23.028
				c0,4.426,1.26,9.106,3.937,13.317c3.39,5.286,8.734,9.946,16.082,13.717H242.52l0.117,45.627h93.842v-45.627h11.412v45.627
				h93.911L441.675,146.679z M295.728,132.425c-3.742-2.384-6.038-4.807-7.406-6.927c-1.319-2.12-1.798-5.862-1.798-7.709
				c-0.039-3.068,1.495-8.451,4.221-10.991c2.677-2.54,6.263-4.103,9.506-4.103h0.088c4.201,0.039,8.314,1.446,12.467,4.201
				c6.224,4.084,12.047,15.193,16.121,23.36c2.12,4.103,3.722,8.451,4.807,12.691C314.966,140.993,302.773,136.87,295.728,132.425z
				 M360.006,122.459c3.4-4.826,7.386-12.809,11.509-15.574c4.143-2.745,8.324-4.162,12.457-4.201h0.059
				c3.478,0,6.8,1.358,9.096,3.4c2.316,2.022,3.498,5.803,3.498,8.412c-0.039,3.126-1.641,10.327-8.93,15.652
				c-6.927,5.002-18.905,10.171-37.342,13.776C352.122,136.636,355.502,128.888,360.006,122.459z M404.9,244.889l-18.69-3.146
				l-8.832,14.538l-30.424-54.117v114.057h81.327v-114.78h-47.932L404.9,244.889z"/>
		</g>
	</g>
</g>
<g>
</g>
<g>
</g>
<g>
</g>
<g>
</g>
<g>
</g>
<g>
</g>
<g>
</g>
<g>
</g>
<g>
</g>
<g>
</g>
<g>
</g>
<g>
</g>
<g>
</g>
<g>
</g>
<g>
</g>
</svg>
