<?xml version="1.0" encoding="UTF-8"?>
<svg xmlns="http://www.w3.org/2000/svg" xmlns:xlink="http://www.w3.org/1999/xlink" width="32pt" height="32pt" viewBox="0 0 32 32" version="1.1">
<g id="surface1">
<path style=" stroke:none;fill-rule:nonzero;fill:rgb(0.392157%,0%,0.784314%);fill-opacity:1;" d="M 11.121094 24.949219 L 20.878906 24.949219 L 16 32 Z M 27.441406 11.4375 C 27.441406 17.746094 22.308594 22.878906 16 22.878906 C 9.691406 22.878906 4.558594 17.746094 4.558594 11.4375 C 4.558594 5.132812 9.691406 0 16 0 C 22.308594 0 27.441406 5.132812 27.441406 11.4375 Z M 25.195312 11.441406 C 25.195312 6.371094 21.070312 2.246094 16 2.246094 C 10.929688 2.246094 6.808594 6.371094 6.808594 11.441406 C 6.808594 16.507812 10.929688 20.632812 16 20.632812 C 21.070312 20.632812 25.195312 16.507812 25.195312 11.441406 Z M 25.195312 11.441406 "/>
</g>
</svg>
