<?xml version="1.0" encoding="UTF-8"?>
<svg xmlns="http://www.w3.org/2000/svg" xmlns:xlink="http://www.w3.org/1999/xlink" width="32pt" height="31pt" viewBox="0 0 32 31" version="1.1">
<g id="surface1">
<path style=" stroke:none;fill-rule:nonzero;fill:rgb(0.392157%,0%,0.784314%);fill-opacity:1;" d="M 17.28125 30.125 C 17.078125 30.648438 16.558594 30.996094 15.980469 31 C 15.398438 31 14.878906 30.65625 14.667969 30.132812 C 11.839844 23.019531 6.152344 13.882812 6.152344 9.542969 C 6.152344 4.28125 10.566406 0 16 0 C 21.429688 0 25.847656 4.28125 25.847656 9.542969 C 25.847656 13.894531 20.074219 22.933594 17.28125 30.125 Z M 16 1.816406 C 11.742188 1.816406 8.277344 5.171875 8.277344 9.296875 C 8.277344 13.421875 11.742188 16.78125 16 16.78125 C 20.257812 16.78125 23.722656 13.425781 23.722656 9.296875 C 23.722656 5.171875 20.257812 1.816406 16 1.816406 Z M 16 1.816406 "/>
</g>
</svg>
