<?xml version="1.0" encoding="UTF-8"?>
<svg xmlns="http://www.w3.org/2000/svg" xmlns:xlink="http://www.w3.org/1999/xlink" width="32pt" height="31pt" viewBox="0 0 32 31" version="1.1">
<g id="surface1">
<path style=" stroke:none;fill-rule:nonzero;fill:rgb(0.392157%,0%,0.784314%);fill-opacity:1;" d="M 16 0 C 9.6875 0 4.550781 4.976562 4.550781 11.089844 C 4.550781 16.835938 13.121094 23.050781 15.597656 30.722656 C 15.652344 30.886719 15.8125 31 15.992188 31 C 16.171875 30.996094 16.328125 30.882812 16.378906 30.714844 C 18.78125 22.855469 27.449219 16.839844 27.449219 11.089844 C 27.449219 4.976562 22.3125 0 16 0 Z M 16 19.503906 C 11.050781 19.503906 7.023438 15.601562 7.023438 10.808594 C 7.023438 6.011719 11.050781 2.109375 16 2.109375 C 20.949219 2.109375 24.976562 6.011719 24.976562 10.808594 C 24.976562 15.601562 20.949219 19.503906 16 19.503906 Z M 16 19.503906 "/>
</g>
</svg>
