<?xml version="1.0" encoding="UTF-8"?>
<svg xmlns="http://www.w3.org/2000/svg" xmlns:xlink="http://www.w3.org/1999/xlink" width="32pt" height="32pt" viewBox="0 0 32 32" version="1.1">
<g id="surface1">
<path style=" stroke:none;fill-rule:nonzero;fill:rgb(0.392157%,0%,0.784314%);fill-opacity:1;" d="M 16 0 C 10.441406 0 5.933594 4.507812 5.933594 10.066406 C 5.933594 15.625 16 32 16 32 C 16 32 26.066406 15.675781 26.066406 10.066406 C 26.066406 4.507812 21.558594 0 16 0 Z M 16 17.425781 C 11.441406 17.425781 7.738281 13.722656 7.738281 9.164062 C 7.738281 4.605469 11.441406 0.953125 16 0.953125 C 20.558594 0.953125 24.210938 4.65625 24.210938 9.164062 C 24.210938 13.671875 20.507812 17.425781 16 17.425781 Z M 16 17.425781 "/>
<path style=" stroke:none;fill-rule:nonzero;fill:rgb(0.392157%,0%,0.784314%);fill-opacity:1;" d="M 21.359375 8.261719 L 21.359375 6.859375 C 21.359375 6.660156 21.207031 6.558594 21.058594 6.558594 C 20.90625 6.558594 20.757812 6.710938 20.757812 6.859375 L 20.757812 7.960938 L 19.054688 7.0625 L 19.054688 5.609375 C 19.054688 5.410156 18.90625 5.308594 18.753906 5.308594 C 18.605469 5.308594 18.453125 5.457031 18.453125 5.609375 L 18.453125 6.761719 L 16.953125 5.960938 L 16.851562 5.960938 L 16.953125 3.503906 C 16.953125 2.90625 16.449219 2.453125 15.898438 2.453125 C 15.300781 2.453125 14.847656 2.953125 14.847656 3.503906 L 14.949219 5.960938 L 14.796875 5.960938 L 13.695312 6.558594 L 13.695312 5.609375 C 13.695312 5.410156 13.546875 5.308594 13.394531 5.308594 C 13.246094 5.308594 13.09375 5.457031 13.09375 5.609375 L 13.09375 6.910156 L 11.691406 7.660156 L 11.691406 6.609375 C 11.691406 6.410156 11.542969 6.308594 11.394531 6.308594 C 11.191406 6.308594 11.09375 6.460938 11.09375 6.609375 L 11.09375 8.011719 L 9.390625 8.964844 L 9.390625 10.917969 L 14.847656 8.664062 L 14.949219 8.664062 L 15.097656 12.371094 C 15.097656 12.570312 15.097656 12.769531 15.148438 12.96875 L 13.347656 13.972656 L 13.09375 14.921875 L 15.449219 14.421875 L 16.25 14.421875 L 18.652344 14.824219 L 18.453125 13.871094 L 16.449219 12.820312 C 16.5 12.667969 16.5 12.46875 16.5 12.269531 L 16.652344 8.5625 L 16.851562 8.5625 L 22.710938 10.917969 L 22.710938 9.015625 Z M 21.359375 8.261719 "/>
</g>
</svg>
