<?xml version="1.0" encoding="UTF-8"?>
<svg xmlns="http://www.w3.org/2000/svg" xmlns:xlink="http://www.w3.org/1999/xlink" width="32pt" height="32pt" viewBox="0 0 32 32" version="1.1">
<g id="surface1">
<path style=" stroke:none;fill-rule:nonzero;fill:rgb(0.392157%,0%,0.784314%);fill-opacity:1;" d="M 16 0 C 10.433594 0 5.917969 4.511719 5.917969 10.078125 C 5.917969 15.648438 16 32 16 32 C 16 32 26.082031 15.648438 26.082031 10.078125 C 26.082031 4.511719 21.570312 0 16 0 Z M 16 19.066406 C 11.371094 19.066406 7.605469 15.296875 7.605469 10.671875 C 7.605469 6.042969 11.371094 2.277344 16 2.277344 C 20.628906 2.277344 24.394531 6.042969 24.394531 10.671875 C 24.394531 15.296875 20.628906 19.066406 16 19.066406 Z M 16 19.066406 "/>
<path style=" stroke:none;fill-rule:nonzero;fill:rgb(0.392157%,0%,0.784314%);fill-opacity:1;" d="M 12.332031 10.964844 L 12.476562 10.875 L 10.40625 10.875 C 10.527344 11.09375 10.890625 11.625 11.457031 11.425781 C 11.777344 11.308594 12.058594 11.132812 12.332031 10.964844 Z M 12.332031 10.964844 "/>
<path style=" stroke:none;fill-rule:nonzero;fill:rgb(0.392157%,0%,0.784314%);fill-opacity:1;" d="M 15.796875 11.171875 C 15.890625 11.167969 15.957031 11.210938 15.992188 11.257812 C 16.058594 11.246094 16.167969 11.21875 16.339844 11.175781 C 16.738281 11.070312 16.910156 10.960938 17.039062 10.875 L 15.632812 10.875 L 15.738281 11.066406 Z M 15.796875 11.171875 "/>
<path style=" stroke:none;fill-rule:nonzero;fill:rgb(0.392157%,0%,0.784314%);fill-opacity:1;" d="M 14.519531 10.992188 C 14.628906 11 14.726562 10.945312 14.816406 10.875 L 14.257812 10.875 C 14.335938 10.953125 14.367188 10.988281 14.519531 10.992188 Z M 14.519531 10.992188 "/>
<path style=" stroke:none;fill-rule:nonzero;fill:rgb(0.392157%,0%,0.784314%);fill-opacity:1;" d="M 9.890625 9.5625 L 22.109375 9.5625 L 22.109375 10.558594 L 9.890625 10.558594 Z M 9.890625 9.5625 "/>
<path style=" stroke:none;fill-rule:nonzero;fill:rgb(0.392157%,0%,0.784314%);fill-opacity:1;" d="M 16.78125 4.792969 C 16.632812 4.785156 15.78125 4.777344 15.632812 4.777344 C 13.03125 4.777344 11.035156 6.691406 10.03125 9.167969 L 21.882812 9.132812 C 20.960938 6.714844 19.246094 4.980469 16.78125 4.792969 Z M 16.78125 4.792969 "/>
<path style=" stroke:none;fill-rule:nonzero;fill:rgb(0.392157%,0%,0.784314%);fill-opacity:1;" d="M 19.910156 10.875 L 19.5 10.875 L 19.761719 10.972656 Z M 19.910156 10.875 "/>
<path style=" stroke:none;fill-rule:nonzero;fill:rgb(0.392157%,0%,0.784314%);fill-opacity:1;" d="M 21.167969 10.875 L 21.703125 11.195312 L 21.527344 11.554688 L 20.519531 10.949219 L 19.800781 11.417969 L 18.890625 11.078125 L 17.667969 11.078125 C 17.441406 11.078125 17.375 11.121094 17.246094 11.210938 C 17.09375 11.3125 16.894531 11.449219 16.421875 11.574219 C 15.917969 11.707031 15.78125 11.722656 15.6875 11.589844 L 15.664062 11.554688 C 15.527344 11.496094 15.460938 11.363281 15.410156 11.257812 C 15.375 11.183594 15.332031 11.09375 15.261719 11.007812 L 15.148438 11.113281 C 15 11.234375 14.789062 11.410156 14.507812 11.398438 C 14.214844 11.386719 14.105469 11.273438 14.007812 11.167969 C 13.921875 11.082031 13.839844 10.992188 13.558594 10.933594 C 13.234375 10.863281 12.898438 11.074219 12.507812 11.316406 C 12.234375 11.492188 11.925781 11.683594 11.566406 11.8125 C 11.457031 11.851562 11.355469 11.867188 11.253906 11.875 L 22.472656 11.875 L 22.472656 10.875 Z M 21.167969 10.875 "/>
<path style=" stroke:none;fill-rule:nonzero;fill:rgb(0.392157%,0%,0.784314%);fill-opacity:1;" d="M 11.207031 11.878906 L 11.257812 11.875 L 11.167969 11.875 Z M 11.207031 11.878906 "/>
<path style=" stroke:none;fill-rule:nonzero;fill:rgb(0.392157%,0%,0.784314%);fill-opacity:1;" d="M 10.074219 12.316406 C 10.074219 12.316406 9.84375 13.664062 10.445312 13.664062 L 21.585938 13.664062 C 22.078125 13.664062 21.953125 12.316406 21.953125 12.316406 Z M 10.074219 12.316406 "/>
<path style=" stroke:none;fill-rule:nonzero;fill:rgb(0.392157%,0%,0.784314%);fill-opacity:1;" d="M 10.03125 10.960938 L 10.195312 10.871094 L 9.523438 10.871094 L 9.523438 11.875 L 11.167969 11.875 C 10.585938 11.847656 10.179688 11.308594 10.03125 10.960938 Z M 10.03125 10.960938 "/>
</g>
</svg>
