<?xml version="1.0" encoding="iso-8859-1"?>
<!-- Generator: Adobe Illustrator 19.1.0, SVG Export Plug-In . SVG Version: 6.00 Build 0)  -->
<svg version="1.1" id="Capa_1" xmlns="http://www.w3.org/2000/svg" xmlns:xlink="http://www.w3.org/1999/xlink" x="0px" y="0px"
	 viewBox="0 0 736.561 736.561" style="enable-background:new 0 0 736.561 736.561;" xml:space="preserve">
<g>
	<g>
		<g>
			<g>
				<path style="fill:#010002;" d="M444.652,349.611v-47.52h50.915l-32.812-39.6h18.103l-30.549-36.206h19.234l-24.892-29.417
					h11.314l-19.233-22.628l-16.971,22.628L386.95,158.4h30.548l-40.731-47.52h19.234l-31.68-37.337l-28.286,36.206h19.234
					l-37.337,47.52h30.549l-38.469,50.915l-10.183-11.314h11.314l-19.234-22.628l-18.103,22.628h12.446l-22.629,29.417h19.234
					l-28.285,36.205h16.971l-30.548,39.6h50.914v47.52h7.92v-47.52h50.914l-19.234-22.628h32.812v72.412h-80.332v7.92h174.24v-7.92
					h-80.331v-72.412h24.892l-18.104,22.628h50.915v47.52h9.051L444.652,349.611L444.652,349.611z M331.509,216.103l-7.92,10.183
					l-7.92-10.183H331.509z M305.486,226.286h18.103l-9.051,11.314L305.486,226.286z M415.234,226.286h11.314l-5.657,6.789
					L415.234,226.286z M431.075,196.869l-5.657,6.789l-5.656-6.789H431.075z M415.234,216.103l-4.525,5.657l-4.525-5.657H415.234z"
					/>
				<path style="fill:#010002;" d="M368.846,0C239.864,0,135.772,102.96,135.772,231.943c0,127.852,231.943,504.618,231.943,504.618
					s233.075-376.766,233.075-504.618C600.789,102.96,496.698,0,368.846,0z M368.846,412.971
					c-104.091,0-188.948-84.856-188.948-188.948S264.755,35.074,368.846,35.074c104.092,0,188.949,84.857,188.949,188.949
					C556.664,329.246,471.806,412.971,368.846,412.971z"/>
			</g>
		</g>
	</g>
</g>
<g>
</g>
<g>
</g>
<g>
</g>
<g>
</g>
<g>
</g>
<g>
</g>
<g>
</g>
<g>
</g>
<g>
</g>
<g>
</g>
<g>
</g>
<g>
</g>
<g>
</g>
<g>
</g>
<g>
</g>
</svg>
