<?xml version="1.0" encoding="iso-8859-1"?>
<!-- Generator: Adobe Illustrator 19.1.0, SVG Export Plug-In . SVG Version: 6.00 Build 0)  -->
<svg version="1.1" id="Capa_1" xmlns="http://www.w3.org/2000/svg" xmlns:xlink="http://www.w3.org/1999/xlink" x="0px" y="0px"
	 viewBox="0 0 722.982 722.982" style="enable-background:new 0 0 722.982 722.982;" xml:space="preserve">
<g>
	<g>
		<g>
			<g>
				<path style="fill:#010002;" d="M361.491,0C235.903,0,134.074,101.829,134.074,227.417s227.417,495.565,227.417,495.565
					s227.417-368.845,227.417-495.565C588.908,101.829,487.08,0,361.491,0z M361.491,393.736
					c-102.96,0-186.686-83.725-186.686-186.685S258.532,21.497,361.491,21.497s185.554,83.726,185.554,185.554
					S463.32,393.736,361.491,393.736z"/>
				<path style="fill:#010002;" d="M482.554,186.686v-31.68c0-4.526-3.395-6.789-6.789-6.789c-3.394,0-6.788,3.394-6.788,6.789
					v24.891l-38.469-20.366V126.72c0-4.526-3.395-6.789-6.789-6.789c-3.394,0-6.788,3.394-6.788,6.789v26.022l-33.943-18.103h-2.263
					l2.263-55.44c0-13.577-11.313-23.76-23.76-23.76c-13.577,0-23.76,11.314-23.76,23.76l2.263,55.44h-3.394l-24.892,13.577V126.72
					c0-4.526-3.394-6.789-6.789-6.789c-3.395,0-6.789,3.394-6.789,6.789v29.417l-31.68,16.971v-23.76
					c0-4.526-3.394-6.789-6.789-6.789c-4.525,0-6.789,3.394-6.789,6.789v31.68l-38.468,21.497v44.125l123.326-50.914h2.263
					l3.395,83.726c0,4.526,0,9.051,1.131,13.577l-40.731,22.628l-5.657,21.497l53.177-11.314h18.103l54.309,9.051l-4.525-21.497
					l-45.257-23.76c1.131-3.394,1.131-7.92,1.131-12.446l3.395-83.726h4.525l132.377,53.177v-42.994L482.554,186.686z"/>
			</g>
		</g>
	</g>
</g>
<g>
</g>
<g>
</g>
<g>
</g>
<g>
</g>
<g>
</g>
<g>
</g>
<g>
</g>
<g>
</g>
<g>
</g>
<g>
</g>
<g>
</g>
<g>
</g>
<g>
</g>
<g>
</g>
<g>
</g>
</svg>
