<?xml version="1.0" encoding="UTF-8"?>
<svg xmlns="http://www.w3.org/2000/svg" xmlns:xlink="http://www.w3.org/1999/xlink" width="32pt" height="32pt" viewBox="0 0 32 32" version="1.1">
<g id="surface1">
<path style=" stroke:none;fill-rule:nonzero;fill:rgb(0.392157%,0%,0.784314%);fill-opacity:1;" d="M 16 0 C 10.441406 0 5.933594 4.507812 5.933594 10.066406 C 5.882812 15.625 16 32 16 32 C 16 32 26.066406 15.675781 26.066406 10.066406 C 26.066406 4.507812 21.558594 0 16 0 Z M 16 17.976562 C 11.492188 17.976562 7.835938 14.324219 7.835938 9.816406 C 7.835938 5.308594 11.492188 1.652344 16 1.652344 C 20.507812 1.652344 24.164062 5.308594 24.164062 9.816406 C 24.164062 14.273438 20.507812 17.976562 16 17.976562 Z M 16 17.976562 "/>
<path style=" stroke:none;fill-rule:nonzero;fill:rgb(0.392157%,0%,0.784314%);fill-opacity:1;" d="M 15.648438 4.15625 L 15.648438 8.113281 L 21.910156 6.160156 Z M 15.648438 4.15625 "/>
<path style=" stroke:none;fill-rule:nonzero;fill:rgb(0.392157%,0%,0.784314%);fill-opacity:1;" d="M 15.148438 15.125 L 15.148438 4.15625 L 13.996094 4.15625 L 13.996094 15.125 C 13.597656 15.222656 13.296875 15.375 13.296875 15.625 C 13.296875 15.925781 13.847656 16.175781 14.546875 16.175781 C 15.25 16.175781 15.800781 15.925781 15.800781 15.625 C 15.800781 15.425781 15.550781 15.222656 15.148438 15.125 Z M 15.148438 15.125 "/>
</g>
</svg>
