<?xml version="1.0" encoding="iso-8859-1"?>
<!-- Generator: Adobe Illustrator 19.1.0, SVG Export Plug-In . SVG Version: 6.00 Build 0)  -->
<svg version="1.1" id="Capa_1" xmlns="http://www.w3.org/2000/svg" xmlns:xlink="http://www.w3.org/1999/xlink" x="0px" y="0px"
	 viewBox="0 0 624.138 624.138" style="enable-background:new 0 0 624.138 624.138;" xml:space="preserve">
<g>
	<g>
		<g>
			<g>
				<path style="fill:#010002;" d="M312.069,0C203.473,0,115.444,88.029,115.444,196.576c0,108.615,196.625,427.562,196.625,427.562
					s196.625-318.947,196.625-427.562C508.693,88.029,420.684,0,312.069,0z M312.069,371.843
					c-90.276,0-163.728-73.452-163.728-163.719c-0.01-90.286,73.452-163.719,163.728-163.719
					c90.296,0,163.728,73.433,163.728,163.719C475.797,298.391,402.355,371.843,312.069,371.843z"/>
				<path style="fill:#010002;" d="M240.493,213.84l2.833-1.768h-40.341c2.364,4.318,9.458,14.694,20.468,10.747
					C229.697,220.591,235.207,217.161,240.493,213.84z"/>
				<path style="fill:#010002;" d="M308.092,217.924c1.827-0.098,3.146,0.772,3.801,1.632c1.348-0.244,3.449-0.733,6.82-1.573
					c7.767-2.042,11.07-4.162,13.629-5.901h-27.464l2.052,3.732L308.092,217.924z"/>
				<path style="fill:#010002;" d="M283.159,214.387c2.159,0.137,4.064-0.938,5.843-2.306h-10.884
					C279.603,213.634,280.228,214.289,283.159,214.387z"/>
				<rect x="192.931" y="186.473" style="fill:#010002;" width="238.265" height="19.501"/>
				<path style="fill:#010002;" d="M327.301,93.5c-2.863-0.205-19.501-0.332-22.413-0.332c-50.736,0-89.641,37.342-109.27,85.626
					l231.191-0.664C408.833,130.998,375.379,97.174,327.301,93.5z"/>
				<polygon style="fill:#010002;" points="388.344,212.081 380.304,212.081 385.404,213.986 				"/>
				<path style="fill:#010002;" d="M412.858,212.091l10.454,6.243l-3.41,7.005l-19.706-11.763l-14.03,9.145l-17.713-6.644h-23.878
					c-4.406,0-5.657,0.86-8.236,2.599c-2.902,1.983-6.82,4.641-16.023,7.035c-9.839,2.589-12.535,2.921-14.362,0.313l-0.469-0.694
					c-2.638-1.084-3.898-3.732-4.895-5.755c-0.733-1.475-1.563-3.166-2.902-4.856l-2.247,2.003
					c-2.892,2.433-6.966,5.823-12.506,5.598c-5.676-0.195-7.845-2.472-9.76-4.475c-1.612-1.71-3.253-3.42-8.725-4.592
					c-6.302-1.387-12.858,2.716-20.459,7.494c-5.364,3.38-11.412,7.171-18.378,9.653c-2.13,0.752-4.143,1.084-6.097,1.202h218.783
					v-19.511H412.858L412.858,212.091z"/>
				<polygon style="fill:#010002;" points="218.598,231.68 219.555,231.621 217.845,231.621 				"/>
				<path style="fill:#010002;" d="M196.527,240.248c0,0-4.504,26.223,7.191,26.223h217.308c9.565,0,7.171-26.223,7.171-26.223
					H196.527z"/>
				<path style="fill:#010002;" d="M195.648,213.82l3.205-1.749H185.75v19.54h32.105
					C206.483,231.113,198.569,220.542,195.648,213.82z"/>
			</g>
		</g>
	</g>
</g>
<g>
</g>
<g>
</g>
<g>
</g>
<g>
</g>
<g>
</g>
<g>
</g>
<g>
</g>
<g>
</g>
<g>
</g>
<g>
</g>
<g>
</g>
<g>
</g>
<g>
</g>
<g>
</g>
<g>
</g>
</svg>
