<?xml version="1.0" encoding="UTF-8"?>
<svg xmlns="http://www.w3.org/2000/svg" xmlns:xlink="http://www.w3.org/1999/xlink" width="32pt" height="32pt" viewBox="0 0 32 32" version="1.1">
<g id="surface1">
<path style=" stroke:none;fill-rule:nonzero;fill:rgb(0.392157%,0%,0.784314%);fill-opacity:1;" d="M 16 0 C 10.433594 0 5.917969 4.511719 5.917969 10.078125 C 5.917969 15.648438 16 32 16 32 C 16 32 26.082031 15.648438 26.082031 10.078125 C 26.082031 4.511719 21.570312 0 16 0 Z M 16 17.878906 C 11.707031 17.878906 8.21875 14.386719 8.21875 10.09375 C 8.21875 5.800781 11.710938 2.308594 16 2.308594 C 20.292969 2.308594 23.785156 5.800781 23.785156 10.09375 C 23.785156 14.386719 20.292969 17.878906 16 17.878906 Z M 16 17.878906 "/>
<path style=" stroke:none;fill-rule:nonzero;fill:rgb(0.392157%,0%,0.784314%);fill-opacity:1;" d="M 19.105469 6.277344 L 20.136719 7.328125 L 20.136719 12.761719 C 20.136719 12.851562 20.117188 12.914062 20.078125 12.953125 C 19.992188 13.039062 19.777344 13.03125 19.664062 13.03125 C 19.421875 13.03125 19.238281 12.984375 19.152344 12.898438 C 19.097656 12.839844 19.09375 12.78125 19.097656 12.761719 L 19.097656 7.480469 L 18.1875 7.480469 L 18.1875 4.882812 L 13.121094 4.882812 L 13.121094 14.234375 L 12.019531 14.234375 L 12.019531 15.53125 L 19.292969 15.53125 L 19.292969 14.234375 L 18.1875 14.234375 L 18.1875 8 L 18.578125 8 L 18.578125 12.738281 C 18.574219 12.769531 18.5625 13.019531 18.765625 13.242188 C 18.957031 13.445312 19.253906 13.550781 19.65625 13.550781 L 19.734375 13.550781 C 19.925781 13.550781 20.230469 13.527344 20.445312 13.320312 C 20.585938 13.183594 20.65625 12.996094 20.65625 12.761719 L 20.65625 7.113281 L 19.476562 5.910156 Z M 17.535156 8.519531 L 13.898438 8.519531 L 13.898438 5.921875 L 17.535156 5.921875 Z M 17.535156 8.519531 "/>
</g>
</svg>
