<?xml version="1.0" encoding="iso-8859-1"?>
<!-- Generator: Adobe Illustrator 19.1.0, SVG Export Plug-In . SVG Version: 6.00 Build 0)  -->
<svg version="1.1" id="Capa_1" xmlns="http://www.w3.org/2000/svg" xmlns:xlink="http://www.w3.org/1999/xlink" x="0px" y="0px"
	 viewBox="0 0 624.138 624.138" style="enable-background:new 0 0 624.138 624.138;" xml:space="preserve">
<g>
	<g>
		<g>
			<g>
				<path style="fill:#010002;" d="M312.064,0C203.478,0,115.439,88.029,115.439,196.566c0,108.634,196.625,427.572,196.625,427.572
					S508.698,305.2,508.698,196.566C508.698,88.029,420.698,0,312.064,0z M312.074,348.678
					c-83.701,0-151.809-68.108-151.809-151.809c0-83.721,68.118-151.809,151.809-151.809c83.701,0,151.809,68.088,151.809,151.809
					C463.883,280.57,395.775,348.678,312.074,348.678z"/>
				<path style="fill:#010002;" d="M372.658,122.41l20.078,20.498v106.006c0,1.729-0.352,2.97-1.094,3.703
					c-1.7,1.671-5.921,1.563-8.109,1.544c-4.719,0-8.275-0.938-9.956-2.609c-1.075-1.133-1.133-2.276-1.075-2.638V145.888H354.74
					V95.2h-98.806v182.409H234.42v25.344h141.882v-25.344H354.74V156.01h7.591v92.475c-0.039,0.547-0.274,5.452,3.664,9.78
					c3.722,3.996,9.565,6.028,17.42,6.028l1.514,0.02c3.742,0,9.682-0.449,13.805-4.484c2.745-2.697,4.133-6.36,4.133-10.933
					V138.746l-22.989-23.448L372.658,122.41z M342.039,166.151h-70.922v-50.668h70.922V166.151z"/>
			</g>
		</g>
	</g>
</g>
<g>
</g>
<g>
</g>
<g>
</g>
<g>
</g>
<g>
</g>
<g>
</g>
<g>
</g>
<g>
</g>
<g>
</g>
<g>
</g>
<g>
</g>
<g>
</g>
<g>
</g>
<g>
</g>
<g>
</g>
</svg>
