<?xml version="1.0" encoding="iso-8859-1"?>
<!-- Generator: Adobe Illustrator 19.1.0, SVG Export Plug-In . SVG Version: 6.00 Build 0)  -->
<svg version="1.1" id="Capa_1" xmlns="http://www.w3.org/2000/svg" xmlns:xlink="http://www.w3.org/1999/xlink" x="0px" y="0px"
	 viewBox="0 0 653.829 653.829" style="enable-background:new 0 0 653.829 653.829;" xml:space="preserve">
<g>
	<g>
		<g>
			<path style="fill:#010002;" d="M367.353,164.657h67.727v80.809h-67.727v67.737h-80.829v-67.737h-67.737v-80.809h67.737V96.92
				h80.829V164.657z M532.899,205.965c0,113.764-206.004,447.864-206.004,447.864S120.93,319.729,120.93,205.965
				C120.94,92.23,213.18,0,326.895,0C440.678,0,532.909,92.23,532.899,205.965z M486.285,205.965
				c0-87.863-71.469-159.381-159.381-159.381c-87.853,0-159.361,71.508-159.361,159.381c0,87.902,71.498,159.371,159.361,159.371
				C414.807,365.336,486.285,293.867,486.285,205.965z"/>
		</g>
	</g>
</g>
<g>
</g>
<g>
</g>
<g>
</g>
<g>
</g>
<g>
</g>
<g>
</g>
<g>
</g>
<g>
</g>
<g>
</g>
<g>
</g>
<g>
</g>
<g>
</g>
<g>
</g>
<g>
</g>
<g>
</g>
</svg>
