<?xml version="1.0" encoding="iso-8859-1"?>
<!-- Generator: Adobe Illustrator 19.1.0, SVG Export Plug-In . SVG Version: 6.00 Build 0)  -->
<svg version="1.1" id="Capa_1" xmlns="http://www.w3.org/2000/svg" xmlns:xlink="http://www.w3.org/1999/xlink" x="0px" y="0px"
	 viewBox="0 0 638.353 638.353" style="enable-background:new 0 0 638.353 638.353;" xml:space="preserve">
<g>
	<g>
		<g>
			<path style="fill:#010002;" d="M319.186,0C208.109,0,118.077,90.061,118.077,201.09c0,111.067,201.099,437.264,201.099,437.264
				S520.276,312.167,520.276,201.09C520.286,90.061,430.234,0,319.186,0z M319.186,356.718c-85.821,0-155.59-69.837-155.59-155.629
				S233.365,45.5,319.186,45.5c85.792,0,155.58,69.798,155.58,155.59C474.757,286.881,404.978,356.718,319.186,356.718z
				 M277.302,220.474c-1.573-1.036-6.829-5.08-6.829-5.08c-16.687-13.932-27.386-34.928-27.386-58.367
				c0-27.249,14.333-51.088,35.798-64.551c-16.101,27.073-21.817,51.069-17.039,71.293c4.875,20.508,18.827,29.252,19.374,29.584
				c29.604,19.531,37.058,48.597,38.641,66.935c0,0-0.166,10.943,0,13.444v3.009l-0.068,0.498h0.068v0.147l-15.916,0.039
				C303.955,277.434,306.808,243.414,277.302,220.474z M322.987,242.564V81.083c9.926,0.498,19.364,2.882,27.904,6.839
				c17.195,27.718,21.475,53.081,20.302,73.892c-1.055,19.892-16.922,29.008-17.088,29.037
				C331.663,205.652,327.423,225.407,322.987,242.564z M290.56,87.453c8.559-3.957,17.948-6.351,27.884-6.839v161.481
				c-4.416-17.147-8.695-36.892-31.138-51.704c-0.166-0.068-16.004-9.203-17.098-29.037
				C269.095,140.534,273.374,115.171,290.56,87.453z M351.32,88.078l-0.42-0.166v-0.059L351.32,88.078z M395.228,157.036
				c0,25.51-10.132,47.209-31.929,61.894c-24.064,20.508-23.644,58.465-23.644,58.465h-16.668h-0.01v-19.12
				c1.847-18.397,9.653-46.506,38.465-65.48c0.596-0.332,14.558-9.116,19.384-29.584c4.983-20.977-2.286-42.774-19.745-71.049
				C384.138,105.234,395.228,128.605,395.228,157.036z M322.987,277.404L322.987,277.404l0.01,0.264h-0.44l0.02-0.264H322.987z
				 M301.6,282.739h41.963v41.875H301.6C301.6,324.614,301.6,282.739,301.6,282.739z"/>
		</g>
	</g>
</g>
<g>
</g>
<g>
</g>
<g>
</g>
<g>
</g>
<g>
</g>
<g>
</g>
<g>
</g>
<g>
</g>
<g>
</g>
<g>
</g>
<g>
</g>
<g>
</g>
<g>
</g>
<g>
</g>
<g>
</g>
</svg>
