<?xml version="1.0" encoding="iso-8859-1"?>
<!-- Generator: Adobe Illustrator 19.1.0, SVG Export Plug-In . SVG Version: 6.00 Build 0)  -->
<svg version="1.1" id="Capa_1" xmlns="http://www.w3.org/2000/svg" xmlns:xlink="http://www.w3.org/1999/xlink" x="0px" y="0px"
	 viewBox="0 0 684.273 684.273" style="enable-background:new 0 0 684.273 684.273;" xml:space="preserve">
<g>
	<g>
		<g>
			<path style="fill:#010002;" d="M365.634,289.891h14.431v24.445h-14.431v0.195H321.6v-0.195h-17.371v-24.445H321.6v-91.419
				h-16.365v-25.569H321.6v-0.078h44.034V289.891z M343.338,155.443c14.782,0,23.761-9.848,23.761-22.002
				c-0.303-12.477-8.979-22.002-23.175-22.002c-14.186,0-23.458,9.526-23.458,22.002
				C320.447,145.595,329.416,155.443,343.338,155.443z M557.686,215.549c0,119.079-215.559,468.724-215.559,468.724
				s-215.54-349.645-215.54-468.724C126.587,96.519,223.077,0,342.127,0C461.166,0,557.686,96.519,557.686,215.549z
				 M508.923,215.549c0-91.957-74.82-166.757-166.796-166.757c-91.947,0-166.757,74.8-166.747,166.757
				c0,91.996,74.81,166.796,166.747,166.796C434.103,382.346,508.923,307.545,508.923,215.549z"/>
		</g>
	</g>
</g>
<g>
</g>
<g>
</g>
<g>
</g>
<g>
</g>
<g>
</g>
<g>
</g>
<g>
</g>
<g>
</g>
<g>
</g>
<g>
</g>
<g>
</g>
<g>
</g>
<g>
</g>
<g>
</g>
<g>
</g>
</svg>
