<?xml version="1.0" encoding="iso-8859-1"?>
<!-- Generator: Adobe Illustrator 19.1.0, SVG Export Plug-In . SVG Version: 6.00 Build 0)  -->
<svg version="1.1" id="Capa_1" xmlns="http://www.w3.org/2000/svg" xmlns:xlink="http://www.w3.org/1999/xlink" x="0px" y="0px"
	 viewBox="0 0 684.234 684.234" style="enable-background:new 0 0 684.234 684.234;" xml:space="preserve">
<g>
	<g>
		<g>
			<path style="fill:#010002;" d="M342.112,0C223.053,0,126.563,96.5,126.563,215.549c0,119.04,215.549,468.685,215.549,468.685
				s215.559-349.645,215.559-468.685C557.681,96.5,461.181,0,342.112,0z M342.112,382.326c-91.957,0-166.767-74.8-166.767-166.777
				s74.81-166.796,166.767-166.796c91.986,0,166.826,74.82,166.826,166.796S434.098,382.326,342.112,382.326z M455.045,168.76
				v-14.851l-1.114-4.143c-0.313-0.498-5.256-9.145-15.193-18.055c-9.878-8.813-25.227-17.997-45.421-17.997
				c-20.185,0-35.358,9.194-45.089,18.094c-2.98,2.745-5.51,5.462-7.601,7.924c-2.091-2.501-4.739-5.208-7.787-8.012
				c-9.897-8.813-25.266-17.997-45.47-17.997c-20.166,0-35.329,9.194-45.089,18.094c-9.712,8.91-14.489,17.596-14.763,18.114
				l-1.036,3.986v14.851h-7.455v123.944h246.237V168.76H455.045L455.045,168.76z M263.101,267.556
				c6.585-3.889,14.558-6.722,24.24-6.732c9.672-0.01,17.801,2.833,24.543,6.732H263.101z M332.43,261.879
				c-9.897-8.744-25.08-17.704-45.06-17.704h-0.029c-19.579,0-34.45,8.705-44.151,17.303V156.264h-0.01
				c1.72-2.638,5.442-7.806,11.07-12.789c7.738-6.79,18.612-13.072,33.111-13.072c14.997,0,26.34,6.722,34.323,13.795
				c3.976,3.547,7.083,7.122,9.018,9.77l1.729,2.384C332.43,156.352,332.43,261.879,332.43,261.879z M369.039,267.556
				c6.614-3.889,14.558-6.722,24.25-6.732c9.633-0.01,17.801,2.833,24.543,6.732H369.039z M438.368,261.879
				c-9.887-8.744-25.109-17.704-45.031-17.704c-19.628-0.039-34.498,8.705-44.171,17.303V156.264h-0.01
				c1.69-2.599,5.403-7.806,11.05-12.789c7.797-6.79,18.612-13.072,33.121-13.072c14.9,0,26.292,6.722,34.401,13.795
				c3.898,3.547,6.937,7.122,8.959,9.77l1.7,2.384v105.528H438.368z"/>
		</g>
	</g>
</g>
<g>
</g>
<g>
</g>
<g>
</g>
<g>
</g>
<g>
</g>
<g>
</g>
<g>
</g>
<g>
</g>
<g>
</g>
<g>
</g>
<g>
</g>
<g>
</g>
<g>
</g>
<g>
</g>
<g>
</g>
</svg>
