<?xml version="1.0" encoding="UTF-8"?>
<svg xmlns="http://www.w3.org/2000/svg" xmlns:xlink="http://www.w3.org/1999/xlink" width="32pt" height="32pt" viewBox="0 0 32 32" version="1.1">
<g id="surface1">
<path style=" stroke:none;fill-rule:nonzero;fill:rgb(0.392157%,0%,0.784314%);fill-opacity:1;" d="M 16 0 C 10.433594 0 5.917969 4.511719 5.917969 10.082031 C 5.917969 15.648438 16 32 16 32 C 16 32 26.082031 15.648438 26.082031 10.082031 C 26.082031 4.511719 21.566406 0 16 0 Z M 16 17.878906 C 11.699219 17.878906 8.199219 14.382812 8.199219 10.082031 C 8.199219 5.777344 11.699219 2.28125 16 2.28125 C 20.300781 2.28125 23.800781 5.777344 23.800781 10.082031 C 23.800781 14.382812 20.300781 17.878906 16 17.878906 Z M 21.28125 7.890625 L 21.28125 7.199219 L 21.230469 7.003906 C 21.214844 6.980469 20.984375 6.578125 20.519531 6.160156 C 20.058594 5.746094 19.339844 5.316406 18.394531 5.316406 C 17.449219 5.316406 16.742188 5.75 16.285156 6.164062 C 16.144531 6.292969 16.027344 6.417969 15.929688 6.535156 C 15.832031 6.417969 15.707031 6.292969 15.566406 6.160156 C 15.101562 5.75 14.382812 5.320312 13.441406 5.320312 C 12.496094 5.320312 11.789062 5.75 11.332031 6.164062 C 10.875 6.582031 10.652344 6.988281 10.640625 7.011719 L 10.59375 7.199219 L 10.59375 7.894531 L 10.242188 7.894531 L 10.242188 13.6875 L 21.757812 13.6875 L 21.757812 7.890625 Z M 12.304688 12.511719 C 12.613281 12.332031 12.984375 12.199219 13.4375 12.199219 C 13.890625 12.199219 14.269531 12.332031 14.585938 12.511719 Z M 15.546875 12.246094 C 15.085938 11.839844 14.375 11.417969 13.441406 11.417969 L 13.4375 11.417969 C 12.523438 11.417969 11.828125 11.828125 11.375 12.230469 L 11.375 7.308594 L 11.371094 7.308594 C 11.453125 7.183594 11.628906 6.941406 11.890625 6.710938 C 12.253906 6.390625 12.761719 6.097656 13.4375 6.097656 C 14.140625 6.097656 14.671875 6.414062 15.042969 6.742188 C 15.230469 6.910156 15.375 7.078125 15.464844 7.199219 L 15.546875 7.3125 C 15.546875 7.3125 15.546875 12.246094 15.546875 12.246094 Z M 17.257812 12.511719 C 17.570312 12.332031 17.941406 12.199219 18.394531 12.199219 C 18.84375 12.199219 19.226562 12.332031 19.539062 12.511719 Z M 20.5 12.246094 C 20.039062 11.839844 19.328125 11.417969 18.394531 11.417969 C 17.476562 11.417969 16.78125 11.828125 16.328125 12.230469 L 16.328125 7.308594 C 16.410156 7.1875 16.582031 6.941406 16.847656 6.710938 C 17.210938 6.390625 17.714844 6.097656 18.394531 6.097656 C 19.09375 6.097656 19.625 6.414062 20.003906 6.742188 C 20.1875 6.910156 20.328125 7.078125 20.421875 7.199219 L 20.503906 7.3125 L 20.503906 12.246094 Z M 20.5 12.246094 "/>
</g>
</svg>
