<?xml version="1.0" encoding="iso-8859-1"?>
<!-- Generator: Adobe Illustrator 19.1.0, SVG Export Plug-In . SVG Version: 6.00 Build 0)  -->
<svg version="1.1" id="Capa_1" xmlns="http://www.w3.org/2000/svg" xmlns:xlink="http://www.w3.org/1999/xlink" x="0px" y="0px"
	 viewBox="0 0 624.138 624.138" style="enable-background:new 0 0 624.138 624.138;" xml:space="preserve">
<g>
	<g>
		<g>
			<path style="fill:#010002;" d="M312.069,329.899c-85.45,0-154.984-69.505-154.984-154.965S226.619,19.951,312.069,19.951
				c85.46,0,154.984,69.515,154.984,154.974S397.528,329.899,312.069,329.899z M239.428,59.95l7.181-3.029
				c10.454,24.689,45.304,58.377,46.858,58.855h70.599v7.787l-71.615-0.059C290.926,123.329,252.559,90.921,239.428,59.95z
				 M307.848,112.015l-7.845-73.462l26.301,29.086l76.999,23.79l-13.913,20.576L307.848,112.015L307.848,112.015z M365.648,128.419
				l49.31,147.784h-41.044l-24.347-64.757l-36.091,16.639c-3.039,1.192-6.419,5.1-7.201,16.59c0,0,6.458,0.156,19.648,0.195h-0.098
				c0.039,0,18.436,1.671,11.89,20.82v0.215c-2.247,5.676-4.846,10.288-4.846,10.288h-90.511l-26.243-52.212
				c-17.791-4.856-30.942-20.713-31.05-39.55c-0.02-2.14,0.195-4.299,0.498-6.331c0.772-3.556,2.482-7.982,5.491,0.576l0.078-0.41
				c4.905,12.105,15.408,20.732,28.509,24.064l82.538-73.921L365.648,128.419L365.648,128.419z M312.069,0
				C203.473,0,115.444,88.029,115.444,196.576c0,108.625,196.625,427.562,196.625,427.562S508.693,305.2,508.693,196.576
				C508.693,88.029,420.684,0,312.069,0z"/>
		</g>
	</g>
</g>
<g>
</g>
<g>
</g>
<g>
</g>
<g>
</g>
<g>
</g>
<g>
</g>
<g>
</g>
<g>
</g>
<g>
</g>
<g>
</g>
<g>
</g>
<g>
</g>
<g>
</g>
<g>
</g>
<g>
</g>
</svg>
