<?xml version="1.0" encoding="UTF-8"?>
<svg xmlns="http://www.w3.org/2000/svg" xmlns:xlink="http://www.w3.org/1999/xlink" width="32pt" height="32pt" viewBox="0 0 32 32" version="1.1">
<g id="surface1">
<path style=" stroke:none;fill-rule:nonzero;fill:rgb(0.392157%,0%,0.784314%);fill-opacity:1;" d="M 16 16.914062 C 11.617188 16.914062 8.054688 13.351562 8.054688 8.96875 C 8.054688 4.585938 11.617188 1.023438 16 1.023438 C 20.382812 1.023438 23.945312 4.585938 23.945312 8.96875 C 23.945312 13.351562 20.382812 16.914062 16 16.914062 Z M 12.277344 3.074219 L 12.644531 2.917969 C 13.179688 4.183594 14.964844 5.910156 15.046875 5.9375 L 18.664062 5.9375 L 18.664062 6.335938 L 14.996094 6.332031 C 14.914062 6.324219 12.949219 4.660156 12.277344 3.074219 Z M 15.785156 5.742188 L 15.382812 1.976562 L 16.730469 3.46875 L 20.675781 4.6875 L 19.964844 5.742188 Z M 18.746094 6.585938 L 21.273438 14.160156 L 19.171875 14.160156 L 17.921875 10.839844 L 16.070312 11.695312 C 15.917969 11.753906 15.742188 11.957031 15.703125 12.542969 C 15.703125 12.542969 16.035156 12.550781 16.710938 12.554688 L 16.707031 12.554688 C 16.707031 12.554688 17.652344 12.640625 17.316406 13.621094 L 17.316406 13.632812 C 17.199219 13.925781 17.066406 14.160156 17.066406 14.160156 L 12.425781 14.160156 L 11.082031 11.484375 C 10.167969 11.234375 9.492188 10.421875 9.488281 9.457031 C 9.488281 9.347656 9.5 9.234375 9.515625 9.132812 C 9.554688 8.949219 9.640625 8.722656 9.796875 9.160156 L 9.800781 9.140625 C 10.050781 9.761719 10.589844 10.203125 11.261719 10.375 L 15.492188 6.582031 Z M 16 0 C 10.433594 0 5.917969 4.511719 5.917969 10.078125 C 5.917969 15.648438 16 32 16 32 C 16 32 26.082031 15.648438 26.082031 10.078125 C 26.082031 4.511719 21.570312 0 16 0 Z M 16 0 "/>
</g>
</svg>
