<?xml version="1.0" encoding="UTF-8"?>
<svg xmlns="http://www.w3.org/2000/svg" xmlns:xlink="http://www.w3.org/1999/xlink" width="32pt" height="32pt" viewBox="0 0 32 32" version="1.1">
<g id="surface1">
<path style=" stroke:none;fill-rule:nonzero;fill:rgb(0.392157%,0%,0.784314%);fill-opacity:1;" d="M 16 0 C 11.199219 0 7.292969 3.90625 7.292969 8.707031 C 7.292969 12.214844 9.378906 15.242188 12.375 16.617188 L 15.691406 32 L 16.308594 32 L 19.625 16.617188 C 22.621094 15.238281 24.707031 12.214844 24.707031 8.707031 C 24.707031 3.90625 20.800781 0 16 0 Z M 16 15.539062 C 12.230469 15.539062 9.164062 12.476562 9.164062 8.707031 C 9.164062 4.9375 12.230469 1.871094 16 1.871094 C 19.769531 1.871094 22.835938 4.9375 22.835938 8.707031 C 22.835938 12.476562 19.769531 15.539062 16 15.539062 Z M 16 15.539062 "/>
</g>
</svg>
