<?xml version="1.0" encoding="iso-8859-1"?>
<!-- Generator: Adobe Illustrator 19.1.0, SVG Export Plug-In . SVG Version: 6.00 Build 0)  -->
<svg version="1.1" id="Capa_1" xmlns="http://www.w3.org/2000/svg" xmlns:xlink="http://www.w3.org/1999/xlink" x="0px" y="0px"
	 viewBox="0 0 684.224 684.224" style="enable-background:new 0 0 684.224 684.224;" xml:space="preserve">
<g>
	<g>
		<g>
			<path style="fill:#010002;" d="M342.107,48.734c91.937,0,166.777,74.8,166.777,166.757c0,91.996-74.839,166.796-166.777,166.796
				c-91.957,0-166.777-74.8-166.777-166.796C175.34,123.544,250.16,48.734,342.107,48.734 M342.107,0
				C223.058,0,126.558,96.5,126.558,215.501c0,119.079,215.559,468.724,215.559,468.724s215.549-349.645,215.549-468.724
				C557.676,96.5,461.157,0,342.107,0z M450.722,237.61l-89.514,49.457c-3.166-2.237-6.771-3.84-10.571-4.944l-86.368-149.132
				l-59.979,25.324l3.595,8.568l52.427-22.208l78.787,136.04c-18.954,0.899-34.196,16.453-34.196,35.681
				c0,19.785,16.072,35.798,35.808,35.798c19.765,0,35.856-16.013,35.856-35.798c0-8.666-3.205-16.502-8.344-22.686l82.402-45.509
				l24.719,14.128l4.592-8.012L450.722,237.61z M340.72,333.71c-9.565,0-17.332-7.728-17.332-17.303
				c0-9.565,7.767-17.342,17.332-17.342c9.585,0,17.362,7.787,17.362,17.342C358.091,325.982,350.314,333.71,340.72,333.71z
				 M360.211,269.324l83.095-46.965l-46.965-83.105l-83.085,46.965L360.211,269.324z M339.245,152.278l-18.788-33.238
				l-33.179,18.798l18.759,33.17L339.245,152.278z M374.456,132.855l-12.164-21.524l-21.573,12.154l12.193,21.582L374.456,132.855z"
				/>
		</g>
	</g>
</g>
<g>
</g>
<g>
</g>
<g>
</g>
<g>
</g>
<g>
</g>
<g>
</g>
<g>
</g>
<g>
</g>
<g>
</g>
<g>
</g>
<g>
</g>
<g>
</g>
<g>
</g>
<g>
</g>
<g>
</g>
</svg>
