<?xml version="1.0" encoding="iso-8859-1"?>
<!-- Generator: Adobe Illustrator 19.1.0, SVG Export Plug-In . SVG Version: 6.00 Build 0)  -->
<svg version="1.1" id="Capa_1" xmlns="http://www.w3.org/2000/svg" xmlns:xlink="http://www.w3.org/1999/xlink" x="0px" y="0px"
	 viewBox="0 0 651.299 651.299" style="enable-background:new 0 0 651.299 651.299;" xml:space="preserve">
<g>
	<g>
		<g>
			<path style="fill:#010002;" d="M374.725,127.422c-3.449-24.064-24.064-42.578-49.066-42.578
				c-25.012,0-45.646,18.505-49.056,42.578h-74.302v160.827h17.176V151.086h4.895v137.163h202.164V150.158h4.924v138.082h17.537
				V127.422C448.998,127.422,374.725,127.422,374.725,127.422z M302.992,127.422c1.085-11.646,10.728-20.762,22.667-20.762
				c11.88,0,21.563,9.125,22.657,20.762H302.992z M325.649,0C212.335,0,120.476,91.869,120.476,205.193
				c0,113.305,205.173,446.106,205.173,446.106s205.173-332.801,205.173-446.106C530.823,91.879,438.964,0,325.649,0z
				 M325.649,363.948c-87.541,0-158.765-71.215-158.765-158.746c0-87.56,71.225-158.765,158.765-158.765
				c87.531,0,158.736,71.215,158.736,158.765C484.385,292.734,413.18,363.948,325.649,363.948z"/>
		</g>
	</g>
</g>
<g>
</g>
<g>
</g>
<g>
</g>
<g>
</g>
<g>
</g>
<g>
</g>
<g>
</g>
<g>
</g>
<g>
</g>
<g>
</g>
<g>
</g>
<g>
</g>
<g>
</g>
<g>
</g>
<g>
</g>
</svg>
