<?xml version="1.0" encoding="UTF-8"?>
<svg xmlns="http://www.w3.org/2000/svg" xmlns:xlink="http://www.w3.org/1999/xlink" width="32pt" height="32pt" viewBox="0 0 32 32" version="1.1">
<g id="surface1">
<path style=" stroke:none;fill-rule:nonzero;fill:rgb(0.392157%,0%,0.784314%);fill-opacity:1;" d="M 16 2.277344 C 20.300781 2.277344 23.800781 5.777344 23.800781 10.078125 C 23.800781 14.378906 20.300781 17.878906 16 17.878906 C 11.699219 17.878906 8.199219 14.378906 8.199219 10.078125 C 8.199219 5.777344 11.699219 2.277344 16 2.277344 M 16 0 C 10.433594 0 5.917969 4.511719 5.917969 10.078125 C 5.917969 15.648438 16 32 16 32 C 16 32 26.082031 15.648438 26.082031 10.078125 C 26.082031 4.511719 21.566406 0 16 0 Z M 21.078125 11.113281 L 16.894531 13.425781 C 16.746094 13.320312 16.578125 13.246094 16.398438 13.195312 L 12.359375 6.21875 L 9.554688 7.402344 L 9.722656 7.804688 L 12.175781 6.765625 L 15.859375 13.128906 C 14.972656 13.171875 14.261719 13.898438 14.261719 14.796875 C 14.261719 15.722656 15.011719 16.472656 15.933594 16.472656 C 16.859375 16.472656 17.613281 15.722656 17.613281 14.796875 C 17.613281 14.390625 17.460938 14.027344 17.222656 13.734375 L 21.074219 11.609375 L 22.230469 12.269531 L 22.445312 11.894531 Z M 15.933594 15.605469 C 15.488281 15.605469 15.125 15.246094 15.125 14.796875 C 15.125 14.351562 15.488281 13.988281 15.933594 13.988281 C 16.382812 13.988281 16.746094 14.351562 16.746094 14.796875 C 16.746094 15.246094 16.382812 15.605469 15.933594 15.605469 Z M 16.847656 12.597656 L 20.734375 10.398438 L 18.535156 6.511719 L 14.652344 8.710938 Z M 15.867188 7.121094 L 14.988281 5.566406 L 13.433594 6.445312 L 14.3125 7.996094 Z M 17.511719 6.214844 L 16.945312 5.207031 L 15.933594 5.773438 L 16.503906 6.785156 Z M 17.511719 6.214844 "/>
</g>
</svg>
