<?xml version="1.0" encoding="iso-8859-1"?>
<!-- Generator: Adobe Illustrator 19.1.0, SVG Export Plug-In . SVG Version: 6.00 Build 0)  -->
<svg version="1.1" id="Capa_1" xmlns="http://www.w3.org/2000/svg" xmlns:xlink="http://www.w3.org/1999/xlink" x="0px" y="0px"
	 viewBox="0 0 684.253 684.253" style="enable-background:new 0 0 684.253 684.253;" xml:space="preserve">
<g>
	<g>
		<g>
			<path style="fill:#010002;" d="M365.121,160.25c0,13.434-10.874,24.289-24.289,24.289c-13.405,0-24.269-10.855-24.269-24.289
				c0-13.395,10.864-24.269,24.269-24.269C354.247,135.981,365.121,146.855,365.121,160.25z M557.681,215.549
				c0,119.079-215.559,468.704-215.559,468.704S126.572,334.628,126.572,215.549C126.572,96.519,223.072,0,342.122,0
				C461.181,0,557.681,96.519,557.681,215.549z M508.899,215.549c0-91.957-74.81-166.757-166.777-166.757
				c-91.976,0-166.786,74.8-166.786,166.757c0,91.976,74.81,166.796,166.786,166.796
				C434.088,382.346,508.899,307.526,508.899,215.549z M411.47,160.24c0,8.735-1.661,17.02-4.543,24.748
				c-9.282,27.532-70.57,168.838-70.57,168.838s-57.683-154.105-62.695-171.74c-2.228-6.868-3.459-14.216-3.459-21.846
				c0-38.993,31.626-70.629,70.629-70.629C379.844,89.612,411.47,121.248,411.47,160.24z M385.902,160.504
				c0-24.885-20.166-45.05-45.07-45.05c-24.885,0-45.05,20.166-45.05,45.05s20.166,45.07,45.05,45.07
				C365.736,205.574,385.902,185.389,385.902,160.504z"/>
		</g>
	</g>
</g>
<g>
</g>
<g>
</g>
<g>
</g>
<g>
</g>
<g>
</g>
<g>
</g>
<g>
</g>
<g>
</g>
<g>
</g>
<g>
</g>
<g>
</g>
<g>
</g>
<g>
</g>
<g>
</g>
<g>
</g>
</svg>
