<?xml version="1.0" encoding="UTF-8"?>
<svg xmlns="http://www.w3.org/2000/svg" xmlns:xlink="http://www.w3.org/1999/xlink" width="32pt" height="32pt" viewBox="0 0 32 32" version="1.1">
<g id="surface1">
<path style=" stroke:none;fill-rule:nonzero;fill:rgb(0.392157%,0%,0.784314%);fill-opacity:1;" d="M 17.074219 7.496094 C 17.074219 8.121094 16.566406 8.628906 15.941406 8.628906 C 15.3125 8.628906 14.804688 8.121094 14.804688 7.496094 C 14.804688 6.867188 15.3125 6.359375 15.941406 6.359375 C 16.566406 6.359375 17.074219 6.867188 17.074219 7.496094 Z M 26.082031 10.082031 C 26.082031 15.648438 16 32 16 32 C 16 32 5.917969 15.648438 5.917969 10.082031 C 5.917969 4.515625 10.433594 0 16 0 C 21.566406 0 26.082031 4.515625 26.082031 10.082031 Z M 23.800781 10.082031 C 23.800781 5.78125 20.300781 2.28125 16 2.28125 C 11.699219 2.28125 8.199219 5.78125 8.199219 10.082031 C 8.199219 14.382812 11.699219 17.882812 16 17.882812 C 20.300781 17.882812 23.800781 14.382812 23.800781 10.082031 Z M 19.242188 7.492188 C 19.242188 7.902344 19.164062 8.289062 19.03125 8.652344 C 18.597656 9.9375 15.730469 16.546875 15.730469 16.546875 C 15.730469 16.546875 13.03125 9.339844 12.796875 8.515625 C 12.695312 8.195312 12.636719 7.851562 12.636719 7.492188 C 12.636719 5.671875 14.117188 4.191406 15.941406 4.191406 C 17.765625 4.191406 19.242188 5.671875 19.242188 7.492188 Z M 18.046875 7.507812 C 18.046875 6.34375 17.105469 5.398438 15.941406 5.398438 C 14.777344 5.398438 13.832031 6.34375 13.832031 7.507812 C 13.832031 8.667969 14.777344 9.613281 15.941406 9.613281 C 17.105469 9.613281 18.046875 8.671875 18.046875 7.507812 Z M 18.046875 7.507812 "/>
</g>
</svg>
