<?xml version="1.0" encoding="UTF-8"?>
<svg xmlns="http://www.w3.org/2000/svg" xmlns:xlink="http://www.w3.org/1999/xlink" width="32pt" height="31pt" viewBox="0 0 32 31" version="1.1">
<g id="surface1">
<path style=" stroke:none;fill-rule:nonzero;fill:rgb(0.392157%,0%,0.784314%);fill-opacity:1;" d="M 26.261719 9.9375 C 26.257812 4.449219 21.667969 0 16 0 C 10.335938 0 5.742188 4.449219 5.742188 9.9375 C 5.742188 14.675781 13.382812 27.335938 15.476562 30.710938 C 15.585938 30.890625 15.785156 31 16 31 C 16.214844 31 16.414062 30.890625 16.523438 30.710938 C 18.617188 27.335938 26.261719 14.675781 26.261719 9.9375 Z M 16 17.628906 C 11.625 17.628906 8.0625 14.179688 8.0625 9.9375 C 8.0625 5.699219 11.625 2.246094 16 2.246094 C 20.378906 2.246094 23.9375 5.699219 23.9375 9.9375 C 23.9375 14.179688 20.378906 17.628906 16 17.628906 Z M 16 17.628906 "/>
</g>
</svg>
