<?xml version="1.0" encoding="iso-8859-1"?>
<!-- Generator: Adobe Illustrator 19.1.0, SVG Export Plug-In . SVG Version: 6.00 Build 0)  -->
<svg version="1.1" id="Capa_1" xmlns="http://www.w3.org/2000/svg" xmlns:xlink="http://www.w3.org/1999/xlink" x="0px" y="0px"
	 viewBox="0 0 499.392 499.392" style="enable-background:new 0 0 499.392 499.392;" xml:space="preserve">
<g>
	<g>
		<g>
			<path style="fill:#010002;" d="M409.81,160.113C409.79,71.684,338.136,0,249.725,0C161.276,0,89.583,71.684,89.583,160.113
				c0,76.325,119.274,280.238,151.955,334.638c1.72,2.882,4.826,4.641,8.178,4.641c3.351,0,6.468-1.759,8.168-4.631
				C290.545,440.361,409.81,236.438,409.81,160.113z M249.716,283.999c-68.303,0-123.915-55.573-123.915-123.895
				c0-68.313,55.592-123.895,123.915-123.895s123.876,55.582,123.876,123.895S318.029,283.999,249.716,283.999z"/>
		</g>
	</g>
</g>
<g>
</g>
<g>
</g>
<g>
</g>
<g>
</g>
<g>
</g>
<g>
</g>
<g>
</g>
<g>
</g>
<g>
</g>
<g>
</g>
<g>
</g>
<g>
</g>
<g>
</g>
<g>
</g>
<g>
</g>
</svg>
