<?xml version="1.0" encoding="iso-8859-1"?>
<!-- Generator: Adobe Illustrator 19.1.0, SVG Export Plug-In . SVG Version: 6.00 Build 0)  -->
<svg version="1.1" id="Capa_1" xmlns="http://www.w3.org/2000/svg" xmlns:xlink="http://www.w3.org/1999/xlink" x="0px" y="0px"
	 viewBox="0 0 684.263 684.263" style="enable-background:new 0 0 684.263 684.263;" xml:space="preserve">
<g>
	<g>
		<g>
			<path style="fill:#010002;" d="M480.291,282.27H411.92l-2.345-4.465h63.301c0,0-30.297-56.178-52.954-75.856
				c-1.475-1.299-4.084,46.613-6.048-3.38c-1.974-49.984-6.507-5.139-7.162-2.999c0,0-2.081,19.081-6.136,1.045
				c-0.703-19.482-13.033,10.532-13.033,10.532l-7.591,14.518l-4.084-7.787l32.31-68.372L480.291,282.27z M557.681,215.54
				c0,119.079-215.549,468.724-215.549,468.724S126.582,334.618,126.582,215.54C126.582,96.5,223.082,0,342.132,0
				S557.681,96.5,557.681,215.54z M508.918,215.53c0-91.918-74.8-166.757-166.786-166.757c-91.976,0-166.796,74.839-166.786,166.757
				c0,91.976,74.82,166.796,166.786,166.796C434.118,382.326,508.918,307.506,508.918,215.53z M403.078,284.273l2.345,4.494H206.873
				l93.784-198.53l68.714,130.168l4.123,7.767L403.078,284.273z M394.656,282.26c0,0-11.031-20.459-26.204-44.503l-4.191-6.566
				c-14.352-22.217-31.548-46.086-46.516-59.08c-2.149-1.847-5.901,67.688-8.774-4.885c-2.882-72.543-9.389-7.416-10.366-4.348
				c0,0-3.068,27.747-8.959,1.485c-1.026-28.226-18.925,15.32-18.925,15.32l-53.58,102.567v0.01H394.656z"/>
		</g>
	</g>
</g>
<g>
</g>
<g>
</g>
<g>
</g>
<g>
</g>
<g>
</g>
<g>
</g>
<g>
</g>
<g>
</g>
<g>
</g>
<g>
</g>
<g>
</g>
<g>
</g>
<g>
</g>
<g>
</g>
<g>
</g>
</svg>
