<?xml version="1.0" encoding="UTF-8"?>
<svg xmlns="http://www.w3.org/2000/svg" xmlns:xlink="http://www.w3.org/1999/xlink" width="32pt" height="32pt" viewBox="0 0 32 32" version="1.1">
<g id="surface1">
<path style=" stroke:none;fill-rule:nonzero;fill:rgb(0.392157%,0%,0.784314%);fill-opacity:1;" d="M 22.460938 13.199219 L 19.265625 13.199219 L 19.152344 12.992188 L 22.113281 12.992188 C 22.113281 12.992188 20.699219 10.363281 19.636719 9.445312 C 19.570312 9.382812 19.445312 11.625 19.355469 9.285156 C 19.261719 6.949219 19.050781 9.046875 19.019531 9.144531 C 19.019531 9.144531 18.921875 10.039062 18.734375 9.195312 C 18.699219 8.285156 18.125 9.6875 18.125 9.6875 L 17.769531 10.367188 L 17.578125 10.003906 L 19.089844 6.804688 Z M 26.082031 10.078125 C 26.082031 15.648438 16 32 16 32 C 16 32 5.917969 15.648438 5.917969 10.078125 C 5.917969 4.511719 10.433594 0 16 0 C 21.566406 0 26.082031 4.511719 26.082031 10.078125 Z M 23.800781 10.078125 C 23.800781 5.78125 20.300781 2.28125 16 2.28125 C 11.699219 2.28125 8.199219 5.78125 8.199219 10.078125 C 8.199219 14.378906 11.699219 17.878906 16 17.878906 C 20.300781 17.878906 23.800781 14.378906 23.800781 10.078125 Z M 18.851562 13.292969 L 18.960938 13.503906 L 9.675781 13.503906 L 14.058594 4.21875 L 17.273438 10.308594 L 17.464844 10.671875 Z M 18.457031 13.199219 C 18.457031 13.199219 17.941406 12.242188 17.230469 11.117188 L 17.035156 10.8125 C 16.363281 9.773438 15.558594 8.65625 14.859375 8.050781 C 14.757812 7.960938 14.582031 11.214844 14.449219 7.820312 C 14.3125 4.429688 14.011719 7.472656 13.964844 7.617188 C 13.964844 7.617188 13.820312 8.914062 13.546875 7.6875 C 13.496094 6.367188 12.660156 8.402344 12.660156 8.402344 L 10.15625 13.199219 Z M 18.457031 13.199219 "/>
</g>
</svg>
