<?xml version="1.0" encoding="iso-8859-1"?>
<!-- Generator: Adobe Illustrator 19.1.0, SVG Export Plug-In . SVG Version: 6.00 Build 0)  -->
<svg version="1.1" id="Capa_1" xmlns="http://www.w3.org/2000/svg" xmlns:xlink="http://www.w3.org/1999/xlink" x="0px" y="0px"
	 viewBox="0 0 684.234 684.234" style="enable-background:new 0 0 684.234 684.234;" xml:space="preserve">
<g>
	<g>
		<g>
			<path style="fill:#010002;" d="M342.122,0C223.063,0,126.563,96.49,126.563,215.549c0,119.049,215.559,468.685,215.559,468.685
				s215.549-349.635,215.549-468.685C557.681,96.49,461.162,0,342.122,0z M342.122,382.326c-91.976,0-166.777-74.81-166.777-166.777
				s74.8-166.786,166.777-166.786c91.957,0,166.777,74.82,166.777,166.786S434.079,382.326,342.122,382.326z M417.088,276.72
				V141.394h26.165V276.72H417.088z M447.552,135.698H236.653l103.915-68.508L447.552,135.698z M240.971,276.72V141.394h26.174
				V276.72H240.971z M296.016,276.72V141.394h26.155V276.72H296.016z M360.05,276.72V141.394h26.155V276.72H360.05z
				 M232.872,286.647h218.5v24.347h-218.5V286.647z"/>
		</g>
	</g>
</g>
<g>
</g>
<g>
</g>
<g>
</g>
<g>
</g>
<g>
</g>
<g>
</g>
<g>
</g>
<g>
</g>
<g>
</g>
<g>
</g>
<g>
</g>
<g>
</g>
<g>
</g>
<g>
</g>
<g>
</g>
</svg>
