<?xml version="1.0" encoding="iso-8859-1"?>
<!-- Generator: Adobe Illustrator 19.1.0, SVG Export Plug-In . SVG Version: 6.00 Build 0)  -->
<svg version="1.1" id="Capa_1" xmlns="http://www.w3.org/2000/svg" xmlns:xlink="http://www.w3.org/1999/xlink" x="0px" y="0px"
	 viewBox="0 0 581.52 581.52" style="enable-background:new 0 0 581.52 581.52;" xml:space="preserve">
<g>
	<g>
		<g>
			<path style="fill:#010002;" d="M190.264,206.6h17.225l-5.921,49.544h-17.235L190.264,206.6z M391.305,199.204H190.264v-28.842
				h42.92l8.168-48.274h-10.835V98.2h120.534v23.888h-10.845l8.187,48.274h42.92v28.842H391.305z M336.387,170.362l-8.178-48.274
				H253.35l-8.197,48.274H336.387z M473.951,183.191c0,101.151-183.181,398.33-183.181,398.33s-183.2-297.179-183.2-398.33
				C107.57,82.001,189.619,0,290.77,0C391.969,0,473.951,81.991,473.951,183.191z M432.545,183.191
				c0-78.152-63.584-141.775-141.775-141.775c-78.142,0-141.736,63.633-141.736,141.785s63.584,141.736,141.736,141.736
				C368.96,324.917,432.545,261.342,432.545,183.191z M391.305,206.6H374.07l5.921,49.544h17.264L391.305,206.6z"/>
		</g>
	</g>
</g>
<g>
</g>
<g>
</g>
<g>
</g>
<g>
</g>
<g>
</g>
<g>
</g>
<g>
</g>
<g>
</g>
<g>
</g>
<g>
</g>
<g>
</g>
<g>
</g>
<g>
</g>
<g>
</g>
<g>
</g>
</svg>
