<?xml version="1.0" encoding="UTF-8"?>
<svg xmlns="http://www.w3.org/2000/svg" xmlns:xlink="http://www.w3.org/1999/xlink" width="32pt" height="32pt" viewBox="0 0 32 32" version="1.1">
<g id="surface1">
<path style=" stroke:none;fill-rule:nonzero;fill:rgb(0.392157%,0%,0.784314%);fill-opacity:1;" d="M 10.46875 11.367188 L 11.417969 11.367188 L 11.09375 14.09375 L 10.144531 14.09375 Z M 21.53125 10.960938 L 10.46875 10.960938 L 10.46875 9.375 L 12.832031 9.375 L 13.28125 6.71875 L 12.683594 6.71875 L 12.683594 5.402344 L 19.316406 5.402344 L 19.316406 6.71875 L 18.722656 6.71875 L 19.171875 9.375 L 21.535156 9.375 L 21.535156 10.960938 Z M 18.511719 9.375 L 18.0625 6.71875 L 13.941406 6.71875 L 13.492188 9.375 Z M 26.082031 10.082031 C 26.082031 15.648438 16 32 16 32 C 16 32 5.917969 15.648438 5.917969 10.082031 C 5.917969 4.511719 10.433594 0 16 0 C 21.570312 0 26.082031 4.511719 26.082031 10.082031 Z M 23.800781 10.082031 C 23.800781 5.78125 20.304688 2.277344 16 2.277344 C 11.699219 2.277344 8.199219 5.78125 8.199219 10.082031 C 8.199219 14.382812 11.699219 17.878906 16 17.878906 C 20.304688 17.878906 23.800781 14.382812 23.800781 10.082031 Z M 21.53125 11.367188 L 20.585938 11.367188 L 20.910156 14.09375 L 21.859375 14.09375 Z M 21.53125 11.367188 "/>
</g>
</svg>
