<?xml version="1.0" encoding="UTF-8"?>
<svg xmlns="http://www.w3.org/2000/svg" xmlns:xlink="http://www.w3.org/1999/xlink" width="32pt" height="32pt" viewBox="0 0 32 32" version="1.1">
<g id="surface1">
<path style=" stroke:none;fill-rule:nonzero;fill:rgb(0.392157%,0%,0.784314%);fill-opacity:1;" d="M 16.050781 13.625 C 16.125 13.625 16.191406 13.625 16.261719 13.621094 C 16.25 13.957031 16.25 14.011719 16.238281 14.304688 C 16.171875 14.308594 16.105469 14.3125 16.039062 14.3125 C 15.96875 14.3125 15.902344 14.308594 15.839844 14.304688 L 15.804688 13.617188 C 15.886719 13.621094 15.964844 13.625 16.050781 13.625 Z M 26.082031 10.082031 C 26.082031 15.648438 16 32 16 32 C 16 32 5.917969 15.648438 5.917969 10.082031 C 5.917969 4.515625 10.433594 0 16 0 C 21.566406 0 26.082031 4.515625 26.082031 10.082031 Z M 23.800781 10.082031 C 23.800781 5.78125 20.300781 2.28125 16 2.28125 C 11.699219 2.28125 8.199219 5.78125 8.199219 10.082031 C 8.199219 14.382812 11.699219 17.882812 16 17.882812 C 20.300781 17.882812 23.800781 14.382812 23.800781 10.082031 Z M 20.648438 8.503906 C 18.925781 6.78125 17.050781 8.503906 17.050781 8.503906 L 17.050781 8.800781 L 16.609375 8.800781 L 16.609375 8.496094 C 16.421875 8.570312 16.214844 8.613281 16 8.613281 C 15.765625 8.613281 15.546875 8.566406 15.34375 8.476562 L 15.34375 8.800781 L 14.949219 8.800781 L 14.949219 9.769531 L 15.34375 9.769531 L 15.34375 10.175781 L 15.632812 10.175781 L 15.710938 11.730469 C 15.800781 11.734375 15.890625 11.742188 15.984375 11.742188 C 16.101562 11.742188 16.21875 11.738281 16.328125 11.734375 C 16.351562 11.121094 16.382812 10.214844 16.382812 10.175781 L 16.609375 10.175781 L 16.609375 9.769531 L 17.050781 9.769531 L 17.050781 10.210938 C 18.601562 10.929688 19.769531 10.707031 19.769531 10.707031 C 22.410156 10.707031 22.488281 8.503906 22.488281 8.503906 C 21.75 9.238281 20.648438 8.503906 20.648438 8.503906 Z M 14.746094 8.800781 L 14.945312 8.800781 L 14.945312 8.503906 L 14.949219 8.503906 C 14.949219 8.503906 13.074219 6.78125 11.347656 8.503906 C 11.347656 8.503906 10.246094 9.238281 9.511719 8.503906 C 9.511719 8.503906 9.585938 10.707031 12.230469 10.707031 C 12.230469 10.707031 13.394531 10.929688 14.945312 10.210938 L 14.945312 9.769531 L 14.746094 9.769531 Z M 15.34375 8.304688 L 15.34375 8.476562 C 14.757812 8.222656 14.347656 7.640625 14.347656 6.960938 C 14.347656 6.050781 15.085938 5.308594 16 5.308594 C 16.914062 5.308594 17.652344 6.050781 17.652344 6.960938 C 17.652344 7.65625 17.21875 8.25 16.609375 8.492188 L 16.609375 8.300781 Z M 15.480469 6.929688 C 15.480469 7.246094 15.738281 7.5 16.054688 7.5 C 16.367188 7.5 16.625 7.246094 16.625 6.929688 C 16.625 6.613281 16.367188 6.355469 16.054688 6.355469 C 15.738281 6.355469 15.480469 6.613281 15.480469 6.929688 Z M 15.761719 12.765625 L 15.800781 13.546875 C 15.875 13.550781 15.953125 13.554688 16.035156 13.554688 C 16.113281 13.554688 16.191406 13.550781 16.265625 13.550781 C 16.28125 13.164062 16.28125 13.152344 16.292969 12.765625 C 16.214844 12.769531 16.136719 12.773438 16.054688 12.773438 C 15.953125 12.773438 15.855469 12.769531 15.761719 12.765625 Z M 15.871094 14.976562 L 15.894531 15.421875 C 15.941406 15.421875 15.992188 15.425781 16.042969 15.425781 C 16.097656 15.425781 16.148438 15.421875 16.199219 15.417969 C 16.203125 15.320312 16.210938 15.117188 16.214844 14.972656 C 16.148438 14.976562 16.078125 14.980469 16.007812 14.980469 C 15.960938 14.980469 15.917969 14.976562 15.871094 14.976562 Z M 16.625 11.808594 C 17.226562 11.875 17.660156 12.035156 17.660156 12.234375 C 17.660156 12.460938 17.070312 12.652344 16.296875 12.6875 C 16.292969 12.726562 16.292969 12.726562 16.292969 12.765625 C 16.375 12.761719 16.453125 12.757812 16.53125 12.753906 L 16.53125 12.757812 C 17.09375 12.820312 17.496094 12.972656 17.496094 13.148438 C 17.492188 13.359375 16.960938 13.523438 16.265625 13.550781 C 16.265625 13.585938 16.265625 13.585938 16.261719 13.621094 C 16.339844 13.617188 16.417969 13.613281 16.488281 13.609375 C 16.976562 13.660156 17.324219 13.792969 17.324219 13.949219 C 17.324219 14.117188 16.925781 14.253906 16.390625 14.296875 C 16.382812 14.296875 16.378906 14.296875 16.371094 14.296875 C 16.328125 14.300781 16.285156 14.304688 16.238281 14.304688 C 16.238281 14.332031 16.238281 14.34375 16.238281 14.367188 C 16.304688 14.367188 16.367188 14.363281 16.433594 14.359375 C 16.792969 14.40625 17.046875 14.507812 17.046875 14.628906 C 17.046875 14.773438 16.691406 14.890625 16.21875 14.917969 C 16.214844 14.9375 16.214844 14.957031 16.214844 14.972656 C 16.257812 14.972656 16.296875 14.96875 16.339844 14.964844 C 16.652344 14.996094 16.882812 15.082031 16.882812 15.1875 C 16.882812 15.300781 16.589844 15.398438 16.199219 15.417969 C 16.199219 15.429688 16.199219 15.453125 16.199219 15.460938 C 16.667969 15.4375 17.03125 15.324219 17.03125 15.1875 C 17.03125 15.082031 16.835938 14.992188 16.535156 14.945312 C 16.949219 14.886719 17.238281 14.765625 17.238281 14.628906 C 17.238281 14.503906 17.015625 14.394531 16.675781 14.335938 C 17.191406 14.269531 17.550781 14.121094 17.550781 13.949219 C 17.554688 13.789062 17.253906 13.648438 16.800781 13.578125 C 17.363281 13.503906 17.753906 13.34375 17.753906 13.152344 C 17.757812 12.964844 17.382812 12.804688 16.84375 12.722656 C 17.496094 12.636719 17.949219 12.449219 17.949219 12.234375 C 17.949219 12.03125 17.574219 11.855469 17 11.765625 C 17.703125 11.667969 18.1875 11.464844 18.191406 11.226562 C 18.191406 10.941406 17.527344 10.703125 16.621094 10.621094 L 16.621094 10.71875 C 17.339844 10.796875 17.855469 10.992188 17.855469 11.222656 C 17.851562 11.480469 17.195312 11.691406 16.328125 11.734375 C 16.328125 11.769531 16.328125 11.789062 16.324219 11.824219 C 16.429688 11.820312 16.527344 11.816406 16.625 11.808594 Z M 15.839844 14.367188 L 15.871094 14.921875 C 15.910156 14.925781 15.953125 14.925781 15.996094 14.925781 C 16.070312 14.925781 16.148438 14.925781 16.21875 14.921875 C 16.226562 14.738281 16.230469 14.601562 16.238281 14.371094 C 16.175781 14.371094 16.113281 14.375 16.050781 14.375 C 15.980469 14.375 15.910156 14.371094 15.839844 14.367188 Z M 16.035156 12.695312 C 16.125 12.695312 16.210938 12.691406 16.296875 12.6875 C 16.3125 12.265625 16.3125 12.175781 16.324219 11.824219 C 16.21875 11.828125 16.113281 11.832031 16.003906 11.832031 C 15.90625 11.832031 15.808594 11.824219 15.714844 11.820312 L 15.757812 12.6875 C 15.847656 12.691406 15.941406 12.695312 16.035156 12.695312 Z M 15.894531 15.460938 L 15.933594 16.210938 L 16.171875 16.210938 C 16.171875 16.210938 16.195312 15.621094 16.199219 15.460938 C 16.152344 15.460938 16.101562 15.464844 16.054688 15.464844 C 16 15.464844 15.949219 15.460938 15.894531 15.460938 Z M 15.203125 15.1875 C 15.203125 15.085938 15.414062 15.003906 15.710938 14.96875 C 15.765625 14.972656 15.816406 14.972656 15.871094 14.976562 L 15.867188 14.921875 C 15.347656 14.90625 14.941406 14.78125 14.941406 14.628906 C 14.941406 14.503906 15.21875 14.398438 15.601562 14.351562 C 15.679688 14.359375 15.757812 14.367188 15.839844 14.367188 L 15.839844 14.308594 C 15.222656 14.28125 14.753906 14.132812 14.753906 13.949219 C 14.753906 13.792969 15.097656 13.660156 15.582031 13.609375 L 15.582031 13.601562 C 15.652344 13.609375 15.726562 13.613281 15.804688 13.617188 L 15.800781 13.546875 C 15.105469 13.511719 14.578125 13.339844 14.578125 13.132812 C 14.578125 12.957031 14.972656 12.808594 15.519531 12.753906 L 15.519531 12.75 C 15.601562 12.753906 15.679688 12.761719 15.761719 12.765625 L 15.757812 12.6875 C 14.992188 12.648438 14.410156 12.460938 14.410156 12.234375 C 14.410156 12.035156 14.839844 11.871094 15.445312 11.804688 C 15.535156 11.8125 15.621094 11.816406 15.714844 11.820312 L 15.710938 11.730469 C 14.808594 11.6875 14.117188 11.464844 14.117188 11.199219 C 14.117188 10.972656 14.621094 10.785156 15.328125 10.710938 L 15.328125 10.621094 C 14.460938 10.699219 13.828125 10.921875 13.824219 11.199219 C 13.824219 11.449219 14.351562 11.667969 15.105469 11.769531 C 14.539062 11.863281 14.15625 12.035156 14.15625 12.234375 C 14.15625 12.445312 14.597656 12.628906 15.234375 12.71875 C 14.710938 12.796875 14.351562 12.949219 14.351562 13.132812 C 14.347656 13.328125 14.757812 13.496094 15.339844 13.574219 C 14.871094 13.648438 14.550781 13.785156 14.550781 13.949219 C 14.550781 14.117188 14.894531 14.261719 15.394531 14.328125 C 15.027344 14.386719 14.777344 14.5 14.777344 14.628906 C 14.777344 14.773438 15.089844 14.898438 15.53125 14.953125 C 15.257812 15 15.070312 15.085938 15.070312 15.1875 C 15.070312 15.324219 15.429688 15.4375 15.894531 15.460938 L 15.894531 15.417969 C 15.503906 15.398438 15.203125 15.304688 15.203125 15.1875 Z M 15.203125 15.1875 "/>
</g>
</svg>
