<?xml version="1.0" encoding="iso-8859-1"?>
<!-- Generator: Adobe Illustrator 19.1.0, SVG Export Plug-In . SVG Version: 6.00 Build 0)  -->
<svg version="1.1" id="Capa_1" xmlns="http://www.w3.org/2000/svg" xmlns:xlink="http://www.w3.org/1999/xlink" x="0px" y="0px"
	 viewBox="0 0 658.265 658.265" style="enable-background:new 0 0 658.265 658.265;" xml:space="preserve">
<g>
	<g>
		<g>
			<path style="fill:#010002;" d="M330.163,280.296c1.505,0.01,2.931-0.059,4.387-0.107c-0.244,6.888-0.283,8.06-0.488,14.108
				c-1.368,0.059-2.736,0.117-4.162,0.117c-1.407,0-2.755-0.059-4.094-0.117l-0.703-14.186
				C326.763,280.199,328.434,280.286,330.163,280.296z M536.489,207.362c0,114.555-207.372,450.903-207.372,450.903
				S121.775,321.917,121.775,207.362C121.775,92.856,214.611,0,329.118,0C443.663,0,536.489,92.856,536.489,207.362z
				 M489.573,207.362c0-88.449-71.957-160.426-160.455-160.426c-88.469,0-160.475,71.977-160.465,160.426
				c0,88.479,72.006,160.465,160.465,160.465C417.606,367.827,489.573,295.85,489.573,207.362z M424.787,174.964
				c-35.505-35.505-74.038,0-74.038,0h0.02v6.048h-9.067v-6.272c-3.898,1.553-8.119,2.462-12.564,2.462
				c-4.797,0-9.34-1.016-13.483-2.804v6.605h-8.168v19.99h8.168v8.314h5.921l1.602,32.027c1.856,0.088,3.703,0.186,5.628,0.195
				c2.433,0.02,4.807-0.049,7.113-0.156c0.44-12.574,1.094-31.235,1.114-32.066h4.66v-8.314h9.057v9.076
				c31.929,14.724,55.915,10.19,55.915,10.19c54.361,0,55.915-45.304,55.915-45.304
				C447.444,190.069,424.787,174.964,424.787,174.964z M303.344,181.012h4.123v-6.048h0.01c0,0-38.524-35.505-74.038,0
				c0,0-22.657,15.105-37.762,0c0,0,1.514,45.304,55.895,45.304c0,0,23.976,4.533,55.895-10.19v-9.076h-4.123L303.344,181.012
				L303.344,181.012z M315.645,170.802v3.595c-12.066-5.227-20.498-17.215-20.498-31.177c0-18.778,15.183-34.02,33.981-34.02
				c18.778,0,33.99,15.232,33.99,34.02c0,14.304-8.881,26.506-21.416,31.509v-3.937L315.645,170.802L315.645,170.802z
				 M318.458,142.527c0,6.517,5.266,11.763,11.773,11.763c6.478,0,11.754-5.256,11.754-11.763c0-6.497-5.276-11.763-11.754-11.763
				C323.725,130.764,318.458,136.03,318.458,142.527z M324.223,262.563l0.801,16.111c1.573,0.078,3.156,0.156,4.807,0.156
				c1.632,0.01,3.214-0.049,4.778-0.107c0.274-7.933,0.283-8.197,0.567-16.14c-1.641,0.059-3.253,0.147-4.944,0.147
				C328.17,262.729,326.196,262.651,324.223,262.563z M326.499,308.063l0.459,9.145c0.997,0.049,2.022,0.088,3.068,0.088
				c1.114,0,2.189-0.039,3.244-0.098c0.068-2.071,0.215-6.224,0.322-9.184c-1.407,0.068-2.843,0.127-4.318,0.127
				C328.317,308.141,327.418,308.092,326.499,308.063z M341.985,242.876c12.408,1.368,21.279,4.729,21.279,8.783
				c0,4.699-12.135,8.598-28.04,9.34c-0.029,0.782-0.029,0.811-0.059,1.593c1.68-0.059,3.322-0.137,4.924-0.264v0.088
				c11.529,1.27,19.814,4.406,19.785,8.09c-0.02,4.27-10.991,7.66-25.275,8.217c-0.029,0.723-0.029,0.752-0.049,1.466
				c1.593-0.049,3.146-0.117,4.66-0.225c9.975,1.055,17.127,3.752,17.127,6.947c0,3.459-8.129,6.302-19.189,7.191
				c-0.117-0.01-0.225-0.029-0.352-0.039l-0.029,0.068c-0.889,0.068-1.788,0.127-2.716,0.166c-0.02,0.547-0.029,0.743-0.049,1.28
				c1.378-0.049,2.716-0.117,4.025-0.205c7.435,0.967,12.633,3.078,12.633,5.53c0,2.96-7.298,5.413-17.059,6.009
				c-0.01,0.371-0.029,0.743-0.039,1.094c0.87-0.039,1.7-0.107,2.53-0.176c6.497,0.664,11.187,2.452,11.187,4.572
				c0,2.364-6.048,4.357-14.04,4.797c-0.01,0.186-0.02,0.645-0.029,0.821c9.692-0.42,17.137-2.775,17.137-5.618
				c0-2.179-4.035-4.035-10.181-5.002c8.49-1.163,14.401-3.625,14.401-6.487c0.01-2.57-4.543-4.768-11.568-6.028
				c10.63-1.378,18.065-4.397,18.065-7.972c0.01-3.283-6.136-6.116-15.476-7.591c11.597-1.563,19.638-4.866,19.658-8.783
				c0.01-3.801-7.64-7.113-18.768-8.842c13.395-1.749,22.735-5.569,22.735-10.034c0.01-4.182-7.709-7.748-19.482-9.624
				c14.421-2.032,24.406-6.204,24.445-11.138c0.02-5.813-13.649-10.747-32.261-12.398v1.964
				c14.753,1.612,25.373,5.657,25.354,10.376c-0.039,5.354-13.561,9.692-31.382,10.532c-0.029,0.733-0.039,1.104-0.068,1.856
				C337.96,243.16,339.982,243.043,341.985,242.876z M325.874,295.577l0.567,11.412c0.86,0.029,1.71,0.078,2.599,0.078
				c1.573,0,3.107-0.049,4.582-0.147c0.137-3.771,0.225-6.556,0.391-11.333c-1.26,0.049-2.511,0.107-3.81,0.107
				C328.727,295.694,327.301,295.626,325.874,295.577z M329.86,261.156c1.837,0,3.615-0.068,5.364-0.156
				c0.303-8.676,0.371-10.552,0.616-17.762c-2.179,0.078-4.348,0.166-6.614,0.147c-2.052-0.01-3.996-0.117-5.97-0.205l0.889,17.801
				C326.001,261.078,327.896,261.156,329.86,261.156z M326.998,318.019l0.772,15.456h4.934c0,0,0.42-12.125,0.537-15.456
				c-0.987,0.039-1.983,0.088-3.009,0.088C329.108,318.117,328.053,318.068,326.998,318.019z M312.733,312.411
				c0-2.052,4.357-3.732,10.483-4.494c1.065,0.078,2.159,0.117,3.273,0.147l-0.059-1.075c-10.718-0.371-19.042-2.911-19.042-6.077
				c0-2.55,5.667-4.739,13.581-5.657c1.583,0.137,3.205,0.254,4.895,0.313l-0.059-1.26c-12.643-0.557-22.344-3.615-22.344-7.396
				c0-3.175,7.093-5.872,17.059-6.937v-0.176c1.495,0.137,3.009,0.244,4.572,0.313l-0.068-1.446
				c-14.255-0.723-25.158-4.289-25.129-8.52c0-3.634,8.08-6.683,19.384-7.816v-0.088c1.622,0.137,3.253,0.254,4.944,0.322
				l-0.078-1.573c-15.72-0.782-27.737-4.66-27.737-9.33c0-4.055,8.881-7.435,21.318-8.813c1.807,0.147,3.644,0.254,5.53,0.332
				l-0.088-1.837c-18.544-0.899-32.779-5.501-32.75-10.982c0.02-4.621,10.376-8.5,24.865-10.005V218.5
				c-17.85,1.583-30.854,6.204-30.883,11.841c-0.029,5.149,10.786,9.663,26.311,11.763c-11.617,1.905-19.531,5.442-19.531,9.545
				c0,4.387,9.096,8.148,22.178,9.946c-10.767,1.622-18.143,4.768-18.143,8.529c-0.039,4.006,8.344,7.494,20.371,9.145
				c-9.653,1.475-16.267,4.328-16.267,7.64c0,3.488,7.113,6.439,17.332,7.855c-7.523,1.221-12.672,3.507-12.672,6.145
				c0,2.999,6.419,5.569,15.544,6.663c-5.667,1.006-9.477,2.755-9.477,4.826c0,2.824,7.347,5.168,16.941,5.608l-0.039-0.811
				C318.888,316.788,312.733,314.795,312.733,312.411z"/>
		</g>
	</g>
</g>
<g>
</g>
<g>
</g>
<g>
</g>
<g>
</g>
<g>
</g>
<g>
</g>
<g>
</g>
<g>
</g>
<g>
</g>
<g>
</g>
<g>
</g>
<g>
</g>
<g>
</g>
<g>
</g>
<g>
</g>
</svg>
