<?xml version="1.0" encoding="iso-8859-1"?>
<!-- Generator: Adobe Illustrator 19.1.0, SVG Export Plug-In . SVG Version: 6.00 Build 0)  -->
<svg version="1.1" id="Capa_1" xmlns="http://www.w3.org/2000/svg" xmlns:xlink="http://www.w3.org/1999/xlink" x="0px" y="0px"
	 viewBox="0 0 264.938 264.938" style="enable-background:new 0 0 264.938 264.938;" xml:space="preserve">
<g>
	<g>
		<g>
			<path style="fill:#010002;" d="M156.831,70.804c0,13.473-10.904,24.396-24.357,24.396c-13.434,0-24.357-10.923-24.357-24.396
				c0-13.434,10.904-24.337,24.357-24.337C145.927,46.467,156.831,57.37,156.831,70.804z M203.298,70.795
				c0,8.764-1.661,17.098-4.563,24.836c-9.282,27.571-70.736,169.307-70.736,169.307S70.14,110.403,65.118,92.68
				c-2.237-6.868-3.478-14.196-3.478-21.866C61.64,31.743,93.354,0,132.474,0C171.593-0.01,203.307,31.733,203.298,70.795z
				 M177.661,71.078c0-24.953-20.214-45.197-45.187-45.197c-24.953,0-45.177,20.234-45.177,45.187s20.224,45.187,45.177,45.187
				C157.446,116.255,177.661,96.031,177.661,71.078z"/>
		</g>
	</g>
</g>
<g>
</g>
<g>
</g>
<g>
</g>
<g>
</g>
<g>
</g>
<g>
</g>
<g>
</g>
<g>
</g>
<g>
</g>
<g>
</g>
<g>
</g>
<g>
</g>
<g>
</g>
<g>
</g>
<g>
</g>
</svg>
