<?xml version="1.0" encoding="UTF-8"?>
<svg xmlns="http://www.w3.org/2000/svg" xmlns:xlink="http://www.w3.org/1999/xlink" width="32pt" height="32pt" viewBox="0 0 32 32" version="1.1">
<g id="surface1">
<path style=" stroke:none;fill-rule:nonzero;fill:rgb(0.392157%,0%,0.784314%);fill-opacity:1;" d="M 18.941406 8.550781 C 18.941406 10.179688 17.625 11.5 16 11.5 C 14.378906 11.5 13.058594 10.179688 13.058594 8.550781 C 13.058594 6.929688 14.375 5.613281 16 5.613281 C 17.625 5.613281 18.941406 6.929688 18.941406 8.550781 Z M 24.554688 8.550781 C 24.554688 9.609375 24.355469 10.617188 24.003906 11.550781 C 22.882812 14.878906 15.460938 32 15.460938 32 C 15.460938 32 8.472656 13.335938 7.863281 11.195312 C 7.59375 10.363281 7.445312 9.480469 7.445312 8.554688 C 7.445312 3.835938 11.277344 0 16 0 C 20.726562 0 24.554688 3.832031 24.554688 8.550781 Z M 21.457031 8.585938 C 21.457031 5.570312 19.015625 3.125 16 3.125 C 12.988281 3.125 10.542969 5.570312 10.542969 8.582031 C 10.542969 11.597656 12.988281 14.042969 16 14.042969 C 19.015625 14.042969 21.457031 11.597656 21.457031 8.585938 Z M 21.457031 8.585938 "/>
</g>
</svg>
