<?xml version="1.0" encoding="UTF-8"?>
<svg xmlns="http://www.w3.org/2000/svg" xmlns:xlink="http://www.w3.org/1999/xlink" width="32pt" height="31pt" viewBox="0 0 32 31" version="1.1">
<g id="surface1">
<path style=" stroke:none;fill-rule:nonzero;fill:rgb(0.392157%,0%,0.784314%);fill-opacity:1;" d="M 20.46875 0 L 11.53125 0 C 8.425781 0 5.898438 2.449219 5.898438 5.457031 L 5.898438 14.113281 C 5.898438 16.414062 7.378906 18.382812 9.460938 19.183594 L 16 31 L 22.539062 19.183594 C 24.621094 18.382812 26.101562 16.414062 26.101562 14.113281 L 26.101562 5.457031 C 26.101562 2.449219 23.574219 0 20.46875 0 Z M 24.160156 14.113281 C 24.160156 16.082031 22.503906 17.6875 20.46875 17.6875 L 11.53125 17.6875 C 9.496094 17.6875 7.84375 16.085938 7.84375 14.113281 L 7.84375 5.457031 C 7.84375 3.484375 9.5 1.882812 11.53125 1.882812 L 20.46875 1.882812 C 22.503906 1.882812 24.15625 3.484375 24.15625 5.457031 Z M 24.160156 14.113281 "/>
</g>
</svg>
