<?xml version="1.0" encoding="UTF-8"?>
<svg xmlns="http://www.w3.org/2000/svg" xmlns:xlink="http://www.w3.org/1999/xlink" width="32pt" height="32pt" viewBox="0 0 32 32" version="1.1">
<g id="surface1">
<path style=" stroke:none;fill-rule:nonzero;fill:rgb(0.392157%,0%,0.784314%);fill-opacity:1;" d="M 16 2.28125 C 20.304688 2.28125 23.800781 5.777344 23.800781 10.078125 C 23.800781 14.382812 20.304688 17.878906 16 17.878906 C 11.699219 17.878906 8.199219 14.382812 8.199219 10.078125 C 8.199219 5.777344 11.699219 2.28125 16 2.28125 M 16 0 C 10.433594 0 5.917969 4.511719 5.917969 10.078125 C 5.917969 15.648438 16 32 16 32 C 16 32 26.082031 15.648438 26.082031 10.078125 C 26.082031 4.511719 21.570312 0 16 0 Z M 15.996094 16.917969 C 20.355469 14.535156 20.390625 8.742188 20.390625 8.742188 L 11.609375 8.742188 C 11.609375 8.742188 11.542969 14.5625 15.996094 16.917969 Z M 14.816406 9.707031 C 15.117188 9.65625 15.515625 9.617188 16.019531 9.617188 C 16.636719 9.617188 17.09375 9.761719 17.378906 10.019531 C 17.640625 10.25 17.804688 10.605469 17.804688 11.035156 C 17.804688 11.472656 17.675781 11.820312 17.429688 12.070312 C 17.09375 12.425781 16.558594 12.605469 15.945312 12.605469 C 15.757812 12.605469 15.585938 12.597656 15.441406 12.5625 L 15.441406 14.507812 L 14.816406 14.507812 Z M 17.175781 11.070312 C 17.175781 10.421875 16.714844 10.113281 16.03125 10.113281 C 15.757812 10.113281 15.550781 10.136719 15.441406 10.164062 L 15.441406 12.050781 C 15.578125 12.085938 15.75 12.101562 15.960938 12.101562 C 16.714844 12.101562 17.175781 11.726562 17.175781 11.070312 Z M 11.605469 5.449219 L 11.605469 8.238281 L 20.398438 8.238281 L 20.398438 5.449219 C 20.398438 5.449219 19.007812 5.894531 15.953125 5.894531 C 13.089844 5.894531 11.605469 5.449219 11.605469 5.449219 Z M 11.605469 5.449219 "/>
</g>
</svg>
