<?xml version="1.0" encoding="iso-8859-1"?>
<!-- Generator: Adobe Illustrator 19.1.0, SVG Export Plug-In . SVG Version: 6.00 Build 0)  -->
<svg version="1.1" id="Capa_1" xmlns="http://www.w3.org/2000/svg" xmlns:xlink="http://www.w3.org/1999/xlink" x="0px" y="0px"
	 viewBox="0 0 648.719 648.719" style="enable-background:new 0 0 648.719 648.719;" xml:space="preserve">
<g>
	<g>
		<g>
			<path style="fill:#010002;" d="M324.369,46.213c87.248,0,158.14,70.922,158.14,158.111c0,87.228-70.892,158.15-158.14,158.15
				c-87.169,0-158.15-70.922-158.15-158.15C166.22,117.134,237.2,46.213,324.369,46.213 M324.369,0
				C211.534,0,119.997,91.498,119.997,204.323c0,112.904,204.372,444.396,204.372,444.396s204.353-331.502,204.353-444.396
				C528.722,91.498,437.264,0,324.369,0z M324.282,342.952c88.41-48.294,89.123-165.692,89.123-165.692H235.373
				C235.373,177.26,234.035,295.235,324.282,342.952z M300.354,196.81c6.087-1.026,14.157-1.876,24.367-1.876
				c12.564,0,21.778,2.931,27.601,8.178c5.266,4.67,8.617,11.851,8.617,20.576c0,8.901-2.628,15.945-7.591,21.025
				c-6.839,7.162-17.664,10.816-30.073,10.816c-3.82,0-7.308-0.127-10.229-0.889v39.462h-12.691V196.81L300.354,196.81z
				 M348.218,224.411c0-13.131-9.35-19.394-23.204-19.394c-5.579,0-9.78,0.44-11.988,1.026v38.27
				c2.765,0.684,6.282,0.987,10.503,0.987C338.888,245.3,348.218,237.698,348.218,224.411z M235.285,110.481v56.55h178.208v-56.55
				c0,0-28.138,9.047-90.052,9.047C265.338,119.518,235.285,110.481,235.285,110.481z"/>
		</g>
	</g>
</g>
<g>
</g>
<g>
</g>
<g>
</g>
<g>
</g>
<g>
</g>
<g>
</g>
<g>
</g>
<g>
</g>
<g>
</g>
<g>
</g>
<g>
</g>
<g>
</g>
<g>
</g>
<g>
</g>
<g>
</g>
</svg>
