<?xml version="1.0" encoding="iso-8859-1"?>
<!-- Generator: Adobe Illustrator 19.1.0, SVG Export Plug-In . SVG Version: 6.00 Build 0)  -->
<svg version="1.1" id="Capa_1" xmlns="http://www.w3.org/2000/svg" xmlns:xlink="http://www.w3.org/1999/xlink" x="0px" y="0px"
	 viewBox="0 0 602.194 602.194" style="enable-background:new 0 0 602.194 602.194;" xml:space="preserve">
<g>
	<g>
		<g>
			<path style="fill:#010002;" d="M301.087,42.901c80.946,0,146.816,65.851,146.816,146.797s-65.87,146.777-146.816,146.777
				c-80.926,0-146.777-65.841-146.777-146.777C154.31,108.752,220.151,42.901,301.087,42.901 M301.087,0
				C196.312,0,111.39,84.932,111.39,189.707c0,104.765,189.698,412.487,189.698,412.487s189.717-307.721,189.717-412.487
				C490.804,84.922,405.892,0,301.087,0z M403.889,197.944l-9.409,64.122l-19.081-18.524c-13.229,10.884-25.1,38.612-76.618,39.911
				c-40.976,0-58.054-25.178-73.12-37.351l-17.43,16.883l-9.907-63.535l65.47,9.643l-18.046,17.498c0,0,15.476,25.744,42.207,27.542
				l-0.107-104.638c-14.44-5.022-24.846-18.319-24.846-34.059c0-20.068,16.746-36.325,37.43-36.325
				c20.664,0,37.439,16.258,37.439,36.325c0,15.984-10.747,29.428-25.5,34.244c0.078,20.439,0.42,104.844-0.039,104.844
				c22.129-0.616,42.852-30.571,42.852-30.571l-16.893-16.385C338.302,207.557,403.889,197.944,403.889,197.944z M319.758,114.868
				c0-10.327-8.666-18.71-19.325-18.71c-10.64,0-19.277,8.383-19.277,18.71c0,10.347,8.637,18.749,19.277,18.749
				C311.102,133.607,319.758,125.214,319.758,114.868z"/>
		</g>
	</g>
</g>
<g>
</g>
<g>
</g>
<g>
</g>
<g>
</g>
<g>
</g>
<g>
</g>
<g>
</g>
<g>
</g>
<g>
</g>
<g>
</g>
<g>
</g>
<g>
</g>
<g>
</g>
<g>
</g>
<g>
</g>
</svg>
