<?xml version="1.0" encoding="iso-8859-1"?>
<!-- Generator: Adobe Illustrator 19.1.0, SVG Export Plug-In . SVG Version: 6.00 Build 0)  -->
<svg version="1.1" id="Capa_1" xmlns="http://www.w3.org/2000/svg" xmlns:xlink="http://www.w3.org/1999/xlink" x="0px" y="0px"
	 viewBox="0 0 670.624 670.624" style="enable-background:new 0 0 670.624 670.624;" xml:space="preserve">
<g>
	<g>
		<g>
			<g>
				<path style="fill:#010002;" d="M334.77,147.94c-38.641,0-70.003,31.323-70.003,69.945c0,38.641,31.362,69.974,70.003,69.974
					c38.621,0,69.954-31.333,69.954-69.974C404.714,179.263,373.372,147.94,334.77,147.94z"/>
				<path style="fill:#010002;" d="M236.746,183.62h-9.067l-0.752-40.107h-6.253l-0.967,40.107h-7.67l-3.175-39.296h-6.546v40.644
					l0.078,0.02c0.352,11.353,5.315,13.717,12.359,16.629v92.592h18.436v-92.318c4.055-2.032,12.037-7.23,12.359-16.912h0.039
					v-40.644h-6.761L236.746,183.62z"/>
				<path style="fill:#010002;" d="M335.297,0C214.03,0,115.752,98.317,115.752,219.575c0,96.324,138.57,340.901,195.521,437.371
					c5.022,8.5,14.176,13.678,24.035,13.678c9.868,0,18.993-5.227,24.015-13.708c56.98-96.49,195.55-341.018,195.55-437.342
					C554.843,98.307,456.565,0,335.297,0z M335.297,389.419c-93.686,0-169.864-76.207-169.864-169.854
					c-0.01-93.706,76.168-169.913,169.864-169.913c93.667,0,169.884,76.207,169.884,169.913
					C505.161,313.212,428.974,389.419,335.297,389.419z"/>
				<path style="fill:#010002;" d="M334.77,135.483c-45.49,0-82.441,36.951-82.441,82.421c0,45.431,36.941,82.411,82.441,82.411
					c45.402,0,82.372-36.97,82.372-82.411C417.142,172.424,380.172,135.483,334.77,135.483z M334.77,293.134
					c-41.523,0-75.25-33.736-75.25-75.25c0-41.504,33.707-75.24,75.25-75.24c41.494,0,75.191,33.746,75.201,75.24
					C409.961,259.398,376.254,293.134,334.77,293.134z"/>
				<path style="fill:#010002;" d="M450.263,141.589h-18.436v152.6h18.436v-80.672h15.925
					C475.382,173.43,450.263,141.589,450.263,141.589z"/>
			</g>
		</g>
	</g>
</g>
<g>
</g>
<g>
</g>
<g>
</g>
<g>
</g>
<g>
</g>
<g>
</g>
<g>
</g>
<g>
</g>
<g>
</g>
<g>
</g>
<g>
</g>
<g>
</g>
<g>
</g>
<g>
</g>
<g>
</g>
</svg>
