<?xml version="1.0" encoding="UTF-8"?>
<svg xmlns="http://www.w3.org/2000/svg" xmlns:xlink="http://www.w3.org/1999/xlink" width="32pt" height="32pt" viewBox="0 0 32 32" version="1.1">
<g id="surface1">
<path style=" stroke:none;fill-rule:nonzero;fill:rgb(0.392157%,0%,0.784314%);fill-opacity:1;" d="M 15.972656 7.058594 C 14.128906 7.058594 12.632812 8.554688 12.632812 10.398438 C 12.632812 12.242188 14.128906 13.734375 15.972656 13.734375 C 17.816406 13.734375 19.3125 12.242188 19.3125 10.398438 C 19.3125 8.554688 17.816406 7.058594 15.972656 7.058594 Z M 15.972656 7.058594 "/>
<path style=" stroke:none;fill-rule:nonzero;fill:rgb(0.392157%,0%,0.784314%);fill-opacity:1;" d="M 11.296875 8.761719 L 10.863281 8.761719 L 10.828125 6.847656 L 10.53125 6.847656 L 10.484375 8.761719 L 10.117188 8.761719 L 9.964844 6.886719 L 9.652344 6.886719 L 9.652344 8.824219 L 9.65625 8.828125 C 9.675781 9.367188 9.910156 9.480469 10.246094 9.621094 L 10.246094 14.039062 L 11.128906 14.039062 L 11.128906 9.632812 C 11.320312 9.535156 11.703125 9.289062 11.714844 8.828125 L 11.71875 8.828125 L 11.71875 6.886719 L 11.394531 6.886719 Z M 11.296875 8.761719 "/>
<path style=" stroke:none;fill-rule:nonzero;fill:rgb(0.392157%,0%,0.784314%);fill-opacity:1;" d="M 16 0 C 10.210938 0 5.523438 4.691406 5.523438 10.476562 C 5.523438 15.074219 12.136719 26.742188 14.851562 31.347656 C 15.09375 31.753906 15.53125 32 16 32 C 16.46875 32 16.90625 31.75 17.144531 31.347656 C 19.863281 26.742188 26.476562 15.074219 26.476562 10.476562 C 26.476562 4.691406 21.785156 0 16 0 Z M 16 18.582031 C 11.527344 18.582031 7.894531 14.945312 7.894531 10.476562 C 7.894531 6.003906 11.527344 2.371094 16 2.371094 C 20.46875 2.371094 24.105469 6.003906 24.105469 10.476562 C 24.105469 14.945312 20.46875 18.582031 16 18.582031 Z M 16 18.582031 "/>
<path style=" stroke:none;fill-rule:nonzero;fill:rgb(0.392157%,0%,0.784314%);fill-opacity:1;" d="M 15.972656 6.464844 C 13.804688 6.464844 12.039062 8.226562 12.039062 10.398438 C 12.039062 12.566406 13.804688 14.328125 15.972656 14.328125 C 18.140625 14.328125 19.90625 12.566406 19.90625 10.398438 C 19.90625 8.226562 18.140625 6.464844 15.972656 6.464844 Z M 15.972656 13.988281 C 13.992188 13.988281 12.382812 12.378906 12.382812 10.398438 C 12.382812 8.417969 13.992188 6.804688 15.972656 6.804688 C 17.953125 6.804688 19.5625 8.417969 19.5625 10.398438 C 19.5625 12.378906 17.953125 13.988281 15.972656 13.988281 Z M 15.972656 13.988281 "/>
<path style=" stroke:none;fill-rule:nonzero;fill:rgb(0.392157%,0%,0.784314%);fill-opacity:1;" d="M 21.484375 6.757812 L 20.605469 6.757812 L 20.605469 14.039062 L 21.484375 14.039062 L 21.484375 10.1875 L 22.246094 10.1875 C 22.683594 8.277344 21.484375 6.757812 21.484375 6.757812 Z M 21.484375 6.757812 "/>
</g>
</svg>
