<?xml version="1.0" encoding="iso-8859-1"?>
<!-- Generator: Adobe Illustrator 19.1.0, SVG Export Plug-In . SVG Version: 6.00 Build 0)  -->
<svg version="1.1" id="Capa_1" xmlns="http://www.w3.org/2000/svg" xmlns:xlink="http://www.w3.org/1999/xlink" x="0px" y="0px"
	 viewBox="0 0 684.234 684.234" style="enable-background:new 0 0 684.234 684.234;" xml:space="preserve">
<g>
	<g>
		<g>
			<path style="fill:#010002;" d="M342.112,48.753c91.986,0,166.796,74.82,166.796,166.796s-74.81,166.777-166.796,166.777
				c-91.957,0-166.767-74.8-166.767-166.777S250.146,48.753,342.112,48.753 M342.112,0c-119.02,0-215.549,96.5-215.549,215.549
				c0,119.04,215.549,468.685,215.549,468.685s215.559-349.645,215.559-468.685C557.671,96.5,461.132,0,342.112,0z M212.853,238.607
				l43.927,78.337h170.704l43.878-78.337C471.362,238.607,212.853,238.607,212.853,238.607z M350.485,73.657v148.155h96.93
				L350.485,73.657z M329.636,106.876l-75.201,114.936h75.201V106.876z"/>
		</g>
	</g>
</g>
<g>
</g>
<g>
</g>
<g>
</g>
<g>
</g>
<g>
</g>
<g>
</g>
<g>
</g>
<g>
</g>
<g>
</g>
<g>
</g>
<g>
</g>
<g>
</g>
<g>
</g>
<g>
</g>
<g>
</g>
</svg>
