<?xml version="1.0" encoding="UTF-8"?>
<svg xmlns="http://www.w3.org/2000/svg" xmlns:xlink="http://www.w3.org/1999/xlink" width="32pt" height="32pt" viewBox="0 0 32 32" version="1.1">
<g id="surface1">
<path style=" stroke:none;fill-rule:nonzero;fill:rgb(0.392157%,0%,0.784314%);fill-opacity:1;" d="M 16 2.28125 C 20.300781 2.28125 23.800781 5.777344 23.800781 10.082031 C 23.800781 14.382812 20.300781 17.878906 16 17.878906 C 11.699219 17.878906 8.199219 14.382812 8.199219 10.082031 C 8.199219 5.777344 11.699219 2.28125 16 2.28125 M 16 0 C 10.433594 0 5.917969 4.511719 5.917969 10.082031 C 5.917969 15.648438 16 32 16 32 C 16 32 26.082031 15.648438 26.082031 10.082031 C 26.082031 4.511719 21.566406 0 16 0 Z M 9.953125 11.160156 L 12.007812 14.824219 L 19.992188 14.824219 L 22.042969 11.160156 C 22.042969 11.160156 9.953125 11.160156 9.953125 11.160156 Z M 16.390625 3.445312 L 16.390625 10.375 L 20.925781 10.375 Z M 15.417969 5 L 11.898438 10.375 L 15.417969 10.375 Z M 15.417969 5 "/>
</g>
</svg>
