<?xml version="1.0" encoding="iso-8859-1"?>
<!-- Generator: Adobe Illustrator 19.1.0, SVG Export Plug-In . SVG Version: 6.00 Build 0)  -->
<svg version="1.1" id="Capa_1" xmlns="http://www.w3.org/2000/svg" xmlns:xlink="http://www.w3.org/1999/xlink" x="0px" y="0px"
	 viewBox="0 0 626.131 626.131" style="enable-background:new 0 0 626.131 626.131;" xml:space="preserve">
<g>
	<g>
		<g>
			<path style="fill:#010002;" d="M227.327,215.344h5.012v2.55h-2.882l-1.514,8.5h-2.648L227.327,215.344z M254.586,215.344v2.55
				h2.892l1.514,8.5h2.648l-2.042-11.05H254.586L254.586,215.344z M254.029,119.264v174.984c0,10.151-5.696,13.522-10.601,13.522
				c-4.905,0-10.532-3.371-10.532-13.522V119.255c0-13.092,5.628-15.505,10.532-15.505
				C248.333,103.749,254.029,106.172,254.029,119.264z M249.232,230.293L249.232,230.293l-0.01-13.795l-2.491-3.615h-6.644
				l-2.384,3.615v13.795l3.078,8.998h5.374L249.232,230.293z M368.291,290.291V149.708l-2.921,0.948v139.635H368.291
				L368.291,290.291z M389.219,150.636v139.635h2.902V149.698L389.219,150.636z M360.026,125.214
				c-1.866,5.833-1.075,9.565,0.674,13.903c0.801,2.052,0.957,4.563,0.596,6.37c-0.645,3.371-2.579,5.462-2.579,5.462l14.313-4.768
				c-4.064-3.976,0-7.845,0-7.845c-3.801-4.084,0-7.826,0-7.826c-3.683-4.309,0-8.08,0-8.08c-1.602-2.159-1.319-4.651,0.547-8.08
				c1.729-3.322-2.189-2.794-2.189-2.794s-6.36-0.147-11.148,0.127c-1.329,0.088-2.482,0.107-2.931,1.319
				c-0.616,1.788,0.87,2.521,1.641,3.459C359.977,117.613,361.696,120.036,360.026,125.214z M383.865,125.205
				c-1.856,5.833-1.084,9.565,0.684,13.903c0.801,2.052,0.957,4.563,0.596,6.37c-0.674,3.371-2.599,5.462-2.599,5.462l14.313-4.768
				c-4.045-3.976,0-7.836,0-7.836c-3.771-4.084,0-7.826,0-7.826c-3.664-4.309,0-8.08,0-8.08c-1.563-2.159-1.29-4.651,0.537-8.08
				c1.72-3.312-2.14-2.785-2.14-2.785s-6.39-0.147-11.167,0.127c-1.378,0.088-2.462,0.107-2.911,1.319
				c-0.655,1.788,0.84,2.521,1.622,3.459C383.826,117.603,385.545,120.026,383.865,125.205z M380.494,294.971h20.39v-2.951h-20.39
				V294.971z M356.655,294.971h20.381v-2.951h-20.381V294.971z M388.574,309.919h4.24v-13.19h-4.24V309.919z M510.301,197.279
				c0,108.908-197.211,428.852-197.211,428.852S115.83,306.187,115.83,197.279C115.83,88.322,204.152,0,313.1,0
				C422.008,0.01,510.301,88.322,510.301,197.279z M465.69,197.289c0-84.18-68.469-152.63-152.6-152.63
				c-84.17,0-152.63,68.45-152.63,152.63c0,84.141,68.46,152.571,152.63,152.571C397.221,349.86,465.719,281.439,465.69,197.289z
				 M313.227,119.264v174.984c0,10.151-5.667,13.522-10.571,13.522s-10.562-3.371-10.562-13.522V119.255
				c0-13.092,5.647-15.505,10.562-15.505C307.55,103.759,313.207,106.172,313.227,119.264z M308.429,230.293L308.429,230.293
				l-0.01-13.795l-2.53-3.615h-6.624l-2.413,3.615v13.795l3.107,8.998h5.354L308.429,230.293z M284.493,226.394h2.648l1.514-8.5
				h2.902v-2.55h-5.061L284.493,226.394z M313.783,215.344v2.55h2.853l1.534,8.5h2.657l-2.022-11.05H313.783L313.783,215.344z
				 M364.735,309.919h4.24v-13.19h-4.24V309.919z"/>
		</g>
	</g>
</g>
<g>
</g>
<g>
</g>
<g>
</g>
<g>
</g>
<g>
</g>
<g>
</g>
<g>
</g>
<g>
</g>
<g>
</g>
<g>
</g>
<g>
</g>
<g>
</g>
<g>
</g>
<g>
</g>
<g>
</g>
</svg>
