<?xml version="1.0" encoding="UTF-8"?>
<svg xmlns="http://www.w3.org/2000/svg" xmlns:xlink="http://www.w3.org/1999/xlink" width="32pt" height="32pt" viewBox="0 0 32 32" version="1.1">
<g id="surface1">
<path style=" stroke:none;fill-rule:nonzero;fill:rgb(0.392157%,0%,0.784314%);fill-opacity:1;" d="M 11.617188 11.003906 L 11.875 11.003906 L 11.875 11.136719 L 11.726562 11.136719 L 11.648438 11.570312 L 11.515625 11.570312 Z M 13.011719 11.003906 L 13.011719 11.136719 L 13.160156 11.136719 L 13.238281 11.570312 L 13.371094 11.570312 L 13.265625 11.003906 Z M 12.984375 6.09375 L 12.984375 15.039062 C 12.984375 15.558594 12.691406 15.730469 12.441406 15.730469 C 12.191406 15.730469 11.902344 15.558594 11.902344 15.039062 L 11.902344 6.09375 C 11.902344 5.425781 12.191406 5.300781 12.441406 5.300781 C 12.691406 5.300781 12.984375 5.425781 12.984375 6.09375 Z M 12.738281 11.769531 L 12.738281 11.066406 L 12.609375 10.878906 L 12.269531 10.878906 L 12.148438 11.066406 L 12.148438 11.769531 L 12.304688 12.230469 L 12.582031 12.230469 Z M 18.824219 14.835938 L 18.824219 7.652344 L 18.671875 7.699219 L 18.671875 14.835938 Z M 19.890625 7.699219 L 19.890625 14.835938 L 20.039062 14.835938 L 20.039062 7.652344 Z M 18.398438 6.398438 C 18.304688 6.699219 18.34375 6.886719 18.433594 7.109375 C 18.476562 7.214844 18.484375 7.34375 18.464844 7.433594 C 18.433594 7.609375 18.332031 7.714844 18.332031 7.714844 L 19.066406 7.472656 C 18.855469 7.269531 19.066406 7.070312 19.066406 7.070312 C 18.871094 6.859375 19.066406 6.671875 19.066406 6.671875 C 18.875 6.449219 19.066406 6.257812 19.066406 6.257812 C 18.984375 6.148438 18.996094 6.019531 19.09375 5.84375 C 19.179688 5.675781 18.980469 5.703125 18.980469 5.703125 C 18.980469 5.703125 18.65625 5.695312 18.410156 5.707031 C 18.34375 5.710938 18.285156 5.714844 18.261719 5.773438 C 18.230469 5.867188 18.304688 5.902344 18.34375 5.953125 C 18.398438 6.011719 18.484375 6.132812 18.398438 6.398438 Z M 19.617188 6.398438 C 19.523438 6.695312 19.5625 6.886719 19.652344 7.109375 C 19.695312 7.214844 19.703125 7.34375 19.683594 7.433594 C 19.648438 7.605469 19.550781 7.714844 19.550781 7.714844 L 20.28125 7.46875 C 20.074219 7.265625 20.28125 7.070312 20.28125 7.070312 C 20.089844 6.859375 20.28125 6.671875 20.28125 6.671875 C 20.09375 6.449219 20.28125 6.257812 20.28125 6.257812 C 20.203125 6.148438 20.214844 6.019531 20.308594 5.84375 C 20.398438 5.675781 20.199219 5.703125 20.199219 5.703125 C 20.199219 5.703125 19.875 5.695312 19.628906 5.707031 C 19.558594 5.710938 19.503906 5.714844 19.480469 5.777344 C 19.449219 5.867188 19.523438 5.90625 19.5625 5.953125 C 19.617188 6.011719 19.703125 6.132812 19.617188 6.398438 Z M 19.445312 15.074219 L 20.488281 15.074219 L 20.488281 14.925781 L 19.445312 14.925781 Z M 18.226562 15.074219 L 19.269531 15.074219 L 19.269531 14.925781 L 18.226562 14.925781 Z M 19.859375 15.839844 L 20.074219 15.839844 L 20.074219 15.164062 L 19.859375 15.164062 Z M 26.082031 10.082031 C 26.082031 15.648438 16 32 16 32 C 16 32 5.917969 15.648438 5.917969 10.082031 C 5.917969 4.515625 10.433594 0 16 0 C 21.566406 0 26.082031 4.515625 26.082031 10.082031 Z M 23.800781 10.082031 C 23.800781 5.78125 20.300781 2.28125 16 2.28125 C 11.699219 2.28125 8.199219 5.78125 8.199219 10.082031 C 8.199219 14.382812 11.699219 17.878906 16 17.878906 C 20.300781 17.878906 23.800781 14.382812 23.800781 10.082031 Z M 16.007812 6.09375 L 16.007812 15.039062 C 16.007812 15.558594 15.71875 15.730469 15.46875 15.730469 C 15.21875 15.730469 14.929688 15.558594 14.929688 15.039062 L 14.929688 6.09375 C 14.929688 5.425781 15.21875 5.300781 15.46875 5.300781 C 15.71875 5.304688 16.007812 5.425781 16.007812 6.09375 Z M 15.761719 11.769531 L 15.761719 11.066406 L 15.632812 10.878906 L 15.292969 10.878906 L 15.171875 11.066406 L 15.171875 11.769531 L 15.332031 12.230469 L 15.605469 12.230469 Z M 14.539062 11.570312 L 14.675781 11.570312 L 14.753906 11.136719 L 14.902344 11.136719 L 14.902344 11.003906 L 14.640625 11.003906 Z M 16.035156 11.003906 L 16.035156 11.136719 L 16.183594 11.136719 L 16.261719 11.570312 L 16.398438 11.570312 L 16.292969 11.003906 Z M 18.640625 15.839844 L 18.855469 15.839844 L 18.855469 15.164062 L 18.640625 15.164062 Z M 18.640625 15.839844 "/>
</g>
</svg>
