<?xml version="1.0" encoding="iso-8859-1"?>
<!-- Generator: Adobe Illustrator 19.1.0, SVG Export Plug-In . SVG Version: 6.00 Build 0)  -->
<svg version="1.1" id="Capa_1" xmlns="http://www.w3.org/2000/svg" xmlns:xlink="http://www.w3.org/1999/xlink" x="0px" y="0px"
	 viewBox="0 0 684.263 684.263" style="enable-background:new 0 0 684.263 684.263;" xml:space="preserve">
<g>
	<g>
		<g>
			<path style="fill:#010002;" d="M342.132,0C223.141,0,126.582,96.5,126.582,215.54c0,119.079,215.549,468.724,215.549,468.724
				S557.681,334.618,557.681,215.54C557.691,96.5,461.191,0,342.132,0z M342.132,382.336c-47.239,0-89.856-19.824-120.232-51.518
				c12.32-2.745,24.357-9.926,35.964-21.563c14.714-14.694,30.248-22.002,46.213-21.387c24.044,0.743,41.592,18.915,43.594,21.064
				c2.794,3.263,23.869,24.846,33.844,25.471c2.022,0.303,4.094,0.479,6.175,0.479c15.251-0.039,31.538-8.588,48.567-25.627
				c18.114-18.094,35.016-26.086,50.277-23.722c2.169,0.362,4.133,0.899,6.057,1.602
				C465.734,343.294,408.491,382.336,342.132,382.336z M494.829,282.446c-2.325-0.86-4.817-1.524-7.474-1.944
				c-16.971-2.687-35.417,5.784-54.723,25.109c-18.124,18.114-35.055,26.106-50.297,23.741
				c-9.672-1.866-30.288-23.048-30.288-23.048l-0.352-0.557c-0.801-0.899-19.745-22.1-47.385-22.999
				c-17.41-0.557-34.323,7.132-50.092,22.862c-11.841,11.851-24.074,18.759-36.394,20.762c-6.185-6.976-11.802-14.391-16.785-22.276
				l4.397,0.801l2.364,0.225c17.303,0.86,34.059-6.829,50.053-22.862c14.714-14.694,30.248-22.002,46.213-21.406
				c24.044,0.762,43.594,21.084,43.594,21.084s13.033,15.417,25.725,23.282c2.54,0.938,5.207,1.7,8.119,2.179l0.567,0.059
				c1.856,0.264,3.732,0.401,5.608,0.401c12.349,0,25.461-5.764,39.081-17c3.117-2.599,6.282-5.403,9.487-8.588
				c18.114-18.114,35.016-26.067,50.277-23.702c5.852,0.899,10.816,3.263,15.017,6.185
				C499.666,270.78,497.37,276.681,494.829,282.446z M487.365,253.506c-16.971-2.648-35.417,5.784-54.723,25.129
				c-4.074,4.064-8.285,7.787-12.008,10.552c-3.722,2.784-5.862-1.563-5.862-1.563l-0.195,0.059l0.176-0.098l-40.019-70.091
				l-8.06-14.177l-28.421-49.789c-3.996-7.064-12.945-9.487-20-5.491c-7.044,4.025-9.458,12.994-5.491,20l31.499,55.153l-8.06,7.122
				l-48.04,27.425l-29.506,16.814c0,0-34.088,22.784-43.819,24.982c-4.69,0.596-4.69,0.596-6.741,0.498
				c-3.644-0.156-7.318-0.997-10.825-2.159c-13.883-24.308-21.924-52.378-21.924-82.323c0-91.957,74.82-166.796,166.777-166.796
				c91.967,0,166.826,74.839,166.826,166.777c0,15.232-2.237,29.916-6.067,43.907C498.493,256.672,493.335,254.454,487.365,253.506z
				 M455.524,210.625c8.686,15.193,3.4,34.538-11.783,43.223c-15.163,8.608-34.528,3.361-43.174-11.832
				c-8.666-15.154-3.371-34.498,11.802-43.184C427.572,190.166,446.887,195.491,455.524,210.625z"/>
		</g>
	</g>
</g>
<g>
</g>
<g>
</g>
<g>
</g>
<g>
</g>
<g>
</g>
<g>
</g>
<g>
</g>
<g>
</g>
<g>
</g>
<g>
</g>
<g>
</g>
<g>
</g>
<g>
</g>
<g>
</g>
<g>
</g>
</svg>
