<?xml version="1.0" encoding="iso-8859-1"?>
<!-- Generator: Adobe Illustrator 19.1.0, SVG Export Plug-In . SVG Version: 6.00 Build 0)  -->
<svg version="1.1" id="Capa_1" xmlns="http://www.w3.org/2000/svg" xmlns:xlink="http://www.w3.org/1999/xlink" x="0px" y="0px"
	 viewBox="0 0 684.234 684.234" style="enable-background:new 0 0 684.234 684.234;" xml:space="preserve">
<g>
	<g>
		<g>
			<path style="fill:#010002;" d="M442.403,299.827c3.029,3.586,2.863,9.155-1.075,12.467v0.039l-18.944,12.31
				c-12.193,8.344-64.043,17.44-134.105-68.274c-67.512-82.587-47.776-128.087-38.612-138.521l15.769-16.238
				c3.683-3.097,9.272-2.697,12.418,1.124l40.986,49.007c3.019,3.625,2.872,9.164-1.065,12.516v0.039l-18.387,13.092
				c-7.289,7.142-1.045,18.456,6.341,29.389l34.948,41.719c16.248,15.896,25.207,23.224,33.052,18.055l15.261-16.893
				c3.742-3.097,9.291-2.716,12.418,1.124l40.996,48.988V299.827L442.403,299.827z M557.671,215.549
				c0,119.02-215.559,468.685-215.559,468.685S126.563,334.569,126.563,215.549C126.563,96.48,223.102,0,342.112,0
				C461.171,0,557.671,96.48,557.671,215.549z M508.889,215.549c0-91.957-74.81-166.816-166.777-166.816
				s-166.777,74.859-166.777,166.816s74.81,166.757,166.777,166.757S508.889,307.506,508.889,215.549z"/>
		</g>
	</g>
</g>
<g>
</g>
<g>
</g>
<g>
</g>
<g>
</g>
<g>
</g>
<g>
</g>
<g>
</g>
<g>
</g>
<g>
</g>
<g>
</g>
<g>
</g>
<g>
</g>
<g>
</g>
<g>
</g>
<g>
</g>
</svg>
