<?xml version="1.0" encoding="iso-8859-1"?>
<!-- Generator: Adobe Illustrator 19.1.0, SVG Export Plug-In . SVG Version: 6.00 Build 0)  -->
<svg version="1.1" id="Capa_1" xmlns="http://www.w3.org/2000/svg" xmlns:xlink="http://www.w3.org/1999/xlink" x="0px" y="0px"
	 viewBox="0 0 624.138 624.138" style="enable-background:new 0 0 624.138 624.138;" xml:space="preserve">
<g>
	<g>
		<g>
			<g>
				<path style="fill:#010002;" d="M312.069,0C203.473,0,115.444,88.029,115.444,196.576c0,108.625,196.625,427.562,196.625,427.562
					S508.693,305.2,508.693,196.576C508.703,88.029,420.693,0,312.069,0z M312.069,348.726
					c-83.857,0-152.121-68.225-152.121-152.161c0-83.877,68.264-152.112,152.121-152.112c83.906,0,152.141,68.235,152.141,152.112
					C464.21,280.492,395.975,348.726,312.069,348.726z"/>
				<path style="fill:#010002;" d="M315.791,106.251h-7.474c-37.078,0-67.18,2.101-67.18,39.198v57.878
					c0,38.407,2.931,55.573,9.858,62.969l-3.195,56.247l10.952,0.616l2.501-44.024h1.778l-3.224,43.702h104.99l-2.061-43.702h0.186
					l2.521,44.024l10.913-0.616l-3.332-58.855c6.653-8.549,9.995-25.871,9.995-60.35v-57.888
					C383.02,108.351,352.928,106.251,315.791,106.251z M289.197,230.42h-29.389v-13.551h29.389V230.42z M364.359,230.42h-29.428
					v-13.551h29.428V230.42z M364.808,197.729H256.613v-61.308h108.195V197.729z"/>
				<path style="fill:#010002;" d="M300.042,93.354h-7.22v8.637h39.286v-8.637h-6.751V61.347h14.118v-4.162h-54.762v4.162h15.329
					L300.042,93.354z M301.087,61.347h23.214v32.007h-23.214C301.087,93.354,301.087,61.347,301.087,61.347z"/>
			</g>
		</g>
	</g>
</g>
<g>
</g>
<g>
</g>
<g>
</g>
<g>
</g>
<g>
</g>
<g>
</g>
<g>
</g>
<g>
</g>
<g>
</g>
<g>
</g>
<g>
</g>
<g>
</g>
<g>
</g>
<g>
</g>
<g>
</g>
</svg>
