<?xml version="1.0" encoding="iso-8859-1"?>
<!-- Generator: Adobe Illustrator 19.1.0, SVG Export Plug-In . SVG Version: 6.00 Build 0)  -->
<svg version="1.1" id="Capa_1" xmlns="http://www.w3.org/2000/svg" xmlns:xlink="http://www.w3.org/1999/xlink" x="0px" y="0px"
	 viewBox="0 0 640.962 640.962" style="enable-background:new 0 0 640.962 640.962;" xml:space="preserve">
<g>
	<g>
		<g>
			<path style="fill:#010002;" d="M443.79,240.268v34.156c0,0-7.64-5.383-16.932,8.989l3.205-43.155
				C430.063,240.258,433.913,244.078,443.79,240.268z M443.859,231.103c0,4.182-3.39,7.591-7.591,7.591s-7.611-3.41-7.611-7.591
				c0-3.175,1.944-5.95,4.709-7.074V199.35l-25.324,15.583v21.436l-0.508-0.215c0.586,0.821,1.036,1.671,1.036,2.55
				c0,9.751-39.462,17.664-88.078,17.664c-48.607,0-88-7.924-88-17.664c0-0.87,0.401-1.729,1.016-2.55l-0.528,0.215v-21.416
				l-58.005-33.697l145.517-77.722l145.546,77.722l-26.887,14.87v27.904C441.895,225.153,443.839,227.918,443.859,231.103z
				 M320.481,176.215c16.062,0,29.203,1.231,40.087,3.117l-40.087-11.861c-68.723,0-85.606,25.354-85.606,25.354v5.882
				C240.659,192.492,261.498,176.215,320.481,176.215z M398.613,238.705c0-6.058-34.987-10.991-78.142-10.991
				s-78.103,4.934-78.103,10.991c0,5.999,34.948,10.952,78.103,10.952S398.623,244.704,398.613,238.705z M406.136,192.814
				l-15.456-4.572c8.432,3.976,13.151,8.002,15.456,10.454V192.814z M522.401,201.91c0,111.526-201.891,439.052-201.891,439.052
				S118.561,313.437,118.561,201.91C118.561,90.433,208.984,0,320.5,0C432.007,0,522.401,90.433,522.401,201.91z M476.725,201.91
				c0-86.114-70.101-156.225-156.215-156.225c-86.173,0-156.254,70.101-156.254,156.225c0,86.153,70.081,156.225,156.254,156.225
				C406.605,358.135,476.725,288.064,476.725,201.91z"/>
		</g>
	</g>
</g>
<g>
</g>
<g>
</g>
<g>
</g>
<g>
</g>
<g>
</g>
<g>
</g>
<g>
</g>
<g>
</g>
<g>
</g>
<g>
</g>
<g>
</g>
<g>
</g>
<g>
</g>
<g>
</g>
<g>
</g>
</svg>
