<?xml version="1.0" encoding="UTF-8"?>
<svg xmlns="http://www.w3.org/2000/svg" xmlns:xlink="http://www.w3.org/1999/xlink" width="32pt" height="32pt" viewBox="0 0 32 32" version="1.1">
<g id="surface1">
<path style=" stroke:none;fill-rule:nonzero;fill:rgb(0.392157%,0%,0.784314%);fill-opacity:1;" d="M 15.328125 7.320312 L 16.679688 7.320312 L 16.492188 11.195312 L 15.515625 11.195312 Z M 16.003906 11.621094 C 15.550781 11.621094 15.234375 11.9375 15.234375 12.402344 C 15.234375 12.84375 15.542969 13.175781 15.988281 13.175781 L 16.003906 13.175781 C 16.464844 13.175781 16.765625 12.84375 16.765625 12.402344 C 16.757812 11.9375 16.457031 11.621094 16.003906 11.621094 Z M 26.082031 10.082031 C 26.082031 15.648438 16 32 16 32 C 16 32 5.917969 15.648438 5.917969 10.082031 C 5.917969 4.515625 10.433594 0 16 0 C 21.566406 0 26.082031 4.515625 26.082031 10.082031 Z M 23.796875 10.082031 C 23.796875 5.78125 20.300781 2.28125 16 2.28125 C 11.699219 2.28125 8.199219 5.78125 8.199219 10.082031 C 8.199219 14.378906 11.699219 17.882812 16 17.882812 C 20.300781 17.882812 23.796875 14.378906 23.796875 10.082031 Z M 21.957031 14.460938 C 21.816406 14.695312 21.566406 14.835938 21.292969 14.835938 L 10.707031 14.835938 C 10.425781 14.835938 10.167969 14.6875 10.03125 14.441406 C 9.894531 14.199219 9.898438 13.902344 10.042969 13.664062 L 15.351562 4.238281 C 15.492188 4.003906 15.746094 3.859375 16.019531 3.859375 L 16.039062 3.863281 C 16.320312 3.867188 16.574219 4.027344 16.703125 4.277344 L 21.980469 13.699219 C 22.105469 13.941406 22.097656 14.230469 21.957031 14.460938 Z M 21.292969 14.0625 L 16.019531 4.636719 L 10.707031 14.0625 C 10.707031 14.0625 21.292969 14.0625 21.292969 14.0625 Z M 21.292969 14.0625 "/>
</g>
</svg>
