<?xml version="1.0" encoding="UTF-8" standalone="no"?>
<!-- Generator: Adobe Illustrator 19.1.0, SVG Export Plug-In . SVG Version: 6.00 Build 0)  -->

<svg
   xmlns:dc="http://purl.org/dc/elements/1.1/"
   xmlns:cc="http://creativecommons.org/ns#"
   xmlns:rdf="http://www.w3.org/1999/02/22-rdf-syntax-ns#"
   xmlns:svg="http://www.w3.org/2000/svg"
   xmlns="http://www.w3.org/2000/svg"
   xmlns:sodipodi="http://sodipodi.sourceforge.net/DTD/sodipodi-0.dtd"
   xmlns:inkscape="http://www.inkscape.org/namespaces/inkscape"
   version="1.1"
   id="Capa_1"
   x="0px"
   y="0px"
   viewBox="0 0 31.999999 50.786291"
   xml:space="preserve"
   inkscape:version="0.91 r13725"
   sodipodi:docname="warning.svg"
   width="31.999998"
   height="50.786289"><metadata
     id="metadata45"><rdf:RDF><cc:Work
         rdf:about=""><dc:format>image/svg+xml</dc:format><dc:type
           rdf:resource="http://purl.org/dc/dcmitype/StillImage" /><dc:title></dc:title></cc:Work></rdf:RDF></metadata><defs
     id="defs43" /><sodipodi:namedview
     pagecolor="#ffffff"
     bordercolor="#666666"
     borderopacity="1"
     objecttolerance="10"
     gridtolerance="10"
     guidetolerance="10"
     inkscape:pageopacity="0"
     inkscape:pageshadow="2"
     inkscape:window-width="1366"
     inkscape:window-height="712"
     id="namedview41"
     showgrid="false"
     fit-margin-top="0"
     fit-margin-left="0"
     fit-margin-right="0"
     fit-margin-bottom="0"
     inkscape:zoom="0.36821897"
     inkscape:cx="201.92049"
     inkscape:cy="320.46151"
     inkscape:window-x="0"
     inkscape:window-y="0"
     inkscape:window-maximized="1"
     inkscape:current-layer="Capa_1" /><g
     id="g3"
     transform="matrix(0.0792393,0,0,0.0792393,-9.3931059,0)"><g
       id="g5"><g
         id="g7"><path
           style="fill:#010002"
           d="m 307.008,146.65 27.073,0 -3.742,77.604 -19.55,0 -3.781,-77.604 z m 13.522,86.114 c -9.057,0 -15.378,6.36 -15.378,15.603 0,8.871 6.136,15.535 15.066,15.535 l 0.303,0 c 9.272,0 15.261,-6.673 15.261,-15.535 -0.157,-9.242 -6.146,-15.603 -15.252,-15.603 z M 522.381,201.92 c 0,111.517 -201.92,439.003 -201.92,439.003 0,0 -201.92,-327.476 -201.92,-439.003 C 118.541,90.433 208.954,0 320.461,0 c 111.488,0.01 201.92,90.433 201.92,201.92 z m -45.744,0 c 0,-86.153 -70.052,-156.215 -156.176,-156.215 -86.144,0 -156.235,70.062 -156.235,156.215 0,86.095 70.091,156.235 156.235,156.235 86.124,0 156.176,-70.131 156.176,-156.235 z m -36.872,87.726 c -2.804,4.66 -7.845,7.484 -13.268,7.484 l -212.061,0 c -5.598,0 -10.767,-2.98 -13.502,-7.865 -2.755,-4.856 -2.697,-10.816 0.176,-15.603 L 307.488,84.912 c 2.814,-4.719 7.875,-7.582 13.356,-7.582 l 0.371,0.02 c 5.628,0.098 10.747,3.322 13.336,8.295 l 105.694,188.769 c 2.529,4.798 2.324,10.591 -0.48,15.232 z M 426.507,281.625 320.833,92.856 214.436,281.625 c 0,0 212.071,0 212.071,0 z"
           id="path9"
           inkscape:connector-curvature="0" /></g></g></g><g
     id="g11"
     transform="translate(-118.541,-590.13671)" /><g
     id="g13"
     transform="translate(-118.541,-590.13671)" /><g
     id="g15"
     transform="translate(-118.541,-590.13671)" /><g
     id="g17"
     transform="translate(-118.541,-590.13671)" /><g
     id="g19"
     transform="translate(-118.541,-590.13671)" /><g
     id="g21"
     transform="translate(-118.541,-590.13671)" /><g
     id="g23"
     transform="translate(-118.541,-590.13671)" /><g
     id="g25"
     transform="translate(-118.541,-590.13671)" /><g
     id="g27"
     transform="translate(-118.541,-590.13671)" /><g
     id="g29"
     transform="translate(-118.541,-590.13671)" /><g
     id="g31"
     transform="translate(-118.541,-590.13671)" /><g
     id="g33"
     transform="translate(-118.541,-590.13671)" /><g
     id="g35"
     transform="translate(-118.541,-590.13671)" /><g
     id="g37"
     transform="translate(-118.541,-590.13671)" /><g
     id="g39"
     transform="translate(-118.541,-590.13671)" /></svg>