<?xml version="1.0" encoding="UTF-8" standalone="no"?>
<!-- Generator: Adobe Illustrator 19.1.0, SVG Export Plug-In . SVG Version: 6.00 Build 0)  -->

<svg
   xmlns:dc="http://purl.org/dc/elements/1.1/"
   xmlns:cc="http://creativecommons.org/ns#"
   xmlns:rdf="http://www.w3.org/1999/02/22-rdf-syntax-ns#"
   xmlns:svg="http://www.w3.org/2000/svg"
   xmlns="http://www.w3.org/2000/svg"
   xmlns:sodipodi="http://sodipodi.sourceforge.net/DTD/sodipodi-0.dtd"
   xmlns:inkscape="http://www.inkscape.org/namespaces/inkscape"
   version="1.1"
   id="Capa_1"
   x="0px"
   y="0px"
   viewBox="0 0 32.000001 50.788774"
   xml:space="preserve"
   inkscape:version="0.91 r13725"
   sodipodi:docname="wifi8.svg"
   width="32"
   height="50.788773"><metadata
     id="metadata45"><rdf:RDF><cc:Work
         rdf:about=""><dc:format>image/svg+xml</dc:format><dc:type
           rdf:resource="http://purl.org/dc/dcmitype/StillImage" /><dc:title></dc:title></cc:Work></rdf:RDF></metadata><defs
     id="defs43" /><sodipodi:namedview
     pagecolor="#ffffff"
     bordercolor="#666666"
     borderopacity="1"
     objecttolerance="10"
     gridtolerance="10"
     guidetolerance="10"
     inkscape:pageopacity="0"
     inkscape:pageshadow="2"
     inkscape:window-width="1366"
     inkscape:window-height="712"
     id="namedview41"
     showgrid="false"
     fit-margin-top="0"
     fit-margin-left="0"
     fit-margin-right="0"
     fit-margin-bottom="0"
     inkscape:zoom="0.38048009"
     inkscape:cx="195.40349"
     inkscape:cy="310.13451"
     inkscape:window-x="0"
     inkscape:window-y="0"
     inkscape:window-maximized="1"
     inkscape:current-layer="Capa_1" /><g
     id="g3"
     transform="matrix(0.08188185,0,0,0.08188185,-9.3943865,0)"><g
       id="g5"><g
         id="g7"><path
           style="fill:#010002"
           d="m 363.382,236.643 -13.502,13.229 c -9.809,-11.177 -23.956,-18.524 -39.979,-19.257 -16.824,-0.791 -32.29,5.882 -43.243,17.127 l -13.229,-13.424 c 14.597,-14.772 35.046,-23.595 57.37,-22.54 20.908,0.987 39.5,10.415 52.583,24.865 z m -137.183,-30.072 14.821,15.085 c 17.977,-18.075 43.165,-28.929 70.57,-27.64 25.647,1.192 48.333,12.633 64.473,30.151 l 15.046,-14.841 c -19.726,-21.162 -47.356,-34.997 -78.542,-36.482 -33.551,-1.544 -64.346,11.617 -86.368,33.727 z m 82.226,37.966 c -14.274,0 -25.852,11.558 -25.852,25.823 0,14.284 11.578,25.862 25.852,25.862 14.255,0 25.813,-11.578 25.813,-25.862 0.009,-14.264 -11.549,-25.823 -25.813,-25.823 z m -108.918,-65.069 15.71,15.955 c 25.1,-24.894 60.047,-39.765 98.063,-38.006 35.202,1.651 66.496,17.176 88.967,40.976 l 15.974,-15.681 c -26.301,-27.708 -62.783,-45.773 -103.867,-47.698 -44.531,-2.023 -85.42,15.329 -114.847,44.454 z m 306.031,15.945 c 0,107.931 -195.403,424.856 -195.403,424.856 0,0 -195.404,-316.935 -195.404,-424.856 C 114.731,87.511 202.223,0 310.134,0 418.045,0 505.538,87.511 505.538,195.413 Z m -44.21,0 c 0,-83.379 -67.854,-151.184 -151.193,-151.184 -83.359,0 -151.203,67.805 -151.203,151.184 0,83.32 67.844,151.203 151.203,151.203 83.329,0 151.193,-67.883 151.193,-151.203 z M 317.12,97.233 c -54.752,-2.56 -105.205,18.632 -141.404,54.43 l 15.339,15.574 c 31.988,-31.675 76.588,-50.404 125.009,-48.147 44.62,2.032 84.287,21.573 112.884,51.655 l 15.574,-15.378 C 412.184,121.57 367.397,99.578 317.12,97.233 Z"
           id="path9"
           inkscape:connector-curvature="0" /></g></g></g><g
     id="g11"
     transform="translate(-114.731,-569.48023)" /><g
     id="g13"
     transform="translate(-114.731,-569.48023)" /><g
     id="g15"
     transform="translate(-114.731,-569.48023)" /><g
     id="g17"
     transform="translate(-114.731,-569.48023)" /><g
     id="g19"
     transform="translate(-114.731,-569.48023)" /><g
     id="g21"
     transform="translate(-114.731,-569.48023)" /><g
     id="g23"
     transform="translate(-114.731,-569.48023)" /><g
     id="g25"
     transform="translate(-114.731,-569.48023)" /><g
     id="g27"
     transform="translate(-114.731,-569.48023)" /><g
     id="g29"
     transform="translate(-114.731,-569.48023)" /><g
     id="g31"
     transform="translate(-114.731,-569.48023)" /><g
     id="g33"
     transform="translate(-114.731,-569.48023)" /><g
     id="g35"
     transform="translate(-114.731,-569.48023)" /><g
     id="g37"
     transform="translate(-114.731,-569.48023)" /><g
     id="g39"
     transform="translate(-114.731,-569.48023)" /></svg>